<?xml version="1.0" encoding="utf-8" standalone="no"?>
<!DOCTYPE svg PUBLIC "-//W3C//DTD SVG 1.1//EN"
  "http://www.w3.org/Graphics/SVG/1.1/DTD/svg11.dtd">
<svg xmlns:xlink="http://www.w3.org/1999/xlink" width="708.229688pt" height="285.79625pt" viewBox="0 0 708.229688 285.79625" xmlns="http://www.w3.org/2000/svg" version="1.1">
 <metadata>
  <rdf:RDF xmlns:dc="http://purl.org/dc/elements/1.1/" xmlns:cc="http://creativecommons.org/ns#" xmlns:rdf="http://www.w3.org/1999/02/22-rdf-syntax-ns#">
   <cc:Work>
    <dc:type rdf:resource="http://purl.org/dc/dcmitype/StillImage"/>
    <dc:date>2024-11-10T18:54:11.532542</dc:date>
    <dc:format>image/svg+xml</dc:format>
    <dc:creator>
     <cc:Agent>
      <dc:title>Matplotlib v3.9.2, https://matplotlib.org/</dc:title>
     </cc:Agent>
    </dc:creator>
   </cc:Work>
  </rdf:RDF>
 </metadata>
 <defs>
  <style type="text/css">*{stroke-linejoin: round; stroke-linecap: butt}</style>
 </defs>
 <g id="figure_1">
  <g id="patch_1">
   <path d="M 0 285.79625 
L 708.229688 285.79625 
L 708.229688 0 
L 0 0 
z
" style="fill: #ffffff"/>
  </g>
  <g id="axes_1">
   <g id="patch_2">
    <path d="M 42.620313 248.24 
L 551.820312 248.24 
L 551.820312 29.08 
L 42.620313 29.08 
z
" style="fill: #ffffff"/>
   </g>
   <g id="matplotlib.axis_1">
    <g id="xtick_1">
     <g id="line2d_1">
      <defs>
       <path id="m95f5b4db0a" d="M 0 0 
L 0 3.5 
" style="stroke: #000000; stroke-width: 0.8"/>
      </defs>
      <g>
       <use xlink:href="#m95f5b4db0a" x="42.620313" y="248.24" style="stroke: #000000; stroke-width: 0.8"/>
      </g>
     </g>
     <g id="text_1">
      <!-- 0 -->
      <g transform="translate(39.439063 262.838437) scale(0.1 -0.1)">
       <defs>
        <path id="DejaVuSans-30" d="M 2034 4250 
Q 1547 4250 1301 3770 
Q 1056 3291 1056 2328 
Q 1056 1369 1301 889 
Q 1547 409 2034 409 
Q 2525 409 2770 889 
Q 3016 1369 3016 2328 
Q 3016 3291 2770 3770 
Q 2525 4250 2034 4250 
z
M 2034 4750 
Q 2819 4750 3233 4129 
Q 3647 3509 3647 2328 
Q 3647 1150 3233 529 
Q 2819 -91 2034 -91 
Q 1250 -91 836 529 
Q 422 1150 422 2328 
Q 422 3509 836 4129 
Q 1250 4750 2034 4750 
z
" transform="scale(0.015625)"/>
       </defs>
       <use xlink:href="#DejaVuSans-30"/>
      </g>
     </g>
    </g>
    <g id="xtick_2">
     <g id="line2d_2">
      <g>
       <use xlink:href="#m95f5b4db0a" x="115.36317" y="248.24" style="stroke: #000000; stroke-width: 0.8"/>
      </g>
     </g>
     <g id="text_2">
      <!-- 100 -->
      <g transform="translate(105.81942 262.838437) scale(0.1 -0.1)">
       <defs>
        <path id="DejaVuSans-31" d="M 794 531 
L 1825 531 
L 1825 4091 
L 703 3866 
L 703 4441 
L 1819 4666 
L 2450 4666 
L 2450 531 
L 3481 531 
L 3481 0 
L 794 0 
L 794 531 
z
" transform="scale(0.015625)"/>
       </defs>
       <use xlink:href="#DejaVuSans-31"/>
       <use xlink:href="#DejaVuSans-30" x="63.623047"/>
       <use xlink:href="#DejaVuSans-30" x="127.246094"/>
      </g>
     </g>
    </g>
    <g id="xtick_3">
     <g id="line2d_3">
      <g>
       <use xlink:href="#m95f5b4db0a" x="188.106027" y="248.24" style="stroke: #000000; stroke-width: 0.8"/>
      </g>
     </g>
     <g id="text_3">
      <!-- 200 -->
      <g transform="translate(178.562277 262.838437) scale(0.1 -0.1)">
       <defs>
        <path id="DejaVuSans-32" d="M 1228 531 
L 3431 531 
L 3431 0 
L 469 0 
L 469 531 
Q 828 903 1448 1529 
Q 2069 2156 2228 2338 
Q 2531 2678 2651 2914 
Q 2772 3150 2772 3378 
Q 2772 3750 2511 3984 
Q 2250 4219 1831 4219 
Q 1534 4219 1204 4116 
Q 875 4013 500 3803 
L 500 4441 
Q 881 4594 1212 4672 
Q 1544 4750 1819 4750 
Q 2544 4750 2975 4387 
Q 3406 4025 3406 3419 
Q 3406 3131 3298 2873 
Q 3191 2616 2906 2266 
Q 2828 2175 2409 1742 
Q 1991 1309 1228 531 
z
" transform="scale(0.015625)"/>
       </defs>
       <use xlink:href="#DejaVuSans-32"/>
       <use xlink:href="#DejaVuSans-30" x="63.623047"/>
       <use xlink:href="#DejaVuSans-30" x="127.246094"/>
      </g>
     </g>
    </g>
    <g id="xtick_4">
     <g id="line2d_4">
      <g>
       <use xlink:href="#m95f5b4db0a" x="260.848884" y="248.24" style="stroke: #000000; stroke-width: 0.8"/>
      </g>
     </g>
     <g id="text_4">
      <!-- 300 -->
      <g transform="translate(251.305134 262.838437) scale(0.1 -0.1)">
       <defs>
        <path id="DejaVuSans-33" d="M 2597 2516 
Q 3050 2419 3304 2112 
Q 3559 1806 3559 1356 
Q 3559 666 3084 287 
Q 2609 -91 1734 -91 
Q 1441 -91 1130 -33 
Q 819 25 488 141 
L 488 750 
Q 750 597 1062 519 
Q 1375 441 1716 441 
Q 2309 441 2620 675 
Q 2931 909 2931 1356 
Q 2931 1769 2642 2001 
Q 2353 2234 1838 2234 
L 1294 2234 
L 1294 2753 
L 1863 2753 
Q 2328 2753 2575 2939 
Q 2822 3125 2822 3475 
Q 2822 3834 2567 4026 
Q 2313 4219 1838 4219 
Q 1578 4219 1281 4162 
Q 984 4106 628 3988 
L 628 4550 
Q 988 4650 1302 4700 
Q 1616 4750 1894 4750 
Q 2613 4750 3031 4423 
Q 3450 4097 3450 3541 
Q 3450 3153 3228 2886 
Q 3006 2619 2597 2516 
z
" transform="scale(0.015625)"/>
       </defs>
       <use xlink:href="#DejaVuSans-33"/>
       <use xlink:href="#DejaVuSans-30" x="63.623047"/>
       <use xlink:href="#DejaVuSans-30" x="127.246094"/>
      </g>
     </g>
    </g>
    <g id="xtick_5">
     <g id="line2d_5">
      <g>
       <use xlink:href="#m95f5b4db0a" x="333.591741" y="248.24" style="stroke: #000000; stroke-width: 0.8"/>
      </g>
     </g>
     <g id="text_5">
      <!-- 400 -->
      <g transform="translate(324.047991 262.838437) scale(0.1 -0.1)">
       <defs>
        <path id="DejaVuSans-34" d="M 2419 4116 
L 825 1625 
L 2419 1625 
L 2419 4116 
z
M 2253 4666 
L 3047 4666 
L 3047 1625 
L 3713 1625 
L 3713 1100 
L 3047 1100 
L 3047 0 
L 2419 0 
L 2419 1100 
L 313 1100 
L 313 1709 
L 2253 4666 
z
" transform="scale(0.015625)"/>
       </defs>
       <use xlink:href="#DejaVuSans-34"/>
       <use xlink:href="#DejaVuSans-30" x="63.623047"/>
       <use xlink:href="#DejaVuSans-30" x="127.246094"/>
      </g>
     </g>
    </g>
    <g id="xtick_6">
     <g id="line2d_6">
      <g>
       <use xlink:href="#m95f5b4db0a" x="406.334598" y="248.24" style="stroke: #000000; stroke-width: 0.8"/>
      </g>
     </g>
     <g id="text_6">
      <!-- 500 -->
      <g transform="translate(396.790848 262.838437) scale(0.1 -0.1)">
       <defs>
        <path id="DejaVuSans-35" d="M 691 4666 
L 3169 4666 
L 3169 4134 
L 1269 4134 
L 1269 2991 
Q 1406 3038 1543 3061 
Q 1681 3084 1819 3084 
Q 2600 3084 3056 2656 
Q 3513 2228 3513 1497 
Q 3513 744 3044 326 
Q 2575 -91 1722 -91 
Q 1428 -91 1123 -41 
Q 819 9 494 109 
L 494 744 
Q 775 591 1075 516 
Q 1375 441 1709 441 
Q 2250 441 2565 725 
Q 2881 1009 2881 1497 
Q 2881 1984 2565 2268 
Q 2250 2553 1709 2553 
Q 1456 2553 1204 2497 
Q 953 2441 691 2322 
L 691 4666 
z
" transform="scale(0.015625)"/>
       </defs>
       <use xlink:href="#DejaVuSans-35"/>
       <use xlink:href="#DejaVuSans-30" x="63.623047"/>
       <use xlink:href="#DejaVuSans-30" x="127.246094"/>
      </g>
     </g>
    </g>
    <g id="xtick_7">
     <g id="line2d_7">
      <g>
       <use xlink:href="#m95f5b4db0a" x="479.077455" y="248.24" style="stroke: #000000; stroke-width: 0.8"/>
      </g>
     </g>
     <g id="text_7">
      <!-- 600 -->
      <g transform="translate(469.533705 262.838437) scale(0.1 -0.1)">
       <defs>
        <path id="DejaVuSans-36" d="M 2113 2584 
Q 1688 2584 1439 2293 
Q 1191 2003 1191 1497 
Q 1191 994 1439 701 
Q 1688 409 2113 409 
Q 2538 409 2786 701 
Q 3034 994 3034 1497 
Q 3034 2003 2786 2293 
Q 2538 2584 2113 2584 
z
M 3366 4563 
L 3366 3988 
Q 3128 4100 2886 4159 
Q 2644 4219 2406 4219 
Q 1781 4219 1451 3797 
Q 1122 3375 1075 2522 
Q 1259 2794 1537 2939 
Q 1816 3084 2150 3084 
Q 2853 3084 3261 2657 
Q 3669 2231 3669 1497 
Q 3669 778 3244 343 
Q 2819 -91 2113 -91 
Q 1303 -91 875 529 
Q 447 1150 447 2328 
Q 447 3434 972 4092 
Q 1497 4750 2381 4750 
Q 2619 4750 2861 4703 
Q 3103 4656 3366 4563 
z
" transform="scale(0.015625)"/>
       </defs>
       <use xlink:href="#DejaVuSans-36"/>
       <use xlink:href="#DejaVuSans-30" x="63.623047"/>
       <use xlink:href="#DejaVuSans-30" x="127.246094"/>
      </g>
     </g>
    </g>
    <g id="xtick_8">
     <g id="line2d_8">
      <g>
       <use xlink:href="#m95f5b4db0a" x="551.820312" y="248.24" style="stroke: #000000; stroke-width: 0.8"/>
      </g>
     </g>
     <g id="text_8">
      <!-- 700 -->
      <g transform="translate(542.276562 262.838437) scale(0.1 -0.1)">
       <defs>
        <path id="DejaVuSans-37" d="M 525 4666 
L 3525 4666 
L 3525 4397 
L 1831 0 
L 1172 0 
L 2766 4134 
L 525 4134 
L 525 4666 
z
" transform="scale(0.015625)"/>
       </defs>
       <use xlink:href="#DejaVuSans-37"/>
       <use xlink:href="#DejaVuSans-30" x="63.623047"/>
       <use xlink:href="#DejaVuSans-30" x="127.246094"/>
      </g>
     </g>
    </g>
    <g id="text_9">
     <!-- Time Steps -->
     <g transform="translate(269.407812 276.516562) scale(0.1 -0.1)">
      <defs>
       <path id="DejaVuSans-54" d="M -19 4666 
L 3928 4666 
L 3928 4134 
L 2272 4134 
L 2272 0 
L 1638 0 
L 1638 4134 
L -19 4134 
L -19 4666 
z
" transform="scale(0.015625)"/>
       <path id="DejaVuSans-69" d="M 603 3500 
L 1178 3500 
L 1178 0 
L 603 0 
L 603 3500 
z
M 603 4863 
L 1178 4863 
L 1178 4134 
L 603 4134 
L 603 4863 
z
" transform="scale(0.015625)"/>
       <path id="DejaVuSans-6d" d="M 3328 2828 
Q 3544 3216 3844 3400 
Q 4144 3584 4550 3584 
Q 5097 3584 5394 3201 
Q 5691 2819 5691 2113 
L 5691 0 
L 5113 0 
L 5113 2094 
Q 5113 2597 4934 2840 
Q 4756 3084 4391 3084 
Q 3944 3084 3684 2787 
Q 3425 2491 3425 1978 
L 3425 0 
L 2847 0 
L 2847 2094 
Q 2847 2600 2669 2842 
Q 2491 3084 2119 3084 
Q 1678 3084 1418 2786 
Q 1159 2488 1159 1978 
L 1159 0 
L 581 0 
L 581 3500 
L 1159 3500 
L 1159 2956 
Q 1356 3278 1631 3431 
Q 1906 3584 2284 3584 
Q 2666 3584 2933 3390 
Q 3200 3197 3328 2828 
z
" transform="scale(0.015625)"/>
       <path id="DejaVuSans-65" d="M 3597 1894 
L 3597 1613 
L 953 1613 
Q 991 1019 1311 708 
Q 1631 397 2203 397 
Q 2534 397 2845 478 
Q 3156 559 3463 722 
L 3463 178 
Q 3153 47 2828 -22 
Q 2503 -91 2169 -91 
Q 1331 -91 842 396 
Q 353 884 353 1716 
Q 353 2575 817 3079 
Q 1281 3584 2069 3584 
Q 2775 3584 3186 3129 
Q 3597 2675 3597 1894 
z
M 3022 2063 
Q 3016 2534 2758 2815 
Q 2500 3097 2075 3097 
Q 1594 3097 1305 2825 
Q 1016 2553 972 2059 
L 3022 2063 
z
" transform="scale(0.015625)"/>
       <path id="DejaVuSans-20" transform="scale(0.015625)"/>
       <path id="DejaVuSans-53" d="M 3425 4513 
L 3425 3897 
Q 3066 4069 2747 4153 
Q 2428 4238 2131 4238 
Q 1616 4238 1336 4038 
Q 1056 3838 1056 3469 
Q 1056 3159 1242 3001 
Q 1428 2844 1947 2747 
L 2328 2669 
Q 3034 2534 3370 2195 
Q 3706 1856 3706 1288 
Q 3706 609 3251 259 
Q 2797 -91 1919 -91 
Q 1588 -91 1214 -16 
Q 841 59 441 206 
L 441 856 
Q 825 641 1194 531 
Q 1563 422 1919 422 
Q 2459 422 2753 634 
Q 3047 847 3047 1241 
Q 3047 1584 2836 1778 
Q 2625 1972 2144 2069 
L 1759 2144 
Q 1053 2284 737 2584 
Q 422 2884 422 3419 
Q 422 4038 858 4394 
Q 1294 4750 2059 4750 
Q 2388 4750 2728 4690 
Q 3069 4631 3425 4513 
z
" transform="scale(0.015625)"/>
       <path id="DejaVuSans-74" d="M 1172 4494 
L 1172 3500 
L 2356 3500 
L 2356 3053 
L 1172 3053 
L 1172 1153 
Q 1172 725 1289 603 
Q 1406 481 1766 481 
L 2356 481 
L 2356 0 
L 1766 0 
Q 1100 0 847 248 
Q 594 497 594 1153 
L 594 3053 
L 172 3053 
L 172 3500 
L 594 3500 
L 594 4494 
L 1172 4494 
z
" transform="scale(0.015625)"/>
       <path id="DejaVuSans-70" d="M 1159 525 
L 1159 -1331 
L 581 -1331 
L 581 3500 
L 1159 3500 
L 1159 2969 
Q 1341 3281 1617 3432 
Q 1894 3584 2278 3584 
Q 2916 3584 3314 3078 
Q 3713 2572 3713 1747 
Q 3713 922 3314 415 
Q 2916 -91 2278 -91 
Q 1894 -91 1617 61 
Q 1341 213 1159 525 
z
M 3116 1747 
Q 3116 2381 2855 2742 
Q 2594 3103 2138 3103 
Q 1681 3103 1420 2742 
Q 1159 2381 1159 1747 
Q 1159 1113 1420 752 
Q 1681 391 2138 391 
Q 2594 391 2855 752 
Q 3116 1113 3116 1747 
z
" transform="scale(0.015625)"/>
       <path id="DejaVuSans-73" d="M 2834 3397 
L 2834 2853 
Q 2591 2978 2328 3040 
Q 2066 3103 1784 3103 
Q 1356 3103 1142 2972 
Q 928 2841 928 2578 
Q 928 2378 1081 2264 
Q 1234 2150 1697 2047 
L 1894 2003 
Q 2506 1872 2764 1633 
Q 3022 1394 3022 966 
Q 3022 478 2636 193 
Q 2250 -91 1575 -91 
Q 1294 -91 989 -36 
Q 684 19 347 128 
L 347 722 
Q 666 556 975 473 
Q 1284 391 1588 391 
Q 1994 391 2212 530 
Q 2431 669 2431 922 
Q 2431 1156 2273 1281 
Q 2116 1406 1581 1522 
L 1381 1569 
Q 847 1681 609 1914 
Q 372 2147 372 2553 
Q 372 3047 722 3315 
Q 1072 3584 1716 3584 
Q 2034 3584 2315 3537 
Q 2597 3491 2834 3397 
z
" transform="scale(0.015625)"/>
      </defs>
      <use xlink:href="#DejaVuSans-54"/>
      <use xlink:href="#DejaVuSans-69" x="57.958984"/>
      <use xlink:href="#DejaVuSans-6d" x="85.742188"/>
      <use xlink:href="#DejaVuSans-65" x="183.154297"/>
      <use xlink:href="#DejaVuSans-20" x="244.677734"/>
      <use xlink:href="#DejaVuSans-53" x="276.464844"/>
      <use xlink:href="#DejaVuSans-74" x="339.941406"/>
      <use xlink:href="#DejaVuSans-65" x="379.150391"/>
      <use xlink:href="#DejaVuSans-70" x="440.673828"/>
      <use xlink:href="#DejaVuSans-73" x="504.150391"/>
     </g>
    </g>
   </g>
   <g id="matplotlib.axis_2">
    <g id="ytick_1">
     <g id="line2d_9">
      <defs>
       <path id="m8248e6ae05" d="M 0 0 
L -3.5 0 
" style="stroke: #000000; stroke-width: 0.8"/>
      </defs>
      <g>
       <use xlink:href="#m8248e6ae05" x="42.620313" y="219.752326" style="stroke: #000000; stroke-width: 0.8"/>
      </g>
     </g>
     <g id="text_10">
      <!-- −4 -->
      <g transform="translate(20.878125 223.551545) scale(0.1 -0.1)">
       <defs>
        <path id="DejaVuSans-2212" d="M 678 2272 
L 4684 2272 
L 4684 1741 
L 678 1741 
L 678 2272 
z
" transform="scale(0.015625)"/>
       </defs>
       <use xlink:href="#DejaVuSans-2212"/>
       <use xlink:href="#DejaVuSans-34" x="83.789062"/>
      </g>
     </g>
    </g>
    <g id="ytick_2">
     <g id="line2d_10">
      <g>
       <use xlink:href="#m8248e6ae05" x="42.620313" y="180.082075" style="stroke: #000000; stroke-width: 0.8"/>
      </g>
     </g>
     <g id="text_11">
      <!-- −2 -->
      <g transform="translate(20.878125 183.881294) scale(0.1 -0.1)">
       <use xlink:href="#DejaVuSans-2212"/>
       <use xlink:href="#DejaVuSans-32" x="83.789062"/>
      </g>
     </g>
    </g>
    <g id="ytick_3">
     <g id="line2d_11">
      <g>
       <use xlink:href="#m8248e6ae05" x="42.620313" y="140.411824" style="stroke: #000000; stroke-width: 0.8"/>
      </g>
     </g>
     <g id="text_12">
      <!-- 0 -->
      <g transform="translate(29.257813 144.211043) scale(0.1 -0.1)">
       <use xlink:href="#DejaVuSans-30"/>
      </g>
     </g>
    </g>
    <g id="ytick_4">
     <g id="line2d_12">
      <g>
       <use xlink:href="#m8248e6ae05" x="42.620313" y="100.741574" style="stroke: #000000; stroke-width: 0.8"/>
      </g>
     </g>
     <g id="text_13">
      <!-- 2 -->
      <g transform="translate(29.257813 104.540792) scale(0.1 -0.1)">
       <use xlink:href="#DejaVuSans-32"/>
      </g>
     </g>
    </g>
    <g id="ytick_5">
     <g id="line2d_13">
      <g>
       <use xlink:href="#m8248e6ae05" x="42.620313" y="61.071323" style="stroke: #000000; stroke-width: 0.8"/>
      </g>
     </g>
     <g id="text_14">
      <!-- 4 -->
      <g transform="translate(29.257813 64.870542) scale(0.1 -0.1)">
       <use xlink:href="#DejaVuSans-34"/>
      </g>
     </g>
    </g>
    <g id="text_15">
     <!-- Output -->
     <g transform="translate(14.798438 156.027969) rotate(-90) scale(0.1 -0.1)">
      <defs>
       <path id="DejaVuSans-4f" d="M 2522 4238 
Q 1834 4238 1429 3725 
Q 1025 3213 1025 2328 
Q 1025 1447 1429 934 
Q 1834 422 2522 422 
Q 3209 422 3611 934 
Q 4013 1447 4013 2328 
Q 4013 3213 3611 3725 
Q 3209 4238 2522 4238 
z
M 2522 4750 
Q 3503 4750 4090 4092 
Q 4678 3434 4678 2328 
Q 4678 1225 4090 567 
Q 3503 -91 2522 -91 
Q 1538 -91 948 565 
Q 359 1222 359 2328 
Q 359 3434 948 4092 
Q 1538 4750 2522 4750 
z
" transform="scale(0.015625)"/>
       <path id="DejaVuSans-75" d="M 544 1381 
L 544 3500 
L 1119 3500 
L 1119 1403 
Q 1119 906 1312 657 
Q 1506 409 1894 409 
Q 2359 409 2629 706 
Q 2900 1003 2900 1516 
L 2900 3500 
L 3475 3500 
L 3475 0 
L 2900 0 
L 2900 538 
Q 2691 219 2414 64 
Q 2138 -91 1772 -91 
Q 1169 -91 856 284 
Q 544 659 544 1381 
z
M 1991 3584 
L 1991 3584 
z
" transform="scale(0.015625)"/>
      </defs>
      <use xlink:href="#DejaVuSans-4f"/>
      <use xlink:href="#DejaVuSans-75" x="78.710938"/>
      <use xlink:href="#DejaVuSans-74" x="142.089844"/>
      <use xlink:href="#DejaVuSans-70" x="181.298828"/>
      <use xlink:href="#DejaVuSans-75" x="244.775391"/>
      <use xlink:href="#DejaVuSans-74" x="308.154297"/>
     </g>
    </g>
   </g>
   <g id="line2d_14">
    <path d="M 42.620313 140.411824 
L 43.347741 140.411824 
L 44.07517 137.314208 
L 44.802598 133.490163 
L 46.257455 122.026847 
L 48.439741 103.220568 
L 49.894598 93.27389 
L 50.622027 89.488112 
L 51.349455 86.452885 
L 52.076884 84.092667 
L 52.804313 82.257316 
L 53.531741 80.811016 
L 54.986598 78.560043 
L 57.896313 74.802916 
L 59.35117 73.202212 
L 60.806027 71.90014 
L 62.988313 70.068058 
L 63.715741 69.275039 
L 64.44317 68.28988 
L 65.170598 67.064202 
L 65.898027 65.566991 
L 67.352884 61.743606 
L 68.807741 57.020458 
L 71.717455 47.113366 
L 73.172313 43.319021 
L 73.899741 41.98212 
L 74.62717 41.090404 
L 75.354598 40.678536 
L 76.082027 40.765558 
L 76.809455 41.355543 
L 77.536884 42.43886 
L 78.264313 43.993851 
L 78.991741 45.988762 
L 80.446598 51.132926 
L 81.901455 57.490546 
L 84.083741 68.373766 
L 87.720884 86.695877 
L 89.175741 93.042475 
L 90.630598 98.376535 
L 92.085455 102.44665 
L 92.812884 103.938667 
L 93.540312 105.036592 
L 94.267741 105.719902 
L 94.99517 105.971492 
L 95.722598 105.77835 
L 96.450027 105.132364 
L 97.177455 104.031259 
L 97.904884 102.479618 
L 98.632313 100.489932 
L 99.359741 98.083618 
L 100.814598 92.156497 
L 102.269455 85.074995 
L 105.906598 66.163883 
L 107.361455 59.916398 
L 108.088884 57.380138 
L 108.816313 55.297668 
L 109.543741 53.689376 
L 110.27117 52.552185 
L 110.998598 51.859463 
L 111.726027 51.562952 
L 112.453455 51.596778 
L 113.180884 51.883338 
L 114.635741 52.889934 
L 116.818027 54.505556 
L 118.272884 55.314912 
L 122.637455 57.349964 
L 123.364884 57.466548 
L 124.092312 57.328163 
L 124.819741 56.836162 
L 125.54717 55.911681 
L 126.274598 54.517319 
L 127.002027 52.676862 
L 129.911741 43.994103 
L 130.63917 42.859664 
L 131.366598 42.795587 
L 132.094027 44.090644 
L 132.821455 46.953351 
L 133.548884 51.483958 
L 134.276313 57.658381 
L 135.003741 65.326688 
L 136.458598 84.010186 
L 139.368313 124.134666 
L 140.82317 140.413113 
L 142.278027 152.813119 
L 143.732884 161.926165 
L 145.187741 168.905373 
L 146.642598 174.764808 
L 148.824884 182.439735 
L 150.279741 186.830148 
L 151.734598 190.591905 
L 155.371741 199.152483 
L 156.826598 203.458432 
L 158.281455 208.677594 
L 160.463741 217.737751 
L 162.646027 226.580239 
L 164.100884 231.218097 
L 164.828313 232.93856 
L 165.555741 234.190435 
L 166.28317 234.940488 
L 167.010598 235.171018 
L 167.738027 234.879209 
L 168.465455 234.075876 
L 169.192884 232.783786 
L 169.920312 231.035735 
L 170.647741 228.872535 
L 172.102598 223.492231 
L 173.557455 217.058043 
L 180.104313 186.207486 
L 181.55917 181.059599 
L 183.014027 177.153633 
L 183.741455 175.736257 
L 184.468884 174.70842 
L 185.196313 174.090921 
L 185.923741 173.901126 
L 186.65117 174.152294 
L 187.378598 174.852766 
L 188.106027 176.005031 
L 188.833455 177.604711 
L 189.560884 179.639506 
L 191.015741 184.919659 
L 192.470598 191.55413 
L 194.652884 202.996589 
L 196.83517 214.289864 
L 198.290027 220.58111 
L 199.017455 223.137269 
L 199.744884 225.238424 
L 200.472313 226.864261 
L 201.199741 228.017926 
L 201.92717 228.726117 
L 202.654598 229.037153 
L 203.382027 229.016966 
L 204.109455 228.743214 
L 205.564312 227.759935 
L 207.746598 226.17422 
L 209.201455 225.381885 
L 213.566027 223.386739 
L 214.293455 223.275459 
L 215.020884 223.418825 
L 215.748312 223.915504 
L 216.475741 224.844376 
L 217.20317 226.242862 
L 217.930598 228.087192 
L 220.840313 236.783218 
L 221.567741 237.920483 
L 222.29517 237.987214 
L 223.022598 236.69465 
L 223.750027 233.834282 
L 224.477455 229.305873 
L 225.204884 223.133514 
L 225.932313 215.467144 
L 227.38717 196.787173 
L 230.296884 156.668546 
L 231.751741 140.392517 
L 233.206598 127.994642 
L 234.661455 118.883476 
L 236.116313 111.905925 
L 237.57117 106.047951 
L 239.753455 98.374898 
L 241.208313 93.985552 
L 242.66317 90.224736 
L 246.300313 81.66605 
L 247.75517 77.360706 
L 249.210027 72.142078 
L 251.392313 63.082605 
L 253.574598 54.240684 
L 255.029455 49.603148 
L 255.756884 47.882832 
L 256.484312 46.631094 
L 257.211741 45.881171 
L 257.93917 45.650762 
L 258.666598 45.942685 
L 259.394027 46.746125 
L 260.121455 48.038316 
L 260.848884 49.786461 
L 261.576312 51.94975 
L 263.03117 57.330216 
L 264.486027 63.764545 
L 271.032884 94.615561 
L 272.487741 99.763519 
L 273.942598 103.669548 
L 274.670027 105.086952 
L 275.397455 106.114817 
L 276.124884 106.73234 
L 276.852312 106.922159 
L 277.579741 106.671013 
L 278.30717 105.970563 
L 279.034598 104.818317 
L 279.762027 103.218655 
L 280.489455 101.183877 
L 281.944313 95.903756 
L 283.39917 89.269312 
L 285.581455 77.826889 
L 287.763741 66.533643 
L 289.218598 60.242414 
L 289.946027 57.686263 
L 290.673455 55.585115 
L 291.400884 53.959285 
L 292.128312 52.805626 
L 292.855741 52.097441 
L 293.58317 51.78641 
L 294.310598 51.806602 
L 295.038027 52.08036 
L 296.492884 53.063647 
L 298.67517 54.649373 
L 300.130027 55.441716 
L 304.494598 57.436877 
L 305.222027 57.548158 
L 305.949455 57.404795 
L 306.676884 56.908118 
L 307.404313 55.979247 
L 308.131741 54.580762 
L 308.85917 52.736435 
L 311.768884 44.040414 
L 312.496312 42.903149 
L 313.223741 42.836419 
L 313.95117 44.128985 
L 314.678598 46.989353 
L 315.406027 51.517763 
L 316.133455 57.690123 
L 316.860884 65.356493 
L 318.315741 84.036466 
L 321.225455 124.155095 
L 322.680313 140.431125 
L 324.13517 152.829001 
L 325.590027 161.940167 
L 327.044884 168.917719 
L 328.499741 174.775694 
L 330.682027 182.448748 
L 332.136884 186.838094 
L 333.591741 190.598911 
L 337.228884 199.157597 
L 338.683741 203.462941 
L 340.138598 208.68157 
L 342.320884 217.741042 
L 344.50317 226.582964 
L 345.958027 231.2205 
L 346.685455 232.940816 
L 347.412884 234.192554 
L 348.140312 234.942477 
L 348.867741 235.172886 
L 349.59517 234.880963 
L 350.322598 234.077523 
L 351.050027 232.785332 
L 351.777455 231.037187 
L 352.504884 228.873898 
L 353.959741 223.493433 
L 355.414598 217.059103 
L 361.961455 186.208088 
L 363.416313 181.060129 
L 364.87117 177.1541 
L 365.598598 175.736697 
L 366.326027 174.708832 
L 367.053455 174.091308 
L 367.780884 173.90149 
L 368.508312 174.152636 
L 369.235741 174.853086 
L 369.96317 176.005332 
L 370.690598 177.604994 
L 371.418027 179.639771 
L 372.872884 184.919893 
L 374.327741 191.554337 
L 376.510027 202.996759 
L 378.692313 214.290006 
L 380.14717 220.581235 
L 380.874598 223.137386 
L 381.602027 225.238534 
L 382.329455 226.864364 
L 383.056884 228.018023 
L 383.784312 228.726208 
L 384.511741 229.037239 
L 385.23917 229.017047 
L 385.966598 228.743289 
L 387.421455 227.760002 
L 389.603741 226.174275 
L 391.058598 225.381933 
L 395.42317 223.386772 
L 396.150598 223.275491 
L 396.878027 223.418854 
L 397.605455 223.915531 
L 398.332884 224.844402 
L 399.060313 226.242887 
L 399.787741 228.087214 
L 402.697455 236.783235 
L 403.424884 237.9205 
L 404.152312 237.98723 
L 404.879741 236.694664 
L 405.60717 233.834296 
L 406.334598 229.305886 
L 407.062027 223.133526 
L 407.789455 215.467156 
L 409.244313 196.787183 
L 412.154027 156.668554 
L 413.608884 140.392524 
L 415.063741 127.994648 
L 416.518598 118.883481 
L 417.973455 111.90593 
L 419.428313 106.047955 
L 421.610598 98.374901 
L 423.065455 93.985555 
L 424.520312 90.224738 
L 428.157455 81.666052 
L 429.612313 77.360707 
L 431.06717 72.142079 
L 433.249455 63.082607 
L 435.431741 54.240685 
L 436.886598 49.603149 
L 437.614027 47.882833 
L 438.341455 46.631095 
L 439.068884 45.881171 
L 439.796312 45.650763 
L 440.523741 45.942686 
L 441.25117 46.746126 
L 441.978598 48.038316 
L 442.706027 49.786461 
L 443.433455 51.94975 
L 444.888312 57.330216 
L 446.34317 63.764546 
L 452.890027 94.615561 
L 454.344884 99.76352 
L 455.799741 103.669549 
L 456.52717 105.086952 
L 457.254598 106.114817 
L 457.982027 106.732341 
L 458.709455 106.922159 
L 459.436884 106.671013 
L 460.164312 105.970563 
L 460.891741 104.818317 
L 461.61917 103.218655 
L 462.346598 101.183878 
L 463.801455 95.903756 
L 465.256313 89.269312 
L 467.438598 77.826889 
L 469.620884 66.533643 
L 471.075741 60.242414 
L 471.80317 57.686263 
L 472.530598 55.585115 
L 473.258027 53.959285 
L 473.985455 52.805626 
L 474.712884 52.097441 
L 475.440313 51.78641 
L 476.167741 51.806602 
L 476.89517 52.08036 
L 478.350027 53.063647 
L 480.532312 54.649373 
L 481.98717 55.441716 
L 486.351741 57.436877 
L 487.07917 57.548158 
L 487.806598 57.404795 
L 488.534027 56.908118 
L 489.261455 55.979247 
L 489.988884 54.580762 
L 490.716313 52.736435 
L 493.626027 44.040414 
L 494.353455 42.903149 
L 495.080884 42.836419 
L 495.808312 44.128985 
L 496.535741 46.989353 
L 497.26317 51.517763 
L 497.990598 57.690123 
L 498.718027 65.356493 
L 500.172884 84.036466 
L 503.082598 124.155095 
L 504.537455 140.431125 
L 505.992313 152.829001 
L 507.44717 161.940167 
L 508.902027 168.917719 
L 510.356884 174.775694 
L 512.53917 182.448748 
L 513.994027 186.838094 
L 515.448884 190.598911 
L 519.086027 199.157597 
L 520.540884 203.462941 
L 521.995741 208.68157 
L 524.178027 217.741042 
L 526.360312 226.582964 
L 527.81517 231.2205 
L 528.542598 232.940816 
L 529.270027 234.192554 
L 529.997455 234.942477 
L 530.724884 235.172886 
L 531.452312 234.880963 
L 532.179741 234.077523 
L 532.90717 232.785332 
L 533.634598 231.037187 
L 534.362027 228.873898 
L 535.816884 223.493433 
L 537.271741 217.059103 
L 543.818598 186.208088 
L 545.273455 181.060129 
L 546.728313 177.1541 
L 547.455741 175.736697 
L 548.18317 174.708832 
L 548.910598 174.091308 
L 549.638027 173.90149 
L 550.365455 174.152636 
L 551.092884 174.853086 
L 551.092884 174.853086 
" clip-path="url(#p1ca8f74391)" style="fill: none; stroke: #1f77b4; stroke-width: 1.5; stroke-linecap: square"/>
   </g>
   <g id="line2d_15">
    <path d="M 42.620313 140.411824 
L 43.347741 140.411824 
L 44.07517 145.217033 
L 44.802598 114.453991 
L 45.530027 153.858863 
L 46.257455 102.914346 
L 46.984884 114.193614 
L 47.712313 127.370151 
L 48.439741 86.524839 
L 49.16717 95.908727 
L 49.894598 109.552607 
L 50.622027 78.490427 
L 51.349455 79.683305 
L 52.076884 98.592499 
L 52.804313 78.800526 
L 53.531741 70.051831 
L 54.25917 89.37567 
L 54.986598 82.574417 
L 55.714027 66.601035 
L 56.441455 79.210413 
L 57.168884 84.19458 
L 57.896313 67.953026 
L 58.623741 69.891776 
L 59.35117 81.42735 
L 60.078598 71.977875 
L 60.806027 64.759907 
L 61.533455 75.360426 
L 62.260884 75.232255 
L 62.988313 64.341139 
L 63.715741 68.104583 
L 64.44317 74.141231 
L 65.170598 65.473612 
L 65.898027 61.181312 
L 66.625455 67.39546 
L 67.352884 64.075413 
L 68.080313 55.172764 
L 68.807741 56.932429 
L 69.53517 58.345312 
L 70.262598 50.116251 
L 70.990027 46.671924 
L 71.717455 49.877443 
L 72.444884 46.095366 
L 73.172313 40.179167 
L 73.899741 42.328914 
L 74.62717 43.586305 
L 75.354598 39.041818 
L 76.082027 39.126686 
L 76.809455 43.452605 
L 77.536884 42.812224 
L 78.264313 41.824323 
L 78.991741 46.576974 
L 79.71917 49.989229 
L 80.446598 49.794089 
L 81.174027 53.328751 
L 81.901455 59.073152 
L 83.356313 63.205743 
L 84.083741 69.050273 
L 84.81117 73.137743 
L 85.538598 74.865014 
L 86.266027 79.271276 
L 86.993455 84.390831 
L 87.720884 86.512979 
L 88.448313 89.084946 
L 89.175741 93.707406 
L 89.90317 96.415877 
L 90.630598 97.592439 
L 92.085455 103.270629 
L 92.812884 103.677288 
L 93.540312 104.536942 
L 94.267741 106.319701 
L 94.99517 106.252672 
L 95.722598 105.227742 
L 96.450027 105.277842 
L 97.177455 104.581353 
L 97.904884 102.198021 
L 99.359741 98.558672 
L 102.269455 85.35738 
L 102.996884 80.948149 
L 106.634027 62.988977 
L 108.088884 57.074556 
L 108.816313 55.241203 
L 110.27117 52.406186 
L 110.998598 51.705008 
L 111.726027 51.73291 
L 112.453455 51.643984 
L 113.180884 51.736315 
L 114.635741 53.050124 
L 115.36317 53.378803 
L 116.818027 54.652529 
L 118.272884 55.199454 
L 119.000313 55.726404 
L 121.182598 56.739199 
L 121.910027 57.191714 
L 123.364884 57.490628 
L 124.092312 57.494156 
L 124.819741 56.94183 
L 125.54717 55.930444 
L 126.274598 54.60905 
L 127.002027 52.737694 
L 129.184313 45.736903 
L 129.911741 43.730986 
L 130.63917 42.531582 
L 131.366598 42.523344 
L 132.094027 43.800816 
L 132.821455 46.642084 
L 133.548884 51.284755 
L 134.276313 57.558008 
L 135.003741 65.253427 
L 136.458598 84.155816 
L 139.368313 124.337294 
L 140.82317 140.526164 
L 142.278027 152.81353 
L 143.732884 161.898185 
L 145.187741 168.833047 
L 146.642598 174.74382 
L 148.824884 182.465201 
L 150.279741 186.836325 
L 151.734598 190.582131 
L 155.371741 199.09527 
L 156.826598 203.408227 
L 158.281455 208.665975 
L 160.463741 217.771615 
L 162.646027 226.643052 
L 164.100884 231.284277 
L 164.828313 233.005334 
L 165.555741 234.260503 
L 166.28317 235.001594 
L 167.010598 235.223955 
L 167.738027 234.931443 
L 168.465455 234.120059 
L 169.192884 232.816569 
L 169.920312 231.065416 
L 170.647741 228.897292 
L 172.102598 223.501924 
L 173.557455 217.057753 
L 180.104313 186.177898 
L 181.55917 181.021825 
L 183.014027 177.110843 
L 183.741455 175.689951 
L 184.468884 174.66161 
L 185.196313 174.042147 
L 185.923741 173.849857 
L 186.65117 174.101847 
L 187.378598 174.803538 
L 188.106027 175.956294 
L 188.833455 177.559532 
L 189.560884 179.599914 
L 191.015741 184.892714 
L 192.470598 191.547413 
L 194.652884 203.025519 
L 196.83517 214.34766 
L 198.290027 220.64434 
L 199.017455 223.198479 
L 199.744884 225.292706 
L 200.472313 226.908352 
L 201.199741 228.049683 
L 201.92717 228.742935 
L 202.654598 229.038521 
L 203.382027 229.004793 
L 204.109455 228.719687 
L 205.564312 227.726471 
L 207.746598 226.160792 
L 209.928884 225.055345 
L 213.566027 223.337636 
L 214.293455 223.204286 
L 215.020884 223.331772 
L 215.748312 223.823415 
L 216.475741 224.761689 
L 217.20317 226.186461 
L 217.930598 228.073622 
L 220.840313 237.012732 
L 221.567741 238.191678 
L 222.29517 238.278182 
L 223.022598 236.97942 
L 223.750027 234.086483 
L 224.477455 229.502432 
L 225.204884 223.25745 
L 225.932313 215.510068 
L 227.38717 196.680895 
L 230.296884 156.489996 
L 231.751741 140.28933 
L 233.206598 127.980743 
L 234.661455 118.927048 
L 236.116313 111.958593 
L 237.57117 106.075474 
L 239.753455 98.362803 
L 241.208313 93.973671 
L 242.66317 90.233616 
L 246.300313 81.720008 
L 247.75517 77.403386 
L 249.210027 72.159045 
L 251.392313 63.054314 
L 253.574598 54.182176 
L 255.029455 49.538124 
L 255.756884 47.818268 
L 256.484312 46.569076 
L 257.211741 45.823209 
L 257.93917 45.598011 
L 258.666598 45.896027 
L 259.394027 46.705916 
L 260.121455 48.004593 
L 260.848884 49.759254 
L 261.576312 51.92874 
L 263.03117 57.320363 
L 264.486027 63.764075 
L 271.032884 94.644621 
L 272.487741 99.798353 
L 273.942598 103.709649 
L 274.670027 105.12955 
L 275.397455 106.159457 
L 276.124884 106.778543 
L 276.852312 106.969453 
L 277.579741 106.718584 
L 278.30717 106.017425 
L 279.034598 104.863486 
L 279.762027 103.260856 
L 280.489455 101.221682 
L 281.944313 95.92857 
L 283.39917 89.275669 
L 285.581455 77.799998 
L 287.763741 66.479777 
L 289.218598 60.18295 
L 289.946027 57.629199 
L 290.673455 55.534102 
L 291.400884 53.917727 
L 292.128312 52.776131 
L 292.855741 52.081669 
L 293.58317 51.784929 
L 294.310598 51.818165 
L 295.038027 52.102467 
L 296.492884 53.095022 
L 298.67517 54.661911 
L 300.857455 55.769174 
L 304.494598 57.483071 
L 305.222027 57.614927 
L 305.949455 57.486344 
L 306.676884 56.994379 
L 307.404313 56.056502 
L 308.131741 54.633263 
L 308.85917 52.748816 
L 311.768884 43.825047 
L 312.496312 42.648731 
L 313.223741 42.563608 
L 313.95117 43.862076 
L 314.678598 46.752999 
L 315.406027 51.333654 
L 316.133455 57.57403 
L 316.860884 65.3163 
L 318.315741 84.136062 
L 321.225455 124.322379 
L 322.680313 140.527917 
L 324.13517 152.84215 
L 325.590027 161.899478 
L 327.044884 168.868449 
L 328.499741 174.749866 
L 330.682027 182.459961 
L 332.136884 186.84916 
L 333.591741 190.59052 
L 337.228884 199.107003 
L 338.683741 203.42294 
L 340.138598 208.665711 
L 342.320884 217.767638 
L 344.50317 226.63786 
L 345.958027 231.281487 
L 346.685455 233.001437 
L 347.412884 234.250827 
L 348.140312 234.996846 
L 348.867741 235.222422 
L 349.59517 234.924813 
L 350.322598 234.115245 
L 351.050027 232.817004 
L 351.777455 231.062777 
L 352.504884 228.893584 
L 353.959741 223.50269 
L 355.414598 217.059569 
L 361.961455 186.180821 
L 363.416313 181.027419 
L 364.87117 177.116341 
L 365.598598 175.6967 
L 366.326027 174.666963 
L 367.053455 174.047834 
L 367.780884 173.857078 
L 368.508312 174.10803 
L 369.235741 174.809019 
L 369.96317 175.962929 
L 370.690598 177.565434 
L 371.418027 179.604246 
L 372.872884 184.896682 
L 374.327741 191.54841 
L 376.510027 203.022033 
L 378.692313 214.340566 
L 380.14717 220.636973 
L 380.874598 223.190922 
L 381.602027 225.286416 
L 382.329455 226.903273 
L 383.056884 228.045692 
L 383.784312 228.740997 
L 384.511741 229.038596 
L 385.23917 229.006221 
L 385.966598 228.722591 
L 387.421455 227.730661 
L 389.603741 226.162617 
L 391.786027 225.053605 
L 395.42317 223.343264 
L 396.150598 223.212921 
L 396.878027 223.342393 
L 397.605455 223.834727 
L 398.332884 224.772235 
L 399.060313 226.193914 
L 399.787741 228.07593 
L 402.697455 236.985426 
L 403.424884 238.159132 
L 404.152312 238.243054 
L 404.879741 236.944889 
L 405.60717 234.055801 
L 406.334598 229.478409 
L 407.062027 223.24227 
L 407.789455 215.504781 
L 409.244313 196.693815 
L 412.154027 156.511793 
L 413.608884 140.301735 
L 415.063741 127.982189 
L 416.518598 118.921532 
L 417.973455 111.952053 
L 419.428313 106.072149 
L 421.610598 98.364449 
L 423.065455 93.975279 
L 424.520312 90.232675 
L 428.157455 81.713463 
L 429.612313 77.398236 
L 431.06717 72.156945 
L 433.249455 63.057629 
L 435.431741 54.189175 
L 436.886598 49.545879 
L 437.614027 47.825948 
L 438.341455 46.576368 
L 439.068884 45.830113 
L 439.796312 45.604272 
L 440.523741 45.901512 
L 441.25117 46.710674 
L 441.978598 48.008574 
L 442.706027 49.76247 
L 443.433455 51.931209 
L 444.888312 57.321574 
L 446.34317 63.764113 
L 452.890027 94.641206 
L 454.344884 99.794158 
L 455.799741 103.705041 
L 456.52717 105.12445 
L 457.254598 106.154215 
L 457.982027 106.773181 
L 458.709455 106.963793 
L 459.436884 106.712994 
L 460.164312 106.011906 
L 460.891741 104.858085 
L 461.61917 103.255865 
L 462.346598 101.217168 
L 463.801455 95.925586 
L 465.256313 89.27487 
L 467.438598 77.803186 
L 469.620884 66.486213 
L 471.075741 60.19011 
L 471.80317 57.636038 
L 472.530598 55.540231 
L 473.258027 53.922778 
L 473.985455 52.779669 
L 474.712884 52.083626 
L 475.440313 51.785128 
L 476.167741 51.816718 
L 476.89517 52.0998 
L 478.350027 53.091068 
L 480.532312 54.660247 
L 482.714598 55.770914 
L 486.351741 57.47769 
L 487.07917 57.606888 
L 487.806598 57.476564 
L 488.534027 56.983663 
L 489.261455 56.046798 
L 489.988884 54.626462 
L 490.716313 52.746622 
L 493.626027 43.850698 
L 494.353455 42.679214 
L 495.080884 42.596513 
L 495.808312 43.894394 
L 496.535741 46.781704 
L 497.26317 51.35607 
L 497.990598 57.588283 
L 498.718027 65.321218 
L 500.172884 84.124027 
L 503.082598 124.302013 
L 504.537455 140.516263 
L 505.992313 152.840809 
L 507.44717 161.90463 
L 508.902027 168.874535 
L 510.356884 174.752992 
L 512.53917 182.458443 
L 513.994027 186.847675 
L 515.448884 190.591442 
L 519.086027 199.113161 
L 520.540884 203.427777 
L 521.995741 208.667607 
L 524.178027 217.76445 
L 526.360312 226.631324 
L 527.81517 231.274251 
L 528.542598 232.994221 
L 529.270027 234.243961 
L 529.997455 234.990377 
L 530.724884 235.216587 
L 531.452312 234.919602 
L 532.179741 234.110819 
L 532.90717 232.813277 
L 533.634598 231.059703 
L 534.362027 228.891324 
L 535.816884 223.501526 
L 537.271741 217.059456 
L 543.818598 186.183937 
L 545.273455 181.031259 
L 546.728313 177.12081 
L 547.455741 175.701393 
L 548.18317 174.671865 
L 548.910598 174.05297 
L 549.638027 173.862318 
L 550.365455 174.11328 
L 551.092884 174.814235 
L 551.092884 174.814235 
" clip-path="url(#p1ca8f74391)" style="fill: none; stroke-dasharray: 5.55,2.4; stroke-dashoffset: 0; stroke: #ff7f0e; stroke-width: 1.5"/>
   </g>
   <g id="patch_3">
    <path d="M 42.620313 248.24 
L 42.620313 29.08 
" style="fill: none; stroke: #000000; stroke-width: 0.8; stroke-linejoin: miter; stroke-linecap: square"/>
   </g>
   <g id="patch_4">
    <path d="M 551.820312 248.24 
L 551.820312 29.08 
" style="fill: none; stroke: #000000; stroke-width: 0.8; stroke-linejoin: miter; stroke-linecap: square"/>
   </g>
   <g id="patch_5">
    <path d="M 42.620313 248.24 
L 551.820312 248.24 
" style="fill: none; stroke: #000000; stroke-width: 0.8; stroke-linejoin: miter; stroke-linecap: square"/>
   </g>
   <g id="patch_6">
    <path d="M 42.620313 29.08 
L 551.820312 29.08 
" style="fill: none; stroke: #000000; stroke-width: 0.8; stroke-linejoin: miter; stroke-linecap: square"/>
   </g>
   <g id="text_16">
    <!-- Model Performance -->
    <g transform="translate(239.279062 23.08) scale(0.12 -0.12)">
     <defs>
      <path id="DejaVuSans-4d" d="M 628 4666 
L 1569 4666 
L 2759 1491 
L 3956 4666 
L 4897 4666 
L 4897 0 
L 4281 0 
L 4281 4097 
L 3078 897 
L 2444 897 
L 1241 4097 
L 1241 0 
L 628 0 
L 628 4666 
z
" transform="scale(0.015625)"/>
      <path id="DejaVuSans-6f" d="M 1959 3097 
Q 1497 3097 1228 2736 
Q 959 2375 959 1747 
Q 959 1119 1226 758 
Q 1494 397 1959 397 
Q 2419 397 2687 759 
Q 2956 1122 2956 1747 
Q 2956 2369 2687 2733 
Q 2419 3097 1959 3097 
z
M 1959 3584 
Q 2709 3584 3137 3096 
Q 3566 2609 3566 1747 
Q 3566 888 3137 398 
Q 2709 -91 1959 -91 
Q 1206 -91 779 398 
Q 353 888 353 1747 
Q 353 2609 779 3096 
Q 1206 3584 1959 3584 
z
" transform="scale(0.015625)"/>
      <path id="DejaVuSans-64" d="M 2906 2969 
L 2906 4863 
L 3481 4863 
L 3481 0 
L 2906 0 
L 2906 525 
Q 2725 213 2448 61 
Q 2172 -91 1784 -91 
Q 1150 -91 751 415 
Q 353 922 353 1747 
Q 353 2572 751 3078 
Q 1150 3584 1784 3584 
Q 2172 3584 2448 3432 
Q 2725 3281 2906 2969 
z
M 947 1747 
Q 947 1113 1208 752 
Q 1469 391 1925 391 
Q 2381 391 2643 752 
Q 2906 1113 2906 1747 
Q 2906 2381 2643 2742 
Q 2381 3103 1925 3103 
Q 1469 3103 1208 2742 
Q 947 2381 947 1747 
z
" transform="scale(0.015625)"/>
      <path id="DejaVuSans-6c" d="M 603 4863 
L 1178 4863 
L 1178 0 
L 603 0 
L 603 4863 
z
" transform="scale(0.015625)"/>
      <path id="DejaVuSans-50" d="M 1259 4147 
L 1259 2394 
L 2053 2394 
Q 2494 2394 2734 2622 
Q 2975 2850 2975 3272 
Q 2975 3691 2734 3919 
Q 2494 4147 2053 4147 
L 1259 4147 
z
M 628 4666 
L 2053 4666 
Q 2838 4666 3239 4311 
Q 3641 3956 3641 3272 
Q 3641 2581 3239 2228 
Q 2838 1875 2053 1875 
L 1259 1875 
L 1259 0 
L 628 0 
L 628 4666 
z
" transform="scale(0.015625)"/>
      <path id="DejaVuSans-72" d="M 2631 2963 
Q 2534 3019 2420 3045 
Q 2306 3072 2169 3072 
Q 1681 3072 1420 2755 
Q 1159 2438 1159 1844 
L 1159 0 
L 581 0 
L 581 3500 
L 1159 3500 
L 1159 2956 
Q 1341 3275 1631 3429 
Q 1922 3584 2338 3584 
Q 2397 3584 2469 3576 
Q 2541 3569 2628 3553 
L 2631 2963 
z
" transform="scale(0.015625)"/>
      <path id="DejaVuSans-66" d="M 2375 4863 
L 2375 4384 
L 1825 4384 
Q 1516 4384 1395 4259 
Q 1275 4134 1275 3809 
L 1275 3500 
L 2222 3500 
L 2222 3053 
L 1275 3053 
L 1275 0 
L 697 0 
L 697 3053 
L 147 3053 
L 147 3500 
L 697 3500 
L 697 3744 
Q 697 4328 969 4595 
Q 1241 4863 1831 4863 
L 2375 4863 
z
" transform="scale(0.015625)"/>
      <path id="DejaVuSans-61" d="M 2194 1759 
Q 1497 1759 1228 1600 
Q 959 1441 959 1056 
Q 959 750 1161 570 
Q 1363 391 1709 391 
Q 2188 391 2477 730 
Q 2766 1069 2766 1631 
L 2766 1759 
L 2194 1759 
z
M 3341 1997 
L 3341 0 
L 2766 0 
L 2766 531 
Q 2569 213 2275 61 
Q 1981 -91 1556 -91 
Q 1019 -91 701 211 
Q 384 513 384 1019 
Q 384 1609 779 1909 
Q 1175 2209 1959 2209 
L 2766 2209 
L 2766 2266 
Q 2766 2663 2505 2880 
Q 2244 3097 1772 3097 
Q 1472 3097 1187 3025 
Q 903 2953 641 2809 
L 641 3341 
Q 956 3463 1253 3523 
Q 1550 3584 1831 3584 
Q 2591 3584 2966 3190 
Q 3341 2797 3341 1997 
z
" transform="scale(0.015625)"/>
      <path id="DejaVuSans-6e" d="M 3513 2113 
L 3513 0 
L 2938 0 
L 2938 2094 
Q 2938 2591 2744 2837 
Q 2550 3084 2163 3084 
Q 1697 3084 1428 2787 
Q 1159 2491 1159 1978 
L 1159 0 
L 581 0 
L 581 3500 
L 1159 3500 
L 1159 2956 
Q 1366 3272 1645 3428 
Q 1925 3584 2291 3584 
Q 2894 3584 3203 3211 
Q 3513 2838 3513 2113 
z
" transform="scale(0.015625)"/>
      <path id="DejaVuSans-63" d="M 3122 3366 
L 3122 2828 
Q 2878 2963 2633 3030 
Q 2388 3097 2138 3097 
Q 1578 3097 1268 2742 
Q 959 2388 959 1747 
Q 959 1106 1268 751 
Q 1578 397 2138 397 
Q 2388 397 2633 464 
Q 2878 531 3122 666 
L 3122 134 
Q 2881 22 2623 -34 
Q 2366 -91 2075 -91 
Q 1284 -91 818 406 
Q 353 903 353 1747 
Q 353 2603 823 3093 
Q 1294 3584 2113 3584 
Q 2378 3584 2631 3529 
Q 2884 3475 3122 3366 
z
" transform="scale(0.015625)"/>
     </defs>
     <use xlink:href="#DejaVuSans-4d"/>
     <use xlink:href="#DejaVuSans-6f" x="86.279297"/>
     <use xlink:href="#DejaVuSans-64" x="147.460938"/>
     <use xlink:href="#DejaVuSans-65" x="210.9375"/>
     <use xlink:href="#DejaVuSans-6c" x="272.460938"/>
     <use xlink:href="#DejaVuSans-20" x="300.244141"/>
     <use xlink:href="#DejaVuSans-50" x="332.03125"/>
     <use xlink:href="#DejaVuSans-65" x="388.708984"/>
     <use xlink:href="#DejaVuSans-72" x="450.232422"/>
     <use xlink:href="#DejaVuSans-66" x="491.345703"/>
     <use xlink:href="#DejaVuSans-6f" x="526.550781"/>
     <use xlink:href="#DejaVuSans-72" x="587.732422"/>
     <use xlink:href="#DejaVuSans-6d" x="627.095703"/>
     <use xlink:href="#DejaVuSans-61" x="724.507812"/>
     <use xlink:href="#DejaVuSans-6e" x="785.787109"/>
     <use xlink:href="#DejaVuSans-63" x="849.166016"/>
     <use xlink:href="#DejaVuSans-65" x="904.146484"/>
    </g>
   </g>
  </g>
  <g id="legend_1">
   <g id="patch_7">
    <path d="M 579.070312 40.1125 
L 699.029688 40.1125 
Q 701.029688 40.1125 701.029688 38.1125 
L 701.029688 9.2 
Q 701.029688 7.2 699.029688 7.2 
L 579.070312 7.2 
Q 577.070312 7.2 577.070312 9.2 
L 577.070312 38.1125 
Q 577.070312 40.1125 579.070312 40.1125 
z
" style="fill: #ffffff; opacity: 0.8; stroke: #cccccc; stroke-linejoin: miter"/>
   </g>
   <g id="line2d_16">
    <path d="M 581.070312 15.298437 
L 591.070312 15.298437 
L 601.070312 15.298437 
" style="fill: none; stroke: #1f77b4; stroke-width: 1.5; stroke-linecap: square"/>
   </g>
   <g id="text_17">
    <!-- True Output (y_p) -->
    <g transform="translate(609.070312 18.798437) scale(0.1 -0.1)">
     <defs>
      <path id="DejaVuSans-28" d="M 1984 4856 
Q 1566 4138 1362 3434 
Q 1159 2731 1159 2009 
Q 1159 1288 1364 580 
Q 1569 -128 1984 -844 
L 1484 -844 
Q 1016 -109 783 600 
Q 550 1309 550 2009 
Q 550 2706 781 3412 
Q 1013 4119 1484 4856 
L 1984 4856 
z
" transform="scale(0.015625)"/>
      <path id="DejaVuSans-79" d="M 2059 -325 
Q 1816 -950 1584 -1140 
Q 1353 -1331 966 -1331 
L 506 -1331 
L 506 -850 
L 844 -850 
Q 1081 -850 1212 -737 
Q 1344 -625 1503 -206 
L 1606 56 
L 191 3500 
L 800 3500 
L 1894 763 
L 2988 3500 
L 3597 3500 
L 2059 -325 
z
" transform="scale(0.015625)"/>
      <path id="DejaVuSans-5f" d="M 3263 -1063 
L 3263 -1509 
L -63 -1509 
L -63 -1063 
L 3263 -1063 
z
" transform="scale(0.015625)"/>
      <path id="DejaVuSans-29" d="M 513 4856 
L 1013 4856 
Q 1481 4119 1714 3412 
Q 1947 2706 1947 2009 
Q 1947 1309 1714 600 
Q 1481 -109 1013 -844 
L 513 -844 
Q 928 -128 1133 580 
Q 1338 1288 1338 2009 
Q 1338 2731 1133 3434 
Q 928 4138 513 4856 
z
" transform="scale(0.015625)"/>
     </defs>
     <use xlink:href="#DejaVuSans-54"/>
     <use xlink:href="#DejaVuSans-72" x="46.333984"/>
     <use xlink:href="#DejaVuSans-75" x="87.447266"/>
     <use xlink:href="#DejaVuSans-65" x="150.826172"/>
     <use xlink:href="#DejaVuSans-20" x="212.349609"/>
     <use xlink:href="#DejaVuSans-4f" x="244.136719"/>
     <use xlink:href="#DejaVuSans-75" x="322.847656"/>
     <use xlink:href="#DejaVuSans-74" x="386.226562"/>
     <use xlink:href="#DejaVuSans-70" x="425.435547"/>
     <use xlink:href="#DejaVuSans-75" x="488.912109"/>
     <use xlink:href="#DejaVuSans-74" x="552.291016"/>
     <use xlink:href="#DejaVuSans-20" x="591.5"/>
     <use xlink:href="#DejaVuSans-28" x="623.287109"/>
     <use xlink:href="#DejaVuSans-79" x="662.300781"/>
     <use xlink:href="#DejaVuSans-5f" x="721.480469"/>
     <use xlink:href="#DejaVuSans-70" x="771.480469"/>
     <use xlink:href="#DejaVuSans-29" x="834.957031"/>
    </g>
   </g>
   <g id="line2d_17">
    <path d="M 581.070312 30.254687 
L 591.070312 30.254687 
L 601.070312 30.254687 
" style="fill: none; stroke-dasharray: 5.55,2.4; stroke-dashoffset: 0; stroke: #ff7f0e; stroke-width: 1.5"/>
   </g>
   <g id="text_18">
    <!-- Prediction (y_hat) -->
    <g transform="translate(609.070312 33.754687) scale(0.1 -0.1)">
     <defs>
      <path id="DejaVuSans-68" d="M 3513 2113 
L 3513 0 
L 2938 0 
L 2938 2094 
Q 2938 2591 2744 2837 
Q 2550 3084 2163 3084 
Q 1697 3084 1428 2787 
Q 1159 2491 1159 1978 
L 1159 0 
L 581 0 
L 581 4863 
L 1159 4863 
L 1159 2956 
Q 1366 3272 1645 3428 
Q 1925 3584 2291 3584 
Q 2894 3584 3203 3211 
Q 3513 2838 3513 2113 
z
" transform="scale(0.015625)"/>
     </defs>
     <use xlink:href="#DejaVuSans-50"/>
     <use xlink:href="#DejaVuSans-72" x="58.552734"/>
     <use xlink:href="#DejaVuSans-65" x="97.416016"/>
     <use xlink:href="#DejaVuSans-64" x="158.939453"/>
     <use xlink:href="#DejaVuSans-69" x="222.416016"/>
     <use xlink:href="#DejaVuSans-63" x="250.199219"/>
     <use xlink:href="#DejaVuSans-74" x="305.179688"/>
     <use xlink:href="#DejaVuSans-69" x="344.388672"/>
     <use xlink:href="#DejaVuSans-6f" x="372.171875"/>
     <use xlink:href="#DejaVuSans-6e" x="433.353516"/>
     <use xlink:href="#DejaVuSans-20" x="496.732422"/>
     <use xlink:href="#DejaVuSans-28" x="528.519531"/>
     <use xlink:href="#DejaVuSans-79" x="567.533203"/>
     <use xlink:href="#DejaVuSans-5f" x="626.712891"/>
     <use xlink:href="#DejaVuSans-68" x="676.712891"/>
     <use xlink:href="#DejaVuSans-61" x="740.091797"/>
     <use xlink:href="#DejaVuSans-74" x="801.371094"/>
     <use xlink:href="#DejaVuSans-29" x="840.580078"/>
    </g>
   </g>
  </g>
 </g>
 <defs>
  <clipPath id="p1ca8f74391">
   <rect x="42.620313" y="29.08" width="509.2" height="219.16"/>
  </clipPath>
 </defs>
</svg>
