<?xml version="1.0" encoding="utf-8" standalone="no"?>
<!DOCTYPE svg PUBLIC "-//W3C//DTD SVG 1.1//EN"
  "http://www.w3.org/Graphics/SVG/1.1/DTD/svg11.dtd">
<svg xmlns:xlink="http://www.w3.org/1999/xlink" width="720pt" height="432pt" viewBox="0 0 720 432" xmlns="http://www.w3.org/2000/svg" version="1.1">
 <metadata>
  <rdf:RDF xmlns:dc="http://purl.org/dc/elements/1.1/" xmlns:cc="http://creativecommons.org/ns#" xmlns:rdf="http://www.w3.org/1999/02/22-rdf-syntax-ns#">
   <cc:Work>
    <dc:type rdf:resource="http://purl.org/dc/dcmitype/StillImage"/>
    <dc:date>2024-11-10T23:53:26.517661</dc:date>
    <dc:format>image/svg+xml</dc:format>
    <dc:creator>
     <cc:Agent>
      <dc:title>Matplotlib v3.9.2, https://matplotlib.org/</dc:title>
     </cc:Agent>
    </dc:creator>
   </cc:Work>
  </rdf:RDF>
 </metadata>
 <defs>
  <style type="text/css">*{stroke-linejoin: round; stroke-linecap: butt}</style>
 </defs>
 <g id="figure_1">
  <g id="patch_1">
   <path d="M 0 432 
L 720 432 
L 720 0 
L 0 0 
z
" style="fill: #ffffff"/>
  </g>
  <g id="axes_1">
   <g id="patch_2">
    <path d="M 46.64 390.04 
L 709.2 390.04 
L 709.2 26.88 
L 46.64 26.88 
z
" style="fill: #ffffff"/>
   </g>
   <g id="matplotlib.axis_1">
    <g id="xtick_1">
     <g id="line2d_1">
      <defs>
       <path id="m208da501e1" d="M 0 0 
L 0 3.5 
" style="stroke: #000000; stroke-width: 0.8"/>
      </defs>
      <g>
       <use xlink:href="#m208da501e1" x="76.756364" y="390.04" style="stroke: #000000; stroke-width: 0.8"/>
      </g>
     </g>
     <g id="text_1">
      <!-- 0 -->
      <g transform="translate(73.575114 404.638438) scale(0.1 -0.1)">
       <defs>
        <path id="DejaVuSans-30" d="M 2034 4250 
Q 1547 4250 1301 3770 
Q 1056 3291 1056 2328 
Q 1056 1369 1301 889 
Q 1547 409 2034 409 
Q 2525 409 2770 889 
Q 3016 1369 3016 2328 
Q 3016 3291 2770 3770 
Q 2525 4250 2034 4250 
z
M 2034 4750 
Q 2819 4750 3233 4129 
Q 3647 3509 3647 2328 
Q 3647 1150 3233 529 
Q 2819 -91 2034 -91 
Q 1250 -91 836 529 
Q 422 1150 422 2328 
Q 422 3509 836 4129 
Q 1250 4750 2034 4750 
z
" transform="scale(0.015625)"/>
       </defs>
       <use xlink:href="#DejaVuSans-30"/>
      </g>
     </g>
    </g>
    <g id="xtick_2">
     <g id="line2d_2">
      <g>
       <use xlink:href="#m208da501e1" x="162.926217" y="390.04" style="stroke: #000000; stroke-width: 0.8"/>
      </g>
     </g>
     <g id="text_2">
      <!-- 100 -->
      <g transform="translate(153.382467 404.638438) scale(0.1 -0.1)">
       <defs>
        <path id="DejaVuSans-31" d="M 794 531 
L 1825 531 
L 1825 4091 
L 703 3866 
L 703 4441 
L 1819 4666 
L 2450 4666 
L 2450 531 
L 3481 531 
L 3481 0 
L 794 0 
L 794 531 
z
" transform="scale(0.015625)"/>
       </defs>
       <use xlink:href="#DejaVuSans-31"/>
       <use xlink:href="#DejaVuSans-30" x="63.623047"/>
       <use xlink:href="#DejaVuSans-30" x="127.246094"/>
      </g>
     </g>
    </g>
    <g id="xtick_3">
     <g id="line2d_3">
      <g>
       <use xlink:href="#m208da501e1" x="249.09607" y="390.04" style="stroke: #000000; stroke-width: 0.8"/>
      </g>
     </g>
     <g id="text_3">
      <!-- 200 -->
      <g transform="translate(239.55232 404.638438) scale(0.1 -0.1)">
       <defs>
        <path id="DejaVuSans-32" d="M 1228 531 
L 3431 531 
L 3431 0 
L 469 0 
L 469 531 
Q 828 903 1448 1529 
Q 2069 2156 2228 2338 
Q 2531 2678 2651 2914 
Q 2772 3150 2772 3378 
Q 2772 3750 2511 3984 
Q 2250 4219 1831 4219 
Q 1534 4219 1204 4116 
Q 875 4013 500 3803 
L 500 4441 
Q 881 4594 1212 4672 
Q 1544 4750 1819 4750 
Q 2544 4750 2975 4387 
Q 3406 4025 3406 3419 
Q 3406 3131 3298 2873 
Q 3191 2616 2906 2266 
Q 2828 2175 2409 1742 
Q 1991 1309 1228 531 
z
" transform="scale(0.015625)"/>
       </defs>
       <use xlink:href="#DejaVuSans-32"/>
       <use xlink:href="#DejaVuSans-30" x="63.623047"/>
       <use xlink:href="#DejaVuSans-30" x="127.246094"/>
      </g>
     </g>
    </g>
    <g id="xtick_4">
     <g id="line2d_4">
      <g>
       <use xlink:href="#m208da501e1" x="335.265923" y="390.04" style="stroke: #000000; stroke-width: 0.8"/>
      </g>
     </g>
     <g id="text_4">
      <!-- 300 -->
      <g transform="translate(325.722173 404.638438) scale(0.1 -0.1)">
       <defs>
        <path id="DejaVuSans-33" d="M 2597 2516 
Q 3050 2419 3304 2112 
Q 3559 1806 3559 1356 
Q 3559 666 3084 287 
Q 2609 -91 1734 -91 
Q 1441 -91 1130 -33 
Q 819 25 488 141 
L 488 750 
Q 750 597 1062 519 
Q 1375 441 1716 441 
Q 2309 441 2620 675 
Q 2931 909 2931 1356 
Q 2931 1769 2642 2001 
Q 2353 2234 1838 2234 
L 1294 2234 
L 1294 2753 
L 1863 2753 
Q 2328 2753 2575 2939 
Q 2822 3125 2822 3475 
Q 2822 3834 2567 4026 
Q 2313 4219 1838 4219 
Q 1578 4219 1281 4162 
Q 984 4106 628 3988 
L 628 4550 
Q 988 4650 1302 4700 
Q 1616 4750 1894 4750 
Q 2613 4750 3031 4423 
Q 3450 4097 3450 3541 
Q 3450 3153 3228 2886 
Q 3006 2619 2597 2516 
z
" transform="scale(0.015625)"/>
       </defs>
       <use xlink:href="#DejaVuSans-33"/>
       <use xlink:href="#DejaVuSans-30" x="63.623047"/>
       <use xlink:href="#DejaVuSans-30" x="127.246094"/>
      </g>
     </g>
    </g>
    <g id="xtick_5">
     <g id="line2d_5">
      <g>
       <use xlink:href="#m208da501e1" x="421.435776" y="390.04" style="stroke: #000000; stroke-width: 0.8"/>
      </g>
     </g>
     <g id="text_5">
      <!-- 400 -->
      <g transform="translate(411.892026 404.638438) scale(0.1 -0.1)">
       <defs>
        <path id="DejaVuSans-34" d="M 2419 4116 
L 825 1625 
L 2419 1625 
L 2419 4116 
z
M 2253 4666 
L 3047 4666 
L 3047 1625 
L 3713 1625 
L 3713 1100 
L 3047 1100 
L 3047 0 
L 2419 0 
L 2419 1100 
L 313 1100 
L 313 1709 
L 2253 4666 
z
" transform="scale(0.015625)"/>
       </defs>
       <use xlink:href="#DejaVuSans-34"/>
       <use xlink:href="#DejaVuSans-30" x="63.623047"/>
       <use xlink:href="#DejaVuSans-30" x="127.246094"/>
      </g>
     </g>
    </g>
    <g id="xtick_6">
     <g id="line2d_6">
      <g>
       <use xlink:href="#m208da501e1" x="507.605629" y="390.04" style="stroke: #000000; stroke-width: 0.8"/>
      </g>
     </g>
     <g id="text_6">
      <!-- 500 -->
      <g transform="translate(498.061879 404.638438) scale(0.1 -0.1)">
       <defs>
        <path id="DejaVuSans-35" d="M 691 4666 
L 3169 4666 
L 3169 4134 
L 1269 4134 
L 1269 2991 
Q 1406 3038 1543 3061 
Q 1681 3084 1819 3084 
Q 2600 3084 3056 2656 
Q 3513 2228 3513 1497 
Q 3513 744 3044 326 
Q 2575 -91 1722 -91 
Q 1428 -91 1123 -41 
Q 819 9 494 109 
L 494 744 
Q 775 591 1075 516 
Q 1375 441 1709 441 
Q 2250 441 2565 725 
Q 2881 1009 2881 1497 
Q 2881 1984 2565 2268 
Q 2250 2553 1709 2553 
Q 1456 2553 1204 2497 
Q 953 2441 691 2322 
L 691 4666 
z
" transform="scale(0.015625)"/>
       </defs>
       <use xlink:href="#DejaVuSans-35"/>
       <use xlink:href="#DejaVuSans-30" x="63.623047"/>
       <use xlink:href="#DejaVuSans-30" x="127.246094"/>
      </g>
     </g>
    </g>
    <g id="xtick_7">
     <g id="line2d_7">
      <g>
       <use xlink:href="#m208da501e1" x="593.775482" y="390.04" style="stroke: #000000; stroke-width: 0.8"/>
      </g>
     </g>
     <g id="text_7">
      <!-- 600 -->
      <g transform="translate(584.231732 404.638438) scale(0.1 -0.1)">
       <defs>
        <path id="DejaVuSans-36" d="M 2113 2584 
Q 1688 2584 1439 2293 
Q 1191 2003 1191 1497 
Q 1191 994 1439 701 
Q 1688 409 2113 409 
Q 2538 409 2786 701 
Q 3034 994 3034 1497 
Q 3034 2003 2786 2293 
Q 2538 2584 2113 2584 
z
M 3366 4563 
L 3366 3988 
Q 3128 4100 2886 4159 
Q 2644 4219 2406 4219 
Q 1781 4219 1451 3797 
Q 1122 3375 1075 2522 
Q 1259 2794 1537 2939 
Q 1816 3084 2150 3084 
Q 2853 3084 3261 2657 
Q 3669 2231 3669 1497 
Q 3669 778 3244 343 
Q 2819 -91 2113 -91 
Q 1303 -91 875 529 
Q 447 1150 447 2328 
Q 447 3434 972 4092 
Q 1497 4750 2381 4750 
Q 2619 4750 2861 4703 
Q 3103 4656 3366 4563 
z
" transform="scale(0.015625)"/>
       </defs>
       <use xlink:href="#DejaVuSans-36"/>
       <use xlink:href="#DejaVuSans-30" x="63.623047"/>
       <use xlink:href="#DejaVuSans-30" x="127.246094"/>
      </g>
     </g>
    </g>
    <g id="xtick_8">
     <g id="line2d_8">
      <g>
       <use xlink:href="#m208da501e1" x="679.945335" y="390.04" style="stroke: #000000; stroke-width: 0.8"/>
      </g>
     </g>
     <g id="text_8">
      <!-- 700 -->
      <g transform="translate(670.401585 404.638438) scale(0.1 -0.1)">
       <defs>
        <path id="DejaVuSans-37" d="M 525 4666 
L 3525 4666 
L 3525 4397 
L 1831 0 
L 1172 0 
L 2766 4134 
L 525 4134 
L 525 4666 
z
" transform="scale(0.015625)"/>
       </defs>
       <use xlink:href="#DejaVuSans-37"/>
       <use xlink:href="#DejaVuSans-30" x="63.623047"/>
       <use xlink:href="#DejaVuSans-30" x="127.246094"/>
      </g>
     </g>
    </g>
    <g id="text_9">
     <!-- Time Step -->
     <g transform="translate(352.712188 418.316562) scale(0.1 -0.1)">
      <defs>
       <path id="DejaVuSans-54" d="M -19 4666 
L 3928 4666 
L 3928 4134 
L 2272 4134 
L 2272 0 
L 1638 0 
L 1638 4134 
L -19 4134 
L -19 4666 
z
" transform="scale(0.015625)"/>
       <path id="DejaVuSans-69" d="M 603 3500 
L 1178 3500 
L 1178 0 
L 603 0 
L 603 3500 
z
M 603 4863 
L 1178 4863 
L 1178 4134 
L 603 4134 
L 603 4863 
z
" transform="scale(0.015625)"/>
       <path id="DejaVuSans-6d" d="M 3328 2828 
Q 3544 3216 3844 3400 
Q 4144 3584 4550 3584 
Q 5097 3584 5394 3201 
Q 5691 2819 5691 2113 
L 5691 0 
L 5113 0 
L 5113 2094 
Q 5113 2597 4934 2840 
Q 4756 3084 4391 3084 
Q 3944 3084 3684 2787 
Q 3425 2491 3425 1978 
L 3425 0 
L 2847 0 
L 2847 2094 
Q 2847 2600 2669 2842 
Q 2491 3084 2119 3084 
Q 1678 3084 1418 2786 
Q 1159 2488 1159 1978 
L 1159 0 
L 581 0 
L 581 3500 
L 1159 3500 
L 1159 2956 
Q 1356 3278 1631 3431 
Q 1906 3584 2284 3584 
Q 2666 3584 2933 3390 
Q 3200 3197 3328 2828 
z
" transform="scale(0.015625)"/>
       <path id="DejaVuSans-65" d="M 3597 1894 
L 3597 1613 
L 953 1613 
Q 991 1019 1311 708 
Q 1631 397 2203 397 
Q 2534 397 2845 478 
Q 3156 559 3463 722 
L 3463 178 
Q 3153 47 2828 -22 
Q 2503 -91 2169 -91 
Q 1331 -91 842 396 
Q 353 884 353 1716 
Q 353 2575 817 3079 
Q 1281 3584 2069 3584 
Q 2775 3584 3186 3129 
Q 3597 2675 3597 1894 
z
M 3022 2063 
Q 3016 2534 2758 2815 
Q 2500 3097 2075 3097 
Q 1594 3097 1305 2825 
Q 1016 2553 972 2059 
L 3022 2063 
z
" transform="scale(0.015625)"/>
       <path id="DejaVuSans-20" transform="scale(0.015625)"/>
       <path id="DejaVuSans-53" d="M 3425 4513 
L 3425 3897 
Q 3066 4069 2747 4153 
Q 2428 4238 2131 4238 
Q 1616 4238 1336 4038 
Q 1056 3838 1056 3469 
Q 1056 3159 1242 3001 
Q 1428 2844 1947 2747 
L 2328 2669 
Q 3034 2534 3370 2195 
Q 3706 1856 3706 1288 
Q 3706 609 3251 259 
Q 2797 -91 1919 -91 
Q 1588 -91 1214 -16 
Q 841 59 441 206 
L 441 856 
Q 825 641 1194 531 
Q 1563 422 1919 422 
Q 2459 422 2753 634 
Q 3047 847 3047 1241 
Q 3047 1584 2836 1778 
Q 2625 1972 2144 2069 
L 1759 2144 
Q 1053 2284 737 2584 
Q 422 2884 422 3419 
Q 422 4038 858 4394 
Q 1294 4750 2059 4750 
Q 2388 4750 2728 4690 
Q 3069 4631 3425 4513 
z
" transform="scale(0.015625)"/>
       <path id="DejaVuSans-74" d="M 1172 4494 
L 1172 3500 
L 2356 3500 
L 2356 3053 
L 1172 3053 
L 1172 1153 
Q 1172 725 1289 603 
Q 1406 481 1766 481 
L 2356 481 
L 2356 0 
L 1766 0 
Q 1100 0 847 248 
Q 594 497 594 1153 
L 594 3053 
L 172 3053 
L 172 3500 
L 594 3500 
L 594 4494 
L 1172 4494 
z
" transform="scale(0.015625)"/>
       <path id="DejaVuSans-70" d="M 1159 525 
L 1159 -1331 
L 581 -1331 
L 581 3500 
L 1159 3500 
L 1159 2969 
Q 1341 3281 1617 3432 
Q 1894 3584 2278 3584 
Q 2916 3584 3314 3078 
Q 3713 2572 3713 1747 
Q 3713 922 3314 415 
Q 2916 -91 2278 -91 
Q 1894 -91 1617 61 
Q 1341 213 1159 525 
z
M 3116 1747 
Q 3116 2381 2855 2742 
Q 2594 3103 2138 3103 
Q 1681 3103 1420 2742 
Q 1159 2381 1159 1747 
Q 1159 1113 1420 752 
Q 1681 391 2138 391 
Q 2594 391 2855 752 
Q 3116 1113 3116 1747 
z
" transform="scale(0.015625)"/>
      </defs>
      <use xlink:href="#DejaVuSans-54"/>
      <use xlink:href="#DejaVuSans-69" x="57.958984"/>
      <use xlink:href="#DejaVuSans-6d" x="85.742188"/>
      <use xlink:href="#DejaVuSans-65" x="183.154297"/>
      <use xlink:href="#DejaVuSans-20" x="244.677734"/>
      <use xlink:href="#DejaVuSans-53" x="276.464844"/>
      <use xlink:href="#DejaVuSans-74" x="339.941406"/>
      <use xlink:href="#DejaVuSans-65" x="379.150391"/>
      <use xlink:href="#DejaVuSans-70" x="440.673828"/>
     </g>
    </g>
   </g>
   <g id="matplotlib.axis_2">
    <g id="ytick_1">
     <g id="line2d_9">
      <defs>
       <path id="mfd8d06ce89" d="M 0 0 
L -3.5 0 
" style="stroke: #000000; stroke-width: 0.8"/>
      </defs>
      <g>
       <use xlink:href="#mfd8d06ce89" x="46.64" y="387.545113" style="stroke: #000000; stroke-width: 0.8"/>
      </g>
     </g>
     <g id="text_10">
      <!-- −8 -->
      <g transform="translate(24.897813 391.344331) scale(0.1 -0.1)">
       <defs>
        <path id="DejaVuSans-2212" d="M 678 2272 
L 4684 2272 
L 4684 1741 
L 678 1741 
L 678 2272 
z
" transform="scale(0.015625)"/>
        <path id="DejaVuSans-38" d="M 2034 2216 
Q 1584 2216 1326 1975 
Q 1069 1734 1069 1313 
Q 1069 891 1326 650 
Q 1584 409 2034 409 
Q 2484 409 2743 651 
Q 3003 894 3003 1313 
Q 3003 1734 2745 1975 
Q 2488 2216 2034 2216 
z
M 1403 2484 
Q 997 2584 770 2862 
Q 544 3141 544 3541 
Q 544 4100 942 4425 
Q 1341 4750 2034 4750 
Q 2731 4750 3128 4425 
Q 3525 4100 3525 3541 
Q 3525 3141 3298 2862 
Q 3072 2584 2669 2484 
Q 3125 2378 3379 2068 
Q 3634 1759 3634 1313 
Q 3634 634 3220 271 
Q 2806 -91 2034 -91 
Q 1263 -91 848 271 
Q 434 634 434 1313 
Q 434 1759 690 2068 
Q 947 2378 1403 2484 
z
M 1172 3481 
Q 1172 3119 1398 2916 
Q 1625 2713 2034 2713 
Q 2441 2713 2670 2916 
Q 2900 3119 2900 3481 
Q 2900 3844 2670 4047 
Q 2441 4250 2034 4250 
Q 1625 4250 1398 4047 
Q 1172 3844 1172 3481 
z
" transform="scale(0.015625)"/>
       </defs>
       <use xlink:href="#DejaVuSans-2212"/>
       <use xlink:href="#DejaVuSans-38" x="83.789062"/>
      </g>
     </g>
    </g>
    <g id="ytick_2">
     <g id="line2d_10">
      <g>
       <use xlink:href="#mfd8d06ce89" x="46.64" y="342.968054" style="stroke: #000000; stroke-width: 0.8"/>
      </g>
     </g>
     <g id="text_11">
      <!-- −6 -->
      <g transform="translate(24.897813 346.767273) scale(0.1 -0.1)">
       <use xlink:href="#DejaVuSans-2212"/>
       <use xlink:href="#DejaVuSans-36" x="83.789062"/>
      </g>
     </g>
    </g>
    <g id="ytick_3">
     <g id="line2d_11">
      <g>
       <use xlink:href="#mfd8d06ce89" x="46.64" y="298.390996" style="stroke: #000000; stroke-width: 0.8"/>
      </g>
     </g>
     <g id="text_12">
      <!-- −4 -->
      <g transform="translate(24.897813 302.190215) scale(0.1 -0.1)">
       <use xlink:href="#DejaVuSans-2212"/>
       <use xlink:href="#DejaVuSans-34" x="83.789062"/>
      </g>
     </g>
    </g>
    <g id="ytick_4">
     <g id="line2d_12">
      <g>
       <use xlink:href="#mfd8d06ce89" x="46.64" y="253.813938" style="stroke: #000000; stroke-width: 0.8"/>
      </g>
     </g>
     <g id="text_13">
      <!-- −2 -->
      <g transform="translate(24.897813 257.613156) scale(0.1 -0.1)">
       <use xlink:href="#DejaVuSans-2212"/>
       <use xlink:href="#DejaVuSans-32" x="83.789062"/>
      </g>
     </g>
    </g>
    <g id="ytick_5">
     <g id="line2d_13">
      <g>
       <use xlink:href="#mfd8d06ce89" x="46.64" y="209.236879" style="stroke: #000000; stroke-width: 0.8"/>
      </g>
     </g>
     <g id="text_14">
      <!-- 0 -->
      <g transform="translate(33.2775 213.036098) scale(0.1 -0.1)">
       <use xlink:href="#DejaVuSans-30"/>
      </g>
     </g>
    </g>
    <g id="ytick_6">
     <g id="line2d_14">
      <g>
       <use xlink:href="#mfd8d06ce89" x="46.64" y="164.659821" style="stroke: #000000; stroke-width: 0.8"/>
      </g>
     </g>
     <g id="text_15">
      <!-- 2 -->
      <g transform="translate(33.2775 168.45904) scale(0.1 -0.1)">
       <use xlink:href="#DejaVuSans-32"/>
      </g>
     </g>
    </g>
    <g id="ytick_7">
     <g id="line2d_15">
      <g>
       <use xlink:href="#mfd8d06ce89" x="46.64" y="120.082763" style="stroke: #000000; stroke-width: 0.8"/>
      </g>
     </g>
     <g id="text_16">
      <!-- 4 -->
      <g transform="translate(33.2775 123.881981) scale(0.1 -0.1)">
       <use xlink:href="#DejaVuSans-34"/>
      </g>
     </g>
    </g>
    <g id="ytick_8">
     <g id="line2d_16">
      <g>
       <use xlink:href="#mfd8d06ce89" x="46.64" y="75.505704" style="stroke: #000000; stroke-width: 0.8"/>
      </g>
     </g>
     <g id="text_17">
      <!-- 6 -->
      <g transform="translate(33.2775 79.304923) scale(0.1 -0.1)">
       <use xlink:href="#DejaVuSans-36"/>
      </g>
     </g>
    </g>
    <g id="ytick_9">
     <g id="line2d_17">
      <g>
       <use xlink:href="#mfd8d06ce89" x="46.64" y="30.928646" style="stroke: #000000; stroke-width: 0.8"/>
      </g>
     </g>
     <g id="text_18">
      <!-- 8 -->
      <g transform="translate(33.2775 34.727865) scale(0.1 -0.1)">
       <use xlink:href="#DejaVuSans-38"/>
      </g>
     </g>
    </g>
    <g id="text_19">
     <!-- Output -->
     <g transform="translate(18.818125 225.827969) rotate(-90) scale(0.1 -0.1)">
      <defs>
       <path id="DejaVuSans-4f" d="M 2522 4238 
Q 1834 4238 1429 3725 
Q 1025 3213 1025 2328 
Q 1025 1447 1429 934 
Q 1834 422 2522 422 
Q 3209 422 3611 934 
Q 4013 1447 4013 2328 
Q 4013 3213 3611 3725 
Q 3209 4238 2522 4238 
z
M 2522 4750 
Q 3503 4750 4090 4092 
Q 4678 3434 4678 2328 
Q 4678 1225 4090 567 
Q 3503 -91 2522 -91 
Q 1538 -91 948 565 
Q 359 1222 359 2328 
Q 359 3434 948 4092 
Q 1538 4750 2522 4750 
z
" transform="scale(0.015625)"/>
       <path id="DejaVuSans-75" d="M 544 1381 
L 544 3500 
L 1119 3500 
L 1119 1403 
Q 1119 906 1312 657 
Q 1506 409 1894 409 
Q 2359 409 2629 706 
Q 2900 1003 2900 1516 
L 2900 3500 
L 3475 3500 
L 3475 0 
L 2900 0 
L 2900 538 
Q 2691 219 2414 64 
Q 2138 -91 1772 -91 
Q 1169 -91 856 284 
Q 544 659 544 1381 
z
M 1991 3584 
L 1991 3584 
z
" transform="scale(0.015625)"/>
      </defs>
      <use xlink:href="#DejaVuSans-4f"/>
      <use xlink:href="#DejaVuSans-75" x="78.710938"/>
      <use xlink:href="#DejaVuSans-74" x="142.089844"/>
      <use xlink:href="#DejaVuSans-70" x="181.298828"/>
      <use xlink:href="#DejaVuSans-75" x="244.775391"/>
      <use xlink:href="#DejaVuSans-74" x="308.154297"/>
     </g>
    </g>
   </g>
   <g id="line2d_18">
    <path d="M 76.756364 209.236879 
L 78.479761 209.236879 
L 79.341459 143.675604 
L 80.203158 104.91967 
L 81.064856 139.216953 
L 81.926555 183.621354 
L 82.788253 196.660743 
L 83.649952 199.697042 
L 84.51165 201.176321 
L 85.373349 201.972625 
L 86.235047 198.143923 
L 87.096746 180.877694 
L 87.958445 170.611791 
L 88.820143 187.039888 
L 89.681842 197.856477 
L 90.54354 204.736117 
L 91.405239 260.768096 
L 92.266937 359.831285 
L 93.128636 373.532727 
L 94.852033 233.517865 
L 95.713731 220.716741 
L 96.57543 217.887925 
L 97.437128 214.451487 
L 98.298827 213.311813 
L 99.160525 213.180012 
L 100.022224 213.929399 
L 100.883922 216.034011 
L 101.745621 215.877566 
L 102.60732 214.959816 
L 103.469018 195.432391 
L 104.330717 110.373009 
L 105.192415 43.387273 
L 106.054114 63.821327 
L 106.915812 150.043383 
L 107.777511 197.360318 
L 108.639209 200.222983 
L 109.500908 214.03832 
L 110.362606 241.62188 
L 111.224305 239.114603 
L 112.086003 224.44543 
L 112.947702 219.74988 
L 113.8094 217.834411 
L 114.671099 216.721523 
L 115.532798 217.501902 
L 116.394496 235.676243 
L 117.256195 285.686219 
L 118.117893 312.750872 
L 118.979592 279.384658 
L 119.84129 228.714256 
L 120.702989 220.280626 
L 121.564687 205.05883 
L 122.426386 139.639381 
L 123.288084 105.238042 
L 124.149783 139.204234 
L 125.011481 183.622309 
L 125.87318 196.660686 
L 126.734878 199.69702 
L 127.596577 201.176308 
L 128.458275 201.972616 
L 129.319974 198.143917 
L 130.181673 180.877691 
L 131.043371 170.611791 
L 131.90507 187.039888 
L 132.766768 197.856477 
L 133.628467 204.736117 
L 134.490165 260.768096 
L 135.351864 359.831285 
L 136.213562 373.532727 
L 137.936959 233.517865 
L 138.798658 220.716741 
L 139.660356 217.887925 
L 140.522055 214.451487 
L 141.383753 213.311813 
L 142.245452 213.180012 
L 143.10715 213.929399 
L 143.968849 216.034011 
L 144.830548 215.877566 
L 145.692246 214.959816 
L 146.553945 195.432391 
L 147.415643 110.373009 
L 148.277342 43.387273 
L 149.13904 63.821327 
L 150.000739 150.043383 
L 150.862437 197.360318 
L 151.724136 200.222983 
L 152.585834 214.03832 
L 153.447533 241.62188 
L 154.309231 239.114603 
L 155.17093 224.44543 
L 156.032628 219.74988 
L 156.894327 217.834411 
L 157.756025 216.721523 
L 158.617724 217.501902 
L 159.479423 235.676243 
L 160.341121 285.686219 
L 161.20282 312.750872 
L 162.064518 279.384658 
L 162.926217 228.714256 
L 163.787915 220.280626 
L 164.649614 205.05883 
L 165.511312 139.639381 
L 166.373011 105.238042 
L 167.234709 139.204234 
L 168.096408 183.622309 
L 168.958106 196.660686 
L 169.819805 199.69702 
L 170.681503 201.176308 
L 171.543202 201.972616 
L 172.404901 198.143917 
L 173.266599 180.877691 
L 174.128298 170.611791 
L 174.989996 187.039888 
L 175.851695 197.856477 
L 176.713393 204.736117 
L 177.575092 260.768096 
L 178.43679 359.831285 
L 179.298489 373.532727 
L 181.021886 233.517865 
L 181.883584 220.716741 
L 182.745283 217.887925 
L 183.606981 214.451487 
L 184.46868 213.311813 
L 185.330378 213.180012 
L 186.192077 213.929399 
L 187.053776 216.034011 
L 187.915474 215.877566 
L 188.777173 214.959816 
L 189.638871 195.432391 
L 190.50057 110.373009 
L 191.362268 43.387273 
L 192.223967 63.821327 
L 193.085665 150.043383 
L 193.947364 197.360318 
L 194.809062 200.222983 
L 195.670761 214.03832 
L 196.532459 241.62188 
L 197.394158 239.114603 
L 198.255856 224.44543 
L 199.117555 219.74988 
L 199.979253 217.834411 
L 200.840952 216.721523 
L 201.702651 217.501902 
L 202.564349 235.676243 
L 203.426048 285.686219 
L 204.287746 312.750872 
L 205.149445 279.384658 
L 206.011143 228.714256 
L 206.872842 220.280626 
L 207.73454 205.05883 
L 208.596239 139.639381 
L 209.457937 105.238042 
L 210.319636 139.204234 
L 211.181334 183.622309 
L 212.043033 196.660686 
L 212.904731 199.69702 
L 213.76643 201.176308 
L 214.628128 201.972616 
L 215.489827 198.143917 
L 216.351526 180.877691 
L 217.213224 170.611791 
L 218.074923 187.039888 
L 218.936621 197.856477 
L 219.79832 204.736117 
L 220.660018 260.768096 
L 221.521717 359.831285 
L 222.383415 373.532727 
L 224.106812 233.517865 
L 224.968511 220.716741 
L 225.830209 217.887925 
L 226.691908 214.451487 
L 227.553606 213.311813 
L 228.415305 213.180012 
L 229.277004 213.929399 
L 230.138702 216.034011 
L 231.000401 215.877566 
L 231.862099 214.959816 
L 232.723798 195.432391 
L 233.585496 110.373009 
L 234.447195 43.387273 
L 235.308893 63.821327 
L 236.170592 150.043383 
L 237.03229 197.360318 
L 237.893989 200.222983 
L 238.755687 214.03832 
L 239.617386 241.62188 
L 240.479084 239.114603 
L 241.340783 224.44543 
L 242.202481 219.74988 
L 243.06418 217.834411 
L 243.925879 216.721523 
L 244.787577 217.501902 
L 245.649276 235.676243 
L 246.510974 285.686219 
L 247.372673 312.750872 
L 248.234371 279.384658 
L 249.09607 228.714256 
L 249.957768 220.280626 
L 250.819467 205.05883 
L 251.681165 139.639381 
L 252.542864 105.238042 
L 253.404562 139.204234 
L 254.266261 183.622309 
L 255.127959 196.660686 
L 255.989658 199.69702 
L 256.851356 201.176308 
L 257.713055 201.972616 
L 258.574754 198.143917 
L 259.436452 180.877691 
L 260.298151 170.611791 
L 261.159849 187.039888 
L 262.021548 197.856477 
L 262.883246 204.736117 
L 263.744945 260.768096 
L 264.606643 359.831285 
L 265.468342 373.532727 
L 267.191739 233.517865 
L 268.053437 220.716741 
L 268.915136 217.887925 
L 269.776834 214.451487 
L 270.638533 213.311813 
L 271.500231 213.180012 
L 272.36193 213.929399 
L 273.223629 216.034011 
L 274.085327 215.877566 
L 274.947026 214.959816 
L 275.808724 195.432391 
L 276.670423 110.373009 
L 277.532121 43.387273 
L 278.39382 63.821327 
L 279.255518 150.043383 
L 280.117217 197.360318 
L 280.978915 200.222983 
L 281.840614 214.03832 
L 282.702312 241.62188 
L 283.564011 239.114603 
L 284.425709 224.44543 
L 285.287408 219.74988 
L 286.149107 217.834411 
L 287.010805 216.721523 
L 287.872504 217.501902 
L 288.734202 235.676243 
L 289.595901 285.686219 
L 290.457599 312.750872 
L 291.319298 279.384658 
L 292.180996 228.714256 
L 293.042695 220.280626 
L 293.904393 205.05883 
L 294.766092 139.639381 
L 295.62779 105.238042 
L 296.489489 139.204234 
L 297.351187 183.622309 
L 298.212886 196.660686 
L 299.074584 199.69702 
L 299.936283 201.176308 
L 300.797982 201.972616 
L 301.65968 198.143917 
L 302.521379 180.877691 
L 303.383077 170.611791 
L 304.244776 187.039888 
L 305.106474 197.856477 
L 305.968173 204.736117 
L 306.829871 260.768096 
L 307.69157 359.831285 
L 308.553268 373.532727 
L 310.276665 233.517865 
L 311.138364 220.716741 
L 312.000062 217.887925 
L 312.861761 214.451487 
L 313.723459 213.311813 
L 314.585158 213.180012 
L 315.446857 213.929399 
L 316.308555 216.034011 
L 317.170254 215.877566 
L 318.031952 214.959816 
L 318.893651 195.432391 
L 319.755349 110.373009 
L 320.617048 43.387273 
L 321.478746 63.821327 
L 322.340445 150.043383 
L 323.202143 197.360318 
L 324.063842 200.222983 
L 324.92554 214.03832 
L 325.787239 241.62188 
L 326.648937 239.114603 
L 327.510636 224.44543 
L 328.372335 219.74988 
L 329.234033 217.834411 
L 330.095732 216.721523 
L 330.95743 217.501902 
L 331.819129 235.676243 
L 332.680827 285.686219 
L 333.542526 312.750872 
L 334.404224 279.384658 
L 335.265923 228.714256 
L 336.127621 220.280626 
L 336.98932 205.05883 
L 337.851018 139.639381 
L 338.712717 105.238042 
L 339.574415 139.204234 
L 340.436114 183.622309 
L 341.297812 196.660686 
L 342.159511 199.69702 
L 343.02121 201.176308 
L 343.882908 201.972616 
L 344.744607 198.143917 
L 345.606305 180.877691 
L 346.468004 170.611791 
L 347.329702 187.039888 
L 348.191401 197.856477 
L 349.053099 204.736117 
L 349.914798 260.768096 
L 350.776496 359.831285 
L 351.638195 373.532727 
L 353.361592 233.517865 
L 354.22329 220.716741 
L 355.084989 217.887925 
L 355.946687 214.451487 
L 356.808386 213.311813 
L 357.670085 213.180012 
L 358.531783 213.929399 
L 359.393482 216.034011 
L 360.25518 215.877566 
L 361.116879 214.959816 
L 361.978577 195.432391 
L 362.840276 110.373009 
L 363.701974 43.387273 
L 364.563673 63.821327 
L 365.425371 150.043383 
L 366.28707 197.360318 
L 367.148768 200.222983 
L 368.010467 214.03832 
L 368.872165 241.62188 
L 369.733864 239.114603 
L 370.595562 224.44543 
L 371.457261 219.74988 
L 372.31896 217.834411 
L 373.180658 216.721523 
L 374.042357 217.501902 
L 374.904055 235.676243 
L 375.765754 285.686219 
L 376.627452 312.750872 
L 377.489151 279.384658 
L 378.350849 228.714256 
L 379.212548 220.280626 
L 380.074246 205.05883 
L 380.935945 139.639381 
L 381.797643 105.238042 
L 382.659342 139.204234 
L 383.52104 183.622309 
L 384.382739 196.660686 
L 385.244438 199.69702 
L 386.106136 201.176308 
L 386.967835 201.972616 
L 387.829533 198.143917 
L 388.691232 180.877691 
L 389.55293 170.611791 
L 390.414629 187.039888 
L 391.276327 197.856477 
L 392.138026 204.736117 
L 392.999724 260.768096 
L 393.861423 359.831285 
L 394.723121 373.532727 
L 396.446518 233.517865 
L 397.308217 220.716741 
L 398.169915 217.887925 
L 399.031614 214.451487 
L 399.893313 213.311813 
L 400.755011 213.180012 
L 401.61671 213.929399 
L 402.478408 216.034011 
L 403.340107 215.877566 
L 404.201805 214.959816 
L 405.063504 195.432391 
L 405.925202 110.373009 
L 406.786901 43.387273 
L 407.648599 63.821327 
L 408.510298 150.043383 
L 409.371996 197.360318 
L 410.233695 200.222983 
L 411.095393 214.03832 
L 411.957092 241.62188 
L 412.81879 239.114603 
L 413.680489 224.44543 
L 414.542188 219.74988 
L 415.403886 217.834411 
L 416.265585 216.721523 
L 417.127283 217.501902 
L 417.988982 235.676243 
L 418.85068 285.686219 
L 419.712379 312.750872 
L 420.574077 279.384658 
L 421.435776 228.714256 
L 422.297474 220.280626 
L 423.159173 205.05883 
L 424.020871 139.639381 
L 424.88257 105.238042 
L 425.744268 139.204234 
L 426.605967 183.622309 
L 427.467665 196.660686 
L 428.329364 199.69702 
L 429.191063 201.176308 
L 430.052761 201.972616 
L 430.91446 198.143917 
L 431.776158 180.877691 
L 432.637857 170.611791 
L 433.499555 187.039888 
L 434.361254 197.856477 
L 435.222952 204.736117 
L 436.084651 260.768096 
L 436.946349 359.831285 
L 437.808048 373.532727 
L 439.531445 233.517865 
L 440.393143 220.716741 
L 441.254842 217.887925 
L 442.116541 214.451487 
L 442.978239 213.311813 
L 443.839938 213.180012 
L 444.701636 213.929399 
L 445.563335 216.034011 
L 446.425033 215.877566 
L 447.286732 214.959816 
L 448.14843 195.432391 
L 449.010129 110.373009 
L 449.871827 43.387273 
L 450.733526 63.821327 
L 451.595224 150.043383 
L 452.456923 197.360318 
L 453.318621 200.222983 
L 454.18032 214.03832 
L 455.042018 241.62188 
L 455.903717 239.114603 
L 456.765416 224.44543 
L 457.627114 219.74988 
L 458.488813 217.834411 
L 459.350511 216.721523 
L 460.21221 217.501902 
L 461.073908 235.676243 
L 461.935607 285.686219 
L 462.797305 312.750872 
L 463.659004 279.384658 
L 464.520702 228.714256 
L 465.382401 220.280626 
L 466.244099 205.05883 
L 467.105798 139.639381 
L 467.967496 105.238042 
L 468.829195 139.204234 
L 469.690893 183.622309 
L 470.552592 196.660686 
L 471.414291 199.69702 
L 472.275989 201.176308 
L 473.137688 201.972616 
L 473.999386 198.143917 
L 474.861085 180.877691 
L 475.722783 170.611791 
L 476.584482 187.039888 
L 477.44618 197.856477 
L 478.307879 204.736117 
L 479.169577 260.768096 
L 480.031276 359.831285 
L 480.892974 373.532727 
L 482.616371 233.517865 
L 483.47807 220.716741 
L 484.339769 217.887925 
L 485.201467 214.451487 
L 486.063166 213.311813 
L 486.924864 213.180012 
L 487.786563 213.929399 
L 488.648261 216.034011 
L 489.50996 215.877566 
L 490.371658 214.959816 
L 491.233357 195.432391 
L 492.095055 110.373009 
L 492.956754 43.387273 
L 493.818452 63.821327 
L 494.680151 150.043383 
L 495.541849 197.360318 
L 496.403548 200.222983 
L 497.265246 214.03832 
L 498.126945 241.62188 
L 498.988644 239.114603 
L 499.850342 224.44543 
L 500.712041 219.74988 
L 501.573739 217.834411 
L 502.435438 216.721523 
L 503.297136 217.501902 
L 504.158835 235.676243 
L 505.020533 285.686219 
L 505.882232 312.750872 
L 506.74393 279.384658 
L 507.605629 228.714256 
L 508.467327 220.280626 
L 509.329026 205.05883 
L 510.190724 139.639381 
L 511.052423 105.238042 
L 511.914121 139.204234 
L 512.77582 183.622309 
L 513.637519 196.660686 
L 514.499217 199.69702 
L 515.360916 201.176308 
L 516.222614 201.972616 
L 517.084313 198.143917 
L 517.946011 180.877691 
L 518.80771 170.611791 
L 519.669408 187.039888 
L 520.531107 197.856477 
L 521.392805 204.736117 
L 522.254504 260.768096 
L 523.116202 359.831285 
L 523.977901 373.532727 
L 525.701298 233.517865 
L 526.562996 220.716741 
L 527.424695 217.887925 
L 528.286394 214.451487 
L 529.148092 213.311813 
L 530.009791 213.180012 
L 530.871489 213.929399 
L 531.733188 216.034011 
L 532.594886 215.877566 
L 533.456585 214.959816 
L 534.318283 195.432391 
L 535.179982 110.373009 
L 536.04168 43.387273 
L 536.903379 63.821327 
L 537.765077 150.043383 
L 538.626776 197.360318 
L 539.488474 200.222983 
L 540.350173 214.03832 
L 541.211872 241.62188 
L 542.07357 239.114603 
L 542.935269 224.44543 
L 543.796967 219.74988 
L 544.658666 217.834411 
L 545.520364 216.721523 
L 546.382063 217.501902 
L 547.243761 235.676243 
L 548.10546 285.686219 
L 548.967158 312.750872 
L 549.828857 279.384658 
L 550.690555 228.714256 
L 551.552254 220.280626 
L 552.413952 205.05883 
L 553.275651 139.639381 
L 554.137349 105.238042 
L 554.999048 139.204234 
L 555.860747 183.622309 
L 556.722445 196.660686 
L 557.584144 199.69702 
L 558.445842 201.176308 
L 559.307541 201.972616 
L 560.169239 198.143917 
L 561.030938 180.877691 
L 561.892636 170.611791 
L 562.754335 187.039888 
L 563.616033 197.856477 
L 564.477732 204.736117 
L 565.33943 260.768096 
L 566.201129 359.831285 
L 567.062827 373.532727 
L 568.786224 233.517865 
L 569.647923 220.716741 
L 570.509622 217.887925 
L 571.37132 214.451487 
L 572.233019 213.311813 
L 573.094717 213.180012 
L 573.956416 213.929399 
L 574.818114 216.034011 
L 575.679813 215.877566 
L 576.541511 214.959816 
L 577.40321 195.432391 
L 578.264908 110.373009 
L 579.126607 43.387273 
L 579.988305 63.821327 
L 580.850004 150.043383 
L 581.711702 197.360318 
L 582.573401 200.222983 
L 583.435099 214.03832 
L 584.296798 241.62188 
L 585.158497 239.114603 
L 586.020195 224.44543 
L 586.881894 219.74988 
L 587.743592 217.834411 
L 588.605291 216.721523 
L 589.466989 217.501902 
L 590.328688 235.676243 
L 591.190386 285.686219 
L 592.052085 312.750872 
L 592.913783 279.384658 
L 593.775482 228.714256 
L 594.63718 220.280626 
L 595.498879 205.05883 
L 596.360577 139.639381 
L 597.222276 105.238042 
L 598.083975 139.204234 
L 598.945673 183.622309 
L 599.807372 196.660686 
L 600.66907 199.69702 
L 601.530769 201.176308 
L 602.392467 201.972616 
L 603.254166 198.143917 
L 604.115864 180.877691 
L 604.977563 170.611791 
L 605.839261 187.039888 
L 606.70096 197.856477 
L 607.562658 204.736117 
L 608.424357 260.768096 
L 609.286055 359.831285 
L 610.147754 373.532727 
L 611.871151 233.517865 
L 612.73285 220.716741 
L 613.594548 217.887925 
L 614.456247 214.451487 
L 615.317945 213.311813 
L 616.179644 213.180012 
L 617.041342 213.929399 
L 617.903041 216.034011 
L 618.764739 215.877566 
L 619.626438 214.959816 
L 620.488136 195.432391 
L 621.349835 110.373009 
L 622.211533 43.387273 
L 623.073232 63.821327 
L 623.93493 150.043383 
L 624.796629 197.360318 
L 625.658327 200.222983 
L 626.520026 214.03832 
L 627.381725 241.62188 
L 628.243423 239.114603 
L 629.105122 224.44543 
L 629.96682 219.74988 
L 630.828519 217.834411 
L 631.690217 216.721523 
L 632.551916 217.501902 
L 633.413614 235.676243 
L 634.275313 285.686219 
L 635.137011 312.750872 
L 635.99871 279.384658 
L 636.860408 228.714256 
L 637.722107 220.280626 
L 638.583805 205.05883 
L 639.445504 139.639381 
L 640.307202 105.238042 
L 641.168901 139.204234 
L 642.0306 183.622309 
L 642.892298 196.660686 
L 643.753997 199.69702 
L 644.615695 201.176308 
L 645.477394 201.972616 
L 646.339092 198.143917 
L 647.200791 180.877691 
L 648.062489 170.611791 
L 648.924188 187.039888 
L 649.785886 197.856477 
L 650.647585 204.736117 
L 651.509283 260.768096 
L 652.370982 359.831285 
L 653.23268 373.532727 
L 654.956078 233.517865 
L 655.817776 220.716741 
L 656.679475 217.887925 
L 657.541173 214.451487 
L 658.402872 213.311813 
L 659.26457 213.180012 
L 660.126269 213.929399 
L 660.987967 216.034011 
L 661.849666 215.877566 
L 662.711364 214.959816 
L 663.573063 195.432391 
L 664.434761 110.373009 
L 665.29646 43.387273 
L 666.158158 63.821327 
L 667.019857 150.043383 
L 667.881555 197.360318 
L 668.743254 200.222983 
L 669.604953 214.03832 
L 670.466651 241.62188 
L 671.32835 239.114603 
L 672.190048 224.44543 
L 673.051747 219.74988 
L 673.913445 217.834411 
L 674.775144 216.721523 
L 675.636842 217.501902 
L 676.498541 235.676243 
L 677.360239 285.686219 
L 678.221938 312.750872 
L 679.083636 279.384658 
L 679.083636 279.384658 
" clip-path="url(#pb36b0ce504)" style="fill: none; stroke: #1f77b4; stroke-width: 1.5; stroke-linecap: square"/>
   </g>
   <g id="line2d_19">
    <path d="M 76.756364 209.236879 
L 78.479761 209.236879 
L 79.341459 197.875038 
L 81.064856 186.994688 
L 81.926555 185.056651 
L 82.788253 184.538632 
L 84.51165 184.366257 
L 95.713731 184.353354 
L 679.083636 184.353354 
L 679.083636 184.353354 
" clip-path="url(#pb36b0ce504)" style="fill: none; stroke-dasharray: 5.55,2.4; stroke-dashoffset: 0; stroke: #ff7f0e; stroke-width: 1.5"/>
   </g>
   <g id="patch_3">
    <path d="M 46.64 390.04 
L 46.64 26.88 
" style="fill: none; stroke: #000000; stroke-width: 0.8; stroke-linejoin: miter; stroke-linecap: square"/>
   </g>
   <g id="patch_4">
    <path d="M 709.2 390.04 
L 709.2 26.88 
" style="fill: none; stroke: #000000; stroke-width: 0.8; stroke-linejoin: miter; stroke-linecap: square"/>
   </g>
   <g id="patch_5">
    <path d="M 46.64 390.04 
L 709.2 390.04 
" style="fill: none; stroke: #000000; stroke-width: 0.8; stroke-linejoin: miter; stroke-linecap: square"/>
   </g>
   <g id="patch_6">
    <path d="M 46.64 26.88 
L 709.2 26.88 
" style="fill: none; stroke: #000000; stroke-width: 0.8; stroke-linejoin: miter; stroke-linecap: square"/>
   </g>
   <g id="text_20">
    <!-- Example 3: Model Output vs True Plant Output -->
    <g transform="translate(238.46875 20.88) scale(0.12 -0.12)">
     <defs>
      <path id="DejaVuSans-45" d="M 628 4666 
L 3578 4666 
L 3578 4134 
L 1259 4134 
L 1259 2753 
L 3481 2753 
L 3481 2222 
L 1259 2222 
L 1259 531 
L 3634 531 
L 3634 0 
L 628 0 
L 628 4666 
z
" transform="scale(0.015625)"/>
      <path id="DejaVuSans-78" d="M 3513 3500 
L 2247 1797 
L 3578 0 
L 2900 0 
L 1881 1375 
L 863 0 
L 184 0 
L 1544 1831 
L 300 3500 
L 978 3500 
L 1906 2253 
L 2834 3500 
L 3513 3500 
z
" transform="scale(0.015625)"/>
      <path id="DejaVuSans-61" d="M 2194 1759 
Q 1497 1759 1228 1600 
Q 959 1441 959 1056 
Q 959 750 1161 570 
Q 1363 391 1709 391 
Q 2188 391 2477 730 
Q 2766 1069 2766 1631 
L 2766 1759 
L 2194 1759 
z
M 3341 1997 
L 3341 0 
L 2766 0 
L 2766 531 
Q 2569 213 2275 61 
Q 1981 -91 1556 -91 
Q 1019 -91 701 211 
Q 384 513 384 1019 
Q 384 1609 779 1909 
Q 1175 2209 1959 2209 
L 2766 2209 
L 2766 2266 
Q 2766 2663 2505 2880 
Q 2244 3097 1772 3097 
Q 1472 3097 1187 3025 
Q 903 2953 641 2809 
L 641 3341 
Q 956 3463 1253 3523 
Q 1550 3584 1831 3584 
Q 2591 3584 2966 3190 
Q 3341 2797 3341 1997 
z
" transform="scale(0.015625)"/>
      <path id="DejaVuSans-6c" d="M 603 4863 
L 1178 4863 
L 1178 0 
L 603 0 
L 603 4863 
z
" transform="scale(0.015625)"/>
      <path id="DejaVuSans-3a" d="M 750 794 
L 1409 794 
L 1409 0 
L 750 0 
L 750 794 
z
M 750 3309 
L 1409 3309 
L 1409 2516 
L 750 2516 
L 750 3309 
z
" transform="scale(0.015625)"/>
      <path id="DejaVuSans-4d" d="M 628 4666 
L 1569 4666 
L 2759 1491 
L 3956 4666 
L 4897 4666 
L 4897 0 
L 4281 0 
L 4281 4097 
L 3078 897 
L 2444 897 
L 1241 4097 
L 1241 0 
L 628 0 
L 628 4666 
z
" transform="scale(0.015625)"/>
      <path id="DejaVuSans-6f" d="M 1959 3097 
Q 1497 3097 1228 2736 
Q 959 2375 959 1747 
Q 959 1119 1226 758 
Q 1494 397 1959 397 
Q 2419 397 2687 759 
Q 2956 1122 2956 1747 
Q 2956 2369 2687 2733 
Q 2419 3097 1959 3097 
z
M 1959 3584 
Q 2709 3584 3137 3096 
Q 3566 2609 3566 1747 
Q 3566 888 3137 398 
Q 2709 -91 1959 -91 
Q 1206 -91 779 398 
Q 353 888 353 1747 
Q 353 2609 779 3096 
Q 1206 3584 1959 3584 
z
" transform="scale(0.015625)"/>
      <path id="DejaVuSans-64" d="M 2906 2969 
L 2906 4863 
L 3481 4863 
L 3481 0 
L 2906 0 
L 2906 525 
Q 2725 213 2448 61 
Q 2172 -91 1784 -91 
Q 1150 -91 751 415 
Q 353 922 353 1747 
Q 353 2572 751 3078 
Q 1150 3584 1784 3584 
Q 2172 3584 2448 3432 
Q 2725 3281 2906 2969 
z
M 947 1747 
Q 947 1113 1208 752 
Q 1469 391 1925 391 
Q 2381 391 2643 752 
Q 2906 1113 2906 1747 
Q 2906 2381 2643 2742 
Q 2381 3103 1925 3103 
Q 1469 3103 1208 2742 
Q 947 2381 947 1747 
z
" transform="scale(0.015625)"/>
      <path id="DejaVuSans-76" d="M 191 3500 
L 800 3500 
L 1894 563 
L 2988 3500 
L 3597 3500 
L 2284 0 
L 1503 0 
L 191 3500 
z
" transform="scale(0.015625)"/>
      <path id="DejaVuSans-73" d="M 2834 3397 
L 2834 2853 
Q 2591 2978 2328 3040 
Q 2066 3103 1784 3103 
Q 1356 3103 1142 2972 
Q 928 2841 928 2578 
Q 928 2378 1081 2264 
Q 1234 2150 1697 2047 
L 1894 2003 
Q 2506 1872 2764 1633 
Q 3022 1394 3022 966 
Q 3022 478 2636 193 
Q 2250 -91 1575 -91 
Q 1294 -91 989 -36 
Q 684 19 347 128 
L 347 722 
Q 666 556 975 473 
Q 1284 391 1588 391 
Q 1994 391 2212 530 
Q 2431 669 2431 922 
Q 2431 1156 2273 1281 
Q 2116 1406 1581 1522 
L 1381 1569 
Q 847 1681 609 1914 
Q 372 2147 372 2553 
Q 372 3047 722 3315 
Q 1072 3584 1716 3584 
Q 2034 3584 2315 3537 
Q 2597 3491 2834 3397 
z
" transform="scale(0.015625)"/>
      <path id="DejaVuSans-72" d="M 2631 2963 
Q 2534 3019 2420 3045 
Q 2306 3072 2169 3072 
Q 1681 3072 1420 2755 
Q 1159 2438 1159 1844 
L 1159 0 
L 581 0 
L 581 3500 
L 1159 3500 
L 1159 2956 
Q 1341 3275 1631 3429 
Q 1922 3584 2338 3584 
Q 2397 3584 2469 3576 
Q 2541 3569 2628 3553 
L 2631 2963 
z
" transform="scale(0.015625)"/>
      <path id="DejaVuSans-50" d="M 1259 4147 
L 1259 2394 
L 2053 2394 
Q 2494 2394 2734 2622 
Q 2975 2850 2975 3272 
Q 2975 3691 2734 3919 
Q 2494 4147 2053 4147 
L 1259 4147 
z
M 628 4666 
L 2053 4666 
Q 2838 4666 3239 4311 
Q 3641 3956 3641 3272 
Q 3641 2581 3239 2228 
Q 2838 1875 2053 1875 
L 1259 1875 
L 1259 0 
L 628 0 
L 628 4666 
z
" transform="scale(0.015625)"/>
      <path id="DejaVuSans-6e" d="M 3513 2113 
L 3513 0 
L 2938 0 
L 2938 2094 
Q 2938 2591 2744 2837 
Q 2550 3084 2163 3084 
Q 1697 3084 1428 2787 
Q 1159 2491 1159 1978 
L 1159 0 
L 581 0 
L 581 3500 
L 1159 3500 
L 1159 2956 
Q 1366 3272 1645 3428 
Q 1925 3584 2291 3584 
Q 2894 3584 3203 3211 
Q 3513 2838 3513 2113 
z
" transform="scale(0.015625)"/>
     </defs>
     <use xlink:href="#DejaVuSans-45"/>
     <use xlink:href="#DejaVuSans-78" x="63.183594"/>
     <use xlink:href="#DejaVuSans-61" x="122.363281"/>
     <use xlink:href="#DejaVuSans-6d" x="183.642578"/>
     <use xlink:href="#DejaVuSans-70" x="281.054688"/>
     <use xlink:href="#DejaVuSans-6c" x="344.53125"/>
     <use xlink:href="#DejaVuSans-65" x="372.314453"/>
     <use xlink:href="#DejaVuSans-20" x="433.837891"/>
     <use xlink:href="#DejaVuSans-33" x="465.625"/>
     <use xlink:href="#DejaVuSans-3a" x="529.248047"/>
     <use xlink:href="#DejaVuSans-20" x="562.939453"/>
     <use xlink:href="#DejaVuSans-4d" x="594.726562"/>
     <use xlink:href="#DejaVuSans-6f" x="681.005859"/>
     <use xlink:href="#DejaVuSans-64" x="742.1875"/>
     <use xlink:href="#DejaVuSans-65" x="805.664062"/>
     <use xlink:href="#DejaVuSans-6c" x="867.1875"/>
     <use xlink:href="#DejaVuSans-20" x="894.970703"/>
     <use xlink:href="#DejaVuSans-4f" x="926.757812"/>
     <use xlink:href="#DejaVuSans-75" x="1005.46875"/>
     <use xlink:href="#DejaVuSans-74" x="1068.847656"/>
     <use xlink:href="#DejaVuSans-70" x="1108.056641"/>
     <use xlink:href="#DejaVuSans-75" x="1171.533203"/>
     <use xlink:href="#DejaVuSans-74" x="1234.912109"/>
     <use xlink:href="#DejaVuSans-20" x="1274.121094"/>
     <use xlink:href="#DejaVuSans-76" x="1305.908203"/>
     <use xlink:href="#DejaVuSans-73" x="1365.087891"/>
     <use xlink:href="#DejaVuSans-20" x="1417.1875"/>
     <use xlink:href="#DejaVuSans-54" x="1448.974609"/>
     <use xlink:href="#DejaVuSans-72" x="1495.308594"/>
     <use xlink:href="#DejaVuSans-75" x="1536.421875"/>
     <use xlink:href="#DejaVuSans-65" x="1599.800781"/>
     <use xlink:href="#DejaVuSans-20" x="1661.324219"/>
     <use xlink:href="#DejaVuSans-50" x="1693.111328"/>
     <use xlink:href="#DejaVuSans-6c" x="1753.414062"/>
     <use xlink:href="#DejaVuSans-61" x="1781.197266"/>
     <use xlink:href="#DejaVuSans-6e" x="1842.476562"/>
     <use xlink:href="#DejaVuSans-74" x="1905.855469"/>
     <use xlink:href="#DejaVuSans-20" x="1945.064453"/>
     <use xlink:href="#DejaVuSans-4f" x="1976.851562"/>
     <use xlink:href="#DejaVuSans-75" x="2055.5625"/>
     <use xlink:href="#DejaVuSans-74" x="2118.941406"/>
     <use xlink:href="#DejaVuSans-70" x="2158.150391"/>
     <use xlink:href="#DejaVuSans-75" x="2221.626953"/>
     <use xlink:href="#DejaVuSans-74" x="2285.005859"/>
    </g>
   </g>
   <g id="legend_1">
    <g id="patch_7">
     <path d="M 554.43125 64.7925 
L 702.2 64.7925 
Q 704.2 64.7925 704.2 62.7925 
L 704.2 33.88 
Q 704.2 31.88 702.2 31.88 
L 554.43125 31.88 
Q 552.43125 31.88 552.43125 33.88 
L 552.43125 62.7925 
Q 552.43125 64.7925 554.43125 64.7925 
z
" style="fill: #ffffff; opacity: 0.8; stroke: #cccccc; stroke-linejoin: miter"/>
    </g>
    <g id="line2d_20">
     <path d="M 556.43125 39.978438 
L 566.43125 39.978438 
L 576.43125 39.978438 
" style="fill: none; stroke: #1f77b4; stroke-width: 1.5; stroke-linecap: square"/>
    </g>
    <g id="text_21">
     <!-- True Plant Output (y_p) -->
     <g transform="translate(584.43125 43.478438) scale(0.1 -0.1)">
      <defs>
       <path id="DejaVuSans-28" d="M 1984 4856 
Q 1566 4138 1362 3434 
Q 1159 2731 1159 2009 
Q 1159 1288 1364 580 
Q 1569 -128 1984 -844 
L 1484 -844 
Q 1016 -109 783 600 
Q 550 1309 550 2009 
Q 550 2706 781 3412 
Q 1013 4119 1484 4856 
L 1984 4856 
z
" transform="scale(0.015625)"/>
       <path id="DejaVuSans-79" d="M 2059 -325 
Q 1816 -950 1584 -1140 
Q 1353 -1331 966 -1331 
L 506 -1331 
L 506 -850 
L 844 -850 
Q 1081 -850 1212 -737 
Q 1344 -625 1503 -206 
L 1606 56 
L 191 3500 
L 800 3500 
L 1894 763 
L 2988 3500 
L 3597 3500 
L 2059 -325 
z
" transform="scale(0.015625)"/>
       <path id="DejaVuSans-5f" d="M 3263 -1063 
L 3263 -1509 
L -63 -1509 
L -63 -1063 
L 3263 -1063 
z
" transform="scale(0.015625)"/>
       <path id="DejaVuSans-29" d="M 513 4856 
L 1013 4856 
Q 1481 4119 1714 3412 
Q 1947 2706 1947 2009 
Q 1947 1309 1714 600 
Q 1481 -109 1013 -844 
L 513 -844 
Q 928 -128 1133 580 
Q 1338 1288 1338 2009 
Q 1338 2731 1133 3434 
Q 928 4138 513 4856 
z
" transform="scale(0.015625)"/>
      </defs>
      <use xlink:href="#DejaVuSans-54"/>
      <use xlink:href="#DejaVuSans-72" x="46.333984"/>
      <use xlink:href="#DejaVuSans-75" x="87.447266"/>
      <use xlink:href="#DejaVuSans-65" x="150.826172"/>
      <use xlink:href="#DejaVuSans-20" x="212.349609"/>
      <use xlink:href="#DejaVuSans-50" x="244.136719"/>
      <use xlink:href="#DejaVuSans-6c" x="304.439453"/>
      <use xlink:href="#DejaVuSans-61" x="332.222656"/>
      <use xlink:href="#DejaVuSans-6e" x="393.501953"/>
      <use xlink:href="#DejaVuSans-74" x="456.880859"/>
      <use xlink:href="#DejaVuSans-20" x="496.089844"/>
      <use xlink:href="#DejaVuSans-4f" x="527.876953"/>
      <use xlink:href="#DejaVuSans-75" x="606.587891"/>
      <use xlink:href="#DejaVuSans-74" x="669.966797"/>
      <use xlink:href="#DejaVuSans-70" x="709.175781"/>
      <use xlink:href="#DejaVuSans-75" x="772.652344"/>
      <use xlink:href="#DejaVuSans-74" x="836.03125"/>
      <use xlink:href="#DejaVuSans-20" x="875.240234"/>
      <use xlink:href="#DejaVuSans-28" x="907.027344"/>
      <use xlink:href="#DejaVuSans-79" x="946.041016"/>
      <use xlink:href="#DejaVuSans-5f" x="1005.220703"/>
      <use xlink:href="#DejaVuSans-70" x="1055.220703"/>
      <use xlink:href="#DejaVuSans-29" x="1118.697266"/>
     </g>
    </g>
    <g id="line2d_21">
     <path d="M 556.43125 54.934688 
L 566.43125 54.934688 
L 576.43125 54.934688 
" style="fill: none; stroke-dasharray: 5.55,2.4; stroke-dashoffset: 0; stroke: #ff7f0e; stroke-width: 1.5"/>
    </g>
    <g id="text_22">
     <!-- Model Output (y_hat) -->
     <g transform="translate(584.43125 58.434688) scale(0.1 -0.1)">
      <defs>
       <path id="DejaVuSans-68" d="M 3513 2113 
L 3513 0 
L 2938 0 
L 2938 2094 
Q 2938 2591 2744 2837 
Q 2550 3084 2163 3084 
Q 1697 3084 1428 2787 
Q 1159 2491 1159 1978 
L 1159 0 
L 581 0 
L 581 4863 
L 1159 4863 
L 1159 2956 
Q 1366 3272 1645 3428 
Q 1925 3584 2291 3584 
Q 2894 3584 3203 3211 
Q 3513 2838 3513 2113 
z
" transform="scale(0.015625)"/>
      </defs>
      <use xlink:href="#DejaVuSans-4d"/>
      <use xlink:href="#DejaVuSans-6f" x="86.279297"/>
      <use xlink:href="#DejaVuSans-64" x="147.460938"/>
      <use xlink:href="#DejaVuSans-65" x="210.9375"/>
      <use xlink:href="#DejaVuSans-6c" x="272.460938"/>
      <use xlink:href="#DejaVuSans-20" x="300.244141"/>
      <use xlink:href="#DejaVuSans-4f" x="332.03125"/>
      <use xlink:href="#DejaVuSans-75" x="410.742188"/>
      <use xlink:href="#DejaVuSans-74" x="474.121094"/>
      <use xlink:href="#DejaVuSans-70" x="513.330078"/>
      <use xlink:href="#DejaVuSans-75" x="576.806641"/>
      <use xlink:href="#DejaVuSans-74" x="640.185547"/>
      <use xlink:href="#DejaVuSans-20" x="679.394531"/>
      <use xlink:href="#DejaVuSans-28" x="711.181641"/>
      <use xlink:href="#DejaVuSans-79" x="750.195312"/>
      <use xlink:href="#DejaVuSans-5f" x="809.375"/>
      <use xlink:href="#DejaVuSans-68" x="859.375"/>
      <use xlink:href="#DejaVuSans-61" x="922.753906"/>
      <use xlink:href="#DejaVuSans-74" x="984.033203"/>
      <use xlink:href="#DejaVuSans-29" x="1023.242188"/>
     </g>
    </g>
   </g>
  </g>
 </g>
 <defs>
  <clipPath id="pb36b0ce504">
   <rect x="46.64" y="26.88" width="662.56" height="363.16"/>
  </clipPath>
 </defs>
</svg>
