<?xml version="1.0" encoding="utf-8" standalone="no"?>
<!DOCTYPE svg PUBLIC "-//W3C//DTD SVG 1.1//EN"
  "http://www.w3.org/Graphics/SVG/1.1/DTD/svg11.dtd">
<svg xmlns:xlink="http://www.w3.org/1999/xlink" width="864pt" height="360pt" viewBox="0 0 864 360" xmlns="http://www.w3.org/2000/svg" version="1.1">
 <metadata>
  <rdf:RDF xmlns:dc="http://purl.org/dc/elements/1.1/" xmlns:cc="http://creativecommons.org/ns#" xmlns:rdf="http://www.w3.org/1999/02/22-rdf-syntax-ns#">
   <cc:Work>
    <dc:type rdf:resource="http://purl.org/dc/dcmitype/StillImage"/>
    <dc:date>2024-11-11T00:47:45.764339</dc:date>
    <dc:format>image/svg+xml</dc:format>
    <dc:creator>
     <cc:Agent>
      <dc:title>Matplotlib v3.9.2, https://matplotlib.org/</dc:title>
     </cc:Agent>
    </dc:creator>
   </cc:Work>
  </rdf:RDF>
 </metadata>
 <defs>
  <style type="text/css">*{stroke-linejoin: round; stroke-linecap: butt}</style>
 </defs>
 <g id="figure_1">
  <g id="patch_1">
   <path d="M 0 360 
L 864 360 
L 864 0 
L 0 0 
z
" style="fill: #ffffff"/>
  </g>
  <g id="axes_1">
   <g id="patch_2">
    <path d="M 46.64 318.04 
L 412.47 318.04 
L 412.47 50.64 
L 46.64 50.64 
z
" style="fill: #ffffff"/>
   </g>
   <g id="matplotlib.axis_1">
    <g id="xtick_1">
     <g id="line2d_1">
      <defs>
       <path id="mf942f40d4c" d="M 0 0 
L 0 3.5 
" style="stroke: #000000; stroke-width: 0.8"/>
      </defs>
      <g>
       <use xlink:href="#mf942f40d4c" x="46.64" y="318.04" style="stroke: #000000; stroke-width: 0.8"/>
      </g>
     </g>
     <g id="text_1">
      <!-- 0 -->
      <g transform="translate(43.45875 332.638438) scale(0.1 -0.1)">
       <defs>
        <path id="DejaVuSans-30" d="M 2034 4250 
Q 1547 4250 1301 3770 
Q 1056 3291 1056 2328 
Q 1056 1369 1301 889 
Q 1547 409 2034 409 
Q 2525 409 2770 889 
Q 3016 1369 3016 2328 
Q 3016 3291 2770 3770 
Q 2525 4250 2034 4250 
z
M 2034 4750 
Q 2819 4750 3233 4129 
Q 3647 3509 3647 2328 
Q 3647 1150 3233 529 
Q 2819 -91 2034 -91 
Q 1250 -91 836 529 
Q 422 1150 422 2328 
Q 422 3509 836 4129 
Q 1250 4750 2034 4750 
z
" transform="scale(0.015625)"/>
       </defs>
       <use xlink:href="#DejaVuSans-30"/>
      </g>
     </g>
    </g>
    <g id="xtick_2">
     <g id="line2d_2">
      <g>
       <use xlink:href="#mf942f40d4c" x="119.806" y="318.04" style="stroke: #000000; stroke-width: 0.8"/>
      </g>
     </g>
     <g id="text_2">
      <!-- 100 -->
      <g transform="translate(110.26225 332.638438) scale(0.1 -0.1)">
       <defs>
        <path id="DejaVuSans-31" d="M 794 531 
L 1825 531 
L 1825 4091 
L 703 3866 
L 703 4441 
L 1819 4666 
L 2450 4666 
L 2450 531 
L 3481 531 
L 3481 0 
L 794 0 
L 794 531 
z
" transform="scale(0.015625)"/>
       </defs>
       <use xlink:href="#DejaVuSans-31"/>
       <use xlink:href="#DejaVuSans-30" x="63.623047"/>
       <use xlink:href="#DejaVuSans-30" x="127.246094"/>
      </g>
     </g>
    </g>
    <g id="xtick_3">
     <g id="line2d_3">
      <g>
       <use xlink:href="#mf942f40d4c" x="192.972" y="318.04" style="stroke: #000000; stroke-width: 0.8"/>
      </g>
     </g>
     <g id="text_3">
      <!-- 200 -->
      <g transform="translate(183.42825 332.638438) scale(0.1 -0.1)">
       <defs>
        <path id="DejaVuSans-32" d="M 1228 531 
L 3431 531 
L 3431 0 
L 469 0 
L 469 531 
Q 828 903 1448 1529 
Q 2069 2156 2228 2338 
Q 2531 2678 2651 2914 
Q 2772 3150 2772 3378 
Q 2772 3750 2511 3984 
Q 2250 4219 1831 4219 
Q 1534 4219 1204 4116 
Q 875 4013 500 3803 
L 500 4441 
Q 881 4594 1212 4672 
Q 1544 4750 1819 4750 
Q 2544 4750 2975 4387 
Q 3406 4025 3406 3419 
Q 3406 3131 3298 2873 
Q 3191 2616 2906 2266 
Q 2828 2175 2409 1742 
Q 1991 1309 1228 531 
z
" transform="scale(0.015625)"/>
       </defs>
       <use xlink:href="#DejaVuSans-32"/>
       <use xlink:href="#DejaVuSans-30" x="63.623047"/>
       <use xlink:href="#DejaVuSans-30" x="127.246094"/>
      </g>
     </g>
    </g>
    <g id="xtick_4">
     <g id="line2d_4">
      <g>
       <use xlink:href="#mf942f40d4c" x="266.138" y="318.04" style="stroke: #000000; stroke-width: 0.8"/>
      </g>
     </g>
     <g id="text_4">
      <!-- 300 -->
      <g transform="translate(256.59425 332.638438) scale(0.1 -0.1)">
       <defs>
        <path id="DejaVuSans-33" d="M 2597 2516 
Q 3050 2419 3304 2112 
Q 3559 1806 3559 1356 
Q 3559 666 3084 287 
Q 2609 -91 1734 -91 
Q 1441 -91 1130 -33 
Q 819 25 488 141 
L 488 750 
Q 750 597 1062 519 
Q 1375 441 1716 441 
Q 2309 441 2620 675 
Q 2931 909 2931 1356 
Q 2931 1769 2642 2001 
Q 2353 2234 1838 2234 
L 1294 2234 
L 1294 2753 
L 1863 2753 
Q 2328 2753 2575 2939 
Q 2822 3125 2822 3475 
Q 2822 3834 2567 4026 
Q 2313 4219 1838 4219 
Q 1578 4219 1281 4162 
Q 984 4106 628 3988 
L 628 4550 
Q 988 4650 1302 4700 
Q 1616 4750 1894 4750 
Q 2613 4750 3031 4423 
Q 3450 4097 3450 3541 
Q 3450 3153 3228 2886 
Q 3006 2619 2597 2516 
z
" transform="scale(0.015625)"/>
       </defs>
       <use xlink:href="#DejaVuSans-33"/>
       <use xlink:href="#DejaVuSans-30" x="63.623047"/>
       <use xlink:href="#DejaVuSans-30" x="127.246094"/>
      </g>
     </g>
    </g>
    <g id="xtick_5">
     <g id="line2d_5">
      <g>
       <use xlink:href="#mf942f40d4c" x="339.304" y="318.04" style="stroke: #000000; stroke-width: 0.8"/>
      </g>
     </g>
     <g id="text_5">
      <!-- 400 -->
      <g transform="translate(329.76025 332.638438) scale(0.1 -0.1)">
       <defs>
        <path id="DejaVuSans-34" d="M 2419 4116 
L 825 1625 
L 2419 1625 
L 2419 4116 
z
M 2253 4666 
L 3047 4666 
L 3047 1625 
L 3713 1625 
L 3713 1100 
L 3047 1100 
L 3047 0 
L 2419 0 
L 2419 1100 
L 313 1100 
L 313 1709 
L 2253 4666 
z
" transform="scale(0.015625)"/>
       </defs>
       <use xlink:href="#DejaVuSans-34"/>
       <use xlink:href="#DejaVuSans-30" x="63.623047"/>
       <use xlink:href="#DejaVuSans-30" x="127.246094"/>
      </g>
     </g>
    </g>
    <g id="xtick_6">
     <g id="line2d_6">
      <g>
       <use xlink:href="#mf942f40d4c" x="412.47" y="318.04" style="stroke: #000000; stroke-width: 0.8"/>
      </g>
     </g>
     <g id="text_6">
      <!-- 500 -->
      <g transform="translate(402.92625 332.638438) scale(0.1 -0.1)">
       <defs>
        <path id="DejaVuSans-35" d="M 691 4666 
L 3169 4666 
L 3169 4134 
L 1269 4134 
L 1269 2991 
Q 1406 3038 1543 3061 
Q 1681 3084 1819 3084 
Q 2600 3084 3056 2656 
Q 3513 2228 3513 1497 
Q 3513 744 3044 326 
Q 2575 -91 1722 -91 
Q 1428 -91 1123 -41 
Q 819 9 494 109 
L 494 744 
Q 775 591 1075 516 
Q 1375 441 1709 441 
Q 2250 441 2565 725 
Q 2881 1009 2881 1497 
Q 2881 1984 2565 2268 
Q 2250 2553 1709 2553 
Q 1456 2553 1204 2497 
Q 953 2441 691 2322 
L 691 4666 
z
" transform="scale(0.015625)"/>
       </defs>
       <use xlink:href="#DejaVuSans-35"/>
       <use xlink:href="#DejaVuSans-30" x="63.623047"/>
       <use xlink:href="#DejaVuSans-30" x="127.246094"/>
      </g>
     </g>
    </g>
    <g id="text_7">
     <!-- Time Step -->
     <g transform="translate(204.347188 346.316563) scale(0.1 -0.1)">
      <defs>
       <path id="DejaVuSans-54" d="M -19 4666 
L 3928 4666 
L 3928 4134 
L 2272 4134 
L 2272 0 
L 1638 0 
L 1638 4134 
L -19 4134 
L -19 4666 
z
" transform="scale(0.015625)"/>
       <path id="DejaVuSans-69" d="M 603 3500 
L 1178 3500 
L 1178 0 
L 603 0 
L 603 3500 
z
M 603 4863 
L 1178 4863 
L 1178 4134 
L 603 4134 
L 603 4863 
z
" transform="scale(0.015625)"/>
       <path id="DejaVuSans-6d" d="M 3328 2828 
Q 3544 3216 3844 3400 
Q 4144 3584 4550 3584 
Q 5097 3584 5394 3201 
Q 5691 2819 5691 2113 
L 5691 0 
L 5113 0 
L 5113 2094 
Q 5113 2597 4934 2840 
Q 4756 3084 4391 3084 
Q 3944 3084 3684 2787 
Q 3425 2491 3425 1978 
L 3425 0 
L 2847 0 
L 2847 2094 
Q 2847 2600 2669 2842 
Q 2491 3084 2119 3084 
Q 1678 3084 1418 2786 
Q 1159 2488 1159 1978 
L 1159 0 
L 581 0 
L 581 3500 
L 1159 3500 
L 1159 2956 
Q 1356 3278 1631 3431 
Q 1906 3584 2284 3584 
Q 2666 3584 2933 3390 
Q 3200 3197 3328 2828 
z
" transform="scale(0.015625)"/>
       <path id="DejaVuSans-65" d="M 3597 1894 
L 3597 1613 
L 953 1613 
Q 991 1019 1311 708 
Q 1631 397 2203 397 
Q 2534 397 2845 478 
Q 3156 559 3463 722 
L 3463 178 
Q 3153 47 2828 -22 
Q 2503 -91 2169 -91 
Q 1331 -91 842 396 
Q 353 884 353 1716 
Q 353 2575 817 3079 
Q 1281 3584 2069 3584 
Q 2775 3584 3186 3129 
Q 3597 2675 3597 1894 
z
M 3022 2063 
Q 3016 2534 2758 2815 
Q 2500 3097 2075 3097 
Q 1594 3097 1305 2825 
Q 1016 2553 972 2059 
L 3022 2063 
z
" transform="scale(0.015625)"/>
       <path id="DejaVuSans-20" transform="scale(0.015625)"/>
       <path id="DejaVuSans-53" d="M 3425 4513 
L 3425 3897 
Q 3066 4069 2747 4153 
Q 2428 4238 2131 4238 
Q 1616 4238 1336 4038 
Q 1056 3838 1056 3469 
Q 1056 3159 1242 3001 
Q 1428 2844 1947 2747 
L 2328 2669 
Q 3034 2534 3370 2195 
Q 3706 1856 3706 1288 
Q 3706 609 3251 259 
Q 2797 -91 1919 -91 
Q 1588 -91 1214 -16 
Q 841 59 441 206 
L 441 856 
Q 825 641 1194 531 
Q 1563 422 1919 422 
Q 2459 422 2753 634 
Q 3047 847 3047 1241 
Q 3047 1584 2836 1778 
Q 2625 1972 2144 2069 
L 1759 2144 
Q 1053 2284 737 2584 
Q 422 2884 422 3419 
Q 422 4038 858 4394 
Q 1294 4750 2059 4750 
Q 2388 4750 2728 4690 
Q 3069 4631 3425 4513 
z
" transform="scale(0.015625)"/>
       <path id="DejaVuSans-74" d="M 1172 4494 
L 1172 3500 
L 2356 3500 
L 2356 3053 
L 1172 3053 
L 1172 1153 
Q 1172 725 1289 603 
Q 1406 481 1766 481 
L 2356 481 
L 2356 0 
L 1766 0 
Q 1100 0 847 248 
Q 594 497 594 1153 
L 594 3053 
L 172 3053 
L 172 3500 
L 594 3500 
L 594 4494 
L 1172 4494 
z
" transform="scale(0.015625)"/>
       <path id="DejaVuSans-70" d="M 1159 525 
L 1159 -1331 
L 581 -1331 
L 581 3500 
L 1159 3500 
L 1159 2969 
Q 1341 3281 1617 3432 
Q 1894 3584 2278 3584 
Q 2916 3584 3314 3078 
Q 3713 2572 3713 1747 
Q 3713 922 3314 415 
Q 2916 -91 2278 -91 
Q 1894 -91 1617 61 
Q 1341 213 1159 525 
z
M 3116 1747 
Q 3116 2381 2855 2742 
Q 2594 3103 2138 3103 
Q 1681 3103 1420 2742 
Q 1159 2381 1159 1747 
Q 1159 1113 1420 752 
Q 1681 391 2138 391 
Q 2594 391 2855 752 
Q 3116 1113 3116 1747 
z
" transform="scale(0.015625)"/>
      </defs>
      <use xlink:href="#DejaVuSans-54"/>
      <use xlink:href="#DejaVuSans-69" x="57.958984"/>
      <use xlink:href="#DejaVuSans-6d" x="85.742188"/>
      <use xlink:href="#DejaVuSans-65" x="183.154297"/>
      <use xlink:href="#DejaVuSans-20" x="244.677734"/>
      <use xlink:href="#DejaVuSans-53" x="276.464844"/>
      <use xlink:href="#DejaVuSans-74" x="339.941406"/>
      <use xlink:href="#DejaVuSans-65" x="379.150391"/>
      <use xlink:href="#DejaVuSans-70" x="440.673828"/>
     </g>
    </g>
   </g>
   <g id="matplotlib.axis_2">
    <g id="ytick_1">
     <g id="line2d_7">
      <defs>
       <path id="m3f07bacd14" d="M 0 0 
L -3.5 0 
" style="stroke: #000000; stroke-width: 0.8"/>
      </defs>
      <g>
       <use xlink:href="#m3f07bacd14" x="46.64" y="307.743963" style="stroke: #000000; stroke-width: 0.8"/>
      </g>
     </g>
     <g id="text_8">
      <!-- −8 -->
      <g transform="translate(24.897813 311.543182) scale(0.1 -0.1)">
       <defs>
        <path id="DejaVuSans-2212" d="M 678 2272 
L 4684 2272 
L 4684 1741 
L 678 1741 
L 678 2272 
z
" transform="scale(0.015625)"/>
        <path id="DejaVuSans-38" d="M 2034 2216 
Q 1584 2216 1326 1975 
Q 1069 1734 1069 1313 
Q 1069 891 1326 650 
Q 1584 409 2034 409 
Q 2484 409 2743 651 
Q 3003 894 3003 1313 
Q 3003 1734 2745 1975 
Q 2488 2216 2034 2216 
z
M 1403 2484 
Q 997 2584 770 2862 
Q 544 3141 544 3541 
Q 544 4100 942 4425 
Q 1341 4750 2034 4750 
Q 2731 4750 3128 4425 
Q 3525 4100 3525 3541 
Q 3525 3141 3298 2862 
Q 3072 2584 2669 2484 
Q 3125 2378 3379 2068 
Q 3634 1759 3634 1313 
Q 3634 634 3220 271 
Q 2806 -91 2034 -91 
Q 1263 -91 848 271 
Q 434 634 434 1313 
Q 434 1759 690 2068 
Q 947 2378 1403 2484 
z
M 1172 3481 
Q 1172 3119 1398 2916 
Q 1625 2713 2034 2713 
Q 2441 2713 2670 2916 
Q 2900 3119 2900 3481 
Q 2900 3844 2670 4047 
Q 2441 4250 2034 4250 
Q 1625 4250 1398 4047 
Q 1172 3844 1172 3481 
z
" transform="scale(0.015625)"/>
       </defs>
       <use xlink:href="#DejaVuSans-2212"/>
       <use xlink:href="#DejaVuSans-38" x="83.789062"/>
      </g>
     </g>
    </g>
    <g id="ytick_2">
     <g id="line2d_8">
      <g>
       <use xlink:href="#m3f07bacd14" x="46.64" y="276.880722" style="stroke: #000000; stroke-width: 0.8"/>
      </g>
     </g>
     <g id="text_9">
      <!-- −6 -->
      <g transform="translate(24.897813 280.679941) scale(0.1 -0.1)">
       <defs>
        <path id="DejaVuSans-36" d="M 2113 2584 
Q 1688 2584 1439 2293 
Q 1191 2003 1191 1497 
Q 1191 994 1439 701 
Q 1688 409 2113 409 
Q 2538 409 2786 701 
Q 3034 994 3034 1497 
Q 3034 2003 2786 2293 
Q 2538 2584 2113 2584 
z
M 3366 4563 
L 3366 3988 
Q 3128 4100 2886 4159 
Q 2644 4219 2406 4219 
Q 1781 4219 1451 3797 
Q 1122 3375 1075 2522 
Q 1259 2794 1537 2939 
Q 1816 3084 2150 3084 
Q 2853 3084 3261 2657 
Q 3669 2231 3669 1497 
Q 3669 778 3244 343 
Q 2819 -91 2113 -91 
Q 1303 -91 875 529 
Q 447 1150 447 2328 
Q 447 3434 972 4092 
Q 1497 4750 2381 4750 
Q 2619 4750 2861 4703 
Q 3103 4656 3366 4563 
z
" transform="scale(0.015625)"/>
       </defs>
       <use xlink:href="#DejaVuSans-2212"/>
       <use xlink:href="#DejaVuSans-36" x="83.789062"/>
      </g>
     </g>
    </g>
    <g id="ytick_3">
     <g id="line2d_9">
      <g>
       <use xlink:href="#m3f07bacd14" x="46.64" y="246.017481" style="stroke: #000000; stroke-width: 0.8"/>
      </g>
     </g>
     <g id="text_10">
      <!-- −4 -->
      <g transform="translate(24.897813 249.8167) scale(0.1 -0.1)">
       <use xlink:href="#DejaVuSans-2212"/>
       <use xlink:href="#DejaVuSans-34" x="83.789062"/>
      </g>
     </g>
    </g>
    <g id="ytick_4">
     <g id="line2d_10">
      <g>
       <use xlink:href="#m3f07bacd14" x="46.64" y="215.15424" style="stroke: #000000; stroke-width: 0.8"/>
      </g>
     </g>
     <g id="text_11">
      <!-- −2 -->
      <g transform="translate(24.897813 218.953458) scale(0.1 -0.1)">
       <use xlink:href="#DejaVuSans-2212"/>
       <use xlink:href="#DejaVuSans-32" x="83.789062"/>
      </g>
     </g>
    </g>
    <g id="ytick_5">
     <g id="line2d_11">
      <g>
       <use xlink:href="#m3f07bacd14" x="46.64" y="184.290998" style="stroke: #000000; stroke-width: 0.8"/>
      </g>
     </g>
     <g id="text_12">
      <!-- 0 -->
      <g transform="translate(33.2775 188.090217) scale(0.1 -0.1)">
       <use xlink:href="#DejaVuSans-30"/>
      </g>
     </g>
    </g>
    <g id="ytick_6">
     <g id="line2d_12">
      <g>
       <use xlink:href="#m3f07bacd14" x="46.64" y="153.427757" style="stroke: #000000; stroke-width: 0.8"/>
      </g>
     </g>
     <g id="text_13">
      <!-- 2 -->
      <g transform="translate(33.2775 157.226976) scale(0.1 -0.1)">
       <use xlink:href="#DejaVuSans-32"/>
      </g>
     </g>
    </g>
    <g id="ytick_7">
     <g id="line2d_13">
      <g>
       <use xlink:href="#m3f07bacd14" x="46.64" y="122.564516" style="stroke: #000000; stroke-width: 0.8"/>
      </g>
     </g>
     <g id="text_14">
      <!-- 4 -->
      <g transform="translate(33.2775 126.363735) scale(0.1 -0.1)">
       <use xlink:href="#DejaVuSans-34"/>
      </g>
     </g>
    </g>
    <g id="ytick_8">
     <g id="line2d_14">
      <g>
       <use xlink:href="#m3f07bacd14" x="46.64" y="91.701275" style="stroke: #000000; stroke-width: 0.8"/>
      </g>
     </g>
     <g id="text_15">
      <!-- 6 -->
      <g transform="translate(33.2775 95.500494) scale(0.1 -0.1)">
       <use xlink:href="#DejaVuSans-36"/>
      </g>
     </g>
    </g>
    <g id="ytick_9">
     <g id="line2d_15">
      <g>
       <use xlink:href="#m3f07bacd14" x="46.64" y="60.838034" style="stroke: #000000; stroke-width: 0.8"/>
      </g>
     </g>
     <g id="text_16">
      <!-- 8 -->
      <g transform="translate(33.2775 64.637252) scale(0.1 -0.1)">
       <use xlink:href="#DejaVuSans-38"/>
      </g>
     </g>
    </g>
    <g id="text_17">
     <!-- g(u) -->
     <g transform="translate(18.818125 194.584531) rotate(-90) scale(0.1 -0.1)">
      <defs>
       <path id="DejaVuSans-67" d="M 2906 1791 
Q 2906 2416 2648 2759 
Q 2391 3103 1925 3103 
Q 1463 3103 1205 2759 
Q 947 2416 947 1791 
Q 947 1169 1205 825 
Q 1463 481 1925 481 
Q 2391 481 2648 825 
Q 2906 1169 2906 1791 
z
M 3481 434 
Q 3481 -459 3084 -895 
Q 2688 -1331 1869 -1331 
Q 1566 -1331 1297 -1286 
Q 1028 -1241 775 -1147 
L 775 -588 
Q 1028 -725 1275 -790 
Q 1522 -856 1778 -856 
Q 2344 -856 2625 -561 
Q 2906 -266 2906 331 
L 2906 616 
Q 2728 306 2450 153 
Q 2172 0 1784 0 
Q 1141 0 747 490 
Q 353 981 353 1791 
Q 353 2603 747 3093 
Q 1141 3584 1784 3584 
Q 2172 3584 2450 3431 
Q 2728 3278 2906 2969 
L 2906 3500 
L 3481 3500 
L 3481 434 
z
" transform="scale(0.015625)"/>
       <path id="DejaVuSans-28" d="M 1984 4856 
Q 1566 4138 1362 3434 
Q 1159 2731 1159 2009 
Q 1159 1288 1364 580 
Q 1569 -128 1984 -844 
L 1484 -844 
Q 1016 -109 783 600 
Q 550 1309 550 2009 
Q 550 2706 781 3412 
Q 1013 4119 1484 4856 
L 1984 4856 
z
" transform="scale(0.015625)"/>
       <path id="DejaVuSans-75" d="M 544 1381 
L 544 3500 
L 1119 3500 
L 1119 1403 
Q 1119 906 1312 657 
Q 1506 409 1894 409 
Q 2359 409 2629 706 
Q 2900 1003 2900 1516 
L 2900 3500 
L 3475 3500 
L 3475 0 
L 2900 0 
L 2900 538 
Q 2691 219 2414 64 
Q 2138 -91 1772 -91 
Q 1169 -91 856 284 
Q 544 659 544 1381 
z
M 1991 3584 
L 1991 3584 
z
" transform="scale(0.015625)"/>
       <path id="DejaVuSans-29" d="M 513 4856 
L 1013 4856 
Q 1481 4119 1714 3412 
Q 1947 2706 1947 2009 
Q 1947 1309 1714 600 
Q 1481 -109 1013 -844 
L 513 -844 
Q 928 -128 1133 580 
Q 1338 1288 1338 2009 
Q 1338 2731 1133 3434 
Q 928 4138 513 4856 
z
" transform="scale(0.015625)"/>
      </defs>
      <use xlink:href="#DejaVuSans-67"/>
      <use xlink:href="#DejaVuSans-28" x="63.476562"/>
      <use xlink:href="#DejaVuSans-75" x="102.490234"/>
      <use xlink:href="#DejaVuSans-29" x="165.869141"/>
     </g>
    </g>
   </g>
   <g id="line2d_16">
    <path d="M 46.64 305.885455 
L 47.37166 305.093437 
L 48.10332 302.328775 
L 49.56664 292.060489 
L 50.2983 291.608833 
L 51.02996 291.380554 
L 52.49328 288.614548 
L 53.22494 284.966796 
L 53.9566 284.407031 
L 54.68826 282.563561 
L 55.41992 280.34162 
L 56.15158 280.143165 
L 58.34656 277.163216 
L 59.07822 277.070214 
L 60.54154 275.88851 
L 61.2732 274.380114 
L 62.00486 273.474059 
L 62.73652 273.075825 
L 63.46818 272.411708 
L 64.19984 272.230845 
L 64.9315 270.801384 
L 65.66316 268.399909 
L 66.39482 267.264582 
L 67.12648 266.724109 
L 67.85814 266.652084 
L 68.5898 266.457501 
L 69.32146 265.732256 
L 70.05312 264.432544 
L 70.78478 263.636985 
L 71.51644 263.133841 
L 72.2481 262.794701 
L 73.71142 262.45364 
L 75.9064 260.219975 
L 76.63806 258.568419 
L 77.36972 258.448298 
L 78.83304 255.281919 
L 79.5647 255.140309 
L 81.02802 251.79668 
L 81.75968 244.943126 
L 82.49134 244.022773 
L 83.223 242.17162 
L 83.95466 241.757333 
L 85.41798 241.434129 
L 86.14964 240.271011 
L 86.8813 239.974815 
L 87.61296 239.531467 
L 89.07628 239.116096 
L 89.80794 237.458981 
L 90.5396 234.970467 
L 91.27126 234.900089 
L 92.00292 233.895554 
L 92.73458 233.821884 
L 93.46624 232.740895 
L 94.1979 232.065218 
L 94.92956 231.95902 
L 95.66122 228.983168 
L 96.39288 227.929269 
L 97.12454 227.689164 
L 97.8562 227.658874 
L 98.58786 226.966595 
L 99.31952 226.784458 
L 100.78284 224.259574 
L 101.5145 221.342038 
L 102.24616 221.145792 
L 102.97782 218.556702 
L 103.70948 217.25915 
L 104.44114 215.303733 
L 105.1728 215.249905 
L 105.90446 214.948505 
L 106.63612 213.645047 
L 107.36778 213.259127 
L 108.8311 212.897023 
L 109.56276 212.664312 
L 110.29442 212.116303 
L 111.02608 210.899283 
L 111.75774 210.801405 
L 112.4894 210.474562 
L 113.22106 208.807877 
L 113.95272 208.655541 
L 114.68438 207.054926 
L 115.41604 206.480575 
L 116.87936 206.243134 
L 117.61102 206.170536 
L 118.34268 205.808304 
L 119.07434 205.300338 
L 119.806 205.124788 
L 120.53766 204.419386 
L 121.26932 204.149168 
L 125.65928 203.555594 
L 126.39094 203.025812 
L 127.1226 202.981682 
L 127.85426 202.812341 
L 128.58592 202.512314 
L 129.31758 201.681227 
L 130.7809 201.405644 
L 132.24422 201.119906 
L 132.97588 200.867667 
L 133.70754 199.991246 
L 134.4392 199.399212 
L 135.90252 199.269857 
L 136.63418 198.614883 
L 137.36584 198.19723 
L 138.0975 197.964462 
L 138.82916 197.215709 
L 140.29248 196.198474 
L 141.02414 195.95792 
L 141.7558 195.957529 
L 142.48746 195.741894 
L 143.21912 194.960636 
L 143.95078 194.574378 
L 145.4141 194.479272 
L 149.0724 194.001442 
L 149.80406 193.681875 
L 151.26738 193.477158 
L 151.99904 193.013612 
L 152.7307 192.998903 
L 153.46236 192.783816 
L 154.19402 192.773503 
L 154.92568 192.609868 
L 155.65734 192.129395 
L 156.389 192.110355 
L 157.12066 191.740151 
L 157.85232 191.242538 
L 158.58398 191.238864 
L 159.31564 191.031992 
L 160.0473 191.029873 
L 160.77896 190.677258 
L 162.97394 190.072226 
L 163.7056 190.066585 
L 164.43726 189.914089 
L 165.16892 189.890664 
L 165.90058 189.716951 
L 166.63224 189.700651 
L 167.3639 189.498172 
L 170.29054 189.30953 
L 173.21718 188.424703 
L 173.94884 188.187545 
L 175.41216 188.048089 
L 178.3388 187.68431 
L 179.07046 187.609907 
L 180.53378 187.15794 
L 183.46042 186.935515 
L 184.19208 186.646495 
L 185.6554 186.523991 
L 187.11872 186.217223 
L 187.85038 185.929871 
L 193.70366 185.717511 
L 194.43532 185.557672 
L 195.16698 185.145129 
L 198.09362 185.021618 
L 199.55694 184.908794 
L 206.14188 184.763313 
L 223.70172 184.296673 
L 247.11484 184.182358 
L 257.35808 183.752595 
L 260.28472 183.454927 
L 267.60132 183.21505 
L 269.06464 183.10319 
L 274.91792 182.991425 
L 275.64958 182.844694 
L 277.1129 182.769727 
L 277.84456 182.50537 
L 282.23452 182.298156 
L 282.96618 182.035473 
L 283.69784 181.966366 
L 284.4295 181.600409 
L 285.16116 181.586969 
L 285.89282 181.459732 
L 286.62448 180.92573 
L 290.28278 180.623476 
L 291.01444 179.99172 
L 293.20942 179.527897 
L 295.4044 179.353149 
L 297.59938 178.923668 
L 298.33104 178.846051 
L 299.0627 177.724673 
L 299.79436 177.418242 
L 300.52602 176.933125 
L 301.98934 176.794071 
L 303.45266 176.165902 
L 304.18432 175.609607 
L 304.91598 175.543605 
L 305.64764 175.327189 
L 308.57428 175.200982 
L 309.30594 174.161197 
L 310.0376 173.37683 
L 311.50092 173.156711 
L 312.23258 172.61742 
L 312.96424 172.274845 
L 313.6959 171.184207 
L 314.42756 170.969557 
L 315.15922 170.880508 
L 315.89088 170.326352 
L 316.62254 169.929807 
L 318.08586 169.657426 
L 318.81752 168.560277 
L 319.54918 168.477217 
L 320.28084 167.987599 
L 321.0125 167.302709 
L 322.47582 166.825352 
L 323.20748 165.816138 
L 323.93914 165.743879 
L 324.6708 165.070225 
L 326.13412 164.18935 
L 326.86578 163.907933 
L 327.59744 162.810472 
L 328.3291 162.217807 
L 329.06076 161.929061 
L 329.79242 161.904296 
L 330.52408 161.460051 
L 331.9874 161.321105 
L 333.45072 160.973139 
L 334.91404 159.482877 
L 335.6457 159.209017 
L 336.37736 158.638542 
L 337.10902 158.391197 
L 338.57234 157.264315 
L 339.304 156.353285 
L 340.03566 156.008282 
L 342.9623 155.321276 
L 343.69396 154.084502 
L 344.42562 153.739515 
L 345.15728 152.742538 
L 345.88894 151.418833 
L 346.6206 151.11899 
L 347.35226 150.653228 
L 348.08392 149.91633 
L 348.81558 149.693037 
L 349.54724 149.264114 
L 350.2789 148.557339 
L 351.74222 147.774208 
L 352.47388 147.759244 
L 354.66886 147.295172 
L 355.40052 146.638764 
L 356.13218 146.442289 
L 356.86384 145.86545 
L 357.5955 145.680636 
L 358.32716 144.346301 
L 359.05882 144.194974 
L 359.79048 143.650149 
L 360.52214 143.598976 
L 361.2538 143.124065 
L 361.98546 140.260316 
L 362.71712 139.620018 
L 363.44878 139.470343 
L 364.18044 139.002472 
L 364.9121 138.946491 
L 365.64376 138.378268 
L 366.37542 137.437663 
L 367.83874 137.199777 
L 368.5704 135.963996 
L 369.30206 135.188442 
L 370.76538 132.897327 
L 371.49704 131.242475 
L 372.2287 129.087493 
L 372.96036 128.371933 
L 373.69202 125.207605 
L 374.42368 125.121552 
L 375.15534 123.996449 
L 375.887 123.571141 
L 376.61866 121.710188 
L 377.35032 121.279509 
L 378.08198 118.72267 
L 378.81364 118.307089 
L 379.5453 116.109763 
L 380.27696 115.448549 
L 381.00862 115.206782 
L 381.74028 114.777594 
L 382.47194 114.59435 
L 383.2036 111.805495 
L 383.93526 111.175225 
L 385.39858 110.945458 
L 386.13024 110.124611 
L 386.8619 108.570879 
L 387.59356 107.593318 
L 388.32522 107.258264 
L 389.05688 105.787952 
L 390.5202 104.137418 
L 391.25186 102.540326 
L 391.98352 101.452412 
L 392.71518 97.613393 
L 393.44684 96.826517 
L 394.1785 96.219456 
L 394.91016 95.934932 
L 395.64182 95.391576 
L 396.37348 95.365236 
L 397.10514 94.813476 
L 397.8368 92.440596 
L 398.56846 92.350406 
L 399.30012 87.603032 
L 400.03178 87.40038 
L 400.76344 86.225806 
L 402.22676 82.566649 
L 402.95842 82.062494 
L 403.69008 80.317546 
L 404.42174 80.22124 
L 405.1534 79.86216 
L 406.61672 75.294109 
L 407.34838 74.21589 
L 408.08004 72.719777 
L 408.8117 71.68553 
L 409.54336 68.969463 
L 410.27502 68.316408 
L 411.00668 67.865922 
L 411.73834 62.794545 
L 411.73834 62.794545 
" clip-path="url(#p5f35de7926)" style="fill: none; stroke: #1f77b4; stroke-width: 1.5; stroke-linecap: square"/>
   </g>
   <g id="patch_3">
    <path d="M 46.64 318.04 
L 46.64 50.64 
" style="fill: none; stroke: #000000; stroke-width: 0.8; stroke-linejoin: miter; stroke-linecap: square"/>
   </g>
   <g id="patch_4">
    <path d="M 412.47 318.04 
L 412.47 50.64 
" style="fill: none; stroke: #000000; stroke-width: 0.8; stroke-linejoin: miter; stroke-linecap: square"/>
   </g>
   <g id="patch_5">
    <path d="M 46.64 318.04 
L 412.47 318.04 
" style="fill: none; stroke: #000000; stroke-width: 0.8; stroke-linejoin: miter; stroke-linecap: square"/>
   </g>
   <g id="patch_6">
    <path d="M 46.64 50.64 
L 412.47 50.64 
" style="fill: none; stroke: #000000; stroke-width: 0.8; stroke-linejoin: miter; stroke-linecap: square"/>
   </g>
   <g id="text_18">
    <!-- g(u(k)) -->
    <g transform="translate(209.105312 44.64) scale(0.12 -0.12)">
     <defs>
      <path id="DejaVuSans-6b" d="M 581 4863 
L 1159 4863 
L 1159 1991 
L 2875 3500 
L 3609 3500 
L 1753 1863 
L 3688 0 
L 2938 0 
L 1159 1709 
L 1159 0 
L 581 0 
L 581 4863 
z
" transform="scale(0.015625)"/>
     </defs>
     <use xlink:href="#DejaVuSans-67"/>
     <use xlink:href="#DejaVuSans-28" x="63.476562"/>
     <use xlink:href="#DejaVuSans-75" x="102.490234"/>
     <use xlink:href="#DejaVuSans-28" x="165.869141"/>
     <use xlink:href="#DejaVuSans-6b" x="204.882812"/>
     <use xlink:href="#DejaVuSans-29" x="262.792969"/>
     <use xlink:href="#DejaVuSans-29" x="301.806641"/>
    </g>
   </g>
  </g>
  <g id="axes_2">
   <g id="patch_7">
    <path d="M 477.92 318.04 
L 843.75 318.04 
L 843.75 50.64 
L 477.92 50.64 
z
" style="fill: #ffffff"/>
   </g>
   <g id="matplotlib.axis_3">
    <g id="xtick_7">
     <g id="line2d_17">
      <g>
       <use xlink:href="#mf942f40d4c" x="477.92" y="318.04" style="stroke: #000000; stroke-width: 0.8"/>
      </g>
     </g>
     <g id="text_19">
      <!-- 0 -->
      <g transform="translate(474.73875 332.638438) scale(0.1 -0.1)">
       <use xlink:href="#DejaVuSans-30"/>
      </g>
     </g>
    </g>
    <g id="xtick_8">
     <g id="line2d_18">
      <g>
       <use xlink:href="#mf942f40d4c" x="551.086" y="318.04" style="stroke: #000000; stroke-width: 0.8"/>
      </g>
     </g>
     <g id="text_20">
      <!-- 100 -->
      <g transform="translate(541.54225 332.638438) scale(0.1 -0.1)">
       <use xlink:href="#DejaVuSans-31"/>
       <use xlink:href="#DejaVuSans-30" x="63.623047"/>
       <use xlink:href="#DejaVuSans-30" x="127.246094"/>
      </g>
     </g>
    </g>
    <g id="xtick_9">
     <g id="line2d_19">
      <g>
       <use xlink:href="#mf942f40d4c" x="624.252" y="318.04" style="stroke: #000000; stroke-width: 0.8"/>
      </g>
     </g>
     <g id="text_21">
      <!-- 200 -->
      <g transform="translate(614.70825 332.638438) scale(0.1 -0.1)">
       <use xlink:href="#DejaVuSans-32"/>
       <use xlink:href="#DejaVuSans-30" x="63.623047"/>
       <use xlink:href="#DejaVuSans-30" x="127.246094"/>
      </g>
     </g>
    </g>
    <g id="xtick_10">
     <g id="line2d_20">
      <g>
       <use xlink:href="#mf942f40d4c" x="697.418" y="318.04" style="stroke: #000000; stroke-width: 0.8"/>
      </g>
     </g>
     <g id="text_22">
      <!-- 300 -->
      <g transform="translate(687.87425 332.638438) scale(0.1 -0.1)">
       <use xlink:href="#DejaVuSans-33"/>
       <use xlink:href="#DejaVuSans-30" x="63.623047"/>
       <use xlink:href="#DejaVuSans-30" x="127.246094"/>
      </g>
     </g>
    </g>
    <g id="xtick_11">
     <g id="line2d_21">
      <g>
       <use xlink:href="#mf942f40d4c" x="770.584" y="318.04" style="stroke: #000000; stroke-width: 0.8"/>
      </g>
     </g>
     <g id="text_23">
      <!-- 400 -->
      <g transform="translate(761.04025 332.638438) scale(0.1 -0.1)">
       <use xlink:href="#DejaVuSans-34"/>
       <use xlink:href="#DejaVuSans-30" x="63.623047"/>
       <use xlink:href="#DejaVuSans-30" x="127.246094"/>
      </g>
     </g>
    </g>
    <g id="xtick_12">
     <g id="line2d_22">
      <g>
       <use xlink:href="#mf942f40d4c" x="843.75" y="318.04" style="stroke: #000000; stroke-width: 0.8"/>
      </g>
     </g>
     <g id="text_24">
      <!-- 500 -->
      <g transform="translate(834.20625 332.638438) scale(0.1 -0.1)">
       <use xlink:href="#DejaVuSans-35"/>
       <use xlink:href="#DejaVuSans-30" x="63.623047"/>
       <use xlink:href="#DejaVuSans-30" x="127.246094"/>
      </g>
     </g>
    </g>
    <g id="text_25">
     <!-- Time Step -->
     <g transform="translate(635.627187 346.316563) scale(0.1 -0.1)">
      <use xlink:href="#DejaVuSans-54"/>
      <use xlink:href="#DejaVuSans-69" x="57.958984"/>
      <use xlink:href="#DejaVuSans-6d" x="85.742188"/>
      <use xlink:href="#DejaVuSans-65" x="183.154297"/>
      <use xlink:href="#DejaVuSans-20" x="244.677734"/>
      <use xlink:href="#DejaVuSans-53" x="276.464844"/>
      <use xlink:href="#DejaVuSans-74" x="339.941406"/>
      <use xlink:href="#DejaVuSans-65" x="379.150391"/>
      <use xlink:href="#DejaVuSans-70" x="440.673828"/>
     </g>
    </g>
   </g>
   <g id="matplotlib.axis_4">
    <g id="ytick_10">
     <g id="line2d_23">
      <g>
       <use xlink:href="#m3f07bacd14" x="477.92" y="281.585947" style="stroke: #000000; stroke-width: 0.8"/>
      </g>
     </g>
     <g id="text_26">
      <!-- −0.4 -->
      <g transform="translate(446.637187 285.385166) scale(0.1 -0.1)">
       <defs>
        <path id="DejaVuSans-2e" d="M 684 794 
L 1344 794 
L 1344 0 
L 684 0 
L 684 794 
z
" transform="scale(0.015625)"/>
       </defs>
       <use xlink:href="#DejaVuSans-2212"/>
       <use xlink:href="#DejaVuSans-30" x="83.789062"/>
       <use xlink:href="#DejaVuSans-2e" x="147.412109"/>
       <use xlink:href="#DejaVuSans-34" x="179.199219"/>
      </g>
     </g>
    </g>
    <g id="ytick_11">
     <g id="line2d_24">
      <g>
       <use xlink:href="#m3f07bacd14" x="477.92" y="232.951457" style="stroke: #000000; stroke-width: 0.8"/>
      </g>
     </g>
     <g id="text_27">
      <!-- −0.2 -->
      <g transform="translate(446.637187 236.750675) scale(0.1 -0.1)">
       <use xlink:href="#DejaVuSans-2212"/>
       <use xlink:href="#DejaVuSans-30" x="83.789062"/>
       <use xlink:href="#DejaVuSans-2e" x="147.412109"/>
       <use xlink:href="#DejaVuSans-32" x="179.199219"/>
      </g>
     </g>
    </g>
    <g id="ytick_12">
     <g id="line2d_25">
      <g>
       <use xlink:href="#m3f07bacd14" x="477.92" y="184.316966" style="stroke: #000000; stroke-width: 0.8"/>
      </g>
     </g>
     <g id="text_28">
      <!-- 0.0 -->
      <g transform="translate(455.016875 188.116185) scale(0.1 -0.1)">
       <use xlink:href="#DejaVuSans-30"/>
       <use xlink:href="#DejaVuSans-2e" x="63.623047"/>
       <use xlink:href="#DejaVuSans-30" x="95.410156"/>
      </g>
     </g>
    </g>
    <g id="ytick_13">
     <g id="line2d_26">
      <g>
       <use xlink:href="#m3f07bacd14" x="477.92" y="135.682475" style="stroke: #000000; stroke-width: 0.8"/>
      </g>
     </g>
     <g id="text_29">
      <!-- 0.2 -->
      <g transform="translate(455.016875 139.481694) scale(0.1 -0.1)">
       <use xlink:href="#DejaVuSans-30"/>
       <use xlink:href="#DejaVuSans-2e" x="63.623047"/>
       <use xlink:href="#DejaVuSans-32" x="95.410156"/>
      </g>
     </g>
    </g>
    <g id="ytick_14">
     <g id="line2d_27">
      <g>
       <use xlink:href="#m3f07bacd14" x="477.92" y="87.047985" style="stroke: #000000; stroke-width: 0.8"/>
      </g>
     </g>
     <g id="text_30">
      <!-- 0.4 -->
      <g transform="translate(455.016875 90.847204) scale(0.1 -0.1)">
       <use xlink:href="#DejaVuSans-30"/>
       <use xlink:href="#DejaVuSans-2e" x="63.623047"/>
       <use xlink:href="#DejaVuSans-34" x="95.410156"/>
      </g>
     </g>
    </g>
    <g id="text_31">
     <!-- f(y) -->
     <g transform="translate(440.5575 192.961094) rotate(-90) scale(0.1 -0.1)">
      <defs>
       <path id="DejaVuSans-66" d="M 2375 4863 
L 2375 4384 
L 1825 4384 
Q 1516 4384 1395 4259 
Q 1275 4134 1275 3809 
L 1275 3500 
L 2222 3500 
L 2222 3053 
L 1275 3053 
L 1275 0 
L 697 0 
L 697 3053 
L 147 3053 
L 147 3500 
L 697 3500 
L 697 3744 
Q 697 4328 969 4595 
Q 1241 4863 1831 4863 
L 2375 4863 
z
" transform="scale(0.015625)"/>
       <path id="DejaVuSans-79" d="M 2059 -325 
Q 1816 -950 1584 -1140 
Q 1353 -1331 966 -1331 
L 506 -1331 
L 506 -850 
L 844 -850 
Q 1081 -850 1212 -737 
Q 1344 -625 1503 -206 
L 1606 56 
L 191 3500 
L 800 3500 
L 1894 763 
L 2988 3500 
L 3597 3500 
L 2059 -325 
z
" transform="scale(0.015625)"/>
      </defs>
      <use xlink:href="#DejaVuSans-66"/>
      <use xlink:href="#DejaVuSans-28" x="35.205078"/>
      <use xlink:href="#DejaVuSans-79" x="74.21875"/>
      <use xlink:href="#DejaVuSans-29" x="133.398438"/>
     </g>
    </g>
   </g>
   <g id="line2d_28">
    <path d="M 477.92 208.523989 
L 478.65166 208.543866 
L 479.38332 208.883371 
L 481.5783 209.199129 
L 483.77328 209.326186 
L 484.50494 209.51016 
L 485.96826 210.07602 
L 492.5532 210.486428 
L 493.28486 210.712865 
L 494.01652 210.75017 
L 496.2115 211.179684 
L 496.94316 211.238468 
L 499.13814 211.805006 
L 499.8698 211.873287 
L 500.60146 212.180793 
L 501.33312 212.273413 
L 502.06478 212.555614 
L 503.5281 212.763503 
L 504.25976 213.239294 
L 505.72308 213.508291 
L 507.91806 214.348346 
L 509.38138 214.481174 
L 511.57636 214.939693 
L 513.03968 215.417943 
L 513.77134 215.696569 
L 514.503 215.794953 
L 515.23466 216.165743 
L 515.96632 216.165746 
L 516.69798 216.79668 
L 518.89296 216.960377 
L 520.35628 217.328348 
L 521.8196 217.426099 
L 522.55126 217.547561 
L 523.28292 217.892115 
L 524.74624 218.127743 
L 526.20956 218.451453 
L 526.94122 218.464145 
L 527.67288 218.820922 
L 528.40454 219.483081 
L 529.1362 219.532057 
L 529.86786 220.138129 
L 530.59952 220.237923 
L 531.33118 220.89649 
L 532.06284 220.964378 
L 532.7945 221.219674 
L 534.25782 221.291639 
L 534.98948 221.759806 
L 536.4528 222.111714 
L 537.18446 222.917913 
L 537.91612 223.296378 
L 538.64778 224.503683 
L 539.37944 224.52824 
L 540.1111 224.804993 
L 542.30608 224.984001 
L 543.03774 225.450128 
L 544.50106 225.867401 
L 545.96438 226.485379 
L 547.4277 226.877745 
L 549.62268 227.076261 
L 550.35434 228.156474 
L 551.086 228.691004 
L 551.81766 228.9096 
L 552.54932 230.089595 
L 553.28098 230.318954 
L 554.01264 230.412295 
L 554.7443 230.86014 
L 556.20762 231.255251 
L 556.93928 231.309705 
L 558.4026 232.670565 
L 559.86592 232.951387 
L 560.59758 235.152533 
L 561.32924 235.308916 
L 562.0609 235.81047 
L 563.52422 237.05498 
L 564.25588 237.270542 
L 564.98754 237.327553 
L 567.91418 238.858985 
L 568.64584 239.155779 
L 570.10916 239.994887 
L 570.84082 240.062863 
L 571.57248 240.735715 
L 572.30414 241.207814 
L 573.0358 241.980871 
L 573.76746 242.198802 
L 574.49912 242.572252 
L 575.23078 244.165112 
L 575.96244 244.652389 
L 578.15742 245.357198 
L 579.62074 245.622364 
L 581.81572 246.011764 
L 582.54738 247.726168 
L 583.27904 248.547275 
L 584.0107 249.853163 
L 584.74236 250.89025 
L 585.47402 251.27356 
L 588.40066 251.765647 
L 589.13232 252.194619 
L 589.86398 252.422899 
L 590.59564 253.421598 
L 592.05896 255.00115 
L 592.79062 255.443519 
L 593.52228 257.641214 
L 594.25394 257.713673 
L 594.9856 261.120533 
L 595.71726 261.456578 
L 596.44892 262.179071 
L 597.18058 263.159498 
L 597.91224 263.829478 
L 600.10722 264.767081 
L 600.83888 266.544227 
L 601.57054 267.870503 
L 602.3022 267.911158 
L 603.03386 269.034735 
L 603.76552 269.190487 
L 604.49718 269.756708 
L 605.22884 271.040456 
L 605.9605 275.602574 
L 607.42382 277.549864 
L 608.15548 280.511307 
L 608.88714 282.015885 
L 610.35046 282.211764 
L 611.08212 283.533844 
L 613.2771 284.439654 
L 614.74042 284.627376 
L 615.47208 284.896397 
L 616.20374 285.710993 
L 616.9354 287.174512 
L 617.66706 287.506886 
L 618.39872 293.568342 
L 619.13038 295.783316 
L 620.5937 298.657068 
L 621.32536 298.774302 
L 622.05702 300.849318 
L 622.78868 301.179706 
L 624.252 302.88043 
L 624.98366 305.675408 
L 625.71532 305.851185 
L 627.17864 305.883754 
L 630.10528 305.460984 
L 630.83694 305.143948 
L 631.5686 302.929794 
L 632.30026 297.242732 
L 633.03192 295.334731 
L 633.76358 294.965108 
L 634.49524 292.182218 
L 635.95856 288.292578 
L 636.69022 288.225276 
L 637.42188 274.279413 
L 638.15354 273.501139 
L 638.8852 271.056661 
L 639.61686 261.538772 
L 640.34852 258.858835 
L 641.08018 247.525398 
L 641.81184 244.215292 
L 642.5435 237.563349 
L 643.27516 228.793133 
L 644.73848 209.152299 
L 645.47014 203.480944 
L 646.2018 202.405167 
L 646.93346 199.930961 
L 647.66512 196.750991 
L 648.39678 191.130008 
L 649.12844 181.075371 
L 650.59176 174.293067 
L 651.32342 173.250687 
L 652.05508 166.527513 
L 654.25006 156.334329 
L 656.44504 133.386018 
L 657.1767 131.78518 
L 657.90836 116.003586 
L 658.64002 115.826875 
L 659.37168 112.60157 
L 660.10334 100.274692 
L 660.835 91.885475 
L 661.56666 86.56983 
L 662.29832 75.306823 
L 663.02998 73.018004 
L 663.76164 71.614174 
L 664.4933 69.583593 
L 665.22496 68.678939 
L 665.95662 67.090409 
L 666.68828 66.944646 
L 667.41994 64.903208 
L 668.1516 63.826437 
L 668.88326 63.234788 
L 669.61492 62.901165 
L 671.07824 62.794545 
L 671.8099 64.091036 
L 672.54156 64.263307 
L 675.4682 66.063386 
L 676.19986 72.057567 
L 676.93152 73.140712 
L 677.66318 76.234206 
L 678.39484 77.55725 
L 679.1265 77.598692 
L 679.85816 79.146309 
L 680.58982 80.402837 
L 681.32148 81.059529 
L 682.05314 83.484103 
L 682.7848 84.591898 
L 683.51646 84.806966 
L 684.24812 86.386533 
L 684.97978 87.36631 
L 685.71144 88.563859 
L 686.4431 89.315357 
L 687.90642 92.385999 
L 688.63808 92.935738 
L 689.36974 93.23028 
L 690.1014 95.211975 
L 690.83306 95.829047 
L 691.56472 96.078912 
L 692.29638 97.44754 
L 693.02804 98.136902 
L 693.7597 99.882051 
L 694.49136 101.291434 
L 695.22302 101.333804 
L 695.95468 102.095647 
L 696.68634 102.401441 
L 697.418 102.431742 
L 698.88132 104.592742 
L 699.61298 106.554262 
L 700.34464 107.587374 
L 701.0763 107.702783 
L 701.80796 108.982701 
L 702.53962 109.368183 
L 703.27128 109.608265 
L 704.00294 109.645611 
L 704.7346 110.419347 
L 705.46626 112.177803 
L 706.19792 112.451809 
L 706.92958 114.082668 
L 707.66124 114.995364 
L 708.3929 116.249259 
L 709.12456 116.446294 
L 709.85622 117.116196 
L 710.58788 118.227828 
L 711.31954 119.028322 
L 712.0512 119.38755 
L 712.78286 121.793465 
L 713.51452 122.069527 
L 714.24618 122.660293 
L 715.7095 123.358163 
L 716.44116 124.083217 
L 719.3678 124.383352 
L 720.09946 125.041046 
L 720.83112 125.07564 
L 721.56278 125.461699 
L 722.29444 125.974947 
L 723.0261 125.97624 
L 724.48942 126.540346 
L 725.22108 127.443788 
L 725.95274 127.519844 
L 726.6844 129.463613 
L 727.41606 129.812433 
L 729.61104 130.111575 
L 730.3427 130.880734 
L 732.53768 131.705843 
L 734.001 131.965122 
L 734.73266 134.688768 
L 736.19598 135.155421 
L 736.92764 136.247362 
L 737.6593 136.451869 
L 738.39096 137.465768 
L 739.12262 137.909468 
L 740.58594 138.002406 
L 742.04926 138.710623 
L 742.78092 139.294197 
L 745.70756 140.104003 
L 746.43922 140.676199 
L 747.17088 140.796524 
L 748.6342 141.48424 
L 749.36586 141.716923 
L 750.09752 142.34977 
L 750.82918 142.542539 
L 752.2925 142.643313 
L 753.02416 142.879774 
L 753.75582 143.320868 
L 754.48748 144.119459 
L 755.21914 144.238622 
L 755.9508 145.450332 
L 756.68246 145.559375 
L 757.41412 146.220483 
L 758.14578 146.221614 
L 758.87744 146.573227 
L 761.80408 146.89721 
L 764.73072 147.674488 
L 765.46238 147.793861 
L 766.19404 148.26671 
L 767.65736 148.349163 
L 768.38902 148.584691 
L 769.85234 149.510931 
L 772.77898 149.810365 
L 773.51064 150.080393 
L 774.2423 150.149084 
L 775.70562 150.708472 
L 776.43728 151.214678 
L 777.9006 151.252992 
L 778.63226 151.655196 
L 779.36392 151.828086 
L 780.09558 151.86148 
L 780.82724 152.153081 
L 782.29056 152.247952 
L 783.02222 152.659814 
L 783.75388 152.860859 
L 790.33882 153.452586 
L 792.5338 154.047908 
L 793.26546 154.145803 
L 793.99712 154.385621 
L 794.72878 154.425386 
L 795.46044 154.756442 
L 800.58206 155.30472 
L 801.31372 155.642846 
L 803.5087 155.789745 
L 806.43534 156.190023 
L 807.167 156.479618 
L 809.36198 156.662406 
L 813.02028 157.068047 
L 815.21526 157.257015 
L 819.60522 157.688817 
L 821.06854 158.016598 
L 822.53186 158.156891 
L 823.26352 158.415366 
L 830.58012 158.805768 
L 831.31178 159.0177 
L 836.4334 159.498334 
L 837.89672 159.674864 
L 840.0917 159.903843 
L 842.28668 159.974721 
L 843.01834 160.101633 
L 843.01834 160.101633 
" clip-path="url(#pff404a6f86)" style="fill: none; stroke: #1f77b4; stroke-width: 1.5; stroke-linecap: square"/>
   </g>
   <g id="patch_8">
    <path d="M 477.92 318.04 
L 477.92 50.64 
" style="fill: none; stroke: #000000; stroke-width: 0.8; stroke-linejoin: miter; stroke-linecap: square"/>
   </g>
   <g id="patch_9">
    <path d="M 843.75 318.04 
L 843.75 50.64 
" style="fill: none; stroke: #000000; stroke-width: 0.8; stroke-linejoin: miter; stroke-linecap: square"/>
   </g>
   <g id="patch_10">
    <path d="M 477.92 318.04 
L 843.75 318.04 
" style="fill: none; stroke: #000000; stroke-width: 0.8; stroke-linejoin: miter; stroke-linecap: square"/>
   </g>
   <g id="patch_11">
    <path d="M 477.92 50.64 
L 843.75 50.64 
" style="fill: none; stroke: #000000; stroke-width: 0.8; stroke-linejoin: miter; stroke-linecap: square"/>
   </g>
   <g id="text_32">
    <!-- f(y(k)) -->
    <g transform="translate(642.333437 44.64) scale(0.12 -0.12)">
     <use xlink:href="#DejaVuSans-66"/>
     <use xlink:href="#DejaVuSans-28" x="35.205078"/>
     <use xlink:href="#DejaVuSans-79" x="74.21875"/>
     <use xlink:href="#DejaVuSans-28" x="133.398438"/>
     <use xlink:href="#DejaVuSans-6b" x="172.412109"/>
     <use xlink:href="#DejaVuSans-29" x="230.322266"/>
     <use xlink:href="#DejaVuSans-29" x="269.335938"/>
    </g>
   </g>
  </g>
  <g id="text_33">
   <!-- Random Training Data -->
   <g transform="translate(365.35125 16.318125) scale(0.12 -0.12)">
    <defs>
     <path id="DejaVuSans-52" d="M 2841 2188 
Q 3044 2119 3236 1894 
Q 3428 1669 3622 1275 
L 4263 0 
L 3584 0 
L 2988 1197 
Q 2756 1666 2539 1819 
Q 2322 1972 1947 1972 
L 1259 1972 
L 1259 0 
L 628 0 
L 628 4666 
L 2053 4666 
Q 2853 4666 3247 4331 
Q 3641 3997 3641 3322 
Q 3641 2881 3436 2590 
Q 3231 2300 2841 2188 
z
M 1259 4147 
L 1259 2491 
L 2053 2491 
Q 2509 2491 2742 2702 
Q 2975 2913 2975 3322 
Q 2975 3731 2742 3939 
Q 2509 4147 2053 4147 
L 1259 4147 
z
" transform="scale(0.015625)"/>
     <path id="DejaVuSans-61" d="M 2194 1759 
Q 1497 1759 1228 1600 
Q 959 1441 959 1056 
Q 959 750 1161 570 
Q 1363 391 1709 391 
Q 2188 391 2477 730 
Q 2766 1069 2766 1631 
L 2766 1759 
L 2194 1759 
z
M 3341 1997 
L 3341 0 
L 2766 0 
L 2766 531 
Q 2569 213 2275 61 
Q 1981 -91 1556 -91 
Q 1019 -91 701 211 
Q 384 513 384 1019 
Q 384 1609 779 1909 
Q 1175 2209 1959 2209 
L 2766 2209 
L 2766 2266 
Q 2766 2663 2505 2880 
Q 2244 3097 1772 3097 
Q 1472 3097 1187 3025 
Q 903 2953 641 2809 
L 641 3341 
Q 956 3463 1253 3523 
Q 1550 3584 1831 3584 
Q 2591 3584 2966 3190 
Q 3341 2797 3341 1997 
z
" transform="scale(0.015625)"/>
     <path id="DejaVuSans-6e" d="M 3513 2113 
L 3513 0 
L 2938 0 
L 2938 2094 
Q 2938 2591 2744 2837 
Q 2550 3084 2163 3084 
Q 1697 3084 1428 2787 
Q 1159 2491 1159 1978 
L 1159 0 
L 581 0 
L 581 3500 
L 1159 3500 
L 1159 2956 
Q 1366 3272 1645 3428 
Q 1925 3584 2291 3584 
Q 2894 3584 3203 3211 
Q 3513 2838 3513 2113 
z
" transform="scale(0.015625)"/>
     <path id="DejaVuSans-64" d="M 2906 2969 
L 2906 4863 
L 3481 4863 
L 3481 0 
L 2906 0 
L 2906 525 
Q 2725 213 2448 61 
Q 2172 -91 1784 -91 
Q 1150 -91 751 415 
Q 353 922 353 1747 
Q 353 2572 751 3078 
Q 1150 3584 1784 3584 
Q 2172 3584 2448 3432 
Q 2725 3281 2906 2969 
z
M 947 1747 
Q 947 1113 1208 752 
Q 1469 391 1925 391 
Q 2381 391 2643 752 
Q 2906 1113 2906 1747 
Q 2906 2381 2643 2742 
Q 2381 3103 1925 3103 
Q 1469 3103 1208 2742 
Q 947 2381 947 1747 
z
" transform="scale(0.015625)"/>
     <path id="DejaVuSans-6f" d="M 1959 3097 
Q 1497 3097 1228 2736 
Q 959 2375 959 1747 
Q 959 1119 1226 758 
Q 1494 397 1959 397 
Q 2419 397 2687 759 
Q 2956 1122 2956 1747 
Q 2956 2369 2687 2733 
Q 2419 3097 1959 3097 
z
M 1959 3584 
Q 2709 3584 3137 3096 
Q 3566 2609 3566 1747 
Q 3566 888 3137 398 
Q 2709 -91 1959 -91 
Q 1206 -91 779 398 
Q 353 888 353 1747 
Q 353 2609 779 3096 
Q 1206 3584 1959 3584 
z
" transform="scale(0.015625)"/>
     <path id="DejaVuSans-72" d="M 2631 2963 
Q 2534 3019 2420 3045 
Q 2306 3072 2169 3072 
Q 1681 3072 1420 2755 
Q 1159 2438 1159 1844 
L 1159 0 
L 581 0 
L 581 3500 
L 1159 3500 
L 1159 2956 
Q 1341 3275 1631 3429 
Q 1922 3584 2338 3584 
Q 2397 3584 2469 3576 
Q 2541 3569 2628 3553 
L 2631 2963 
z
" transform="scale(0.015625)"/>
     <path id="DejaVuSans-44" d="M 1259 4147 
L 1259 519 
L 2022 519 
Q 2988 519 3436 956 
Q 3884 1394 3884 2338 
Q 3884 3275 3436 3711 
Q 2988 4147 2022 4147 
L 1259 4147 
z
M 628 4666 
L 1925 4666 
Q 3281 4666 3915 4102 
Q 4550 3538 4550 2338 
Q 4550 1131 3912 565 
Q 3275 0 1925 0 
L 628 0 
L 628 4666 
z
" transform="scale(0.015625)"/>
    </defs>
    <use xlink:href="#DejaVuSans-52"/>
    <use xlink:href="#DejaVuSans-61" x="67.232422"/>
    <use xlink:href="#DejaVuSans-6e" x="128.511719"/>
    <use xlink:href="#DejaVuSans-64" x="191.890625"/>
    <use xlink:href="#DejaVuSans-6f" x="255.367188"/>
    <use xlink:href="#DejaVuSans-6d" x="316.548828"/>
    <use xlink:href="#DejaVuSans-20" x="413.960938"/>
    <use xlink:href="#DejaVuSans-54" x="445.748047"/>
    <use xlink:href="#DejaVuSans-72" x="492.082031"/>
    <use xlink:href="#DejaVuSans-61" x="533.195312"/>
    <use xlink:href="#DejaVuSans-69" x="594.474609"/>
    <use xlink:href="#DejaVuSans-6e" x="622.257812"/>
    <use xlink:href="#DejaVuSans-69" x="685.636719"/>
    <use xlink:href="#DejaVuSans-6e" x="713.419922"/>
    <use xlink:href="#DejaVuSans-67" x="776.798828"/>
    <use xlink:href="#DejaVuSans-20" x="840.275391"/>
    <use xlink:href="#DejaVuSans-44" x="872.0625"/>
    <use xlink:href="#DejaVuSans-61" x="949.064453"/>
    <use xlink:href="#DejaVuSans-74" x="1010.34375"/>
    <use xlink:href="#DejaVuSans-61" x="1049.552734"/>
   </g>
  </g>
 </g>
 <defs>
  <clipPath id="p5f35de7926">
   <rect x="46.64" y="50.64" width="365.83" height="267.4"/>
  </clipPath>
  <clipPath id="pff404a6f86">
   <rect x="477.92" y="50.64" width="365.83" height="267.4"/>
  </clipPath>
 </defs>
</svg>
