<?xml version="1.0" encoding="utf-8" standalone="no"?>
<!DOCTYPE svg PUBLIC "-//W3C//DTD SVG 1.1//EN"
  "http://www.w3.org/Graphics/SVG/1.1/DTD/svg11.dtd">
<svg xmlns:xlink="http://www.w3.org/1999/xlink" width="780.644375pt" height="285.79625pt" viewBox="0 0 780.644375 285.79625" xmlns="http://www.w3.org/2000/svg" version="1.1">
 <metadata>
  <rdf:RDF xmlns:dc="http://purl.org/dc/elements/1.1/" xmlns:cc="http://creativecommons.org/ns#" xmlns:rdf="http://www.w3.org/1999/02/22-rdf-syntax-ns#">
   <cc:Work>
    <dc:type rdf:resource="http://purl.org/dc/dcmitype/StillImage"/>
    <dc:date>2024-11-10T19:53:48.268260</dc:date>
    <dc:format>image/svg+xml</dc:format>
    <dc:creator>
     <cc:Agent>
      <dc:title>Matplotlib v3.9.2, https://matplotlib.org/</dc:title>
     </cc:Agent>
    </dc:creator>
   </cc:Work>
  </rdf:RDF>
 </metadata>
 <defs>
  <style type="text/css">*{stroke-linejoin: round; stroke-linecap: butt}</style>
 </defs>
 <g id="figure_1">
  <g id="patch_1">
   <path d="M 0 285.79625 
L 780.644375 285.79625 
L 780.644375 0 
L 0 0 
z
" style="fill: #ffffff"/>
  </g>
  <g id="axes_1">
   <g id="patch_2">
    <path d="M 48.982813 248.24 
L 551.792812 248.24 
L 551.792812 29.08 
L 48.982813 29.08 
z
" style="fill: #ffffff"/>
   </g>
   <g id="matplotlib.axis_1">
    <g id="xtick_1">
     <g id="line2d_1">
      <defs>
       <path id="m897937f21a" d="M 0 0 
L 0 3.5 
" style="stroke: #000000; stroke-width: 0.8"/>
      </defs>
      <g>
       <use xlink:href="#m897937f21a" x="48.982813" y="248.24" style="stroke: #000000; stroke-width: 0.8"/>
      </g>
     </g>
     <g id="text_1">
      <!-- 0 -->
      <g transform="translate(45.801563 262.838437) scale(0.1 -0.1)">
       <defs>
        <path id="DejaVuSans-30" d="M 2034 4250 
Q 1547 4250 1301 3770 
Q 1056 3291 1056 2328 
Q 1056 1369 1301 889 
Q 1547 409 2034 409 
Q 2525 409 2770 889 
Q 3016 1369 3016 2328 
Q 3016 3291 2770 3770 
Q 2525 4250 2034 4250 
z
M 2034 4750 
Q 2819 4750 3233 4129 
Q 3647 3509 3647 2328 
Q 3647 1150 3233 529 
Q 2819 -91 2034 -91 
Q 1250 -91 836 529 
Q 422 1150 422 2328 
Q 422 3509 836 4129 
Q 1250 4750 2034 4750 
z
" transform="scale(0.015625)"/>
       </defs>
       <use xlink:href="#DejaVuSans-30"/>
      </g>
     </g>
    </g>
    <g id="xtick_2">
     <g id="line2d_2">
      <g>
       <use xlink:href="#m897937f21a" x="120.812813" y="248.24" style="stroke: #000000; stroke-width: 0.8"/>
      </g>
     </g>
     <g id="text_2">
      <!-- 100 -->
      <g transform="translate(111.269063 262.838437) scale(0.1 -0.1)">
       <defs>
        <path id="DejaVuSans-31" d="M 794 531 
L 1825 531 
L 1825 4091 
L 703 3866 
L 703 4441 
L 1819 4666 
L 2450 4666 
L 2450 531 
L 3481 531 
L 3481 0 
L 794 0 
L 794 531 
z
" transform="scale(0.015625)"/>
       </defs>
       <use xlink:href="#DejaVuSans-31"/>
       <use xlink:href="#DejaVuSans-30" x="63.623047"/>
       <use xlink:href="#DejaVuSans-30" x="127.246094"/>
      </g>
     </g>
    </g>
    <g id="xtick_3">
     <g id="line2d_3">
      <g>
       <use xlink:href="#m897937f21a" x="192.642812" y="248.24" style="stroke: #000000; stroke-width: 0.8"/>
      </g>
     </g>
     <g id="text_3">
      <!-- 200 -->
      <g transform="translate(183.099063 262.838437) scale(0.1 -0.1)">
       <defs>
        <path id="DejaVuSans-32" d="M 1228 531 
L 3431 531 
L 3431 0 
L 469 0 
L 469 531 
Q 828 903 1448 1529 
Q 2069 2156 2228 2338 
Q 2531 2678 2651 2914 
Q 2772 3150 2772 3378 
Q 2772 3750 2511 3984 
Q 2250 4219 1831 4219 
Q 1534 4219 1204 4116 
Q 875 4013 500 3803 
L 500 4441 
Q 881 4594 1212 4672 
Q 1544 4750 1819 4750 
Q 2544 4750 2975 4387 
Q 3406 4025 3406 3419 
Q 3406 3131 3298 2873 
Q 3191 2616 2906 2266 
Q 2828 2175 2409 1742 
Q 1991 1309 1228 531 
z
" transform="scale(0.015625)"/>
       </defs>
       <use xlink:href="#DejaVuSans-32"/>
       <use xlink:href="#DejaVuSans-30" x="63.623047"/>
       <use xlink:href="#DejaVuSans-30" x="127.246094"/>
      </g>
     </g>
    </g>
    <g id="xtick_4">
     <g id="line2d_4">
      <g>
       <use xlink:href="#m897937f21a" x="264.472812" y="248.24" style="stroke: #000000; stroke-width: 0.8"/>
      </g>
     </g>
     <g id="text_4">
      <!-- 300 -->
      <g transform="translate(254.929062 262.838437) scale(0.1 -0.1)">
       <defs>
        <path id="DejaVuSans-33" d="M 2597 2516 
Q 3050 2419 3304 2112 
Q 3559 1806 3559 1356 
Q 3559 666 3084 287 
Q 2609 -91 1734 -91 
Q 1441 -91 1130 -33 
Q 819 25 488 141 
L 488 750 
Q 750 597 1062 519 
Q 1375 441 1716 441 
Q 2309 441 2620 675 
Q 2931 909 2931 1356 
Q 2931 1769 2642 2001 
Q 2353 2234 1838 2234 
L 1294 2234 
L 1294 2753 
L 1863 2753 
Q 2328 2753 2575 2939 
Q 2822 3125 2822 3475 
Q 2822 3834 2567 4026 
Q 2313 4219 1838 4219 
Q 1578 4219 1281 4162 
Q 984 4106 628 3988 
L 628 4550 
Q 988 4650 1302 4700 
Q 1616 4750 1894 4750 
Q 2613 4750 3031 4423 
Q 3450 4097 3450 3541 
Q 3450 3153 3228 2886 
Q 3006 2619 2597 2516 
z
" transform="scale(0.015625)"/>
       </defs>
       <use xlink:href="#DejaVuSans-33"/>
       <use xlink:href="#DejaVuSans-30" x="63.623047"/>
       <use xlink:href="#DejaVuSans-30" x="127.246094"/>
      </g>
     </g>
    </g>
    <g id="xtick_5">
     <g id="line2d_5">
      <g>
       <use xlink:href="#m897937f21a" x="336.302813" y="248.24" style="stroke: #000000; stroke-width: 0.8"/>
      </g>
     </g>
     <g id="text_5">
      <!-- 400 -->
      <g transform="translate(326.759063 262.838437) scale(0.1 -0.1)">
       <defs>
        <path id="DejaVuSans-34" d="M 2419 4116 
L 825 1625 
L 2419 1625 
L 2419 4116 
z
M 2253 4666 
L 3047 4666 
L 3047 1625 
L 3713 1625 
L 3713 1100 
L 3047 1100 
L 3047 0 
L 2419 0 
L 2419 1100 
L 313 1100 
L 313 1709 
L 2253 4666 
z
" transform="scale(0.015625)"/>
       </defs>
       <use xlink:href="#DejaVuSans-34"/>
       <use xlink:href="#DejaVuSans-30" x="63.623047"/>
       <use xlink:href="#DejaVuSans-30" x="127.246094"/>
      </g>
     </g>
    </g>
    <g id="xtick_6">
     <g id="line2d_6">
      <g>
       <use xlink:href="#m897937f21a" x="408.132812" y="248.24" style="stroke: #000000; stroke-width: 0.8"/>
      </g>
     </g>
     <g id="text_6">
      <!-- 500 -->
      <g transform="translate(398.589063 262.838437) scale(0.1 -0.1)">
       <defs>
        <path id="DejaVuSans-35" d="M 691 4666 
L 3169 4666 
L 3169 4134 
L 1269 4134 
L 1269 2991 
Q 1406 3038 1543 3061 
Q 1681 3084 1819 3084 
Q 2600 3084 3056 2656 
Q 3513 2228 3513 1497 
Q 3513 744 3044 326 
Q 2575 -91 1722 -91 
Q 1428 -91 1123 -41 
Q 819 9 494 109 
L 494 744 
Q 775 591 1075 516 
Q 1375 441 1709 441 
Q 2250 441 2565 725 
Q 2881 1009 2881 1497 
Q 2881 1984 2565 2268 
Q 2250 2553 1709 2553 
Q 1456 2553 1204 2497 
Q 953 2441 691 2322 
L 691 4666 
z
" transform="scale(0.015625)"/>
       </defs>
       <use xlink:href="#DejaVuSans-35"/>
       <use xlink:href="#DejaVuSans-30" x="63.623047"/>
       <use xlink:href="#DejaVuSans-30" x="127.246094"/>
      </g>
     </g>
    </g>
    <g id="xtick_7">
     <g id="line2d_7">
      <g>
       <use xlink:href="#m897937f21a" x="479.962812" y="248.24" style="stroke: #000000; stroke-width: 0.8"/>
      </g>
     </g>
     <g id="text_7">
      <!-- 600 -->
      <g transform="translate(470.419062 262.838437) scale(0.1 -0.1)">
       <defs>
        <path id="DejaVuSans-36" d="M 2113 2584 
Q 1688 2584 1439 2293 
Q 1191 2003 1191 1497 
Q 1191 994 1439 701 
Q 1688 409 2113 409 
Q 2538 409 2786 701 
Q 3034 994 3034 1497 
Q 3034 2003 2786 2293 
Q 2538 2584 2113 2584 
z
M 3366 4563 
L 3366 3988 
Q 3128 4100 2886 4159 
Q 2644 4219 2406 4219 
Q 1781 4219 1451 3797 
Q 1122 3375 1075 2522 
Q 1259 2794 1537 2939 
Q 1816 3084 2150 3084 
Q 2853 3084 3261 2657 
Q 3669 2231 3669 1497 
Q 3669 778 3244 343 
Q 2819 -91 2113 -91 
Q 1303 -91 875 529 
Q 447 1150 447 2328 
Q 447 3434 972 4092 
Q 1497 4750 2381 4750 
Q 2619 4750 2861 4703 
Q 3103 4656 3366 4563 
z
" transform="scale(0.015625)"/>
       </defs>
       <use xlink:href="#DejaVuSans-36"/>
       <use xlink:href="#DejaVuSans-30" x="63.623047"/>
       <use xlink:href="#DejaVuSans-30" x="127.246094"/>
      </g>
     </g>
    </g>
    <g id="xtick_8">
     <g id="line2d_8">
      <g>
       <use xlink:href="#m897937f21a" x="551.792812" y="248.24" style="stroke: #000000; stroke-width: 0.8"/>
      </g>
     </g>
     <g id="text_8">
      <!-- 700 -->
      <g transform="translate(542.249062 262.838437) scale(0.1 -0.1)">
       <defs>
        <path id="DejaVuSans-37" d="M 525 4666 
L 3525 4666 
L 3525 4397 
L 1831 0 
L 1172 0 
L 2766 4134 
L 525 4134 
L 525 4666 
z
" transform="scale(0.015625)"/>
       </defs>
       <use xlink:href="#DejaVuSans-37"/>
       <use xlink:href="#DejaVuSans-30" x="63.623047"/>
       <use xlink:href="#DejaVuSans-30" x="127.246094"/>
      </g>
     </g>
    </g>
    <g id="text_9">
     <!-- Time Steps -->
     <g transform="translate(272.575312 276.516562) scale(0.1 -0.1)">
      <defs>
       <path id="DejaVuSans-54" d="M -19 4666 
L 3928 4666 
L 3928 4134 
L 2272 4134 
L 2272 0 
L 1638 0 
L 1638 4134 
L -19 4134 
L -19 4666 
z
" transform="scale(0.015625)"/>
       <path id="DejaVuSans-69" d="M 603 3500 
L 1178 3500 
L 1178 0 
L 603 0 
L 603 3500 
z
M 603 4863 
L 1178 4863 
L 1178 4134 
L 603 4134 
L 603 4863 
z
" transform="scale(0.015625)"/>
       <path id="DejaVuSans-6d" d="M 3328 2828 
Q 3544 3216 3844 3400 
Q 4144 3584 4550 3584 
Q 5097 3584 5394 3201 
Q 5691 2819 5691 2113 
L 5691 0 
L 5113 0 
L 5113 2094 
Q 5113 2597 4934 2840 
Q 4756 3084 4391 3084 
Q 3944 3084 3684 2787 
Q 3425 2491 3425 1978 
L 3425 0 
L 2847 0 
L 2847 2094 
Q 2847 2600 2669 2842 
Q 2491 3084 2119 3084 
Q 1678 3084 1418 2786 
Q 1159 2488 1159 1978 
L 1159 0 
L 581 0 
L 581 3500 
L 1159 3500 
L 1159 2956 
Q 1356 3278 1631 3431 
Q 1906 3584 2284 3584 
Q 2666 3584 2933 3390 
Q 3200 3197 3328 2828 
z
" transform="scale(0.015625)"/>
       <path id="DejaVuSans-65" d="M 3597 1894 
L 3597 1613 
L 953 1613 
Q 991 1019 1311 708 
Q 1631 397 2203 397 
Q 2534 397 2845 478 
Q 3156 559 3463 722 
L 3463 178 
Q 3153 47 2828 -22 
Q 2503 -91 2169 -91 
Q 1331 -91 842 396 
Q 353 884 353 1716 
Q 353 2575 817 3079 
Q 1281 3584 2069 3584 
Q 2775 3584 3186 3129 
Q 3597 2675 3597 1894 
z
M 3022 2063 
Q 3016 2534 2758 2815 
Q 2500 3097 2075 3097 
Q 1594 3097 1305 2825 
Q 1016 2553 972 2059 
L 3022 2063 
z
" transform="scale(0.015625)"/>
       <path id="DejaVuSans-20" transform="scale(0.015625)"/>
       <path id="DejaVuSans-53" d="M 3425 4513 
L 3425 3897 
Q 3066 4069 2747 4153 
Q 2428 4238 2131 4238 
Q 1616 4238 1336 4038 
Q 1056 3838 1056 3469 
Q 1056 3159 1242 3001 
Q 1428 2844 1947 2747 
L 2328 2669 
Q 3034 2534 3370 2195 
Q 3706 1856 3706 1288 
Q 3706 609 3251 259 
Q 2797 -91 1919 -91 
Q 1588 -91 1214 -16 
Q 841 59 441 206 
L 441 856 
Q 825 641 1194 531 
Q 1563 422 1919 422 
Q 2459 422 2753 634 
Q 3047 847 3047 1241 
Q 3047 1584 2836 1778 
Q 2625 1972 2144 2069 
L 1759 2144 
Q 1053 2284 737 2584 
Q 422 2884 422 3419 
Q 422 4038 858 4394 
Q 1294 4750 2059 4750 
Q 2388 4750 2728 4690 
Q 3069 4631 3425 4513 
z
" transform="scale(0.015625)"/>
       <path id="DejaVuSans-74" d="M 1172 4494 
L 1172 3500 
L 2356 3500 
L 2356 3053 
L 1172 3053 
L 1172 1153 
Q 1172 725 1289 603 
Q 1406 481 1766 481 
L 2356 481 
L 2356 0 
L 1766 0 
Q 1100 0 847 248 
Q 594 497 594 1153 
L 594 3053 
L 172 3053 
L 172 3500 
L 594 3500 
L 594 4494 
L 1172 4494 
z
" transform="scale(0.015625)"/>
       <path id="DejaVuSans-70" d="M 1159 525 
L 1159 -1331 
L 581 -1331 
L 581 3500 
L 1159 3500 
L 1159 2969 
Q 1341 3281 1617 3432 
Q 1894 3584 2278 3584 
Q 2916 3584 3314 3078 
Q 3713 2572 3713 1747 
Q 3713 922 3314 415 
Q 2916 -91 2278 -91 
Q 1894 -91 1617 61 
Q 1341 213 1159 525 
z
M 3116 1747 
Q 3116 2381 2855 2742 
Q 2594 3103 2138 3103 
Q 1681 3103 1420 2742 
Q 1159 2381 1159 1747 
Q 1159 1113 1420 752 
Q 1681 391 2138 391 
Q 2594 391 2855 752 
Q 3116 1113 3116 1747 
z
" transform="scale(0.015625)"/>
       <path id="DejaVuSans-73" d="M 2834 3397 
L 2834 2853 
Q 2591 2978 2328 3040 
Q 2066 3103 1784 3103 
Q 1356 3103 1142 2972 
Q 928 2841 928 2578 
Q 928 2378 1081 2264 
Q 1234 2150 1697 2047 
L 1894 2003 
Q 2506 1872 2764 1633 
Q 3022 1394 3022 966 
Q 3022 478 2636 193 
Q 2250 -91 1575 -91 
Q 1294 -91 989 -36 
Q 684 19 347 128 
L 347 722 
Q 666 556 975 473 
Q 1284 391 1588 391 
Q 1994 391 2212 530 
Q 2431 669 2431 922 
Q 2431 1156 2273 1281 
Q 2116 1406 1581 1522 
L 1381 1569 
Q 847 1681 609 1914 
Q 372 2147 372 2553 
Q 372 3047 722 3315 
Q 1072 3584 1716 3584 
Q 2034 3584 2315 3537 
Q 2597 3491 2834 3397 
z
" transform="scale(0.015625)"/>
      </defs>
      <use xlink:href="#DejaVuSans-54"/>
      <use xlink:href="#DejaVuSans-69" x="57.958984"/>
      <use xlink:href="#DejaVuSans-6d" x="85.742188"/>
      <use xlink:href="#DejaVuSans-65" x="183.154297"/>
      <use xlink:href="#DejaVuSans-20" x="244.677734"/>
      <use xlink:href="#DejaVuSans-53" x="276.464844"/>
      <use xlink:href="#DejaVuSans-74" x="339.941406"/>
      <use xlink:href="#DejaVuSans-65" x="379.150391"/>
      <use xlink:href="#DejaVuSans-70" x="440.673828"/>
      <use xlink:href="#DejaVuSans-73" x="504.150391"/>
     </g>
    </g>
   </g>
   <g id="matplotlib.axis_2">
    <g id="ytick_1">
     <g id="line2d_9">
      <defs>
       <path id="m85caadef57" d="M 0 0 
L -3.5 0 
" style="stroke: #000000; stroke-width: 0.8"/>
      </defs>
      <g>
       <use xlink:href="#m85caadef57" x="48.982813" y="234.712454" style="stroke: #000000; stroke-width: 0.8"/>
      </g>
     </g>
     <g id="text_10">
      <!-- −30 -->
      <g transform="translate(20.878125 238.511673) scale(0.1 -0.1)">
       <defs>
        <path id="DejaVuSans-2212" d="M 678 2272 
L 4684 2272 
L 4684 1741 
L 678 1741 
L 678 2272 
z
" transform="scale(0.015625)"/>
       </defs>
       <use xlink:href="#DejaVuSans-2212"/>
       <use xlink:href="#DejaVuSans-33" x="83.789062"/>
       <use xlink:href="#DejaVuSans-30" x="147.412109"/>
      </g>
     </g>
    </g>
    <g id="ytick_2">
     <g id="line2d_10">
      <g>
       <use xlink:href="#m85caadef57" x="48.982813" y="206.866044" style="stroke: #000000; stroke-width: 0.8"/>
      </g>
     </g>
     <g id="text_11">
      <!-- −20 -->
      <g transform="translate(20.878125 210.665262) scale(0.1 -0.1)">
       <use xlink:href="#DejaVuSans-2212"/>
       <use xlink:href="#DejaVuSans-32" x="83.789062"/>
       <use xlink:href="#DejaVuSans-30" x="147.412109"/>
      </g>
     </g>
    </g>
    <g id="ytick_3">
     <g id="line2d_11">
      <g>
       <use xlink:href="#m85caadef57" x="48.982813" y="179.019633" style="stroke: #000000; stroke-width: 0.8"/>
      </g>
     </g>
     <g id="text_12">
      <!-- −10 -->
      <g transform="translate(20.878125 182.818852) scale(0.1 -0.1)">
       <use xlink:href="#DejaVuSans-2212"/>
       <use xlink:href="#DejaVuSans-31" x="83.789062"/>
       <use xlink:href="#DejaVuSans-30" x="147.412109"/>
      </g>
     </g>
    </g>
    <g id="ytick_4">
     <g id="line2d_12">
      <g>
       <use xlink:href="#m85caadef57" x="48.982813" y="151.173223" style="stroke: #000000; stroke-width: 0.8"/>
      </g>
     </g>
     <g id="text_13">
      <!-- 0 -->
      <g transform="translate(35.620313 154.972441) scale(0.1 -0.1)">
       <use xlink:href="#DejaVuSans-30"/>
      </g>
     </g>
    </g>
    <g id="ytick_5">
     <g id="line2d_13">
      <g>
       <use xlink:href="#m85caadef57" x="48.982813" y="123.326812" style="stroke: #000000; stroke-width: 0.8"/>
      </g>
     </g>
     <g id="text_14">
      <!-- 10 -->
      <g transform="translate(29.257813 127.126031) scale(0.1 -0.1)">
       <use xlink:href="#DejaVuSans-31"/>
       <use xlink:href="#DejaVuSans-30" x="63.623047"/>
      </g>
     </g>
    </g>
    <g id="ytick_6">
     <g id="line2d_14">
      <g>
       <use xlink:href="#m85caadef57" x="48.982813" y="95.480402" style="stroke: #000000; stroke-width: 0.8"/>
      </g>
     </g>
     <g id="text_15">
      <!-- 20 -->
      <g transform="translate(29.257813 99.27962) scale(0.1 -0.1)">
       <use xlink:href="#DejaVuSans-32"/>
       <use xlink:href="#DejaVuSans-30" x="63.623047"/>
      </g>
     </g>
    </g>
    <g id="ytick_7">
     <g id="line2d_15">
      <g>
       <use xlink:href="#m85caadef57" x="48.982813" y="67.633991" style="stroke: #000000; stroke-width: 0.8"/>
      </g>
     </g>
     <g id="text_16">
      <!-- 30 -->
      <g transform="translate(29.257813 71.43321) scale(0.1 -0.1)">
       <use xlink:href="#DejaVuSans-33"/>
       <use xlink:href="#DejaVuSans-30" x="63.623047"/>
      </g>
     </g>
    </g>
    <g id="ytick_8">
     <g id="line2d_16">
      <g>
       <use xlink:href="#m85caadef57" x="48.982813" y="39.787581" style="stroke: #000000; stroke-width: 0.8"/>
      </g>
     </g>
     <g id="text_17">
      <!-- 40 -->
      <g transform="translate(29.257813 43.586799) scale(0.1 -0.1)">
       <use xlink:href="#DejaVuSans-34"/>
       <use xlink:href="#DejaVuSans-30" x="63.623047"/>
      </g>
     </g>
    </g>
    <g id="text_18">
     <!-- Output -->
     <g transform="translate(14.798438 156.027969) rotate(-90) scale(0.1 -0.1)">
      <defs>
       <path id="DejaVuSans-4f" d="M 2522 4238 
Q 1834 4238 1429 3725 
Q 1025 3213 1025 2328 
Q 1025 1447 1429 934 
Q 1834 422 2522 422 
Q 3209 422 3611 934 
Q 4013 1447 4013 2328 
Q 4013 3213 3611 3725 
Q 3209 4238 2522 4238 
z
M 2522 4750 
Q 3503 4750 4090 4092 
Q 4678 3434 4678 2328 
Q 4678 1225 4090 567 
Q 3503 -91 2522 -91 
Q 1538 -91 948 565 
Q 359 1222 359 2328 
Q 359 3434 948 4092 
Q 1538 4750 2522 4750 
z
" transform="scale(0.015625)"/>
       <path id="DejaVuSans-75" d="M 544 1381 
L 544 3500 
L 1119 3500 
L 1119 1403 
Q 1119 906 1312 657 
Q 1506 409 1894 409 
Q 2359 409 2629 706 
Q 2900 1003 2900 1516 
L 2900 3500 
L 3475 3500 
L 3475 0 
L 2900 0 
L 2900 538 
Q 2691 219 2414 64 
Q 2138 -91 1772 -91 
Q 1169 -91 856 284 
Q 544 659 544 1381 
z
M 1991 3584 
L 1991 3584 
z
" transform="scale(0.015625)"/>
      </defs>
      <use xlink:href="#DejaVuSans-4f"/>
      <use xlink:href="#DejaVuSans-75" x="78.710938"/>
      <use xlink:href="#DejaVuSans-74" x="142.089844"/>
      <use xlink:href="#DejaVuSans-70" x="181.298828"/>
      <use xlink:href="#DejaVuSans-75" x="244.775391"/>
      <use xlink:href="#DejaVuSans-74" x="308.154297"/>
     </g>
    </g>
   </g>
   <g id="line2d_17">
    <path d="M 48.982813 151.173223 
L 49.701113 151.173223 
L 50.419413 150.748421 
L 51.137713 149.797503 
L 51.856013 147.955091 
L 52.574313 145.236899 
L 54.729213 134.948996 
L 55.447513 132.525991 
L 56.165813 131.168477 
L 56.884113 130.837453 
L 57.602413 131.278582 
L 58.320713 132.174041 
L 60.475613 135.638978 
L 63.348813 140.726073 
L 64.067113 141.69424 
L 64.785413 142.453892 
L 65.503713 143.037606 
L 66.222013 143.424696 
L 66.940313 143.43762 
L 67.658613 142.694606 
L 68.376913 140.670728 
L 69.095213 136.868632 
L 69.813513 131.040877 
L 71.250113 114.511492 
L 72.686712 97.407692 
L 73.405012 91.21207 
L 74.123313 87.413605 
L 74.841613 86.036034 
L 75.559913 86.69311 
L 76.278213 88.779197 
L 77.714813 94.919479 
L 79.869713 104.511289 
L 81.306313 110.1642 
L 82.742913 114.934615 
L 83.461213 116.848618 
L 84.179513 118.199332 
L 84.897813 118.578246 
L 85.616113 117.39998 
L 86.334413 114.023 
L 87.052713 107.96372 
L 87.771013 99.13406 
L 89.207613 75.599523 
L 90.644213 52.647949 
L 91.362513 44.730028 
L 92.080813 40.196124 
L 92.799113 39.041818 
L 93.517413 40.74258 
L 94.235713 44.486505 
L 95.672313 54.903084 
L 97.827213 71.046009 
L 99.263813 80.540789 
L 100.700412 88.715574 
L 101.418712 92.163807 
L 102.137012 94.946727 
L 102.855312 96.692106 
L 103.573612 96.882574 
L 104.291912 94.971184 
L 105.010212 90.578282 
L 105.728512 83.703261 
L 107.165113 65.052337 
L 107.883413 55.595379 
L 108.601713 47.794682 
L 109.320013 42.630809 
L 110.038313 40.53963 
L 110.756613 41.370163 
L 111.474913 44.520062 
L 112.193213 49.180523 
L 115.784712 75.984645 
L 117.221312 85.266196 
L 118.657913 93.299229 
L 120.094513 99.952813 
L 120.812813 102.556022 
L 121.531113 104.346997 
L 122.249413 104.977205 
L 122.967713 104.16392 
L 123.686013 101.853071 
L 124.404313 98.332173 
L 125.840913 90.362608 
L 126.559213 87.534981 
L 127.277513 86.279163 
L 127.995812 86.73234 
L 128.714112 88.644109 
L 130.150712 94.849798 
L 135.897112 122.058491 
L 136.615412 124.639972 
L 137.333712 126.742577 
L 138.770312 129.943115 
L 139.488612 131.184001 
L 140.206912 132.116513 
L 140.925212 132.602749 
L 141.643512 132.549775 
L 142.361812 132.00621 
L 143.798412 130.436984 
L 144.516712 130.055103 
L 145.235012 130.219064 
L 145.953312 130.904539 
L 147.389912 133.125405 
L 148.826513 135.89028 
L 149.544813 137.901274 
L 150.263113 140.755584 
L 150.981413 144.618953 
L 153.854613 163.797704 
L 154.572913 166.806107 
L 155.291213 168.492456 
L 156.009512 169.037318 
L 156.727812 168.789431 
L 157.446112 168.10812 
L 158.882712 166.309065 
L 162.474212 161.267019 
L 163.192512 160.564214 
L 163.910813 160.028452 
L 164.629113 159.657015 
L 165.347413 159.554809 
L 166.065713 160.010296 
L 166.784013 161.486649 
L 167.502313 164.500779 
L 168.220613 169.420387 
L 168.938913 176.259212 
L 171.812113 208.74787 
L 172.530413 213.406873 
L 173.248713 215.629543 
L 173.967013 215.659841 
L 174.685313 214.046489 
L 175.403613 211.426351 
L 179.713413 193.267758 
L 181.150013 188.387275 
L 182.586613 184.549607 
L 183.304913 183.335209 
L 184.023212 183.045677 
L 184.741512 184.19529 
L 185.459812 187.284209 
L 186.178112 192.590428 
L 186.896412 199.979364 
L 189.051312 226.523676 
L 189.769612 233.074492 
L 190.487912 237.042465 
L 191.206212 238.278093 
L 191.924512 237.127761 
L 192.642812 234.248835 
L 194.079412 226.079604 
L 196.234312 213.509707 
L 197.670912 205.988765 
L 199.107512 199.444635 
L 200.544112 194.039089 
L 201.262412 191.895337 
L 201.980712 190.398954 
L 202.699012 189.906445 
L 203.417312 190.78521 
L 204.135612 193.246808 
L 204.853912 197.190025 
L 207.008812 211.76013 
L 207.727112 214.790753 
L 208.445412 215.981149 
L 209.163712 215.36301 
L 209.882012 213.325071 
L 211.318612 207.171197 
L 216.346712 184.582355 
L 217.783313 179.762107 
L 219.219913 176.321089 
L 219.938213 174.966717 
L 220.656513 173.931249 
L 221.374813 173.381132 
L 222.093113 173.467386 
L 222.811413 174.208858 
L 224.966313 177.791942 
L 225.684613 178.212556 
L 226.402913 177.910635 
L 227.121213 177.003857 
L 228.557813 174.341248 
L 229.994413 171.156427 
L 230.712713 168.934287 
L 231.431013 165.940929 
L 232.149313 162.11472 
L 234.304213 148.926851 
L 235.022513 145.649236 
L 235.740813 143.492163 
L 236.459113 142.408506 
L 237.177413 142.144109 
L 237.895713 142.376331 
L 239.332313 143.422651 
L 240.768912 144.850576 
L 242.923812 147.29235 
L 243.642112 147.859878 
L 244.360412 148.243349 
L 245.078712 148.473826 
L 245.797012 148.529236 
L 246.515312 148.230714 
L 247.233612 147.195258 
L 247.951912 144.89678 
L 248.670212 140.836839 
L 249.388512 134.76697 
L 250.825112 117.796773 
L 252.261712 100.304312 
L 252.980012 93.931957 
L 253.698312 89.967544 
L 254.416612 88.434148 
L 255.134912 88.944908 
L 255.853212 90.893604 
L 257.289812 96.783743 
L 259.444712 106.054716 
L 260.881312 111.525032 
L 262.317912 116.134456 
L 263.036212 117.975252 
L 263.754512 119.257227 
L 264.472812 119.571595 
L 265.191112 118.332721 
L 265.909412 114.898832 
L 266.627712 108.786115 
L 267.346012 99.906278 
L 268.782612 76.280384 
L 270.219212 53.248262 
L 270.937512 45.293713 
L 271.655812 40.725418 
L 272.374112 39.538817 
L 273.092412 41.209256 
L 273.810712 44.924707 
L 275.247312 55.289445 
L 277.402212 71.365878 
L 278.838813 80.822815 
L 280.275413 88.964236 
L 280.993713 92.397298 
L 281.712013 95.165971 
L 282.430313 96.897974 
L 283.148613 97.075881 
L 283.866913 95.152697 
L 284.585213 90.74872 
L 285.303513 83.8633 
L 286.740113 65.193442 
L 287.458413 55.727876 
L 288.176713 47.919095 
L 288.895013 42.747631 
L 289.613313 40.649324 
L 290.331613 41.473164 
L 291.049913 44.616779 
L 291.768213 49.271339 
L 295.359713 76.050936 
L 296.796312 85.324645 
L 298.232912 93.350763 
L 299.669512 99.99825 
L 300.387812 102.598687 
L 301.106112 104.387059 
L 301.824412 105.014822 
L 302.542712 104.199243 
L 303.261012 101.886238 
L 303.979312 98.363316 
L 305.415912 90.390067 
L 306.134212 87.560765 
L 306.852512 86.303374 
L 307.570812 86.755074 
L 308.289112 88.665456 
L 309.725712 94.86862 
L 315.472112 122.069865 
L 316.190412 124.650653 
L 316.908712 126.752606 
L 318.345312 129.951958 
L 319.063612 131.192303 
L 319.781912 132.124309 
L 320.500212 132.610069 
L 321.218512 132.556649 
L 321.936812 132.012664 
L 323.373412 130.442675 
L 324.091712 130.060447 
L 324.810012 130.224082 
L 325.528313 130.90925 
L 326.964913 133.129559 
L 328.401513 135.893943 
L 329.119813 137.904713 
L 329.838113 140.758813 
L 330.556413 144.621986 
L 333.429613 163.800061 
L 334.147913 166.80832 
L 334.866213 168.494535 
L 335.584513 169.039269 
L 336.302813 168.791264 
L 337.021113 168.109841 
L 338.457713 166.310583 
L 342.049213 161.268127 
L 342.767513 160.565254 
L 343.485813 160.029428 
L 344.204113 159.657932 
L 344.922413 159.55567 
L 345.640713 160.011104 
L 346.359013 161.487408 
L 347.077313 164.501492 
L 347.795613 169.421056 
L 348.513913 176.259841 
L 351.387113 208.748358 
L 352.105412 213.407332 
L 352.823712 215.629973 
L 353.542012 215.660246 
L 354.260312 214.046869 
L 354.978612 211.426707 
L 359.288412 193.268002 
L 360.725012 188.38749 
L 362.161612 184.549797 
L 362.879912 183.335387 
L 363.598212 183.045844 
L 364.316512 184.195447 
L 365.034812 187.284357 
L 365.753112 192.590567 
L 366.471412 199.979494 
L 368.626312 226.523783 
L 369.344612 233.074594 
L 370.062912 237.04256 
L 370.781212 238.278182 
L 371.499512 237.127844 
L 372.217812 234.248914 
L 373.654412 226.079674 
L 375.809312 213.509765 
L 377.245912 205.988816 
L 378.682512 199.444679 
L 380.119112 194.039128 
L 380.837412 191.895374 
L 381.555712 190.398989 
L 382.274012 189.906478 
L 382.992312 190.785241 
L 383.710612 193.246837 
L 384.428912 197.190052 
L 386.583813 211.760152 
L 387.302113 214.790774 
L 388.020413 215.981168 
L 388.738713 215.363029 
L 389.457013 213.325089 
L 390.893613 207.171212 
L 395.921713 184.582365 
L 397.358313 179.762116 
L 398.794913 176.321097 
L 399.513213 174.966724 
L 400.231513 173.931256 
L 400.949813 173.381139 
L 401.668113 173.467392 
L 402.386413 174.208863 
L 404.541313 177.791947 
L 405.259613 178.212561 
L 405.977913 177.910639 
L 406.696213 177.003861 
L 408.132812 174.341251 
L 409.569412 171.15643 
L 410.287712 168.93429 
L 411.006012 165.940932 
L 411.724312 162.114723 
L 413.879212 148.926853 
L 414.597512 145.649238 
L 415.315812 143.492164 
L 416.034112 142.408507 
L 416.752412 142.144111 
L 417.470712 142.376333 
L 418.907312 143.422652 
L 420.343912 144.850577 
L 422.498812 147.29235 
L 423.217112 147.859879 
L 423.935412 148.24335 
L 424.653712 148.473826 
L 425.372012 148.529237 
L 426.090312 148.230715 
L 426.808612 147.195259 
L 427.526912 144.89678 
L 428.245212 140.836839 
L 428.963512 134.766971 
L 430.400112 117.796774 
L 431.836712 100.304313 
L 432.555012 93.931958 
L 433.273312 89.967544 
L 433.991612 88.434149 
L 434.709912 88.944908 
L 435.428212 90.893605 
L 436.864812 96.783744 
L 439.019712 106.054716 
L 440.456312 111.525033 
L 441.892912 116.134456 
L 442.611212 117.975252 
L 443.329512 119.257227 
L 444.047812 119.571596 
L 444.766112 118.332721 
L 445.484412 114.898832 
L 446.202712 108.786115 
L 446.921012 99.906278 
L 448.357613 76.280384 
L 449.794213 53.248262 
L 450.512513 45.293713 
L 451.230813 40.725418 
L 451.949113 39.538818 
L 452.667413 41.209256 
L 453.385713 44.924707 
L 454.822313 55.289446 
L 456.977213 71.365878 
L 458.413813 80.822816 
L 459.850413 88.964236 
L 460.568713 92.397298 
L 461.287013 95.165971 
L 462.005313 96.897974 
L 462.723613 97.075881 
L 463.441913 95.152697 
L 464.160213 90.74872 
L 464.878512 83.8633 
L 466.315112 65.193442 
L 467.033412 55.727876 
L 467.751712 47.919095 
L 468.470012 42.747631 
L 469.188312 40.649324 
L 469.906612 41.473164 
L 470.624912 44.616779 
L 471.343212 49.271339 
L 474.934712 76.050936 
L 476.371312 85.324645 
L 477.807912 93.350763 
L 479.244512 99.99825 
L 479.962812 102.598687 
L 480.681112 104.387059 
L 481.399412 105.014822 
L 482.117712 104.199243 
L 482.836012 101.886238 
L 483.554312 98.363316 
L 484.990912 90.390067 
L 485.709212 87.560765 
L 486.427512 86.303374 
L 487.145812 86.755074 
L 487.864112 88.665456 
L 489.300712 94.86862 
L 495.047112 122.069865 
L 495.765412 124.650653 
L 496.483712 126.752606 
L 497.920312 129.951958 
L 498.638612 131.192303 
L 499.356912 132.124309 
L 500.075212 132.610069 
L 500.793512 132.556649 
L 501.511812 132.012664 
L 502.948412 130.442675 
L 503.666712 130.060447 
L 504.385012 130.224082 
L 505.103312 130.90925 
L 506.539912 133.129559 
L 507.976512 135.893943 
L 508.694813 137.904713 
L 509.413113 140.758813 
L 510.131413 144.621986 
L 513.004613 163.800061 
L 513.722913 166.80832 
L 514.441213 168.494535 
L 515.159513 169.039269 
L 515.877813 168.791264 
L 516.596113 168.109841 
L 518.032713 166.310583 
L 521.624212 161.268127 
L 522.342512 160.565254 
L 523.060812 160.029428 
L 523.779112 159.657932 
L 524.497412 159.55567 
L 525.215712 160.011104 
L 525.934012 161.487408 
L 526.652312 164.501492 
L 527.370612 169.421056 
L 528.088912 176.259841 
L 530.962112 208.748358 
L 531.680412 213.407332 
L 532.398712 215.629973 
L 533.117012 215.660246 
L 533.835312 214.046869 
L 534.553612 211.426707 
L 538.863412 193.268002 
L 540.300012 188.38749 
L 541.736612 184.549797 
L 542.454912 183.335387 
L 543.173212 183.045844 
L 543.891512 184.195447 
L 544.609812 187.284357 
L 545.328112 192.590567 
L 546.046412 199.979494 
L 548.201312 226.523783 
L 548.919612 233.074594 
L 549.637912 237.04256 
L 550.356212 238.278182 
L 551.074512 237.127844 
L 551.074512 237.127844 
" clip-path="url(#pe8e7d52bbe)" style="fill: none; stroke: #1f77b4; stroke-width: 1.5; stroke-linecap: square"/>
   </g>
   <g id="line2d_18">
    <path d="M 48.982813 151.173223 
L 49.701113 151.173223 
L 50.419413 151.872261 
L 51.137713 151.744821 
L 51.856013 151.204665 
L 52.574313 150.08139 
L 53.292613 148.160485 
L 54.010913 145.505045 
L 56.165813 136.543556 
L 56.884113 134.682499 
L 57.602413 133.768682 
L 58.320713 133.702405 
L 59.039013 134.235722 
L 60.475613 136.10414 
L 62.630513 139.443095 
L 64.067113 141.766709 
L 65.503713 143.569072 
L 66.222013 144.199977 
L 66.940313 144.666333 
L 67.658613 144.902464 
L 68.376913 144.687314 
L 69.095213 143.634343 
L 69.813513 141.279386 
L 70.531813 137.249802 
L 71.250113 131.451579 
L 72.686712 116.168559 
L 74.123313 101.624593 
L 74.841613 96.767681 
L 75.559913 94.075334 
L 76.278213 93.445915 
L 76.996513 94.465984 
L 77.714813 96.587751 
L 79.151413 102.231996 
L 81.306313 110.753108 
L 82.742913 115.717833 
L 84.179513 119.831715 
L 84.897813 121.385332 
L 85.616113 122.309433 
L 86.334413 122.183301 
L 87.052713 120.463248 
L 87.771013 116.619277 
L 88.489313 110.33481 
L 89.207613 101.697745 
L 92.080813 60.824132 
L 92.799113 54.713205 
L 93.517413 51.646578 
L 94.235713 51.46422 
L 94.954013 53.607853 
L 95.672313 57.338104 
L 97.827213 71.852476 
L 99.982112 85.545257 
L 101.418712 93.31735 
L 102.855312 99.598663 
L 103.573612 101.792031 
L 104.291912 102.896395 
L 105.010212 102.437256 
L 105.728512 99.972551 
L 106.446813 95.274308 
L 107.165113 88.49596 
L 109.320013 63.511991 
L 110.038313 57.28241 
L 110.756613 53.556727 
L 111.474913 52.551184 
L 112.193213 53.994472 
L 112.911513 57.282548 
L 114.348112 66.62455 
L 116.503012 81.181837 
L 117.939612 89.856626 
L 119.376213 97.47482 
L 120.812813 103.892111 
L 121.531113 106.554853 
L 122.249413 108.654071 
L 122.967713 109.917718 
L 123.686013 110.051859 
L 124.404313 108.870636 
L 125.122613 106.427855 
L 127.277513 96.294419 
L 127.995812 94.221097 
L 128.714112 93.603559 
L 129.432412 94.448993 
L 130.150712 96.459807 
L 131.587312 102.203113 
L 137.333712 126.443445 
L 138.052012 128.623118 
L 138.770312 130.403778 
L 140.206912 133.13743 
L 140.925212 134.161714 
L 141.643512 134.867092 
L 142.361812 135.142942 
L 143.080112 134.948089 
L 143.798412 134.377684 
L 145.235012 133.095083 
L 145.953312 132.915142 
L 146.671612 133.219161 
L 147.389912 133.94042 
L 148.826513 136.011105 
L 149.544813 137.222449 
L 150.263113 138.72091 
L 150.981413 140.783802 
L 151.699713 143.655406 
L 152.418013 147.397225 
L 154.572913 160.701493 
L 155.291213 164.136816 
L 156.009512 166.447763 
L 156.727812 167.623031 
L 157.446112 167.875581 
L 158.164412 167.522456 
L 159.601012 166.05599 
L 161.755912 163.321992 
L 163.192512 161.486045 
L 164.629113 160.163425 
L 165.347413 159.730537 
L 166.065713 159.477013 
L 166.784013 159.552336 
L 167.502313 160.268544 
L 168.220613 162.058727 
L 168.938913 165.339671 
L 169.657213 170.302713 
L 170.375513 176.853501 
L 172.530413 199.562479 
L 173.248713 205.087157 
L 173.967013 208.549348 
L 174.685313 209.89204 
L 175.403613 209.426214 
L 176.121913 207.672158 
L 177.558513 202.35956 
L 179.713413 193.979542 
L 181.150013 188.992058 
L 182.586613 184.740034 
L 183.304913 182.963857 
L 184.023212 181.54669 
L 184.741512 180.731196 
L 185.459812 180.902456 
L 186.178112 182.516336 
L 186.896412 185.860239 
L 187.614712 190.760754 
L 188.333012 197.665184 
L 189.769612 214.605903 
L 190.487912 221.653065 
L 191.206212 226.773815 
L 191.924512 229.525271 
L 192.642812 229.921546 
L 193.361112 228.367672 
L 194.079412 225.476008 
L 196.234312 214.132971 
L 198.389212 203.400757 
L 199.825812 197.19727 
L 201.262412 191.98249 
L 201.980712 189.808418 
L 202.699012 188.073251 
L 203.417312 187.027672 
L 204.135612 186.995837 
L 204.853912 188.261682 
L 205.572212 190.921397 
L 206.290512 194.770543 
L 207.727112 203.718467 
L 208.445412 207.309668 
L 209.163712 209.485159 
L 209.882012 210.013955 
L 210.600312 209.031692 
L 211.318612 206.938659 
L 212.755212 201.284068 
L 217.783313 181.155302 
L 219.219913 177.046782 
L 220.656513 174.099028 
L 221.374813 172.975767 
L 222.093113 172.189451 
L 222.811413 171.885257 
L 223.529713 172.159452 
L 224.248013 172.968857 
L 225.684613 175.207766 
L 226.402913 175.955295 
L 227.121213 176.117087 
L 227.839513 175.663899 
L 228.557813 174.740756 
L 229.994413 172.280268 
L 230.712713 170.881606 
L 231.431013 169.190504 
L 232.149313 166.959214 
L 232.867613 164.015335 
L 234.304213 156.350234 
L 235.740813 148.867242 
L 236.459113 146.253551 
L 237.177413 144.634209 
L 237.895713 143.904696 
L 238.614013 143.815725 
L 239.332313 144.095958 
L 240.768912 145.095629 
L 242.205512 146.43602 
L 243.642112 147.932347 
L 244.360412 148.549734 
L 245.078712 149.005293 
L 245.797012 149.304518 
L 246.515312 149.459427 
L 247.233612 149.403117 
L 247.951912 148.913367 
L 248.670212 147.60255 
L 249.388512 145.005481 
L 250.106812 140.748556 
L 250.825112 134.73686 
L 252.261712 119.065178 
L 253.698312 104.178533 
L 254.416612 99.165793 
L 255.134912 96.327126 
L 255.853212 95.56032 
L 256.571512 96.451383 
L 257.289812 98.452021 
L 258.726412 103.87571 
L 260.881312 112.113943 
L 262.317912 116.917673 
L 263.754512 120.889608 
L 264.472812 122.378679 
L 265.191112 123.242174 
L 265.909412 123.059134 
L 266.627712 121.285642 
L 267.346012 117.391492 
L 268.064312 111.059911 
L 268.782612 102.378603 
L 271.655812 61.353422 
L 272.374112 55.210214 
L 273.092412 52.113248 
L 273.810712 51.902433 
L 274.529012 54.019318 
L 275.247312 57.724468 
L 277.402212 72.172343 
L 279.557113 85.810077 
L 280.993713 93.550845 
L 282.430313 99.804528 
L 283.148613 101.985335 
L 283.866913 103.077903 
L 284.585213 102.607695 
L 285.303513 100.13259 
L 286.021813 95.42458 
L 286.740113 88.637071 
L 288.895013 63.628812 
L 289.613313 57.392109 
L 290.331613 53.659734 
L 291.049913 52.647903 
L 291.768213 54.085295 
L 292.486513 57.367826 
L 293.923113 66.699737 
L 296.078012 81.244086 
L 297.514612 89.911507 
L 298.951212 97.523205 
L 300.387812 103.934777 
L 301.106112 106.594916 
L 301.824412 108.691691 
L 302.542712 109.953043 
L 303.261012 110.085026 
L 303.979312 108.901776 
L 304.697612 106.457099 
L 306.852512 96.318628 
L 307.570812 94.243829 
L 308.289112 93.624905 
L 309.007412 94.469038 
L 309.725712 96.478625 
L 311.162312 102.219706 
L 316.908712 126.453476 
L 317.627012 128.632532 
L 318.345312 130.412622 
L 319.781912 133.145227 
L 320.500212 134.169035 
L 321.218512 134.873967 
L 321.936812 135.149396 
L 322.655112 134.95415 
L 323.373412 134.383374 
L 324.810012 133.100099 
L 325.528313 132.919853 
L 326.246613 133.223585 
L 326.964913 133.944573 
L 328.401513 136.014767 
L 329.119813 137.225888 
L 329.838113 138.72414 
L 330.556413 140.786835 
L 331.274713 143.658253 
L 331.993013 147.399898 
L 334.147913 160.703706 
L 334.866213 164.138894 
L 335.584513 166.449714 
L 336.302813 167.624863 
L 337.021113 167.877302 
L 337.739413 167.524071 
L 339.176013 166.057415 
L 341.330913 163.323172 
L 342.767513 161.487085 
L 344.204113 160.164341 
L 344.922413 159.731397 
L 345.640713 159.477821 
L 346.359013 159.553095 
L 347.077313 160.269257 
L 347.795613 162.059396 
L 348.513913 165.340301 
L 349.232213 170.303304 
L 349.950513 176.854056 
L 352.105412 199.562942 
L 352.823712 205.087588 
L 353.542012 208.549752 
L 354.260312 209.892417 
L 354.978612 209.42657 
L 355.696912 207.672498 
L 357.133512 202.359857 
L 359.288412 193.979786 
L 360.725012 188.992275 
L 362.161612 184.740223 
L 362.879912 182.964035 
L 363.598212 181.546858 
L 364.316512 180.731353 
L 365.034812 180.902602 
L 365.753112 182.516472 
L 366.471412 185.860367 
L 367.189712 190.760876 
L 367.908012 197.6653 
L 369.344612 214.605999 
L 370.062912 221.653161 
L 370.781212 226.773905 
L 371.499512 229.525356 
L 372.217812 229.921625 
L 372.936112 228.367746 
L 373.654412 225.476072 
L 375.809312 214.133024 
L 377.964212 203.400804 
L 379.400812 197.197313 
L 380.837412 191.982524 
L 381.555712 189.808452 
L 382.274012 188.073283 
L 382.992312 187.027704 
L 383.710612 186.995868 
L 384.428912 188.261711 
L 385.147212 190.921423 
L 385.865512 194.770567 
L 387.302113 203.718483 
L 388.020413 207.309684 
L 388.738713 209.48518 
L 389.457013 210.013976 
L 390.175313 209.031708 
L 390.893613 206.938675 
L 392.330213 201.284083 
L 397.358313 181.155313 
L 398.794913 177.04679 
L 400.231513 174.099036 
L 400.949813 172.975773 
L 401.668113 172.189458 
L 402.386413 171.885262 
L 403.104713 172.159456 
L 403.823013 172.968862 
L 405.259613 175.207769 
L 405.977913 175.9553 
L 406.696213 176.117092 
L 407.414513 175.663904 
L 408.132812 174.740761 
L 409.569412 172.280272 
L 410.287712 170.881608 
L 411.006012 169.190507 
L 411.724312 166.959215 
L 412.442612 164.015338 
L 413.879212 156.350236 
L 415.315812 148.867244 
L 416.034112 146.253553 
L 416.752412 144.634211 
L 417.470712 143.904698 
L 418.189012 143.815726 
L 418.907312 144.09596 
L 420.343912 145.09563 
L 421.780512 146.436021 
L 423.217112 147.932347 
L 423.935412 148.549735 
L 424.653712 149.005293 
L 425.372012 149.304519 
L 426.090312 149.459427 
L 426.808612 149.403117 
L 427.526912 148.913367 
L 428.245212 147.60255 
L 428.963512 145.005481 
L 429.681812 140.748556 
L 430.400112 134.73686 
L 431.836712 119.065181 
L 433.273312 104.178533 
L 433.991612 99.165799 
L 434.709912 96.327131 
L 435.428212 95.56032 
L 436.146512 96.451383 
L 436.864812 98.452021 
L 438.301412 103.87571 
L 440.456312 112.113943 
L 441.892912 116.917673 
L 443.329512 120.889608 
L 444.047812 122.378679 
L 444.766112 123.242174 
L 445.484412 123.059134 
L 446.202712 121.285642 
L 446.921012 117.391492 
L 447.639313 111.059911 
L 448.357613 102.378603 
L 451.230813 61.353422 
L 451.949113 55.210214 
L 452.667413 52.113248 
L 453.385713 51.902433 
L 454.104013 54.019318 
L 454.822313 57.724468 
L 456.977213 72.172343 
L 459.132113 85.810077 
L 460.568713 93.550845 
L 462.005313 99.804528 
L 462.723613 101.985335 
L 463.441913 103.077903 
L 464.160213 102.607695 
L 464.878512 100.13259 
L 465.596812 95.42458 
L 466.315112 88.637071 
L 468.470012 63.628812 
L 469.188312 57.392109 
L 469.906612 53.659734 
L 470.624912 52.647903 
L 471.343212 54.085295 
L 472.061512 57.367826 
L 473.498112 66.699737 
L 475.653012 81.244086 
L 477.089612 89.911507 
L 478.526212 97.523205 
L 479.962812 103.934777 
L 480.681112 106.594916 
L 481.399412 108.691691 
L 482.117712 109.953043 
L 482.836012 110.085026 
L 483.554312 108.901776 
L 484.272612 106.457099 
L 486.427512 96.318628 
L 487.145812 94.243829 
L 487.864112 93.624905 
L 488.582412 94.469038 
L 489.300712 96.478625 
L 490.737312 102.219706 
L 496.483712 126.453476 
L 497.202012 128.632532 
L 497.920312 130.412622 
L 499.356912 133.145227 
L 500.075212 134.169035 
L 500.793512 134.873967 
L 501.511812 135.149396 
L 502.230112 134.95415 
L 502.948412 134.383374 
L 504.385012 133.100099 
L 505.103312 132.919853 
L 505.821612 133.223585 
L 506.539912 133.944573 
L 507.976512 136.014767 
L 508.694813 137.225888 
L 509.413113 138.72414 
L 510.131413 140.786835 
L 510.849713 143.658253 
L 511.568013 147.399898 
L 513.722913 160.703706 
L 514.441213 164.138894 
L 515.159513 166.449714 
L 515.877813 167.624863 
L 516.596113 167.877302 
L 517.314413 167.524071 
L 518.751013 166.057415 
L 520.905912 163.323172 
L 522.342512 161.487085 
L 523.779112 160.164341 
L 524.497412 159.731397 
L 525.215712 159.477821 
L 525.934012 159.553095 
L 526.652312 160.269257 
L 527.370612 162.059396 
L 528.088912 165.340301 
L 528.807212 170.303304 
L 529.525512 176.854056 
L 531.680412 199.562942 
L 532.398712 205.087588 
L 533.117012 208.549752 
L 533.835312 209.892417 
L 534.553612 209.42657 
L 535.271912 207.672498 
L 536.708512 202.359857 
L 538.863412 193.979786 
L 540.300012 188.992275 
L 541.736612 184.740223 
L 542.454912 182.964035 
L 543.173212 181.546858 
L 543.891512 180.731353 
L 544.609812 180.902602 
L 545.328112 182.516472 
L 546.046412 185.860367 
L 546.764712 190.760876 
L 547.483012 197.6653 
L 548.919612 214.605999 
L 549.637912 221.653161 
L 550.356212 226.773905 
L 551.074512 229.525356 
L 551.074512 229.525356 
" clip-path="url(#pe8e7d52bbe)" style="fill: none; stroke-dasharray: 5.55,2.4; stroke-dashoffset: 0; stroke: #ff7f0e; stroke-width: 1.5"/>
   </g>
   <g id="patch_3">
    <path d="M 48.982813 248.24 
L 48.982813 29.08 
" style="fill: none; stroke: #000000; stroke-width: 0.8; stroke-linejoin: miter; stroke-linecap: square"/>
   </g>
   <g id="patch_4">
    <path d="M 551.792812 248.24 
L 551.792812 29.08 
" style="fill: none; stroke: #000000; stroke-width: 0.8; stroke-linejoin: miter; stroke-linecap: square"/>
   </g>
   <g id="patch_5">
    <path d="M 48.982813 248.24 
L 551.792812 248.24 
" style="fill: none; stroke: #000000; stroke-width: 0.8; stroke-linejoin: miter; stroke-linecap: square"/>
   </g>
   <g id="patch_6">
    <path d="M 48.982813 29.08 
L 551.792812 29.08 
" style="fill: none; stroke: #000000; stroke-width: 0.8; stroke-linejoin: miter; stroke-linecap: square"/>
   </g>
   <g id="text_19">
    <!-- Model Performance w/ new f(u(k)) -->
    <g transform="translate(198.64375 23.08) scale(0.12 -0.12)">
     <defs>
      <path id="DejaVuSans-4d" d="M 628 4666 
L 1569 4666 
L 2759 1491 
L 3956 4666 
L 4897 4666 
L 4897 0 
L 4281 0 
L 4281 4097 
L 3078 897 
L 2444 897 
L 1241 4097 
L 1241 0 
L 628 0 
L 628 4666 
z
" transform="scale(0.015625)"/>
      <path id="DejaVuSans-6f" d="M 1959 3097 
Q 1497 3097 1228 2736 
Q 959 2375 959 1747 
Q 959 1119 1226 758 
Q 1494 397 1959 397 
Q 2419 397 2687 759 
Q 2956 1122 2956 1747 
Q 2956 2369 2687 2733 
Q 2419 3097 1959 3097 
z
M 1959 3584 
Q 2709 3584 3137 3096 
Q 3566 2609 3566 1747 
Q 3566 888 3137 398 
Q 2709 -91 1959 -91 
Q 1206 -91 779 398 
Q 353 888 353 1747 
Q 353 2609 779 3096 
Q 1206 3584 1959 3584 
z
" transform="scale(0.015625)"/>
      <path id="DejaVuSans-64" d="M 2906 2969 
L 2906 4863 
L 3481 4863 
L 3481 0 
L 2906 0 
L 2906 525 
Q 2725 213 2448 61 
Q 2172 -91 1784 -91 
Q 1150 -91 751 415 
Q 353 922 353 1747 
Q 353 2572 751 3078 
Q 1150 3584 1784 3584 
Q 2172 3584 2448 3432 
Q 2725 3281 2906 2969 
z
M 947 1747 
Q 947 1113 1208 752 
Q 1469 391 1925 391 
Q 2381 391 2643 752 
Q 2906 1113 2906 1747 
Q 2906 2381 2643 2742 
Q 2381 3103 1925 3103 
Q 1469 3103 1208 2742 
Q 947 2381 947 1747 
z
" transform="scale(0.015625)"/>
      <path id="DejaVuSans-6c" d="M 603 4863 
L 1178 4863 
L 1178 0 
L 603 0 
L 603 4863 
z
" transform="scale(0.015625)"/>
      <path id="DejaVuSans-50" d="M 1259 4147 
L 1259 2394 
L 2053 2394 
Q 2494 2394 2734 2622 
Q 2975 2850 2975 3272 
Q 2975 3691 2734 3919 
Q 2494 4147 2053 4147 
L 1259 4147 
z
M 628 4666 
L 2053 4666 
Q 2838 4666 3239 4311 
Q 3641 3956 3641 3272 
Q 3641 2581 3239 2228 
Q 2838 1875 2053 1875 
L 1259 1875 
L 1259 0 
L 628 0 
L 628 4666 
z
" transform="scale(0.015625)"/>
      <path id="DejaVuSans-72" d="M 2631 2963 
Q 2534 3019 2420 3045 
Q 2306 3072 2169 3072 
Q 1681 3072 1420 2755 
Q 1159 2438 1159 1844 
L 1159 0 
L 581 0 
L 581 3500 
L 1159 3500 
L 1159 2956 
Q 1341 3275 1631 3429 
Q 1922 3584 2338 3584 
Q 2397 3584 2469 3576 
Q 2541 3569 2628 3553 
L 2631 2963 
z
" transform="scale(0.015625)"/>
      <path id="DejaVuSans-66" d="M 2375 4863 
L 2375 4384 
L 1825 4384 
Q 1516 4384 1395 4259 
Q 1275 4134 1275 3809 
L 1275 3500 
L 2222 3500 
L 2222 3053 
L 1275 3053 
L 1275 0 
L 697 0 
L 697 3053 
L 147 3053 
L 147 3500 
L 697 3500 
L 697 3744 
Q 697 4328 969 4595 
Q 1241 4863 1831 4863 
L 2375 4863 
z
" transform="scale(0.015625)"/>
      <path id="DejaVuSans-61" d="M 2194 1759 
Q 1497 1759 1228 1600 
Q 959 1441 959 1056 
Q 959 750 1161 570 
Q 1363 391 1709 391 
Q 2188 391 2477 730 
Q 2766 1069 2766 1631 
L 2766 1759 
L 2194 1759 
z
M 3341 1997 
L 3341 0 
L 2766 0 
L 2766 531 
Q 2569 213 2275 61 
Q 1981 -91 1556 -91 
Q 1019 -91 701 211 
Q 384 513 384 1019 
Q 384 1609 779 1909 
Q 1175 2209 1959 2209 
L 2766 2209 
L 2766 2266 
Q 2766 2663 2505 2880 
Q 2244 3097 1772 3097 
Q 1472 3097 1187 3025 
Q 903 2953 641 2809 
L 641 3341 
Q 956 3463 1253 3523 
Q 1550 3584 1831 3584 
Q 2591 3584 2966 3190 
Q 3341 2797 3341 1997 
z
" transform="scale(0.015625)"/>
      <path id="DejaVuSans-6e" d="M 3513 2113 
L 3513 0 
L 2938 0 
L 2938 2094 
Q 2938 2591 2744 2837 
Q 2550 3084 2163 3084 
Q 1697 3084 1428 2787 
Q 1159 2491 1159 1978 
L 1159 0 
L 581 0 
L 581 3500 
L 1159 3500 
L 1159 2956 
Q 1366 3272 1645 3428 
Q 1925 3584 2291 3584 
Q 2894 3584 3203 3211 
Q 3513 2838 3513 2113 
z
" transform="scale(0.015625)"/>
      <path id="DejaVuSans-63" d="M 3122 3366 
L 3122 2828 
Q 2878 2963 2633 3030 
Q 2388 3097 2138 3097 
Q 1578 3097 1268 2742 
Q 959 2388 959 1747 
Q 959 1106 1268 751 
Q 1578 397 2138 397 
Q 2388 397 2633 464 
Q 2878 531 3122 666 
L 3122 134 
Q 2881 22 2623 -34 
Q 2366 -91 2075 -91 
Q 1284 -91 818 406 
Q 353 903 353 1747 
Q 353 2603 823 3093 
Q 1294 3584 2113 3584 
Q 2378 3584 2631 3529 
Q 2884 3475 3122 3366 
z
" transform="scale(0.015625)"/>
      <path id="DejaVuSans-77" d="M 269 3500 
L 844 3500 
L 1563 769 
L 2278 3500 
L 2956 3500 
L 3675 769 
L 4391 3500 
L 4966 3500 
L 4050 0 
L 3372 0 
L 2619 2869 
L 1863 0 
L 1184 0 
L 269 3500 
z
" transform="scale(0.015625)"/>
      <path id="DejaVuSans-2f" d="M 1625 4666 
L 2156 4666 
L 531 -594 
L 0 -594 
L 1625 4666 
z
" transform="scale(0.015625)"/>
      <path id="DejaVuSans-28" d="M 1984 4856 
Q 1566 4138 1362 3434 
Q 1159 2731 1159 2009 
Q 1159 1288 1364 580 
Q 1569 -128 1984 -844 
L 1484 -844 
Q 1016 -109 783 600 
Q 550 1309 550 2009 
Q 550 2706 781 3412 
Q 1013 4119 1484 4856 
L 1984 4856 
z
" transform="scale(0.015625)"/>
      <path id="DejaVuSans-6b" d="M 581 4863 
L 1159 4863 
L 1159 1991 
L 2875 3500 
L 3609 3500 
L 1753 1863 
L 3688 0 
L 2938 0 
L 1159 1709 
L 1159 0 
L 581 0 
L 581 4863 
z
" transform="scale(0.015625)"/>
      <path id="DejaVuSans-29" d="M 513 4856 
L 1013 4856 
Q 1481 4119 1714 3412 
Q 1947 2706 1947 2009 
Q 1947 1309 1714 600 
Q 1481 -109 1013 -844 
L 513 -844 
Q 928 -128 1133 580 
Q 1338 1288 1338 2009 
Q 1338 2731 1133 3434 
Q 928 4138 513 4856 
z
" transform="scale(0.015625)"/>
     </defs>
     <use xlink:href="#DejaVuSans-4d"/>
     <use xlink:href="#DejaVuSans-6f" x="86.279297"/>
     <use xlink:href="#DejaVuSans-64" x="147.460938"/>
     <use xlink:href="#DejaVuSans-65" x="210.9375"/>
     <use xlink:href="#DejaVuSans-6c" x="272.460938"/>
     <use xlink:href="#DejaVuSans-20" x="300.244141"/>
     <use xlink:href="#DejaVuSans-50" x="332.03125"/>
     <use xlink:href="#DejaVuSans-65" x="388.708984"/>
     <use xlink:href="#DejaVuSans-72" x="450.232422"/>
     <use xlink:href="#DejaVuSans-66" x="491.345703"/>
     <use xlink:href="#DejaVuSans-6f" x="526.550781"/>
     <use xlink:href="#DejaVuSans-72" x="587.732422"/>
     <use xlink:href="#DejaVuSans-6d" x="627.095703"/>
     <use xlink:href="#DejaVuSans-61" x="724.507812"/>
     <use xlink:href="#DejaVuSans-6e" x="785.787109"/>
     <use xlink:href="#DejaVuSans-63" x="849.166016"/>
     <use xlink:href="#DejaVuSans-65" x="904.146484"/>
     <use xlink:href="#DejaVuSans-20" x="965.669922"/>
     <use xlink:href="#DejaVuSans-77" x="997.457031"/>
     <use xlink:href="#DejaVuSans-2f" x="1079.244141"/>
     <use xlink:href="#DejaVuSans-20" x="1112.935547"/>
     <use xlink:href="#DejaVuSans-6e" x="1144.722656"/>
     <use xlink:href="#DejaVuSans-65" x="1208.101562"/>
     <use xlink:href="#DejaVuSans-77" x="1269.625"/>
     <use xlink:href="#DejaVuSans-20" x="1351.412109"/>
     <use xlink:href="#DejaVuSans-66" x="1383.199219"/>
     <use xlink:href="#DejaVuSans-28" x="1418.404297"/>
     <use xlink:href="#DejaVuSans-75" x="1457.417969"/>
     <use xlink:href="#DejaVuSans-28" x="1520.796875"/>
     <use xlink:href="#DejaVuSans-6b" x="1559.810547"/>
     <use xlink:href="#DejaVuSans-29" x="1617.720703"/>
     <use xlink:href="#DejaVuSans-29" x="1656.734375"/>
    </g>
   </g>
  </g>
  <g id="legend_1">
   <g id="patch_7">
    <path d="M 579.042812 40.1125 
L 771.444375 40.1125 
Q 773.444375 40.1125 773.444375 38.1125 
L 773.444375 9.2 
Q 773.444375 7.2 771.444375 7.2 
L 579.042812 7.2 
Q 577.042812 7.2 577.042812 9.2 
L 577.042812 38.1125 
Q 577.042812 40.1125 579.042812 40.1125 
z
" style="fill: #ffffff; opacity: 0.8; stroke: #cccccc; stroke-linejoin: miter"/>
   </g>
   <g id="line2d_19">
    <path d="M 581.042812 15.298437 
L 591.042812 15.298437 
L 601.042812 15.298437 
" style="fill: none; stroke: #1f77b4; stroke-width: 1.5; stroke-linecap: square"/>
   </g>
   <g id="text_20">
    <!-- True Output (y_p) w/ new f(u(k)) -->
    <g transform="translate(609.042812 18.798437) scale(0.1 -0.1)">
     <defs>
      <path id="DejaVuSans-79" d="M 2059 -325 
Q 1816 -950 1584 -1140 
Q 1353 -1331 966 -1331 
L 506 -1331 
L 506 -850 
L 844 -850 
Q 1081 -850 1212 -737 
Q 1344 -625 1503 -206 
L 1606 56 
L 191 3500 
L 800 3500 
L 1894 763 
L 2988 3500 
L 3597 3500 
L 2059 -325 
z
" transform="scale(0.015625)"/>
      <path id="DejaVuSans-5f" d="M 3263 -1063 
L 3263 -1509 
L -63 -1509 
L -63 -1063 
L 3263 -1063 
z
" transform="scale(0.015625)"/>
     </defs>
     <use xlink:href="#DejaVuSans-54"/>
     <use xlink:href="#DejaVuSans-72" x="46.333984"/>
     <use xlink:href="#DejaVuSans-75" x="87.447266"/>
     <use xlink:href="#DejaVuSans-65" x="150.826172"/>
     <use xlink:href="#DejaVuSans-20" x="212.349609"/>
     <use xlink:href="#DejaVuSans-4f" x="244.136719"/>
     <use xlink:href="#DejaVuSans-75" x="322.847656"/>
     <use xlink:href="#DejaVuSans-74" x="386.226562"/>
     <use xlink:href="#DejaVuSans-70" x="425.435547"/>
     <use xlink:href="#DejaVuSans-75" x="488.912109"/>
     <use xlink:href="#DejaVuSans-74" x="552.291016"/>
     <use xlink:href="#DejaVuSans-20" x="591.5"/>
     <use xlink:href="#DejaVuSans-28" x="623.287109"/>
     <use xlink:href="#DejaVuSans-79" x="662.300781"/>
     <use xlink:href="#DejaVuSans-5f" x="721.480469"/>
     <use xlink:href="#DejaVuSans-70" x="771.480469"/>
     <use xlink:href="#DejaVuSans-29" x="834.957031"/>
     <use xlink:href="#DejaVuSans-20" x="873.970703"/>
     <use xlink:href="#DejaVuSans-77" x="905.757812"/>
     <use xlink:href="#DejaVuSans-2f" x="987.544922"/>
     <use xlink:href="#DejaVuSans-20" x="1021.236328"/>
     <use xlink:href="#DejaVuSans-6e" x="1053.023438"/>
     <use xlink:href="#DejaVuSans-65" x="1116.402344"/>
     <use xlink:href="#DejaVuSans-77" x="1177.925781"/>
     <use xlink:href="#DejaVuSans-20" x="1259.712891"/>
     <use xlink:href="#DejaVuSans-66" x="1291.5"/>
     <use xlink:href="#DejaVuSans-28" x="1326.705078"/>
     <use xlink:href="#DejaVuSans-75" x="1365.71875"/>
     <use xlink:href="#DejaVuSans-28" x="1429.097656"/>
     <use xlink:href="#DejaVuSans-6b" x="1468.111328"/>
     <use xlink:href="#DejaVuSans-29" x="1526.021484"/>
     <use xlink:href="#DejaVuSans-29" x="1565.035156"/>
    </g>
   </g>
   <g id="line2d_20">
    <path d="M 581.042812 30.254687 
L 591.042812 30.254687 
L 601.042812 30.254687 
" style="fill: none; stroke-dasharray: 5.55,2.4; stroke-dashoffset: 0; stroke: #ff7f0e; stroke-width: 1.5"/>
   </g>
   <g id="text_21">
    <!-- Prediction (y_hat) -->
    <g transform="translate(609.042812 33.754687) scale(0.1 -0.1)">
     <defs>
      <path id="DejaVuSans-68" d="M 3513 2113 
L 3513 0 
L 2938 0 
L 2938 2094 
Q 2938 2591 2744 2837 
Q 2550 3084 2163 3084 
Q 1697 3084 1428 2787 
Q 1159 2491 1159 1978 
L 1159 0 
L 581 0 
L 581 4863 
L 1159 4863 
L 1159 2956 
Q 1366 3272 1645 3428 
Q 1925 3584 2291 3584 
Q 2894 3584 3203 3211 
Q 3513 2838 3513 2113 
z
" transform="scale(0.015625)"/>
     </defs>
     <use xlink:href="#DejaVuSans-50"/>
     <use xlink:href="#DejaVuSans-72" x="58.552734"/>
     <use xlink:href="#DejaVuSans-65" x="97.416016"/>
     <use xlink:href="#DejaVuSans-64" x="158.939453"/>
     <use xlink:href="#DejaVuSans-69" x="222.416016"/>
     <use xlink:href="#DejaVuSans-63" x="250.199219"/>
     <use xlink:href="#DejaVuSans-74" x="305.179688"/>
     <use xlink:href="#DejaVuSans-69" x="344.388672"/>
     <use xlink:href="#DejaVuSans-6f" x="372.171875"/>
     <use xlink:href="#DejaVuSans-6e" x="433.353516"/>
     <use xlink:href="#DejaVuSans-20" x="496.732422"/>
     <use xlink:href="#DejaVuSans-28" x="528.519531"/>
     <use xlink:href="#DejaVuSans-79" x="567.533203"/>
     <use xlink:href="#DejaVuSans-5f" x="626.712891"/>
     <use xlink:href="#DejaVuSans-68" x="676.712891"/>
     <use xlink:href="#DejaVuSans-61" x="740.091797"/>
     <use xlink:href="#DejaVuSans-74" x="801.371094"/>
     <use xlink:href="#DejaVuSans-29" x="840.580078"/>
    </g>
   </g>
  </g>
 </g>
 <defs>
  <clipPath id="pe8e7d52bbe">
   <rect x="48.982813" y="29.08" width="502.81" height="219.16"/>
  </clipPath>
 </defs>
</svg>
