<?xml version="1.0" encoding="utf-8" standalone="no"?>
<!DOCTYPE svg PUBLIC "-//W3C//DTD SVG 1.1//EN"
  "http://www.w3.org/Graphics/SVG/1.1/DTD/svg11.dtd">
<svg xmlns:xlink="http://www.w3.org/1999/xlink" width="776.717812pt" height="285.79625pt" viewBox="0 0 776.717812 285.79625" xmlns="http://www.w3.org/2000/svg" version="1.1">
 <metadata>
  <rdf:RDF xmlns:dc="http://purl.org/dc/elements/1.1/" xmlns:cc="http://creativecommons.org/ns#" xmlns:rdf="http://www.w3.org/1999/02/22-rdf-syntax-ns#">
   <cc:Work>
    <dc:type rdf:resource="http://purl.org/dc/dcmitype/StillImage"/>
    <dc:date>2024-11-10T19:50:49.237743</dc:date>
    <dc:format>image/svg+xml</dc:format>
    <dc:creator>
     <cc:Agent>
      <dc:title>Matplotlib v3.9.2, https://matplotlib.org/</dc:title>
     </cc:Agent>
    </dc:creator>
   </cc:Work>
  </rdf:RDF>
 </metadata>
 <defs>
  <style type="text/css">*{stroke-linejoin: round; stroke-linecap: butt}</style>
 </defs>
 <g id="figure_1">
  <g id="patch_1">
   <path d="M 0 285.79625 
L 776.717812 285.79625 
L 776.717812 0 
L 0 0 
z
" style="fill: #ffffff"/>
  </g>
  <g id="axes_1">
   <g id="patch_2">
    <path d="M 48.982813 248.24 
L 551.792812 248.24 
L 551.792812 29.08 
L 48.982813 29.08 
z
" style="fill: #ffffff"/>
   </g>
   <g id="matplotlib.axis_1">
    <g id="xtick_1">
     <g id="line2d_1">
      <defs>
       <path id="m8957462bdc" d="M 0 0 
L 0 3.5 
" style="stroke: #000000; stroke-width: 0.8"/>
      </defs>
      <g>
       <use xlink:href="#m8957462bdc" x="48.982813" y="248.24" style="stroke: #000000; stroke-width: 0.8"/>
      </g>
     </g>
     <g id="text_1">
      <!-- 0 -->
      <g transform="translate(45.801563 262.838437) scale(0.1 -0.1)">
       <defs>
        <path id="DejaVuSans-30" d="M 2034 4250 
Q 1547 4250 1301 3770 
Q 1056 3291 1056 2328 
Q 1056 1369 1301 889 
Q 1547 409 2034 409 
Q 2525 409 2770 889 
Q 3016 1369 3016 2328 
Q 3016 3291 2770 3770 
Q 2525 4250 2034 4250 
z
M 2034 4750 
Q 2819 4750 3233 4129 
Q 3647 3509 3647 2328 
Q 3647 1150 3233 529 
Q 2819 -91 2034 -91 
Q 1250 -91 836 529 
Q 422 1150 422 2328 
Q 422 3509 836 4129 
Q 1250 4750 2034 4750 
z
" transform="scale(0.015625)"/>
       </defs>
       <use xlink:href="#DejaVuSans-30"/>
      </g>
     </g>
    </g>
    <g id="xtick_2">
     <g id="line2d_2">
      <g>
       <use xlink:href="#m8957462bdc" x="120.812813" y="248.24" style="stroke: #000000; stroke-width: 0.8"/>
      </g>
     </g>
     <g id="text_2">
      <!-- 100 -->
      <g transform="translate(111.269063 262.838437) scale(0.1 -0.1)">
       <defs>
        <path id="DejaVuSans-31" d="M 794 531 
L 1825 531 
L 1825 4091 
L 703 3866 
L 703 4441 
L 1819 4666 
L 2450 4666 
L 2450 531 
L 3481 531 
L 3481 0 
L 794 0 
L 794 531 
z
" transform="scale(0.015625)"/>
       </defs>
       <use xlink:href="#DejaVuSans-31"/>
       <use xlink:href="#DejaVuSans-30" x="63.623047"/>
       <use xlink:href="#DejaVuSans-30" x="127.246094"/>
      </g>
     </g>
    </g>
    <g id="xtick_3">
     <g id="line2d_3">
      <g>
       <use xlink:href="#m8957462bdc" x="192.642812" y="248.24" style="stroke: #000000; stroke-width: 0.8"/>
      </g>
     </g>
     <g id="text_3">
      <!-- 200 -->
      <g transform="translate(183.099063 262.838437) scale(0.1 -0.1)">
       <defs>
        <path id="DejaVuSans-32" d="M 1228 531 
L 3431 531 
L 3431 0 
L 469 0 
L 469 531 
Q 828 903 1448 1529 
Q 2069 2156 2228 2338 
Q 2531 2678 2651 2914 
Q 2772 3150 2772 3378 
Q 2772 3750 2511 3984 
Q 2250 4219 1831 4219 
Q 1534 4219 1204 4116 
Q 875 4013 500 3803 
L 500 4441 
Q 881 4594 1212 4672 
Q 1544 4750 1819 4750 
Q 2544 4750 2975 4387 
Q 3406 4025 3406 3419 
Q 3406 3131 3298 2873 
Q 3191 2616 2906 2266 
Q 2828 2175 2409 1742 
Q 1991 1309 1228 531 
z
" transform="scale(0.015625)"/>
       </defs>
       <use xlink:href="#DejaVuSans-32"/>
       <use xlink:href="#DejaVuSans-30" x="63.623047"/>
       <use xlink:href="#DejaVuSans-30" x="127.246094"/>
      </g>
     </g>
    </g>
    <g id="xtick_4">
     <g id="line2d_4">
      <g>
       <use xlink:href="#m8957462bdc" x="264.472812" y="248.24" style="stroke: #000000; stroke-width: 0.8"/>
      </g>
     </g>
     <g id="text_4">
      <!-- 300 -->
      <g transform="translate(254.929062 262.838437) scale(0.1 -0.1)">
       <defs>
        <path id="DejaVuSans-33" d="M 2597 2516 
Q 3050 2419 3304 2112 
Q 3559 1806 3559 1356 
Q 3559 666 3084 287 
Q 2609 -91 1734 -91 
Q 1441 -91 1130 -33 
Q 819 25 488 141 
L 488 750 
Q 750 597 1062 519 
Q 1375 441 1716 441 
Q 2309 441 2620 675 
Q 2931 909 2931 1356 
Q 2931 1769 2642 2001 
Q 2353 2234 1838 2234 
L 1294 2234 
L 1294 2753 
L 1863 2753 
Q 2328 2753 2575 2939 
Q 2822 3125 2822 3475 
Q 2822 3834 2567 4026 
Q 2313 4219 1838 4219 
Q 1578 4219 1281 4162 
Q 984 4106 628 3988 
L 628 4550 
Q 988 4650 1302 4700 
Q 1616 4750 1894 4750 
Q 2613 4750 3031 4423 
Q 3450 4097 3450 3541 
Q 3450 3153 3228 2886 
Q 3006 2619 2597 2516 
z
" transform="scale(0.015625)"/>
       </defs>
       <use xlink:href="#DejaVuSans-33"/>
       <use xlink:href="#DejaVuSans-30" x="63.623047"/>
       <use xlink:href="#DejaVuSans-30" x="127.246094"/>
      </g>
     </g>
    </g>
    <g id="xtick_5">
     <g id="line2d_5">
      <g>
       <use xlink:href="#m8957462bdc" x="336.302813" y="248.24" style="stroke: #000000; stroke-width: 0.8"/>
      </g>
     </g>
     <g id="text_5">
      <!-- 400 -->
      <g transform="translate(326.759063 262.838437) scale(0.1 -0.1)">
       <defs>
        <path id="DejaVuSans-34" d="M 2419 4116 
L 825 1625 
L 2419 1625 
L 2419 4116 
z
M 2253 4666 
L 3047 4666 
L 3047 1625 
L 3713 1625 
L 3713 1100 
L 3047 1100 
L 3047 0 
L 2419 0 
L 2419 1100 
L 313 1100 
L 313 1709 
L 2253 4666 
z
" transform="scale(0.015625)"/>
       </defs>
       <use xlink:href="#DejaVuSans-34"/>
       <use xlink:href="#DejaVuSans-30" x="63.623047"/>
       <use xlink:href="#DejaVuSans-30" x="127.246094"/>
      </g>
     </g>
    </g>
    <g id="xtick_6">
     <g id="line2d_6">
      <g>
       <use xlink:href="#m8957462bdc" x="408.132812" y="248.24" style="stroke: #000000; stroke-width: 0.8"/>
      </g>
     </g>
     <g id="text_6">
      <!-- 500 -->
      <g transform="translate(398.589063 262.838437) scale(0.1 -0.1)">
       <defs>
        <path id="DejaVuSans-35" d="M 691 4666 
L 3169 4666 
L 3169 4134 
L 1269 4134 
L 1269 2991 
Q 1406 3038 1543 3061 
Q 1681 3084 1819 3084 
Q 2600 3084 3056 2656 
Q 3513 2228 3513 1497 
Q 3513 744 3044 326 
Q 2575 -91 1722 -91 
Q 1428 -91 1123 -41 
Q 819 9 494 109 
L 494 744 
Q 775 591 1075 516 
Q 1375 441 1709 441 
Q 2250 441 2565 725 
Q 2881 1009 2881 1497 
Q 2881 1984 2565 2268 
Q 2250 2553 1709 2553 
Q 1456 2553 1204 2497 
Q 953 2441 691 2322 
L 691 4666 
z
" transform="scale(0.015625)"/>
       </defs>
       <use xlink:href="#DejaVuSans-35"/>
       <use xlink:href="#DejaVuSans-30" x="63.623047"/>
       <use xlink:href="#DejaVuSans-30" x="127.246094"/>
      </g>
     </g>
    </g>
    <g id="xtick_7">
     <g id="line2d_7">
      <g>
       <use xlink:href="#m8957462bdc" x="479.962812" y="248.24" style="stroke: #000000; stroke-width: 0.8"/>
      </g>
     </g>
     <g id="text_7">
      <!-- 600 -->
      <g transform="translate(470.419062 262.838437) scale(0.1 -0.1)">
       <defs>
        <path id="DejaVuSans-36" d="M 2113 2584 
Q 1688 2584 1439 2293 
Q 1191 2003 1191 1497 
Q 1191 994 1439 701 
Q 1688 409 2113 409 
Q 2538 409 2786 701 
Q 3034 994 3034 1497 
Q 3034 2003 2786 2293 
Q 2538 2584 2113 2584 
z
M 3366 4563 
L 3366 3988 
Q 3128 4100 2886 4159 
Q 2644 4219 2406 4219 
Q 1781 4219 1451 3797 
Q 1122 3375 1075 2522 
Q 1259 2794 1537 2939 
Q 1816 3084 2150 3084 
Q 2853 3084 3261 2657 
Q 3669 2231 3669 1497 
Q 3669 778 3244 343 
Q 2819 -91 2113 -91 
Q 1303 -91 875 529 
Q 447 1150 447 2328 
Q 447 3434 972 4092 
Q 1497 4750 2381 4750 
Q 2619 4750 2861 4703 
Q 3103 4656 3366 4563 
z
" transform="scale(0.015625)"/>
       </defs>
       <use xlink:href="#DejaVuSans-36"/>
       <use xlink:href="#DejaVuSans-30" x="63.623047"/>
       <use xlink:href="#DejaVuSans-30" x="127.246094"/>
      </g>
     </g>
    </g>
    <g id="xtick_8">
     <g id="line2d_8">
      <g>
       <use xlink:href="#m8957462bdc" x="551.792812" y="248.24" style="stroke: #000000; stroke-width: 0.8"/>
      </g>
     </g>
     <g id="text_8">
      <!-- 700 -->
      <g transform="translate(542.249062 262.838437) scale(0.1 -0.1)">
       <defs>
        <path id="DejaVuSans-37" d="M 525 4666 
L 3525 4666 
L 3525 4397 
L 1831 0 
L 1172 0 
L 2766 4134 
L 525 4134 
L 525 4666 
z
" transform="scale(0.015625)"/>
       </defs>
       <use xlink:href="#DejaVuSans-37"/>
       <use xlink:href="#DejaVuSans-30" x="63.623047"/>
       <use xlink:href="#DejaVuSans-30" x="127.246094"/>
      </g>
     </g>
    </g>
    <g id="text_9">
     <!-- Time Steps -->
     <g transform="translate(272.575312 276.516562) scale(0.1 -0.1)">
      <defs>
       <path id="DejaVuSans-54" d="M -19 4666 
L 3928 4666 
L 3928 4134 
L 2272 4134 
L 2272 0 
L 1638 0 
L 1638 4134 
L -19 4134 
L -19 4666 
z
" transform="scale(0.015625)"/>
       <path id="DejaVuSans-69" d="M 603 3500 
L 1178 3500 
L 1178 0 
L 603 0 
L 603 3500 
z
M 603 4863 
L 1178 4863 
L 1178 4134 
L 603 4134 
L 603 4863 
z
" transform="scale(0.015625)"/>
       <path id="DejaVuSans-6d" d="M 3328 2828 
Q 3544 3216 3844 3400 
Q 4144 3584 4550 3584 
Q 5097 3584 5394 3201 
Q 5691 2819 5691 2113 
L 5691 0 
L 5113 0 
L 5113 2094 
Q 5113 2597 4934 2840 
Q 4756 3084 4391 3084 
Q 3944 3084 3684 2787 
Q 3425 2491 3425 1978 
L 3425 0 
L 2847 0 
L 2847 2094 
Q 2847 2600 2669 2842 
Q 2491 3084 2119 3084 
Q 1678 3084 1418 2786 
Q 1159 2488 1159 1978 
L 1159 0 
L 581 0 
L 581 3500 
L 1159 3500 
L 1159 2956 
Q 1356 3278 1631 3431 
Q 1906 3584 2284 3584 
Q 2666 3584 2933 3390 
Q 3200 3197 3328 2828 
z
" transform="scale(0.015625)"/>
       <path id="DejaVuSans-65" d="M 3597 1894 
L 3597 1613 
L 953 1613 
Q 991 1019 1311 708 
Q 1631 397 2203 397 
Q 2534 397 2845 478 
Q 3156 559 3463 722 
L 3463 178 
Q 3153 47 2828 -22 
Q 2503 -91 2169 -91 
Q 1331 -91 842 396 
Q 353 884 353 1716 
Q 353 2575 817 3079 
Q 1281 3584 2069 3584 
Q 2775 3584 3186 3129 
Q 3597 2675 3597 1894 
z
M 3022 2063 
Q 3016 2534 2758 2815 
Q 2500 3097 2075 3097 
Q 1594 3097 1305 2825 
Q 1016 2553 972 2059 
L 3022 2063 
z
" transform="scale(0.015625)"/>
       <path id="DejaVuSans-20" transform="scale(0.015625)"/>
       <path id="DejaVuSans-53" d="M 3425 4513 
L 3425 3897 
Q 3066 4069 2747 4153 
Q 2428 4238 2131 4238 
Q 1616 4238 1336 4038 
Q 1056 3838 1056 3469 
Q 1056 3159 1242 3001 
Q 1428 2844 1947 2747 
L 2328 2669 
Q 3034 2534 3370 2195 
Q 3706 1856 3706 1288 
Q 3706 609 3251 259 
Q 2797 -91 1919 -91 
Q 1588 -91 1214 -16 
Q 841 59 441 206 
L 441 856 
Q 825 641 1194 531 
Q 1563 422 1919 422 
Q 2459 422 2753 634 
Q 3047 847 3047 1241 
Q 3047 1584 2836 1778 
Q 2625 1972 2144 2069 
L 1759 2144 
Q 1053 2284 737 2584 
Q 422 2884 422 3419 
Q 422 4038 858 4394 
Q 1294 4750 2059 4750 
Q 2388 4750 2728 4690 
Q 3069 4631 3425 4513 
z
" transform="scale(0.015625)"/>
       <path id="DejaVuSans-74" d="M 1172 4494 
L 1172 3500 
L 2356 3500 
L 2356 3053 
L 1172 3053 
L 1172 1153 
Q 1172 725 1289 603 
Q 1406 481 1766 481 
L 2356 481 
L 2356 0 
L 1766 0 
Q 1100 0 847 248 
Q 594 497 594 1153 
L 594 3053 
L 172 3053 
L 172 3500 
L 594 3500 
L 594 4494 
L 1172 4494 
z
" transform="scale(0.015625)"/>
       <path id="DejaVuSans-70" d="M 1159 525 
L 1159 -1331 
L 581 -1331 
L 581 3500 
L 1159 3500 
L 1159 2969 
Q 1341 3281 1617 3432 
Q 1894 3584 2278 3584 
Q 2916 3584 3314 3078 
Q 3713 2572 3713 1747 
Q 3713 922 3314 415 
Q 2916 -91 2278 -91 
Q 1894 -91 1617 61 
Q 1341 213 1159 525 
z
M 3116 1747 
Q 3116 2381 2855 2742 
Q 2594 3103 2138 3103 
Q 1681 3103 1420 2742 
Q 1159 2381 1159 1747 
Q 1159 1113 1420 752 
Q 1681 391 2138 391 
Q 2594 391 2855 752 
Q 3116 1113 3116 1747 
z
" transform="scale(0.015625)"/>
       <path id="DejaVuSans-73" d="M 2834 3397 
L 2834 2853 
Q 2591 2978 2328 3040 
Q 2066 3103 1784 3103 
Q 1356 3103 1142 2972 
Q 928 2841 928 2578 
Q 928 2378 1081 2264 
Q 1234 2150 1697 2047 
L 1894 2003 
Q 2506 1872 2764 1633 
Q 3022 1394 3022 966 
Q 3022 478 2636 193 
Q 2250 -91 1575 -91 
Q 1294 -91 989 -36 
Q 684 19 347 128 
L 347 722 
Q 666 556 975 473 
Q 1284 391 1588 391 
Q 1994 391 2212 530 
Q 2431 669 2431 922 
Q 2431 1156 2273 1281 
Q 2116 1406 1581 1522 
L 1381 1569 
Q 847 1681 609 1914 
Q 372 2147 372 2553 
Q 372 3047 722 3315 
Q 1072 3584 1716 3584 
Q 2034 3584 2315 3537 
Q 2597 3491 2834 3397 
z
" transform="scale(0.015625)"/>
      </defs>
      <use xlink:href="#DejaVuSans-54"/>
      <use xlink:href="#DejaVuSans-69" x="57.958984"/>
      <use xlink:href="#DejaVuSans-6d" x="85.742188"/>
      <use xlink:href="#DejaVuSans-65" x="183.154297"/>
      <use xlink:href="#DejaVuSans-20" x="244.677734"/>
      <use xlink:href="#DejaVuSans-53" x="276.464844"/>
      <use xlink:href="#DejaVuSans-74" x="339.941406"/>
      <use xlink:href="#DejaVuSans-65" x="379.150391"/>
      <use xlink:href="#DejaVuSans-70" x="440.673828"/>
      <use xlink:href="#DejaVuSans-73" x="504.150391"/>
     </g>
    </g>
   </g>
   <g id="matplotlib.axis_2">
    <g id="ytick_1">
     <g id="line2d_9">
      <defs>
       <path id="m31ae482c3a" d="M 0 0 
L -3.5 0 
" style="stroke: #000000; stroke-width: 0.8"/>
      </defs>
      <g>
       <use xlink:href="#m31ae482c3a" x="48.982813" y="241.622869" style="stroke: #000000; stroke-width: 0.8"/>
      </g>
     </g>
     <g id="text_10">
      <!-- −10 -->
      <g transform="translate(20.878125 245.422087) scale(0.1 -0.1)">
       <defs>
        <path id="DejaVuSans-2212" d="M 678 2272 
L 4684 2272 
L 4684 1741 
L 678 1741 
L 678 2272 
z
" transform="scale(0.015625)"/>
       </defs>
       <use xlink:href="#DejaVuSans-2212"/>
       <use xlink:href="#DejaVuSans-31" x="83.789062"/>
       <use xlink:href="#DejaVuSans-30" x="147.412109"/>
      </g>
     </g>
    </g>
    <g id="ytick_2">
     <g id="line2d_10">
      <g>
       <use xlink:href="#m31ae482c3a" x="48.982813" y="201.027783" style="stroke: #000000; stroke-width: 0.8"/>
      </g>
     </g>
     <g id="text_11">
      <!-- −5 -->
      <g transform="translate(27.240625 204.827001) scale(0.1 -0.1)">
       <use xlink:href="#DejaVuSans-2212"/>
       <use xlink:href="#DejaVuSans-35" x="83.789062"/>
      </g>
     </g>
    </g>
    <g id="ytick_3">
     <g id="line2d_11">
      <g>
       <use xlink:href="#m31ae482c3a" x="48.982813" y="160.432697" style="stroke: #000000; stroke-width: 0.8"/>
      </g>
     </g>
     <g id="text_12">
      <!-- 0 -->
      <g transform="translate(35.620313 164.231915) scale(0.1 -0.1)">
       <use xlink:href="#DejaVuSans-30"/>
      </g>
     </g>
    </g>
    <g id="ytick_4">
     <g id="line2d_12">
      <g>
       <use xlink:href="#m31ae482c3a" x="48.982813" y="119.83761" style="stroke: #000000; stroke-width: 0.8"/>
      </g>
     </g>
     <g id="text_13">
      <!-- 5 -->
      <g transform="translate(35.620313 123.636829) scale(0.1 -0.1)">
       <use xlink:href="#DejaVuSans-35"/>
      </g>
     </g>
    </g>
    <g id="ytick_5">
     <g id="line2d_13">
      <g>
       <use xlink:href="#m31ae482c3a" x="48.982813" y="79.242524" style="stroke: #000000; stroke-width: 0.8"/>
      </g>
     </g>
     <g id="text_14">
      <!-- 10 -->
      <g transform="translate(29.257813 83.041743) scale(0.1 -0.1)">
       <use xlink:href="#DejaVuSans-31"/>
       <use xlink:href="#DejaVuSans-30" x="63.623047"/>
      </g>
     </g>
    </g>
    <g id="ytick_6">
     <g id="line2d_14">
      <g>
       <use xlink:href="#m31ae482c3a" x="48.982813" y="38.647438" style="stroke: #000000; stroke-width: 0.8"/>
      </g>
     </g>
     <g id="text_15">
      <!-- 15 -->
      <g transform="translate(29.257813 42.446657) scale(0.1 -0.1)">
       <use xlink:href="#DejaVuSans-31"/>
       <use xlink:href="#DejaVuSans-35" x="63.623047"/>
      </g>
     </g>
    </g>
    <g id="text_16">
     <!-- Output -->
     <g transform="translate(14.798438 156.027969) rotate(-90) scale(0.1 -0.1)">
      <defs>
       <path id="DejaVuSans-4f" d="M 2522 4238 
Q 1834 4238 1429 3725 
Q 1025 3213 1025 2328 
Q 1025 1447 1429 934 
Q 1834 422 2522 422 
Q 3209 422 3611 934 
Q 4013 1447 4013 2328 
Q 4013 3213 3611 3725 
Q 3209 4238 2522 4238 
z
M 2522 4750 
Q 3503 4750 4090 4092 
Q 4678 3434 4678 2328 
Q 4678 1225 4090 567 
Q 3503 -91 2522 -91 
Q 1538 -91 948 565 
Q 359 1222 359 2328 
Q 359 3434 948 4092 
Q 1538 4750 2522 4750 
z
" transform="scale(0.015625)"/>
       <path id="DejaVuSans-75" d="M 544 1381 
L 544 3500 
L 1119 3500 
L 1119 1403 
Q 1119 906 1312 657 
Q 1506 409 1894 409 
Q 2359 409 2629 706 
Q 2900 1003 2900 1516 
L 2900 3500 
L 3475 3500 
L 3475 0 
L 2900 0 
L 2900 538 
Q 2691 219 2414 64 
Q 2138 -91 1772 -91 
Q 1169 -91 856 284 
Q 544 659 544 1381 
z
M 1991 3584 
L 1991 3584 
z
" transform="scale(0.015625)"/>
      </defs>
      <use xlink:href="#DejaVuSans-4f"/>
      <use xlink:href="#DejaVuSans-75" x="78.710938"/>
      <use xlink:href="#DejaVuSans-74" x="142.089844"/>
      <use xlink:href="#DejaVuSans-70" x="181.298828"/>
      <use xlink:href="#DejaVuSans-75" x="244.775391"/>
      <use xlink:href="#DejaVuSans-74" x="308.154297"/>
     </g>
    </g>
   </g>
   <g id="line2d_15">
    <path d="M 48.982813 160.432697 
L 50.419413 160.349417 
L 51.856013 160.062205 
L 53.292613 159.573015 
L 54.729213 158.876192 
L 56.165813 157.960665 
L 57.602413 156.811618 
L 59.039013 155.411939 
L 60.475613 153.743551 
L 61.912213 151.788665 
L 63.348813 149.530951 
L 64.785413 146.956616 
L 66.222013 144.055388 
L 68.376913 139.079101 
L 70.531813 133.357473 
L 72.686712 126.922521 
L 74.841613 119.838338 
L 77.714813 109.554305 
L 82.024613 93.001355 
L 87.052713 73.678672 
L 89.925913 63.558493 
L 92.080813 56.774715 
L 94.235713 50.888137 
L 95.672313 47.543091 
L 97.108913 44.710038 
L 98.545513 42.423257 
L 99.982112 40.709816 
L 100.700412 40.074462 
L 101.418712 39.589082 
L 102.137012 39.254838 
L 102.855312 39.072374 
L 103.573612 39.041818 
L 104.291912 39.162779 
L 105.010212 39.434354 
L 105.728512 39.855127 
L 106.446813 40.423187 
L 107.883413 41.991073 
L 109.320013 44.113152 
L 110.756613 46.757475 
L 112.193213 49.885663 
L 113.629812 53.453696 
L 115.784712 59.522694 
L 117.939612 66.291247 
L 120.812813 76.074249 
L 130.869012 111.173494 
L 133.742212 120.021862 
L 135.897112 126.074928 
L 138.052012 131.604384 
L 140.206912 136.624877 
L 142.361812 141.181262 
L 145.235012 146.659634 
L 148.826513 152.866436 
L 155.291213 163.758269 
L 158.164412 169.059247 
L 161.037612 174.879778 
L 163.910813 181.284679 
L 166.784013 188.246664 
L 170.375513 197.541344 
L 177.558513 216.346443 
L 180.431713 223.094477 
L 182.586613 227.559368 
L 184.741512 231.371622 
L 186.178112 233.495747 
L 187.614712 235.253912 
L 189.051312 236.624354 
L 190.487912 237.590935 
L 191.924512 238.143506 
L 193.361112 238.278126 
L 194.797712 237.997146 
L 196.234312 237.309148 
L 197.670912 236.228737 
L 199.107512 234.7762 
L 200.544112 232.977034 
L 201.980712 230.861355 
L 204.135612 227.16971 
L 206.290512 222.97044 
L 209.163712 216.818065 
L 219.219913 194.524597 
L 222.093113 188.883402 
L 224.966313 183.753694 
L 227.839513 179.088044 
L 232.149313 172.644245 
L 236.459113 166.189742 
L 239.332313 161.43273 
L 241.487212 157.435159 
L 243.642112 152.95883 
L 245.797012 147.925604 
L 247.951912 142.283255 
L 250.106812 136.010195 
L 252.261712 129.118712 
L 255.134912 119.055739 
L 258.726412 105.385899 
L 267.346012 71.640863 
L 269.500912 64.04322 
L 271.655812 57.17602 
L 273.810712 51.220378 
L 275.247312 47.836027 
L 276.683912 44.968318 
L 278.120512 42.650982 
L 279.557113 40.9106 
L 280.275413 40.262995 
L 280.993713 39.766112 
L 281.712013 39.421067 
L 282.430313 39.228461 
L 283.148613 39.188382 
L 283.866913 39.300401 
L 284.585213 39.563578 
L 285.303513 39.976467 
L 286.021813 40.537124 
L 287.458413 42.091531 
L 288.895013 44.201725 
L 290.331613 46.835569 
L 291.768213 49.954519 
L 293.204813 53.514406 
L 295.359713 59.572956 
L 297.514612 66.332858 
L 300.387812 76.106597 
L 310.444012 111.186894 
L 313.317212 120.032279 
L 315.472112 126.083552 
L 317.627012 131.611523 
L 319.781912 136.630788 
L 321.936812 141.186156 
L 324.810012 146.663438 
L 328.401513 152.869213 
L 334.866213 163.759844 
L 337.739413 169.060472 
L 340.612613 174.88073 
L 343.485813 181.28542 
L 346.359013 188.24724 
L 349.950513 197.541764 
L 357.133512 216.346666 
L 360.006712 223.094651 
L 362.161612 227.559512 
L 364.316512 231.371741 
L 365.753112 233.495852 
L 367.189712 235.254005 
L 368.626312 236.624436 
L 370.062912 237.591007 
L 371.499512 238.14357 
L 372.936112 238.278182 
L 374.372712 237.997196 
L 375.809312 237.309192 
L 377.245912 236.228775 
L 378.682512 234.776234 
L 380.119112 232.977064 
L 381.555712 230.861381 
L 383.710612 227.169732 
L 385.865512 222.970458 
L 388.738713 216.818079 
L 398.794913 194.524603 
L 401.668113 188.883406 
L 404.541313 183.753698 
L 407.414513 179.088046 
L 411.724312 172.644247 
L 416.034112 166.189743 
L 418.907312 161.432731 
L 421.062212 157.435159 
L 423.217112 152.958831 
L 425.372012 147.925604 
L 427.526912 142.283256 
L 429.681812 136.010196 
L 431.836712 129.118713 
L 434.709912 119.055739 
L 438.301412 105.385899 
L 446.921012 71.640863 
L 449.075913 64.04322 
L 451.230813 57.17602 
L 453.385713 51.220378 
L 454.822313 47.836027 
L 456.258913 44.968319 
L 457.695513 42.650982 
L 459.132113 40.9106 
L 459.850413 40.262995 
L 460.568713 39.766112 
L 461.287013 39.421067 
L 462.005313 39.228461 
L 462.723613 39.188382 
L 463.441913 39.300401 
L 464.160213 39.563578 
L 464.878512 39.976468 
L 465.596812 40.537124 
L 467.033412 42.091531 
L 468.470012 44.201725 
L 469.906612 46.835569 
L 471.343212 49.954519 
L 472.779812 53.514406 
L 474.934712 59.572956 
L 477.089612 66.332858 
L 479.962812 76.106597 
L 490.019012 111.186894 
L 492.892212 120.032279 
L 495.047112 126.083552 
L 497.202012 131.611523 
L 499.356912 136.630788 
L 501.511812 141.186156 
L 504.385012 146.663438 
L 507.976512 152.869213 
L 514.441213 163.759844 
L 517.314413 169.060472 
L 520.187613 174.88073 
L 523.060812 181.28542 
L 525.934012 188.24724 
L 529.525512 197.541764 
L 536.708512 216.346666 
L 539.581712 223.094651 
L 541.736612 227.559512 
L 543.891512 231.371741 
L 545.328112 233.495852 
L 546.764712 235.254005 
L 548.201312 236.624436 
L 549.637912 237.591007 
L 551.074512 238.14357 
L 551.074512 238.14357 
" clip-path="url(#pe29c8f30bc)" style="fill: none; stroke: #1f77b4; stroke-width: 1.5; stroke-linecap: square"/>
   </g>
   <g id="line2d_16">
    <path d="M 48.982813 160.432697 
L 49.701113 160.432697 
L 50.419413 162.470843 
L 51.856013 162.362274 
L 53.292613 162.07244 
L 54.729213 161.600888 
L 56.165813 160.941249 
L 57.602413 160.082777 
L 59.039013 159.011677 
L 60.475613 157.712328 
L 61.912213 156.168446 
L 63.348813 154.364195 
L 64.785413 152.285215 
L 66.222013 149.919589 
L 68.376913 145.815919 
L 70.531813 141.037526 
L 72.686712 135.598011 
L 74.841613 129.538879 
L 77.714813 120.622624 
L 81.306313 108.49325 
L 89.207613 81.261415 
L 91.362513 74.57907 
L 93.517413 68.557542 
L 95.672313 63.360508 
L 97.108913 60.425346 
L 98.545513 57.956384 
L 99.982112 55.983408 
L 101.418712 54.52964 
L 102.855312 53.611317 
L 103.573612 53.356026 
L 104.291912 53.237381 
L 105.010212 53.255337 
L 105.728512 53.40939 
L 106.446813 53.698564 
L 107.165113 54.12145 
L 108.601713 55.360407 
L 110.038313 57.106167 
L 111.474913 59.332033 
L 112.911513 62.005339 
L 114.348112 65.088112 
L 116.503012 70.385903 
L 118.657913 76.350165 
L 121.531113 85.044959 
L 132.305612 118.824611 
L 135.178812 126.723722 
L 137.333712 132.119231 
L 139.488612 137.043885 
L 141.643512 141.514011 
L 143.798412 145.572721 
L 146.671612 150.460724 
L 150.263113 156.019917 
L 156.727812 165.848854 
L 159.601012 170.655452 
L 162.474212 175.936985 
L 165.347413 181.745051 
L 168.220613 188.048039 
L 172.530413 198.158613 
L 178.276813 211.716226 
L 181.150013 217.899341 
L 183.304913 222.031811 
L 185.459812 225.601233 
L 186.896412 227.616864 
L 188.333012 229.310824 
L 189.769612 230.661968 
L 191.206212 231.654042 
L 192.642812 232.276091 
L 194.079412 232.522695 
L 195.516012 232.394077 
L 196.952612 231.896116 
L 198.389212 231.040154 
L 199.825812 229.842785 
L 201.262412 228.325432 
L 202.699012 226.513849 
L 204.853912 223.310256 
L 207.008812 219.62353 
L 209.882012 214.166834 
L 215.628412 202.486758 
L 219.219913 195.40043 
L 222.093113 190.139667 
L 224.966313 185.33141 
L 227.839513 180.968134 
L 231.431013 175.995904 
L 238.614013 166.275114 
L 240.768912 162.985359 
L 242.923812 159.342684 
L 245.078712 155.260553 
L 247.233612 150.671049 
L 249.388512 145.530098 
L 251.543412 139.82157 
L 253.698312 133.560047 
L 256.571512 124.436176 
L 260.163012 112.079234 
L 268.782612 81.777634 
L 270.937512 75.006454 
L 273.092412 68.911369 
L 275.247312 63.653438 
L 276.683912 60.683634 
L 278.120512 58.18411 
L 279.557113 56.184189 
L 280.993713 54.706674 
L 282.430313 53.767398 
L 283.148613 53.502591 
L 283.866913 53.375004 
L 284.585213 53.384558 
L 285.303513 53.530729 
L 286.021813 53.812508 
L 286.740113 54.228434 
L 288.176713 55.454738 
L 289.613313 57.189333 
L 291.049913 59.405359 
L 292.486513 62.069984 
L 293.923113 65.145115 
L 296.078012 70.433096 
L 298.232912 76.389235 
L 301.106112 85.075335 
L 311.880612 118.836423 
L 314.753812 126.732905 
L 316.908712 132.126831 
L 319.063612 137.05018 
L 321.218512 141.519222 
L 323.373412 145.577036 
L 326.246613 150.464078 
L 329.838113 156.022365 
L 336.302813 165.850243 
L 339.176013 170.656533 
L 342.049213 175.937824 
L 344.922413 181.745701 
L 347.795613 188.048546 
L 352.105412 198.158961 
L 357.851812 211.716435 
L 360.725012 217.899507 
L 362.879912 222.03195 
L 365.034812 225.601349 
L 366.471412 227.616957 
L 367.908012 229.310917 
L 369.344612 230.662053 
L 370.781212 231.654112 
L 372.217812 232.276153 
L 373.654412 232.522749 
L 375.091012 232.394132 
L 376.527612 231.896155 
L 377.964212 231.040193 
L 379.400812 229.842816 
L 380.837412 228.325455 
L 382.274012 226.51388 
L 384.428912 223.310272 
L 386.583813 219.623545 
L 389.457013 214.166846 
L 395.203413 202.486765 
L 398.794913 195.400434 
L 401.668113 190.139671 
L 404.541313 185.331414 
L 407.414513 180.968138 
L 411.006012 175.995905 
L 418.189012 166.275116 
L 420.343912 162.98536 
L 422.498812 159.342685 
L 424.653712 155.260554 
L 426.808612 150.67105 
L 428.963512 145.530098 
L 431.118412 139.82157 
L 433.273312 133.560049 
L 436.146512 124.436176 
L 439.738012 112.079234 
L 448.357613 81.777642 
L 450.512513 75.006454 
L 452.667413 68.911369 
L 454.822313 63.653438 
L 456.258913 60.683634 
L 457.695513 58.18411 
L 459.132113 56.184189 
L 460.568713 54.706674 
L 462.005313 53.767398 
L 462.723613 53.502591 
L 463.441913 53.375004 
L 464.160213 53.384558 
L 464.878512 53.530729 
L 465.596812 53.812508 
L 466.315112 54.228434 
L 467.751712 55.454738 
L 469.188312 57.189333 
L 470.624912 59.405359 
L 472.061512 62.069984 
L 473.498112 65.145115 
L 475.653012 70.433096 
L 477.807912 76.389235 
L 480.681112 85.075335 
L 491.455612 118.836423 
L 494.328812 126.732905 
L 496.483712 132.126831 
L 498.638612 137.05018 
L 500.793512 141.519222 
L 502.948412 145.577036 
L 505.821612 150.464078 
L 509.413113 156.022365 
L 515.877813 165.850243 
L 518.751013 170.656533 
L 521.624212 175.937824 
L 524.497412 181.745701 
L 527.370612 188.048546 
L 531.680412 198.158961 
L 537.426812 211.716435 
L 540.300012 217.899507 
L 542.454912 222.03195 
L 544.609812 225.601349 
L 546.046412 227.616957 
L 547.483012 229.310917 
L 548.919612 230.662053 
L 550.356212 231.654112 
L 551.074512 232.011857 
L 551.074512 232.011857 
" clip-path="url(#pe29c8f30bc)" style="fill: none; stroke-dasharray: 5.55,2.4; stroke-dashoffset: 0; stroke: #ff7f0e; stroke-width: 1.5"/>
   </g>
   <g id="patch_3">
    <path d="M 48.982813 248.24 
L 48.982813 29.08 
" style="fill: none; stroke: #000000; stroke-width: 0.8; stroke-linejoin: miter; stroke-linecap: square"/>
   </g>
   <g id="patch_4">
    <path d="M 551.792812 248.24 
L 551.792812 29.08 
" style="fill: none; stroke: #000000; stroke-width: 0.8; stroke-linejoin: miter; stroke-linecap: square"/>
   </g>
   <g id="patch_5">
    <path d="M 48.982813 248.24 
L 551.792812 248.24 
" style="fill: none; stroke: #000000; stroke-width: 0.8; stroke-linejoin: miter; stroke-linecap: square"/>
   </g>
   <g id="patch_6">
    <path d="M 48.982813 29.08 
L 551.792812 29.08 
" style="fill: none; stroke: #000000; stroke-width: 0.8; stroke-linejoin: miter; stroke-linecap: square"/>
   </g>
   <g id="text_17">
    <!-- Model Performance w/ new f(u) -->
    <g transform="translate(206.8 23.08) scale(0.12 -0.12)">
     <defs>
      <path id="DejaVuSans-4d" d="M 628 4666 
L 1569 4666 
L 2759 1491 
L 3956 4666 
L 4897 4666 
L 4897 0 
L 4281 0 
L 4281 4097 
L 3078 897 
L 2444 897 
L 1241 4097 
L 1241 0 
L 628 0 
L 628 4666 
z
" transform="scale(0.015625)"/>
      <path id="DejaVuSans-6f" d="M 1959 3097 
Q 1497 3097 1228 2736 
Q 959 2375 959 1747 
Q 959 1119 1226 758 
Q 1494 397 1959 397 
Q 2419 397 2687 759 
Q 2956 1122 2956 1747 
Q 2956 2369 2687 2733 
Q 2419 3097 1959 3097 
z
M 1959 3584 
Q 2709 3584 3137 3096 
Q 3566 2609 3566 1747 
Q 3566 888 3137 398 
Q 2709 -91 1959 -91 
Q 1206 -91 779 398 
Q 353 888 353 1747 
Q 353 2609 779 3096 
Q 1206 3584 1959 3584 
z
" transform="scale(0.015625)"/>
      <path id="DejaVuSans-64" d="M 2906 2969 
L 2906 4863 
L 3481 4863 
L 3481 0 
L 2906 0 
L 2906 525 
Q 2725 213 2448 61 
Q 2172 -91 1784 -91 
Q 1150 -91 751 415 
Q 353 922 353 1747 
Q 353 2572 751 3078 
Q 1150 3584 1784 3584 
Q 2172 3584 2448 3432 
Q 2725 3281 2906 2969 
z
M 947 1747 
Q 947 1113 1208 752 
Q 1469 391 1925 391 
Q 2381 391 2643 752 
Q 2906 1113 2906 1747 
Q 2906 2381 2643 2742 
Q 2381 3103 1925 3103 
Q 1469 3103 1208 2742 
Q 947 2381 947 1747 
z
" transform="scale(0.015625)"/>
      <path id="DejaVuSans-6c" d="M 603 4863 
L 1178 4863 
L 1178 0 
L 603 0 
L 603 4863 
z
" transform="scale(0.015625)"/>
      <path id="DejaVuSans-50" d="M 1259 4147 
L 1259 2394 
L 2053 2394 
Q 2494 2394 2734 2622 
Q 2975 2850 2975 3272 
Q 2975 3691 2734 3919 
Q 2494 4147 2053 4147 
L 1259 4147 
z
M 628 4666 
L 2053 4666 
Q 2838 4666 3239 4311 
Q 3641 3956 3641 3272 
Q 3641 2581 3239 2228 
Q 2838 1875 2053 1875 
L 1259 1875 
L 1259 0 
L 628 0 
L 628 4666 
z
" transform="scale(0.015625)"/>
      <path id="DejaVuSans-72" d="M 2631 2963 
Q 2534 3019 2420 3045 
Q 2306 3072 2169 3072 
Q 1681 3072 1420 2755 
Q 1159 2438 1159 1844 
L 1159 0 
L 581 0 
L 581 3500 
L 1159 3500 
L 1159 2956 
Q 1341 3275 1631 3429 
Q 1922 3584 2338 3584 
Q 2397 3584 2469 3576 
Q 2541 3569 2628 3553 
L 2631 2963 
z
" transform="scale(0.015625)"/>
      <path id="DejaVuSans-66" d="M 2375 4863 
L 2375 4384 
L 1825 4384 
Q 1516 4384 1395 4259 
Q 1275 4134 1275 3809 
L 1275 3500 
L 2222 3500 
L 2222 3053 
L 1275 3053 
L 1275 0 
L 697 0 
L 697 3053 
L 147 3053 
L 147 3500 
L 697 3500 
L 697 3744 
Q 697 4328 969 4595 
Q 1241 4863 1831 4863 
L 2375 4863 
z
" transform="scale(0.015625)"/>
      <path id="DejaVuSans-61" d="M 2194 1759 
Q 1497 1759 1228 1600 
Q 959 1441 959 1056 
Q 959 750 1161 570 
Q 1363 391 1709 391 
Q 2188 391 2477 730 
Q 2766 1069 2766 1631 
L 2766 1759 
L 2194 1759 
z
M 3341 1997 
L 3341 0 
L 2766 0 
L 2766 531 
Q 2569 213 2275 61 
Q 1981 -91 1556 -91 
Q 1019 -91 701 211 
Q 384 513 384 1019 
Q 384 1609 779 1909 
Q 1175 2209 1959 2209 
L 2766 2209 
L 2766 2266 
Q 2766 2663 2505 2880 
Q 2244 3097 1772 3097 
Q 1472 3097 1187 3025 
Q 903 2953 641 2809 
L 641 3341 
Q 956 3463 1253 3523 
Q 1550 3584 1831 3584 
Q 2591 3584 2966 3190 
Q 3341 2797 3341 1997 
z
" transform="scale(0.015625)"/>
      <path id="DejaVuSans-6e" d="M 3513 2113 
L 3513 0 
L 2938 0 
L 2938 2094 
Q 2938 2591 2744 2837 
Q 2550 3084 2163 3084 
Q 1697 3084 1428 2787 
Q 1159 2491 1159 1978 
L 1159 0 
L 581 0 
L 581 3500 
L 1159 3500 
L 1159 2956 
Q 1366 3272 1645 3428 
Q 1925 3584 2291 3584 
Q 2894 3584 3203 3211 
Q 3513 2838 3513 2113 
z
" transform="scale(0.015625)"/>
      <path id="DejaVuSans-63" d="M 3122 3366 
L 3122 2828 
Q 2878 2963 2633 3030 
Q 2388 3097 2138 3097 
Q 1578 3097 1268 2742 
Q 959 2388 959 1747 
Q 959 1106 1268 751 
Q 1578 397 2138 397 
Q 2388 397 2633 464 
Q 2878 531 3122 666 
L 3122 134 
Q 2881 22 2623 -34 
Q 2366 -91 2075 -91 
Q 1284 -91 818 406 
Q 353 903 353 1747 
Q 353 2603 823 3093 
Q 1294 3584 2113 3584 
Q 2378 3584 2631 3529 
Q 2884 3475 3122 3366 
z
" transform="scale(0.015625)"/>
      <path id="DejaVuSans-77" d="M 269 3500 
L 844 3500 
L 1563 769 
L 2278 3500 
L 2956 3500 
L 3675 769 
L 4391 3500 
L 4966 3500 
L 4050 0 
L 3372 0 
L 2619 2869 
L 1863 0 
L 1184 0 
L 269 3500 
z
" transform="scale(0.015625)"/>
      <path id="DejaVuSans-2f" d="M 1625 4666 
L 2156 4666 
L 531 -594 
L 0 -594 
L 1625 4666 
z
" transform="scale(0.015625)"/>
      <path id="DejaVuSans-28" d="M 1984 4856 
Q 1566 4138 1362 3434 
Q 1159 2731 1159 2009 
Q 1159 1288 1364 580 
Q 1569 -128 1984 -844 
L 1484 -844 
Q 1016 -109 783 600 
Q 550 1309 550 2009 
Q 550 2706 781 3412 
Q 1013 4119 1484 4856 
L 1984 4856 
z
" transform="scale(0.015625)"/>
      <path id="DejaVuSans-29" d="M 513 4856 
L 1013 4856 
Q 1481 4119 1714 3412 
Q 1947 2706 1947 2009 
Q 1947 1309 1714 600 
Q 1481 -109 1013 -844 
L 513 -844 
Q 928 -128 1133 580 
Q 1338 1288 1338 2009 
Q 1338 2731 1133 3434 
Q 928 4138 513 4856 
z
" transform="scale(0.015625)"/>
     </defs>
     <use xlink:href="#DejaVuSans-4d"/>
     <use xlink:href="#DejaVuSans-6f" x="86.279297"/>
     <use xlink:href="#DejaVuSans-64" x="147.460938"/>
     <use xlink:href="#DejaVuSans-65" x="210.9375"/>
     <use xlink:href="#DejaVuSans-6c" x="272.460938"/>
     <use xlink:href="#DejaVuSans-20" x="300.244141"/>
     <use xlink:href="#DejaVuSans-50" x="332.03125"/>
     <use xlink:href="#DejaVuSans-65" x="388.708984"/>
     <use xlink:href="#DejaVuSans-72" x="450.232422"/>
     <use xlink:href="#DejaVuSans-66" x="491.345703"/>
     <use xlink:href="#DejaVuSans-6f" x="526.550781"/>
     <use xlink:href="#DejaVuSans-72" x="587.732422"/>
     <use xlink:href="#DejaVuSans-6d" x="627.095703"/>
     <use xlink:href="#DejaVuSans-61" x="724.507812"/>
     <use xlink:href="#DejaVuSans-6e" x="785.787109"/>
     <use xlink:href="#DejaVuSans-63" x="849.166016"/>
     <use xlink:href="#DejaVuSans-65" x="904.146484"/>
     <use xlink:href="#DejaVuSans-20" x="965.669922"/>
     <use xlink:href="#DejaVuSans-77" x="997.457031"/>
     <use xlink:href="#DejaVuSans-2f" x="1079.244141"/>
     <use xlink:href="#DejaVuSans-20" x="1112.935547"/>
     <use xlink:href="#DejaVuSans-6e" x="1144.722656"/>
     <use xlink:href="#DejaVuSans-65" x="1208.101562"/>
     <use xlink:href="#DejaVuSans-77" x="1269.625"/>
     <use xlink:href="#DejaVuSans-20" x="1351.412109"/>
     <use xlink:href="#DejaVuSans-66" x="1383.199219"/>
     <use xlink:href="#DejaVuSans-28" x="1418.404297"/>
     <use xlink:href="#DejaVuSans-75" x="1457.417969"/>
     <use xlink:href="#DejaVuSans-29" x="1520.796875"/>
    </g>
   </g>
  </g>
  <g id="legend_1">
   <g id="patch_7">
    <path d="M 579.042812 40.1125 
L 767.517812 40.1125 
Q 769.517812 40.1125 769.517812 38.1125 
L 769.517812 9.2 
Q 769.517812 7.2 767.517812 7.2 
L 579.042812 7.2 
Q 577.042812 7.2 577.042812 9.2 
L 577.042812 38.1125 
Q 577.042812 40.1125 579.042812 40.1125 
z
" style="fill: #ffffff; opacity: 0.8; stroke: #cccccc; stroke-linejoin: miter"/>
   </g>
   <g id="line2d_17">
    <path d="M 581.042812 15.298437 
L 591.042812 15.298437 
L 601.042812 15.298437 
" style="fill: none; stroke: #1f77b4; stroke-width: 1.5; stroke-linecap: square"/>
   </g>
   <g id="text_18">
    <!-- True Output (y_p) with new f(u) -->
    <g transform="translate(609.042812 18.798437) scale(0.1 -0.1)">
     <defs>
      <path id="DejaVuSans-79" d="M 2059 -325 
Q 1816 -950 1584 -1140 
Q 1353 -1331 966 -1331 
L 506 -1331 
L 506 -850 
L 844 -850 
Q 1081 -850 1212 -737 
Q 1344 -625 1503 -206 
L 1606 56 
L 191 3500 
L 800 3500 
L 1894 763 
L 2988 3500 
L 3597 3500 
L 2059 -325 
z
" transform="scale(0.015625)"/>
      <path id="DejaVuSans-5f" d="M 3263 -1063 
L 3263 -1509 
L -63 -1509 
L -63 -1063 
L 3263 -1063 
z
" transform="scale(0.015625)"/>
      <path id="DejaVuSans-68" d="M 3513 2113 
L 3513 0 
L 2938 0 
L 2938 2094 
Q 2938 2591 2744 2837 
Q 2550 3084 2163 3084 
Q 1697 3084 1428 2787 
Q 1159 2491 1159 1978 
L 1159 0 
L 581 0 
L 581 4863 
L 1159 4863 
L 1159 2956 
Q 1366 3272 1645 3428 
Q 1925 3584 2291 3584 
Q 2894 3584 3203 3211 
Q 3513 2838 3513 2113 
z
" transform="scale(0.015625)"/>
     </defs>
     <use xlink:href="#DejaVuSans-54"/>
     <use xlink:href="#DejaVuSans-72" x="46.333984"/>
     <use xlink:href="#DejaVuSans-75" x="87.447266"/>
     <use xlink:href="#DejaVuSans-65" x="150.826172"/>
     <use xlink:href="#DejaVuSans-20" x="212.349609"/>
     <use xlink:href="#DejaVuSans-4f" x="244.136719"/>
     <use xlink:href="#DejaVuSans-75" x="322.847656"/>
     <use xlink:href="#DejaVuSans-74" x="386.226562"/>
     <use xlink:href="#DejaVuSans-70" x="425.435547"/>
     <use xlink:href="#DejaVuSans-75" x="488.912109"/>
     <use xlink:href="#DejaVuSans-74" x="552.291016"/>
     <use xlink:href="#DejaVuSans-20" x="591.5"/>
     <use xlink:href="#DejaVuSans-28" x="623.287109"/>
     <use xlink:href="#DejaVuSans-79" x="662.300781"/>
     <use xlink:href="#DejaVuSans-5f" x="721.480469"/>
     <use xlink:href="#DejaVuSans-70" x="771.480469"/>
     <use xlink:href="#DejaVuSans-29" x="834.957031"/>
     <use xlink:href="#DejaVuSans-20" x="873.970703"/>
     <use xlink:href="#DejaVuSans-77" x="905.757812"/>
     <use xlink:href="#DejaVuSans-69" x="987.544922"/>
     <use xlink:href="#DejaVuSans-74" x="1015.328125"/>
     <use xlink:href="#DejaVuSans-68" x="1054.537109"/>
     <use xlink:href="#DejaVuSans-20" x="1117.916016"/>
     <use xlink:href="#DejaVuSans-6e" x="1149.703125"/>
     <use xlink:href="#DejaVuSans-65" x="1213.082031"/>
     <use xlink:href="#DejaVuSans-77" x="1274.605469"/>
     <use xlink:href="#DejaVuSans-20" x="1356.392578"/>
     <use xlink:href="#DejaVuSans-66" x="1388.179688"/>
     <use xlink:href="#DejaVuSans-28" x="1423.384766"/>
     <use xlink:href="#DejaVuSans-75" x="1462.398438"/>
     <use xlink:href="#DejaVuSans-29" x="1525.777344"/>
    </g>
   </g>
   <g id="line2d_18">
    <path d="M 581.042812 30.254687 
L 591.042812 30.254687 
L 601.042812 30.254687 
" style="fill: none; stroke-dasharray: 5.55,2.4; stroke-dashoffset: 0; stroke: #ff7f0e; stroke-width: 1.5"/>
   </g>
   <g id="text_19">
    <!-- Prediction (y_hat) -->
    <g transform="translate(609.042812 33.754687) scale(0.1 -0.1)">
     <use xlink:href="#DejaVuSans-50"/>
     <use xlink:href="#DejaVuSans-72" x="58.552734"/>
     <use xlink:href="#DejaVuSans-65" x="97.416016"/>
     <use xlink:href="#DejaVuSans-64" x="158.939453"/>
     <use xlink:href="#DejaVuSans-69" x="222.416016"/>
     <use xlink:href="#DejaVuSans-63" x="250.199219"/>
     <use xlink:href="#DejaVuSans-74" x="305.179688"/>
     <use xlink:href="#DejaVuSans-69" x="344.388672"/>
     <use xlink:href="#DejaVuSans-6f" x="372.171875"/>
     <use xlink:href="#DejaVuSans-6e" x="433.353516"/>
     <use xlink:href="#DejaVuSans-20" x="496.732422"/>
     <use xlink:href="#DejaVuSans-28" x="528.519531"/>
     <use xlink:href="#DejaVuSans-79" x="567.533203"/>
     <use xlink:href="#DejaVuSans-5f" x="626.712891"/>
     <use xlink:href="#DejaVuSans-68" x="676.712891"/>
     <use xlink:href="#DejaVuSans-61" x="740.091797"/>
     <use xlink:href="#DejaVuSans-74" x="801.371094"/>
     <use xlink:href="#DejaVuSans-29" x="840.580078"/>
    </g>
   </g>
  </g>
 </g>
 <defs>
  <clipPath id="pe29c8f30bc">
   <rect x="48.982813" y="29.08" width="502.81" height="219.16"/>
  </clipPath>
 </defs>
</svg>
