<?xml version="1.0" encoding="utf-8" standalone="no"?>
<!DOCTYPE svg PUBLIC "-//W3C//DTD SVG 1.1//EN"
  "http://www.w3.org/Graphics/SVG/1.1/DTD/svg11.dtd">
<svg xmlns:xlink="http://www.w3.org/1999/xlink" width="708.264687pt" height="285.79625pt" viewBox="0 0 708.264687 285.79625" xmlns="http://www.w3.org/2000/svg" version="1.1">
 <metadata>
  <rdf:RDF xmlns:dc="http://purl.org/dc/elements/1.1/" xmlns:cc="http://creativecommons.org/ns#" xmlns:rdf="http://www.w3.org/1999/02/22-rdf-syntax-ns#">
   <cc:Work>
    <dc:type rdf:resource="http://purl.org/dc/dcmitype/StillImage"/>
    <dc:date>2024-11-10T19:56:49.517779</dc:date>
    <dc:format>image/svg+xml</dc:format>
    <dc:creator>
     <cc:Agent>
      <dc:title>Matplotlib v3.9.2, https://matplotlib.org/</dc:title>
     </cc:Agent>
    </dc:creator>
   </cc:Work>
  </rdf:RDF>
 </metadata>
 <defs>
  <style type="text/css">*{stroke-linejoin: round; stroke-linecap: butt}</style>
 </defs>
 <g id="figure_1">
  <g id="patch_1">
   <path d="M 0 285.79625 
L 708.264687 285.79625 
L 708.264687 0 
L 0 0 
z
" style="fill: #ffffff"/>
  </g>
  <g id="axes_1">
   <g id="patch_2">
    <path d="M 55.345313 248.24 
L 551.855312 248.24 
L 551.855312 29.08 
L 55.345313 29.08 
z
" style="fill: #ffffff"/>
   </g>
   <g id="matplotlib.axis_1">
    <g id="xtick_1">
     <g id="line2d_1">
      <defs>
       <path id="mf80b6abbda" d="M 0 0 
L 0 3.5 
" style="stroke: #000000; stroke-width: 0.8"/>
      </defs>
      <g>
       <use xlink:href="#mf80b6abbda" x="55.345313" y="248.24" style="stroke: #000000; stroke-width: 0.8"/>
      </g>
     </g>
     <g id="text_1">
      <!-- 0 -->
      <g transform="translate(52.164063 262.838437) scale(0.1 -0.1)">
       <defs>
        <path id="DejaVuSans-30" d="M 2034 4250 
Q 1547 4250 1301 3770 
Q 1056 3291 1056 2328 
Q 1056 1369 1301 889 
Q 1547 409 2034 409 
Q 2525 409 2770 889 
Q 3016 1369 3016 2328 
Q 3016 3291 2770 3770 
Q 2525 4250 2034 4250 
z
M 2034 4750 
Q 2819 4750 3233 4129 
Q 3647 3509 3647 2328 
Q 3647 1150 3233 529 
Q 2819 -91 2034 -91 
Q 1250 -91 836 529 
Q 422 1150 422 2328 
Q 422 3509 836 4129 
Q 1250 4750 2034 4750 
z
" transform="scale(0.015625)"/>
       </defs>
       <use xlink:href="#DejaVuSans-30"/>
      </g>
     </g>
    </g>
    <g id="xtick_2">
     <g id="line2d_2">
      <g>
       <use xlink:href="#mf80b6abbda" x="126.275313" y="248.24" style="stroke: #000000; stroke-width: 0.8"/>
      </g>
     </g>
     <g id="text_2">
      <!-- 100 -->
      <g transform="translate(116.731563 262.838437) scale(0.1 -0.1)">
       <defs>
        <path id="DejaVuSans-31" d="M 794 531 
L 1825 531 
L 1825 4091 
L 703 3866 
L 703 4441 
L 1819 4666 
L 2450 4666 
L 2450 531 
L 3481 531 
L 3481 0 
L 794 0 
L 794 531 
z
" transform="scale(0.015625)"/>
       </defs>
       <use xlink:href="#DejaVuSans-31"/>
       <use xlink:href="#DejaVuSans-30" x="63.623047"/>
       <use xlink:href="#DejaVuSans-30" x="127.246094"/>
      </g>
     </g>
    </g>
    <g id="xtick_3">
     <g id="line2d_3">
      <g>
       <use xlink:href="#mf80b6abbda" x="197.205313" y="248.24" style="stroke: #000000; stroke-width: 0.8"/>
      </g>
     </g>
     <g id="text_3">
      <!-- 200 -->
      <g transform="translate(187.661563 262.838437) scale(0.1 -0.1)">
       <defs>
        <path id="DejaVuSans-32" d="M 1228 531 
L 3431 531 
L 3431 0 
L 469 0 
L 469 531 
Q 828 903 1448 1529 
Q 2069 2156 2228 2338 
Q 2531 2678 2651 2914 
Q 2772 3150 2772 3378 
Q 2772 3750 2511 3984 
Q 2250 4219 1831 4219 
Q 1534 4219 1204 4116 
Q 875 4013 500 3803 
L 500 4441 
Q 881 4594 1212 4672 
Q 1544 4750 1819 4750 
Q 2544 4750 2975 4387 
Q 3406 4025 3406 3419 
Q 3406 3131 3298 2873 
Q 3191 2616 2906 2266 
Q 2828 2175 2409 1742 
Q 1991 1309 1228 531 
z
" transform="scale(0.015625)"/>
       </defs>
       <use xlink:href="#DejaVuSans-32"/>
       <use xlink:href="#DejaVuSans-30" x="63.623047"/>
       <use xlink:href="#DejaVuSans-30" x="127.246094"/>
      </g>
     </g>
    </g>
    <g id="xtick_4">
     <g id="line2d_4">
      <g>
       <use xlink:href="#mf80b6abbda" x="268.135313" y="248.24" style="stroke: #000000; stroke-width: 0.8"/>
      </g>
     </g>
     <g id="text_4">
      <!-- 300 -->
      <g transform="translate(258.591563 262.838437) scale(0.1 -0.1)">
       <defs>
        <path id="DejaVuSans-33" d="M 2597 2516 
Q 3050 2419 3304 2112 
Q 3559 1806 3559 1356 
Q 3559 666 3084 287 
Q 2609 -91 1734 -91 
Q 1441 -91 1130 -33 
Q 819 25 488 141 
L 488 750 
Q 750 597 1062 519 
Q 1375 441 1716 441 
Q 2309 441 2620 675 
Q 2931 909 2931 1356 
Q 2931 1769 2642 2001 
Q 2353 2234 1838 2234 
L 1294 2234 
L 1294 2753 
L 1863 2753 
Q 2328 2753 2575 2939 
Q 2822 3125 2822 3475 
Q 2822 3834 2567 4026 
Q 2313 4219 1838 4219 
Q 1578 4219 1281 4162 
Q 984 4106 628 3988 
L 628 4550 
Q 988 4650 1302 4700 
Q 1616 4750 1894 4750 
Q 2613 4750 3031 4423 
Q 3450 4097 3450 3541 
Q 3450 3153 3228 2886 
Q 3006 2619 2597 2516 
z
" transform="scale(0.015625)"/>
       </defs>
       <use xlink:href="#DejaVuSans-33"/>
       <use xlink:href="#DejaVuSans-30" x="63.623047"/>
       <use xlink:href="#DejaVuSans-30" x="127.246094"/>
      </g>
     </g>
    </g>
    <g id="xtick_5">
     <g id="line2d_5">
      <g>
       <use xlink:href="#mf80b6abbda" x="339.065313" y="248.24" style="stroke: #000000; stroke-width: 0.8"/>
      </g>
     </g>
     <g id="text_5">
      <!-- 400 -->
      <g transform="translate(329.521563 262.838437) scale(0.1 -0.1)">
       <defs>
        <path id="DejaVuSans-34" d="M 2419 4116 
L 825 1625 
L 2419 1625 
L 2419 4116 
z
M 2253 4666 
L 3047 4666 
L 3047 1625 
L 3713 1625 
L 3713 1100 
L 3047 1100 
L 3047 0 
L 2419 0 
L 2419 1100 
L 313 1100 
L 313 1709 
L 2253 4666 
z
" transform="scale(0.015625)"/>
       </defs>
       <use xlink:href="#DejaVuSans-34"/>
       <use xlink:href="#DejaVuSans-30" x="63.623047"/>
       <use xlink:href="#DejaVuSans-30" x="127.246094"/>
      </g>
     </g>
    </g>
    <g id="xtick_6">
     <g id="line2d_6">
      <g>
       <use xlink:href="#mf80b6abbda" x="409.995313" y="248.24" style="stroke: #000000; stroke-width: 0.8"/>
      </g>
     </g>
     <g id="text_6">
      <!-- 500 -->
      <g transform="translate(400.451563 262.838437) scale(0.1 -0.1)">
       <defs>
        <path id="DejaVuSans-35" d="M 691 4666 
L 3169 4666 
L 3169 4134 
L 1269 4134 
L 1269 2991 
Q 1406 3038 1543 3061 
Q 1681 3084 1819 3084 
Q 2600 3084 3056 2656 
Q 3513 2228 3513 1497 
Q 3513 744 3044 326 
Q 2575 -91 1722 -91 
Q 1428 -91 1123 -41 
Q 819 9 494 109 
L 494 744 
Q 775 591 1075 516 
Q 1375 441 1709 441 
Q 2250 441 2565 725 
Q 2881 1009 2881 1497 
Q 2881 1984 2565 2268 
Q 2250 2553 1709 2553 
Q 1456 2553 1204 2497 
Q 953 2441 691 2322 
L 691 4666 
z
" transform="scale(0.015625)"/>
       </defs>
       <use xlink:href="#DejaVuSans-35"/>
       <use xlink:href="#DejaVuSans-30" x="63.623047"/>
       <use xlink:href="#DejaVuSans-30" x="127.246094"/>
      </g>
     </g>
    </g>
    <g id="xtick_7">
     <g id="line2d_7">
      <g>
       <use xlink:href="#mf80b6abbda" x="480.925313" y="248.24" style="stroke: #000000; stroke-width: 0.8"/>
      </g>
     </g>
     <g id="text_7">
      <!-- 600 -->
      <g transform="translate(471.381563 262.838437) scale(0.1 -0.1)">
       <defs>
        <path id="DejaVuSans-36" d="M 2113 2584 
Q 1688 2584 1439 2293 
Q 1191 2003 1191 1497 
Q 1191 994 1439 701 
Q 1688 409 2113 409 
Q 2538 409 2786 701 
Q 3034 994 3034 1497 
Q 3034 2003 2786 2293 
Q 2538 2584 2113 2584 
z
M 3366 4563 
L 3366 3988 
Q 3128 4100 2886 4159 
Q 2644 4219 2406 4219 
Q 1781 4219 1451 3797 
Q 1122 3375 1075 2522 
Q 1259 2794 1537 2939 
Q 1816 3084 2150 3084 
Q 2853 3084 3261 2657 
Q 3669 2231 3669 1497 
Q 3669 778 3244 343 
Q 2819 -91 2113 -91 
Q 1303 -91 875 529 
Q 447 1150 447 2328 
Q 447 3434 972 4092 
Q 1497 4750 2381 4750 
Q 2619 4750 2861 4703 
Q 3103 4656 3366 4563 
z
" transform="scale(0.015625)"/>
       </defs>
       <use xlink:href="#DejaVuSans-36"/>
       <use xlink:href="#DejaVuSans-30" x="63.623047"/>
       <use xlink:href="#DejaVuSans-30" x="127.246094"/>
      </g>
     </g>
    </g>
    <g id="xtick_8">
     <g id="line2d_8">
      <g>
       <use xlink:href="#mf80b6abbda" x="551.855313" y="248.24" style="stroke: #000000; stroke-width: 0.8"/>
      </g>
     </g>
     <g id="text_8">
      <!-- 700 -->
      <g transform="translate(542.311563 262.838437) scale(0.1 -0.1)">
       <defs>
        <path id="DejaVuSans-37" d="M 525 4666 
L 3525 4666 
L 3525 4397 
L 1831 0 
L 1172 0 
L 2766 4134 
L 525 4134 
L 525 4666 
z
" transform="scale(0.015625)"/>
       </defs>
       <use xlink:href="#DejaVuSans-37"/>
       <use xlink:href="#DejaVuSans-30" x="63.623047"/>
       <use xlink:href="#DejaVuSans-30" x="127.246094"/>
      </g>
     </g>
    </g>
    <g id="text_9">
     <!-- Time Steps -->
     <g transform="translate(275.787812 276.516562) scale(0.1 -0.1)">
      <defs>
       <path id="DejaVuSans-54" d="M -19 4666 
L 3928 4666 
L 3928 4134 
L 2272 4134 
L 2272 0 
L 1638 0 
L 1638 4134 
L -19 4134 
L -19 4666 
z
" transform="scale(0.015625)"/>
       <path id="DejaVuSans-69" d="M 603 3500 
L 1178 3500 
L 1178 0 
L 603 0 
L 603 3500 
z
M 603 4863 
L 1178 4863 
L 1178 4134 
L 603 4134 
L 603 4863 
z
" transform="scale(0.015625)"/>
       <path id="DejaVuSans-6d" d="M 3328 2828 
Q 3544 3216 3844 3400 
Q 4144 3584 4550 3584 
Q 5097 3584 5394 3201 
Q 5691 2819 5691 2113 
L 5691 0 
L 5113 0 
L 5113 2094 
Q 5113 2597 4934 2840 
Q 4756 3084 4391 3084 
Q 3944 3084 3684 2787 
Q 3425 2491 3425 1978 
L 3425 0 
L 2847 0 
L 2847 2094 
Q 2847 2600 2669 2842 
Q 2491 3084 2119 3084 
Q 1678 3084 1418 2786 
Q 1159 2488 1159 1978 
L 1159 0 
L 581 0 
L 581 3500 
L 1159 3500 
L 1159 2956 
Q 1356 3278 1631 3431 
Q 1906 3584 2284 3584 
Q 2666 3584 2933 3390 
Q 3200 3197 3328 2828 
z
" transform="scale(0.015625)"/>
       <path id="DejaVuSans-65" d="M 3597 1894 
L 3597 1613 
L 953 1613 
Q 991 1019 1311 708 
Q 1631 397 2203 397 
Q 2534 397 2845 478 
Q 3156 559 3463 722 
L 3463 178 
Q 3153 47 2828 -22 
Q 2503 -91 2169 -91 
Q 1331 -91 842 396 
Q 353 884 353 1716 
Q 353 2575 817 3079 
Q 1281 3584 2069 3584 
Q 2775 3584 3186 3129 
Q 3597 2675 3597 1894 
z
M 3022 2063 
Q 3016 2534 2758 2815 
Q 2500 3097 2075 3097 
Q 1594 3097 1305 2825 
Q 1016 2553 972 2059 
L 3022 2063 
z
" transform="scale(0.015625)"/>
       <path id="DejaVuSans-20" transform="scale(0.015625)"/>
       <path id="DejaVuSans-53" d="M 3425 4513 
L 3425 3897 
Q 3066 4069 2747 4153 
Q 2428 4238 2131 4238 
Q 1616 4238 1336 4038 
Q 1056 3838 1056 3469 
Q 1056 3159 1242 3001 
Q 1428 2844 1947 2747 
L 2328 2669 
Q 3034 2534 3370 2195 
Q 3706 1856 3706 1288 
Q 3706 609 3251 259 
Q 2797 -91 1919 -91 
Q 1588 -91 1214 -16 
Q 841 59 441 206 
L 441 856 
Q 825 641 1194 531 
Q 1563 422 1919 422 
Q 2459 422 2753 634 
Q 3047 847 3047 1241 
Q 3047 1584 2836 1778 
Q 2625 1972 2144 2069 
L 1759 2144 
Q 1053 2284 737 2584 
Q 422 2884 422 3419 
Q 422 4038 858 4394 
Q 1294 4750 2059 4750 
Q 2388 4750 2728 4690 
Q 3069 4631 3425 4513 
z
" transform="scale(0.015625)"/>
       <path id="DejaVuSans-74" d="M 1172 4494 
L 1172 3500 
L 2356 3500 
L 2356 3053 
L 1172 3053 
L 1172 1153 
Q 1172 725 1289 603 
Q 1406 481 1766 481 
L 2356 481 
L 2356 0 
L 1766 0 
Q 1100 0 847 248 
Q 594 497 594 1153 
L 594 3053 
L 172 3053 
L 172 3500 
L 594 3500 
L 594 4494 
L 1172 4494 
z
" transform="scale(0.015625)"/>
       <path id="DejaVuSans-70" d="M 1159 525 
L 1159 -1331 
L 581 -1331 
L 581 3500 
L 1159 3500 
L 1159 2969 
Q 1341 3281 1617 3432 
Q 1894 3584 2278 3584 
Q 2916 3584 3314 3078 
Q 3713 2572 3713 1747 
Q 3713 922 3314 415 
Q 2916 -91 2278 -91 
Q 1894 -91 1617 61 
Q 1341 213 1159 525 
z
M 3116 1747 
Q 3116 2381 2855 2742 
Q 2594 3103 2138 3103 
Q 1681 3103 1420 2742 
Q 1159 2381 1159 1747 
Q 1159 1113 1420 752 
Q 1681 391 2138 391 
Q 2594 391 2855 752 
Q 3116 1113 3116 1747 
z
" transform="scale(0.015625)"/>
       <path id="DejaVuSans-73" d="M 2834 3397 
L 2834 2853 
Q 2591 2978 2328 3040 
Q 2066 3103 1784 3103 
Q 1356 3103 1142 2972 
Q 928 2841 928 2578 
Q 928 2378 1081 2264 
Q 1234 2150 1697 2047 
L 1894 2003 
Q 2506 1872 2764 1633 
Q 3022 1394 3022 966 
Q 3022 478 2636 193 
Q 2250 -91 1575 -91 
Q 1294 -91 989 -36 
Q 684 19 347 128 
L 347 722 
Q 666 556 975 473 
Q 1284 391 1588 391 
Q 1994 391 2212 530 
Q 2431 669 2431 922 
Q 2431 1156 2273 1281 
Q 2116 1406 1581 1522 
L 1381 1569 
Q 847 1681 609 1914 
Q 372 2147 372 2553 
Q 372 3047 722 3315 
Q 1072 3584 1716 3584 
Q 2034 3584 2315 3537 
Q 2597 3491 2834 3397 
z
" transform="scale(0.015625)"/>
      </defs>
      <use xlink:href="#DejaVuSans-54"/>
      <use xlink:href="#DejaVuSans-69" x="57.958984"/>
      <use xlink:href="#DejaVuSans-6d" x="85.742188"/>
      <use xlink:href="#DejaVuSans-65" x="183.154297"/>
      <use xlink:href="#DejaVuSans-20" x="244.677734"/>
      <use xlink:href="#DejaVuSans-53" x="276.464844"/>
      <use xlink:href="#DejaVuSans-74" x="339.941406"/>
      <use xlink:href="#DejaVuSans-65" x="379.150391"/>
      <use xlink:href="#DejaVuSans-70" x="440.673828"/>
      <use xlink:href="#DejaVuSans-73" x="504.150391"/>
     </g>
    </g>
   </g>
   <g id="matplotlib.axis_2">
    <g id="ytick_1">
     <g id="line2d_9">
      <defs>
       <path id="md3b227c2a6" d="M 0 0 
L -3.5 0 
" style="stroke: #000000; stroke-width: 0.8"/>
      </defs>
      <g>
       <use xlink:href="#md3b227c2a6" x="55.345313" y="234.492496" style="stroke: #000000; stroke-width: 0.8"/>
      </g>
     </g>
     <g id="text_10">
      <!-- −200 -->
      <g transform="translate(20.878125 238.291715) scale(0.1 -0.1)">
       <defs>
        <path id="DejaVuSans-2212" d="M 678 2272 
L 4684 2272 
L 4684 1741 
L 678 1741 
L 678 2272 
z
" transform="scale(0.015625)"/>
       </defs>
       <use xlink:href="#DejaVuSans-2212"/>
       <use xlink:href="#DejaVuSans-32" x="83.789062"/>
       <use xlink:href="#DejaVuSans-30" x="147.412109"/>
       <use xlink:href="#DejaVuSans-30" x="211.035156"/>
      </g>
     </g>
    </g>
    <g id="ytick_2">
     <g id="line2d_10">
      <g>
       <use xlink:href="#md3b227c2a6" x="55.345313" y="187.086251" style="stroke: #000000; stroke-width: 0.8"/>
      </g>
     </g>
     <g id="text_11">
      <!-- −100 -->
      <g transform="translate(20.878125 190.88547) scale(0.1 -0.1)">
       <use xlink:href="#DejaVuSans-2212"/>
       <use xlink:href="#DejaVuSans-31" x="83.789062"/>
       <use xlink:href="#DejaVuSans-30" x="147.412109"/>
       <use xlink:href="#DejaVuSans-30" x="211.035156"/>
      </g>
     </g>
    </g>
    <g id="ytick_3">
     <g id="line2d_11">
      <g>
       <use xlink:href="#md3b227c2a6" x="55.345313" y="139.680005" style="stroke: #000000; stroke-width: 0.8"/>
      </g>
     </g>
     <g id="text_12">
      <!-- 0 -->
      <g transform="translate(41.982813 143.479224) scale(0.1 -0.1)">
       <use xlink:href="#DejaVuSans-30"/>
      </g>
     </g>
    </g>
    <g id="ytick_4">
     <g id="line2d_12">
      <g>
       <use xlink:href="#md3b227c2a6" x="55.345313" y="92.27376" style="stroke: #000000; stroke-width: 0.8"/>
      </g>
     </g>
     <g id="text_13">
      <!-- 100 -->
      <g transform="translate(29.257813 96.072979) scale(0.1 -0.1)">
       <use xlink:href="#DejaVuSans-31"/>
       <use xlink:href="#DejaVuSans-30" x="63.623047"/>
       <use xlink:href="#DejaVuSans-30" x="127.246094"/>
      </g>
     </g>
    </g>
    <g id="ytick_5">
     <g id="line2d_13">
      <g>
       <use xlink:href="#md3b227c2a6" x="55.345313" y="44.867515" style="stroke: #000000; stroke-width: 0.8"/>
      </g>
     </g>
     <g id="text_14">
      <!-- 200 -->
      <g transform="translate(29.257813 48.666733) scale(0.1 -0.1)">
       <use xlink:href="#DejaVuSans-32"/>
       <use xlink:href="#DejaVuSans-30" x="63.623047"/>
       <use xlink:href="#DejaVuSans-30" x="127.246094"/>
      </g>
     </g>
    </g>
    <g id="text_15">
     <!-- Output -->
     <g transform="translate(14.798438 156.027969) rotate(-90) scale(0.1 -0.1)">
      <defs>
       <path id="DejaVuSans-4f" d="M 2522 4238 
Q 1834 4238 1429 3725 
Q 1025 3213 1025 2328 
Q 1025 1447 1429 934 
Q 1834 422 2522 422 
Q 3209 422 3611 934 
Q 4013 1447 4013 2328 
Q 4013 3213 3611 3725 
Q 3209 4238 2522 4238 
z
M 2522 4750 
Q 3503 4750 4090 4092 
Q 4678 3434 4678 2328 
Q 4678 1225 4090 567 
Q 3503 -91 2522 -91 
Q 1538 -91 948 565 
Q 359 1222 359 2328 
Q 359 3434 948 4092 
Q 1538 4750 2522 4750 
z
" transform="scale(0.015625)"/>
       <path id="DejaVuSans-75" d="M 544 1381 
L 544 3500 
L 1119 3500 
L 1119 1403 
Q 1119 906 1312 657 
Q 1506 409 1894 409 
Q 2359 409 2629 706 
Q 2900 1003 2900 1516 
L 2900 3500 
L 3475 3500 
L 3475 0 
L 2900 0 
L 2900 538 
Q 2691 219 2414 64 
Q 2138 -91 1772 -91 
Q 1169 -91 856 284 
Q 544 659 544 1381 
z
M 1991 3584 
L 1991 3584 
z
" transform="scale(0.015625)"/>
      </defs>
      <use xlink:href="#DejaVuSans-4f"/>
      <use xlink:href="#DejaVuSans-75" x="78.710938"/>
      <use xlink:href="#DejaVuSans-74" x="142.089844"/>
      <use xlink:href="#DejaVuSans-70" x="181.298828"/>
      <use xlink:href="#DejaVuSans-75" x="244.775391"/>
      <use xlink:href="#DejaVuSans-74" x="308.154297"/>
     </g>
    </g>
   </g>
   <g id="line2d_14">
    <path d="M 55.345313 139.680005 
L 56.763913 139.607686 
L 57.473213 139.4458 
L 58.182513 139.132145 
L 59.601113 138.088005 
L 61.019713 136.917963 
L 61.729013 136.505466 
L 62.438313 136.27436 
L 63.147613 136.218006 
L 64.566213 136.44555 
L 68.112713 137.479997 
L 70.240613 138.066286 
L 72.368513 138.360882 
L 73.077813 138.363082 
L 73.787113 138.23659 
L 74.496413 137.892041 
L 75.205713 137.244765 
L 75.915013 136.252637 
L 77.333613 133.438644 
L 78.752213 130.526862 
L 79.461513 129.472108 
L 80.170813 128.82545 
L 80.880113 128.59093 
L 81.589413 128.702792 
L 82.298713 129.057931 
L 84.426613 130.663988 
L 86.554513 132.233631 
L 88.682412 133.510678 
L 90.101013 134.066469 
L 90.810313 134.130976 
L 91.519613 133.930386 
L 92.228913 133.355483 
L 92.938213 132.32394 
L 93.647513 130.820762 
L 95.066113 126.814199 
L 96.484713 122.90688 
L 97.194013 121.558919 
L 97.903312 120.787058 
L 98.612613 120.590547 
L 99.321913 120.880088 
L 100.031213 121.517461 
L 101.449813 123.290799 
L 103.577713 126.039 
L 105.705613 128.382299 
L 107.124212 129.634133 
L 107.833513 130.107903 
L 108.542813 130.405039 
L 109.252113 130.437465 
L 109.961413 130.112066 
L 110.670713 129.36421 
L 111.380013 128.193794 
L 112.798613 125.018626 
L 113.507913 123.408656 
L 114.217213 122.080651 
L 114.926513 121.201544 
L 115.635813 120.845538 
L 116.345112 120.986929 
L 117.054413 121.523174 
L 118.473013 123.237015 
L 121.310213 126.879762 
L 123.438113 129.171758 
L 124.856713 130.426218 
L 126.275313 131.403323 
L 126.984613 131.708222 
L 127.693913 131.81551 
L 128.403212 131.677055 
L 129.112513 131.283651 
L 130.531113 129.985356 
L 131.240412 129.327494 
L 131.949713 128.846113 
L 132.659013 128.63232 
L 133.368313 128.70947 
L 134.077613 129.034933 
L 135.496213 130.091401 
L 141.170613 134.72346 
L 142.589213 135.520887 
L 144.007812 136.065753 
L 145.426413 136.435756 
L 146.845012 136.509515 
L 150.391513 136.112731 
L 151.810113 136.405329 
L 153.938013 137.078209 
L 154.647312 137.420564 
L 155.356613 137.906487 
L 156.775213 139.372156 
L 158.193813 141.110572 
L 158.903113 141.82922 
L 159.612413 142.341377 
L 160.321713 142.628464 
L 161.031013 142.721222 
L 162.449613 142.563034 
L 165.996113 141.72296 
L 168.124012 141.278745 
L 170.251913 141.106902 
L 170.961213 141.184445 
L 171.670513 141.435782 
L 172.379813 141.948913 
L 173.089112 142.786436 
L 173.798413 143.950691 
L 176.635613 149.48162 
L 177.344913 150.274777 
L 178.054213 150.653169 
L 178.763513 150.658327 
L 179.472813 150.383667 
L 180.891413 149.411979 
L 183.728613 147.314266 
L 185.856513 146.015395 
L 187.275113 145.362063 
L 187.984413 145.155322 
L 188.693713 145.106031 
L 189.403013 145.301743 
L 190.112313 145.827607 
L 190.821613 146.730947 
L 191.530913 147.988853 
L 193.658813 152.507806 
L 194.368113 153.623029 
L 195.077413 154.298544 
L 195.786713 154.5089 
L 196.496013 154.313065 
L 197.205313 153.822952 
L 199.333213 151.69564 
L 201.461113 149.634566 
L 203.589013 147.89782 
L 205.007613 146.97757 
L 206.426213 146.357867 
L 207.135513 146.274021 
L 207.844813 146.423624 
L 208.554113 146.842691 
L 209.263413 147.513991 
L 211.391313 149.994433 
L 212.100613 150.510372 
L 212.809913 150.713027 
L 213.519213 150.607794 
L 214.228513 150.260851 
L 216.356413 148.653465 
L 221.321513 144.92207 
L 222.740113 144.231812 
L 224.158713 143.730654 
L 225.577313 143.460721 
L 226.286613 143.475405 
L 227.705213 143.808492 
L 229.123813 144.211626 
L 229.833113 144.283232 
L 231.251713 144.07746 
L 233.379613 143.37266 
L 234.798213 142.703682 
L 235.507513 142.194087 
L 236.926113 140.787164 
L 238.344713 139.297579 
L 239.054013 138.739592 
L 239.763313 138.372368 
L 240.472613 138.187884 
L 241.891213 138.182406 
L 244.728413 138.603626 
L 247.565613 139.115935 
L 249.693513 139.229888 
L 250.402813 139.179067 
L 251.112113 139.002789 
L 251.821413 138.611492 
L 252.530713 137.92032 
L 253.240013 136.886975 
L 254.658613 133.997937 
L 256.077213 131.019988 
L 256.786513 129.935146 
L 257.495813 129.260237 
L 258.205113 128.999189 
L 258.914413 129.086142 
L 259.623713 129.417891 
L 261.751613 130.962 
L 263.879513 132.480355 
L 266.007412 133.714941 
L 267.426013 134.246567 
L 268.135313 134.300086 
L 268.844613 134.089178 
L 269.553913 133.504586 
L 270.263213 132.463946 
L 270.972512 130.952226 
L 272.391113 126.93011 
L 273.809713 123.009079 
L 274.519013 121.654881 
L 275.228313 120.877166 
L 275.937613 120.675157 
L 276.646912 120.959536 
L 277.356213 121.592061 
L 278.774813 123.356573 
L 280.902713 126.093455 
L 283.030613 128.427382 
L 284.449213 129.673883 
L 285.158513 130.145227 
L 285.867813 130.440086 
L 286.577112 130.470374 
L 287.286412 130.142967 
L 287.995713 129.393226 
L 288.705013 128.221039 
L 290.123613 125.042648 
L 290.832913 123.431213 
L 291.542213 122.101831 
L 292.251512 121.221432 
L 292.960813 120.864212 
L 293.670113 121.004464 
L 294.379413 121.539639 
L 295.798013 123.251532 
L 298.635213 126.891048 
L 300.763113 129.181101 
L 302.181713 130.434456 
L 303.600313 131.410586 
L 304.309613 131.715042 
L 305.018913 131.821914 
L 305.728213 131.683068 
L 306.437513 131.289298 
L 307.856112 129.990335 
L 308.565412 129.332168 
L 309.274713 128.850503 
L 309.984013 128.636442 
L 310.693313 128.71334 
L 311.402613 129.038567 
L 312.821213 130.094605 
L 318.495612 134.725396 
L 319.914213 135.522594 
L 321.332813 136.067258 
L 322.751413 136.437083 
L 324.170012 136.510685 
L 327.716513 136.113585 
L 329.135112 136.406082 
L 331.263013 137.078832 
L 331.972313 137.42115 
L 332.681613 137.907037 
L 334.100212 139.372641 
L 335.518812 141.111 
L 336.228113 141.829622 
L 336.937413 142.341753 
L 337.646713 142.628818 
L 338.356013 142.721554 
L 339.774612 142.563327 
L 343.321113 141.723174 
L 345.449012 141.278922 
L 347.576913 141.107049 
L 348.286213 141.184583 
L 348.995513 141.435911 
L 349.704813 141.949035 
L 350.414112 142.78655 
L 351.123412 143.950798 
L 353.960613 149.481703 
L 354.669913 150.274856 
L 355.379212 150.653242 
L 356.088512 150.658396 
L 356.797813 150.383731 
L 358.216413 149.412036 
L 361.053612 147.31431 
L 363.181513 146.015431 
L 364.600113 145.362095 
L 365.309413 145.155352 
L 366.018712 145.10606 
L 366.728012 145.30177 
L 367.437313 145.827632 
L 368.146613 146.730971 
L 368.855913 147.988876 
L 370.983812 152.507825 
L 371.693112 153.623047 
L 372.402412 154.298561 
L 373.111713 154.508915 
L 373.821013 154.31308 
L 374.530313 153.822965 
L 376.658212 151.695651 
L 378.786113 149.634575 
L 380.914013 147.897828 
L 382.332612 146.977577 
L 383.751213 146.357873 
L 384.460513 146.274027 
L 385.169813 146.423629 
L 385.879113 146.842696 
L 386.588413 147.513996 
L 388.716313 149.994437 
L 389.425613 150.510375 
L 390.134913 150.71303 
L 390.844213 150.607797 
L 391.553513 150.260854 
L 393.681413 148.653468 
L 398.646512 144.922071 
L 400.065113 144.231813 
L 401.483713 143.730655 
L 402.902312 143.460722 
L 403.611612 143.475406 
L 405.030213 143.808492 
L 406.448813 144.211626 
L 407.158113 144.283232 
L 408.576712 144.077461 
L 410.704613 143.37266 
L 412.123213 142.703682 
L 412.832513 142.194088 
L 414.251112 140.787165 
L 415.669713 139.297579 
L 416.379013 138.739592 
L 417.088313 138.372368 
L 417.797613 138.187884 
L 419.216212 138.182407 
L 422.053413 138.603626 
L 424.890612 139.115936 
L 427.018513 139.229888 
L 427.727813 139.179067 
L 428.437113 139.002789 
L 429.146412 138.611492 
L 429.855712 137.92032 
L 430.565013 136.886975 
L 431.983613 133.997937 
L 433.402213 131.019988 
L 434.111513 129.935146 
L 434.820812 129.260237 
L 435.530112 128.999189 
L 436.239413 129.086142 
L 436.948713 129.417891 
L 439.076613 130.962 
L 441.204513 132.480355 
L 443.332413 133.714941 
L 444.751013 134.246567 
L 445.460312 134.300086 
L 446.169613 134.089178 
L 446.878913 133.504586 
L 447.588213 132.463946 
L 448.297513 130.952226 
L 449.716113 126.93011 
L 451.134712 123.009079 
L 451.844013 121.654881 
L 452.553313 120.877166 
L 453.262613 120.675157 
L 453.971913 120.959536 
L 454.681213 121.592061 
L 456.099812 123.356573 
L 458.227713 126.093455 
L 460.355613 128.427382 
L 461.774212 129.673883 
L 462.483513 130.145227 
L 463.192813 130.440086 
L 463.902113 130.470374 
L 464.611413 130.142967 
L 465.320713 129.393226 
L 466.030012 128.221039 
L 467.448613 125.042648 
L 468.157913 123.431213 
L 468.867213 122.101831 
L 469.576513 121.221432 
L 470.285813 120.864212 
L 470.995113 121.004464 
L 471.704412 121.539639 
L 473.123013 123.251532 
L 475.960213 126.891048 
L 478.088113 129.181101 
L 479.506713 130.434456 
L 480.925313 131.410586 
L 481.634613 131.715042 
L 482.343912 131.821914 
L 483.053213 131.683068 
L 483.762513 131.289298 
L 485.181113 129.990335 
L 485.890413 129.332168 
L 486.599713 128.850503 
L 487.309012 128.636442 
L 488.018312 128.71334 
L 488.727613 129.038567 
L 490.146213 130.094605 
L 495.820613 134.725396 
L 497.239213 135.522594 
L 498.657812 136.067258 
L 500.076413 136.437083 
L 501.495013 136.510685 
L 505.041513 136.113585 
L 506.460113 136.406082 
L 508.588012 137.078832 
L 509.297312 137.42115 
L 510.006613 137.907037 
L 511.425213 139.372641 
L 512.843813 141.111 
L 513.553112 141.829622 
L 514.262412 142.341753 
L 514.971713 142.628818 
L 515.681013 142.721554 
L 517.099613 142.563327 
L 520.646113 141.723174 
L 522.774013 141.278922 
L 524.901912 141.107049 
L 525.611213 141.184583 
L 526.320513 141.435911 
L 527.029813 141.949035 
L 527.739113 142.78655 
L 528.448413 143.950798 
L 531.285613 149.481703 
L 531.994913 150.274856 
L 532.704213 150.653242 
L 533.413513 150.658396 
L 534.122813 150.383731 
L 535.541412 149.412036 
L 538.378613 147.31431 
L 540.506512 146.015431 
L 541.925113 145.362095 
L 542.634413 145.155352 
L 543.343713 145.10606 
L 544.053013 145.30177 
L 544.762313 145.827632 
L 545.471612 146.730971 
L 546.180913 147.988876 
L 548.308813 152.507825 
L 549.018113 153.623047 
L 549.727413 154.298561 
L 550.436712 154.508915 
L 551.146012 154.31308 
L 551.146012 154.31308 
" clip-path="url(#p1e3abbd643)" style="fill: none; stroke: #1f77b4; stroke-width: 1.5; stroke-linecap: square"/>
   </g>
   <g id="line2d_15">
    <path d="M 55.345313 139.680005 
L 56.054613 139.680005 
L 56.763913 144.289614 
L 57.473213 145.66182 
L 58.182513 148.812692 
L 58.891813 150.530966 
L 59.601113 152.859311 
L 61.729013 157.524371 
L 62.438313 158.736226 
L 63.147613 159.622834 
L 63.856913 163.533739 
L 64.566213 172.736953 
L 65.275513 177.739735 
L 65.984813 189.185556 
L 68.112713 216.582605 
L 69.531313 230.923342 
L 70.240613 236.677208 
L 70.949913 238.278182 
L 71.659213 237.011004 
L 72.368513 232.599147 
L 73.077813 225.762046 
L 73.787113 220.467688 
L 77.333613 187.587277 
L 79.461513 164.857137 
L 83.008013 125.606136 
L 83.717313 124.920668 
L 84.426613 120.520586 
L 85.135913 118.387971 
L 85.845213 120.847396 
L 86.554513 120.105869 
L 87.263813 115.006748 
L 87.973113 112.885368 
L 88.682412 109.112261 
L 89.391713 98.570018 
L 91.519613 73.703273 
L 92.938213 60.107824 
L 93.647513 54.431466 
L 94.356813 49.690942 
L 95.066113 45.742319 
L 95.775413 42.723217 
L 96.484713 40.577689 
L 97.194013 39.360126 
L 97.903312 39.041818 
L 98.612613 39.635626 
L 99.321913 41.117259 
L 100.031213 43.476309 
L 100.740513 46.683927 
L 101.449813 51.293666 
L 102.159113 58.449915 
L 102.868413 64.27501 
L 105.705613 92.42997 
L 106.414913 98.147278 
L 107.833513 113.31558 
L 110.670713 144.231398 
L 112.798613 166.23793 
L 114.217213 179.28208 
L 115.635813 190.371855 
L 117.054413 198.983677 
L 118.473013 205.734275 
L 119.182313 210.241166 
L 120.600913 216.382502 
L 121.310213 215.975517 
L 122.019513 217.354064 
L 122.728813 216.863856 
L 123.438113 218.396667 
L 124.147413 216.748798 
L 124.856713 216.009616 
L 125.566013 211.876847 
L 126.275313 208.924185 
L 128.403212 195.602615 
L 129.821813 184.802348 
L 131.240412 172.34373 
L 133.368313 151.119797 
L 134.786913 136.149101 
L 135.496213 131.603548 
L 136.205512 128.34869 
L 136.914813 130.026003 
L 137.624113 128.471151 
L 138.333413 128.92528 
L 139.042712 128.060558 
L 139.752013 128.025472 
L 140.461313 127.467613 
L 141.170613 127.27145 
L 141.879913 126.890733 
L 142.589213 126.69241 
L 144.007812 112.280245 
L 144.717113 105.58283 
L 145.426413 94.750696 
L 147.554313 69.976925 
L 148.972913 56.688825 
L 149.682212 51.249049 
L 150.391513 46.824122 
L 151.100813 44.007944 
L 151.810113 45.034676 
L 152.519413 47.52145 
L 153.228713 54.558763 
L 153.938013 58.596475 
L 154.647312 64.628177 
L 155.356613 69.590368 
L 158.193813 93.771712 
L 160.321713 114.397545 
L 162.449613 136.502098 
L 165.286812 145.408266 
L 165.996113 143.260373 
L 166.705413 148.979502 
L 167.414713 149.681081 
L 168.124012 153.548304 
L 168.833313 159.555998 
L 169.542613 170.117859 
L 170.251913 177.05129 
L 170.961213 185.517243 
L 173.089112 204.712526 
L 173.798413 210.079625 
L 175.217013 218.354705 
L 175.926312 221.335165 
L 176.635613 223.587186 
L 177.344913 225.006249 
L 178.054213 225.645715 
L 178.763513 225.467667 
L 179.472813 224.501769 
L 180.182113 222.743638 
L 180.891413 220.219835 
L 181.600713 216.946572 
L 183.019313 205.922443 
L 185.856513 182.496766 
L 187.984413 162.441497 
L 193.658813 106.242533 
L 195.077413 94.503733 
L 196.496013 84.798459 
L 197.205313 80.855152 
L 197.914613 77.583032 
L 198.623913 75.020682 
L 199.333213 90.082921 
L 200.042513 75.875413 
L 200.751813 80.684157 
L 201.461113 74.272856 
L 202.170413 76.03626 
L 202.879713 73.631494 
L 203.589013 76.013554 
L 204.298313 77.852781 
L 205.716913 84.026176 
L 207.135513 92.23731 
L 208.554113 102.376789 
L 209.972713 114.201337 
L 212.100613 134.34388 
L 215.647113 170.603376 
L 216.356413 173.564157 
L 217.065713 175.745806 
L 217.775013 171.185635 
L 218.484313 171.090462 
L 219.193613 164.74302 
L 219.902913 162.620111 
L 220.612213 161.547254 
L 221.321513 159.7741 
L 222.030813 166.431046 
L 222.740113 167.262429 
L 225.577313 198.416377 
L 226.995913 210.353179 
L 228.414513 219.391326 
L 229.123813 222.722602 
L 229.833113 225.26135 
L 230.542413 226.942146 
L 231.251713 227.780913 
L 231.961013 227.751805 
L 232.670313 220.557616 
L 233.379613 217.560092 
L 234.088913 206.07547 
L 234.798213 200.557463 
L 235.507513 191.612739 
L 236.216813 185.13007 
L 237.635413 170.420391 
L 239.763313 148.978559 
L 241.181913 135.679768 
L 241.891213 131.759903 
L 242.600513 126.303688 
L 243.309813 124.608928 
L 244.019113 124.094922 
L 244.728413 122.759797 
L 245.437713 121.944947 
L 246.147013 120.84843 
L 247.565613 119.181349 
L 248.984213 109.789607 
L 250.402813 96.748198 
L 251.821413 85.628777 
L 253.240013 76.733096 
L 253.949313 73.186793 
L 254.658613 70.326143 
L 255.367913 68.10927 
L 256.077213 66.589754 
L 256.786513 65.749461 
L 257.495813 65.606018 
L 258.205113 66.144879 
L 258.914413 67.363534 
L 260.333012 71.103474 
L 261.751613 76.192796 
L 262.460913 79.264371 
L 264.588813 90.540871 
L 266.007412 99.456928 
L 268.135313 118.061402 
L 272.391113 155.691883 
L 273.809713 166.896815 
L 275.228313 176.645307 
L 276.646912 184.477895 
L 277.356213 187.553383 
L 278.774813 192.126022 
L 279.484113 194.405494 
L 280.193413 195.862663 
L 280.902713 197.037685 
L 281.612012 197.510677 
L 282.321312 197.493273 
L 283.030613 196.810304 
L 283.739913 193.817245 
L 284.449213 192.045233 
L 286.577112 181.475577 
L 287.995713 172.65508 
L 289.414313 162.30937 
L 291.542213 144.502697 
L 295.798013 105.437974 
L 296.507313 102.869985 
L 297.216612 98.216652 
L 297.925912 99.406159 
L 298.635213 101.293099 
L 299.344513 102.710462 
L 300.053813 104.45793 
L 300.763113 101.391151 
L 301.472413 97.019079 
L 302.181713 94.028426 
L 302.891012 85.567544 
L 303.600313 79.942776 
L 304.309613 73.345998 
L 305.728213 63.26783 
L 307.146813 55.816928 
L 307.856112 53.23313 
L 308.565412 51.319823 
L 309.274713 50.262897 
L 309.984013 49.965292 
L 310.693313 50.499408 
L 311.402613 51.818299 
L 312.111913 54.300899 
L 312.821213 59.226089 
L 313.530512 65.597627 
L 314.949113 76.020136 
L 317.077013 91.583224 
L 319.914213 113.592693 
L 320.623513 121.557672 
L 321.332813 125.987586 
L 322.042113 132.670975 
L 322.751413 135.986833 
L 323.460712 140.656854 
L 328.425813 166.187298 
L 329.844412 178.589884 
L 330.553713 182.247325 
L 331.263013 187.202998 
L 333.390913 197.195899 
L 334.100212 199.719589 
L 334.809512 201.501783 
L 335.518812 202.8079 
L 336.228113 203.437514 
L 336.937413 203.498927 
L 337.646713 202.913576 
L 338.356013 201.73226 
L 339.065313 199.932569 
L 339.774612 197.548053 
L 340.483912 199.111556 
L 341.193213 196.676337 
L 341.902513 196.170685 
L 344.030413 188.953494 
L 345.449012 182.526803 
L 346.158313 178.951247 
L 346.867613 169.8963 
L 347.576913 164.226941 
L 348.286213 156.304954 
L 349.704813 142.368297 
L 353.251313 109.250622 
L 354.669913 97.946136 
L 356.088512 88.509931 
L 356.797813 84.621058 
L 357.507113 81.353133 
L 358.216413 78.732469 
L 358.925713 76.796087 
L 359.635013 77.853483 
L 360.344313 76.390121 
L 361.053612 77.181038 
L 361.762912 77.261288 
L 362.472213 80.174501 
L 363.181513 82.071717 
L 363.890813 83.624373 
L 365.309413 89.037717 
L 366.728012 96.433304 
L 368.146613 105.674828 
L 369.565213 116.523466 
L 371.693112 135.128818 
L 375.948913 175.811165 
L 376.658212 199.443894 
L 377.367512 192.587805 
L 378.076813 200.336194 
L 378.786113 198.46626 
L 379.495413 202.352189 
L 380.204713 202.072761 
L 380.914013 208.599439 
L 381.623312 212.274891 
L 382.332612 216.954529 
L 383.751213 223.181872 
L 384.460513 225.211481 
L 385.169813 226.780554 
L 385.879113 227.443327 
L 386.588413 227.448716 
L 387.297712 226.616828 
L 388.007012 225.057239 
L 388.716313 222.709611 
L 389.425613 219.636538 
L 390.134913 215.83525 
L 391.553513 206.228258 
L 393.681413 189.627508 
L 394.390713 181.851125 
L 395.100013 181.128725 
L 395.809313 175.931569 
L 396.518613 177.270056 
L 397.227913 174.360413 
L 397.937212 169.991019 
L 398.646512 166.498433 
L 399.355813 155.599609 
L 400.065113 149.666374 
L 400.774413 141.58115 
L 401.483713 131.3287 
L 404.320913 98.156649 
L 405.739513 84.363454 
L 407.158113 73.04403 
L 407.867413 68.45053 
L 408.576712 64.589666 
L 409.286012 61.542316 
L 409.995313 59.181197 
L 410.704613 57.214412 
L 411.413913 64.638876 
L 412.123213 65.943293 
L 412.832513 71.221853 
L 413.541812 74.163172 
L 414.251112 78.906604 
L 414.960413 82.88083 
L 417.797613 103.23385 
L 418.506912 105.041448 
L 419.216212 104.898053 
L 420.634813 108.495675 
L 421.344113 106.888911 
L 422.053413 107.876741 
L 422.762713 107.603061 
L 423.472013 108.550155 
L 424.181312 109.142726 
L 424.890612 110.392762 
L 425.599913 116.118177 
L 426.309213 118.723643 
L 427.018513 124.079715 
L 427.727813 135.244213 
L 428.437113 142.11634 
L 429.146412 151.146835 
L 431.983613 178.943713 
L 433.402213 190.010673 
L 434.820812 198.677547 
L 435.530112 201.991043 
L 436.239413 204.613997 
L 436.948713 206.472682 
L 438.367313 204.532886 
L 439.076613 203.056895 
L 439.785912 201.255406 
L 440.495212 201.444232 
L 441.204513 199.694734 
L 441.913813 195.65351 
L 442.623113 192.355089 
L 444.041713 183.889899 
L 444.751013 181.11415 
L 447.588213 163.963395 
L 449.716113 148.228326 
L 452.553313 124.999872 
L 455.390512 101.460706 
L 456.099812 93.921152 
L 456.809113 88.814925 
L 457.518413 82.674089 
L 459.646313 68.68482 
L 460.355613 64.866142 
L 461.064912 59.361379 
L 462.483513 54.209328 
L 463.192813 52.40117 
L 463.902113 51.125043 
L 464.611413 50.504124 
L 465.320713 50.522722 
L 466.030012 51.235414 
L 466.739312 52.633144 
L 467.448613 54.728941 
L 468.157913 57.503801 
L 468.867213 60.94254 
L 470.285813 69.680094 
L 471.704412 80.629236 
L 472.413712 86.812815 
L 473.123013 90.808366 
L 473.832313 93.977541 
L 474.541613 98.01436 
L 475.250913 102.912327 
L 475.960213 105.684683 
L 476.669512 109.571877 
L 477.378812 112.554082 
L 478.088113 118.478664 
L 478.797413 122.061215 
L 479.506713 127.177234 
L 483.053213 169.238569 
L 484.471813 183.351172 
L 485.890413 195.192454 
L 487.309012 204.379157 
L 488.018312 207.87369 
L 488.727613 210.578651 
L 489.436913 210.302696 
L 490.146213 208.891771 
L 490.855513 208.927064 
L 491.564813 206.591263 
L 492.274113 205.601075 
L 494.402013 198.986874 
L 495.111313 196.271225 
L 496.529913 189.421285 
L 497.948512 181.54791 
L 499.367113 171.228794 
L 500.076413 169.147914 
L 500.785713 168.582397 
L 501.495013 166.750161 
L 502.204313 165.409393 
L 504.332213 159.236794 
L 505.041513 156.878674 
L 505.750813 150.33954 
L 506.460113 142.194447 
L 507.169413 136.413486 
L 508.588012 123.908528 
L 510.006613 112.629657 
L 511.425213 102.74055 
L 512.843813 94.480451 
L 514.262412 88.109582 
L 514.971713 85.704299 
L 515.681013 83.864729 
L 516.390313 82.596422 
L 517.099613 81.923902 
L 518.518213 75.120571 
L 520.646113 68.04709 
L 521.355413 68.090629 
L 522.064713 67.60887 
L 522.774013 68.576048 
L 523.483313 72.56604 
L 527.739113 108.780394 
L 530.576313 137.287885 
L 534.832112 180.608028 
L 536.250713 193.435104 
L 536.960013 195.938182 
L 537.669313 196.812832 
L 538.378613 198.459055 
L 539.087913 199.23719 
L 539.797213 203.706901 
L 540.506512 205.073462 
L 541.215813 211.465529 
L 541.925113 213.709079 
L 542.634413 217.593713 
L 544.053013 221.343441 
L 544.762313 222.015082 
L 545.471612 222.32798 
L 546.180913 221.653965 
L 546.890213 220.393847 
L 547.599513 218.305719 
L 548.308813 215.573038 
L 549.018113 212.120982 
L 550.436712 203.365315 
L 551.146012 198.13522 
L 551.146012 198.13522 
" clip-path="url(#p1e3abbd643)" style="fill: none; stroke-dasharray: 5.55,2.4; stroke-dashoffset: 0; stroke: #ff7f0e; stroke-width: 1.5"/>
   </g>
   <g id="patch_3">
    <path d="M 55.345313 248.24 
L 55.345313 29.08 
" style="fill: none; stroke: #000000; stroke-width: 0.8; stroke-linejoin: miter; stroke-linecap: square"/>
   </g>
   <g id="patch_4">
    <path d="M 551.855312 248.24 
L 551.855312 29.08 
" style="fill: none; stroke: #000000; stroke-width: 0.8; stroke-linejoin: miter; stroke-linecap: square"/>
   </g>
   <g id="patch_5">
    <path d="M 55.345313 248.24 
L 551.855313 248.24 
" style="fill: none; stroke: #000000; stroke-width: 0.8; stroke-linejoin: miter; stroke-linecap: square"/>
   </g>
   <g id="patch_6">
    <path d="M 55.345313 29.08 
L 551.855313 29.08 
" style="fill: none; stroke: #000000; stroke-width: 0.8; stroke-linejoin: miter; stroke-linecap: square"/>
   </g>
   <g id="text_16">
    <!-- Model Performance -->
    <g transform="translate(245.659062 23.08) scale(0.12 -0.12)">
     <defs>
      <path id="DejaVuSans-4d" d="M 628 4666 
L 1569 4666 
L 2759 1491 
L 3956 4666 
L 4897 4666 
L 4897 0 
L 4281 0 
L 4281 4097 
L 3078 897 
L 2444 897 
L 1241 4097 
L 1241 0 
L 628 0 
L 628 4666 
z
" transform="scale(0.015625)"/>
      <path id="DejaVuSans-6f" d="M 1959 3097 
Q 1497 3097 1228 2736 
Q 959 2375 959 1747 
Q 959 1119 1226 758 
Q 1494 397 1959 397 
Q 2419 397 2687 759 
Q 2956 1122 2956 1747 
Q 2956 2369 2687 2733 
Q 2419 3097 1959 3097 
z
M 1959 3584 
Q 2709 3584 3137 3096 
Q 3566 2609 3566 1747 
Q 3566 888 3137 398 
Q 2709 -91 1959 -91 
Q 1206 -91 779 398 
Q 353 888 353 1747 
Q 353 2609 779 3096 
Q 1206 3584 1959 3584 
z
" transform="scale(0.015625)"/>
      <path id="DejaVuSans-64" d="M 2906 2969 
L 2906 4863 
L 3481 4863 
L 3481 0 
L 2906 0 
L 2906 525 
Q 2725 213 2448 61 
Q 2172 -91 1784 -91 
Q 1150 -91 751 415 
Q 353 922 353 1747 
Q 353 2572 751 3078 
Q 1150 3584 1784 3584 
Q 2172 3584 2448 3432 
Q 2725 3281 2906 2969 
z
M 947 1747 
Q 947 1113 1208 752 
Q 1469 391 1925 391 
Q 2381 391 2643 752 
Q 2906 1113 2906 1747 
Q 2906 2381 2643 2742 
Q 2381 3103 1925 3103 
Q 1469 3103 1208 2742 
Q 947 2381 947 1747 
z
" transform="scale(0.015625)"/>
      <path id="DejaVuSans-6c" d="M 603 4863 
L 1178 4863 
L 1178 0 
L 603 0 
L 603 4863 
z
" transform="scale(0.015625)"/>
      <path id="DejaVuSans-50" d="M 1259 4147 
L 1259 2394 
L 2053 2394 
Q 2494 2394 2734 2622 
Q 2975 2850 2975 3272 
Q 2975 3691 2734 3919 
Q 2494 4147 2053 4147 
L 1259 4147 
z
M 628 4666 
L 2053 4666 
Q 2838 4666 3239 4311 
Q 3641 3956 3641 3272 
Q 3641 2581 3239 2228 
Q 2838 1875 2053 1875 
L 1259 1875 
L 1259 0 
L 628 0 
L 628 4666 
z
" transform="scale(0.015625)"/>
      <path id="DejaVuSans-72" d="M 2631 2963 
Q 2534 3019 2420 3045 
Q 2306 3072 2169 3072 
Q 1681 3072 1420 2755 
Q 1159 2438 1159 1844 
L 1159 0 
L 581 0 
L 581 3500 
L 1159 3500 
L 1159 2956 
Q 1341 3275 1631 3429 
Q 1922 3584 2338 3584 
Q 2397 3584 2469 3576 
Q 2541 3569 2628 3553 
L 2631 2963 
z
" transform="scale(0.015625)"/>
      <path id="DejaVuSans-66" d="M 2375 4863 
L 2375 4384 
L 1825 4384 
Q 1516 4384 1395 4259 
Q 1275 4134 1275 3809 
L 1275 3500 
L 2222 3500 
L 2222 3053 
L 1275 3053 
L 1275 0 
L 697 0 
L 697 3053 
L 147 3053 
L 147 3500 
L 697 3500 
L 697 3744 
Q 697 4328 969 4595 
Q 1241 4863 1831 4863 
L 2375 4863 
z
" transform="scale(0.015625)"/>
      <path id="DejaVuSans-61" d="M 2194 1759 
Q 1497 1759 1228 1600 
Q 959 1441 959 1056 
Q 959 750 1161 570 
Q 1363 391 1709 391 
Q 2188 391 2477 730 
Q 2766 1069 2766 1631 
L 2766 1759 
L 2194 1759 
z
M 3341 1997 
L 3341 0 
L 2766 0 
L 2766 531 
Q 2569 213 2275 61 
Q 1981 -91 1556 -91 
Q 1019 -91 701 211 
Q 384 513 384 1019 
Q 384 1609 779 1909 
Q 1175 2209 1959 2209 
L 2766 2209 
L 2766 2266 
Q 2766 2663 2505 2880 
Q 2244 3097 1772 3097 
Q 1472 3097 1187 3025 
Q 903 2953 641 2809 
L 641 3341 
Q 956 3463 1253 3523 
Q 1550 3584 1831 3584 
Q 2591 3584 2966 3190 
Q 3341 2797 3341 1997 
z
" transform="scale(0.015625)"/>
      <path id="DejaVuSans-6e" d="M 3513 2113 
L 3513 0 
L 2938 0 
L 2938 2094 
Q 2938 2591 2744 2837 
Q 2550 3084 2163 3084 
Q 1697 3084 1428 2787 
Q 1159 2491 1159 1978 
L 1159 0 
L 581 0 
L 581 3500 
L 1159 3500 
L 1159 2956 
Q 1366 3272 1645 3428 
Q 1925 3584 2291 3584 
Q 2894 3584 3203 3211 
Q 3513 2838 3513 2113 
z
" transform="scale(0.015625)"/>
      <path id="DejaVuSans-63" d="M 3122 3366 
L 3122 2828 
Q 2878 2963 2633 3030 
Q 2388 3097 2138 3097 
Q 1578 3097 1268 2742 
Q 959 2388 959 1747 
Q 959 1106 1268 751 
Q 1578 397 2138 397 
Q 2388 397 2633 464 
Q 2878 531 3122 666 
L 3122 134 
Q 2881 22 2623 -34 
Q 2366 -91 2075 -91 
Q 1284 -91 818 406 
Q 353 903 353 1747 
Q 353 2603 823 3093 
Q 1294 3584 2113 3584 
Q 2378 3584 2631 3529 
Q 2884 3475 3122 3366 
z
" transform="scale(0.015625)"/>
     </defs>
     <use xlink:href="#DejaVuSans-4d"/>
     <use xlink:href="#DejaVuSans-6f" x="86.279297"/>
     <use xlink:href="#DejaVuSans-64" x="147.460938"/>
     <use xlink:href="#DejaVuSans-65" x="210.9375"/>
     <use xlink:href="#DejaVuSans-6c" x="272.460938"/>
     <use xlink:href="#DejaVuSans-20" x="300.244141"/>
     <use xlink:href="#DejaVuSans-50" x="332.03125"/>
     <use xlink:href="#DejaVuSans-65" x="388.708984"/>
     <use xlink:href="#DejaVuSans-72" x="450.232422"/>
     <use xlink:href="#DejaVuSans-66" x="491.345703"/>
     <use xlink:href="#DejaVuSans-6f" x="526.550781"/>
     <use xlink:href="#DejaVuSans-72" x="587.732422"/>
     <use xlink:href="#DejaVuSans-6d" x="627.095703"/>
     <use xlink:href="#DejaVuSans-61" x="724.507812"/>
     <use xlink:href="#DejaVuSans-6e" x="785.787109"/>
     <use xlink:href="#DejaVuSans-63" x="849.166016"/>
     <use xlink:href="#DejaVuSans-65" x="904.146484"/>
    </g>
   </g>
  </g>
  <g id="legend_1">
   <g id="patch_7">
    <path d="M 579.105312 40.1125 
L 699.064687 40.1125 
Q 701.064687 40.1125 701.064687 38.1125 
L 701.064687 9.2 
Q 701.064687 7.2 699.064687 7.2 
L 579.105312 7.2 
Q 577.105312 7.2 577.105312 9.2 
L 577.105312 38.1125 
Q 577.105312 40.1125 579.105312 40.1125 
z
" style="fill: #ffffff; opacity: 0.8; stroke: #cccccc; stroke-linejoin: miter"/>
   </g>
   <g id="line2d_16">
    <path d="M 581.105312 15.298437 
L 591.105312 15.298437 
L 601.105312 15.298437 
" style="fill: none; stroke: #1f77b4; stroke-width: 1.5; stroke-linecap: square"/>
   </g>
   <g id="text_17">
    <!-- True Output (y_p) -->
    <g transform="translate(609.105312 18.798437) scale(0.1 -0.1)">
     <defs>
      <path id="DejaVuSans-28" d="M 1984 4856 
Q 1566 4138 1362 3434 
Q 1159 2731 1159 2009 
Q 1159 1288 1364 580 
Q 1569 -128 1984 -844 
L 1484 -844 
Q 1016 -109 783 600 
Q 550 1309 550 2009 
Q 550 2706 781 3412 
Q 1013 4119 1484 4856 
L 1984 4856 
z
" transform="scale(0.015625)"/>
      <path id="DejaVuSans-79" d="M 2059 -325 
Q 1816 -950 1584 -1140 
Q 1353 -1331 966 -1331 
L 506 -1331 
L 506 -850 
L 844 -850 
Q 1081 -850 1212 -737 
Q 1344 -625 1503 -206 
L 1606 56 
L 191 3500 
L 800 3500 
L 1894 763 
L 2988 3500 
L 3597 3500 
L 2059 -325 
z
" transform="scale(0.015625)"/>
      <path id="DejaVuSans-5f" d="M 3263 -1063 
L 3263 -1509 
L -63 -1509 
L -63 -1063 
L 3263 -1063 
z
" transform="scale(0.015625)"/>
      <path id="DejaVuSans-29" d="M 513 4856 
L 1013 4856 
Q 1481 4119 1714 3412 
Q 1947 2706 1947 2009 
Q 1947 1309 1714 600 
Q 1481 -109 1013 -844 
L 513 -844 
Q 928 -128 1133 580 
Q 1338 1288 1338 2009 
Q 1338 2731 1133 3434 
Q 928 4138 513 4856 
z
" transform="scale(0.015625)"/>
     </defs>
     <use xlink:href="#DejaVuSans-54"/>
     <use xlink:href="#DejaVuSans-72" x="46.333984"/>
     <use xlink:href="#DejaVuSans-75" x="87.447266"/>
     <use xlink:href="#DejaVuSans-65" x="150.826172"/>
     <use xlink:href="#DejaVuSans-20" x="212.349609"/>
     <use xlink:href="#DejaVuSans-4f" x="244.136719"/>
     <use xlink:href="#DejaVuSans-75" x="322.847656"/>
     <use xlink:href="#DejaVuSans-74" x="386.226562"/>
     <use xlink:href="#DejaVuSans-70" x="425.435547"/>
     <use xlink:href="#DejaVuSans-75" x="488.912109"/>
     <use xlink:href="#DejaVuSans-74" x="552.291016"/>
     <use xlink:href="#DejaVuSans-20" x="591.5"/>
     <use xlink:href="#DejaVuSans-28" x="623.287109"/>
     <use xlink:href="#DejaVuSans-79" x="662.300781"/>
     <use xlink:href="#DejaVuSans-5f" x="721.480469"/>
     <use xlink:href="#DejaVuSans-70" x="771.480469"/>
     <use xlink:href="#DejaVuSans-29" x="834.957031"/>
    </g>
   </g>
   <g id="line2d_17">
    <path d="M 581.105312 30.254687 
L 591.105312 30.254687 
L 601.105312 30.254687 
" style="fill: none; stroke-dasharray: 5.55,2.4; stroke-dashoffset: 0; stroke: #ff7f0e; stroke-width: 1.5"/>
   </g>
   <g id="text_18">
    <!-- Prediction (y_hat) -->
    <g transform="translate(609.105312 33.754687) scale(0.1 -0.1)">
     <defs>
      <path id="DejaVuSans-68" d="M 3513 2113 
L 3513 0 
L 2938 0 
L 2938 2094 
Q 2938 2591 2744 2837 
Q 2550 3084 2163 3084 
Q 1697 3084 1428 2787 
Q 1159 2491 1159 1978 
L 1159 0 
L 581 0 
L 581 4863 
L 1159 4863 
L 1159 2956 
Q 1366 3272 1645 3428 
Q 1925 3584 2291 3584 
Q 2894 3584 3203 3211 
Q 3513 2838 3513 2113 
z
" transform="scale(0.015625)"/>
     </defs>
     <use xlink:href="#DejaVuSans-50"/>
     <use xlink:href="#DejaVuSans-72" x="58.552734"/>
     <use xlink:href="#DejaVuSans-65" x="97.416016"/>
     <use xlink:href="#DejaVuSans-64" x="158.939453"/>
     <use xlink:href="#DejaVuSans-69" x="222.416016"/>
     <use xlink:href="#DejaVuSans-63" x="250.199219"/>
     <use xlink:href="#DejaVuSans-74" x="305.179688"/>
     <use xlink:href="#DejaVuSans-69" x="344.388672"/>
     <use xlink:href="#DejaVuSans-6f" x="372.171875"/>
     <use xlink:href="#DejaVuSans-6e" x="433.353516"/>
     <use xlink:href="#DejaVuSans-20" x="496.732422"/>
     <use xlink:href="#DejaVuSans-28" x="528.519531"/>
     <use xlink:href="#DejaVuSans-79" x="567.533203"/>
     <use xlink:href="#DejaVuSans-5f" x="626.712891"/>
     <use xlink:href="#DejaVuSans-68" x="676.712891"/>
     <use xlink:href="#DejaVuSans-61" x="740.091797"/>
     <use xlink:href="#DejaVuSans-74" x="801.371094"/>
     <use xlink:href="#DejaVuSans-29" x="840.580078"/>
    </g>
   </g>
  </g>
 </g>
 <defs>
  <clipPath id="p1e3abbd643">
   <rect x="55.345313" y="29.08" width="496.51" height="219.16"/>
  </clipPath>
 </defs>
</svg>
