<?xml version="1.0" encoding="utf-8" standalone="no"?>
<!DOCTYPE svg PUBLIC "-//W3C//DTD SVG 1.1//EN"
  "http://www.w3.org/Graphics/SVG/1.1/DTD/svg11.dtd">
<svg xmlns:xlink="http://www.w3.org/1999/xlink" width="576pt" height="576pt" viewBox="0 0 576 576" xmlns="http://www.w3.org/2000/svg" version="1.1">
 <metadata>
  <rdf:RDF xmlns:dc="http://purl.org/dc/elements/1.1/" xmlns:cc="http://creativecommons.org/ns#" xmlns:rdf="http://www.w3.org/1999/02/22-rdf-syntax-ns#">
   <cc:Work>
    <dc:type rdf:resource="http://purl.org/dc/dcmitype/StillImage"/>
    <dc:date>2024-11-10T13:50:08.128653</dc:date>
    <dc:format>image/svg+xml</dc:format>
    <dc:creator>
     <cc:Agent>
      <dc:title>Matplotlib v3.9.2, https://matplotlib.org/</dc:title>
     </cc:Agent>
    </dc:creator>
   </cc:Work>
  </rdf:RDF>
 </metadata>
 <defs>
  <style type="text/css">*{stroke-linejoin: round; stroke-linecap: butt}</style>
 </defs>
 <g id="figure_1">
  <g id="patch_1">
   <path d="M 0 576 
L 576 576 
L 576 0 
L 0 0 
z
" style="fill: #ffffff"/>
  </g>
  <g id="axes_1">
   <g id="patch_2">
    <path d="M 62.39 270.36 
L 555.75 270.36 
L 555.75 50.64 
L 62.39 50.64 
z
" style="fill: #ffffff"/>
   </g>
   <g id="matplotlib.axis_1">
    <g id="xtick_1">
     <g id="line2d_1">
      <defs>
       <path id="m5199d9ddf7" d="M 0 0 
L 0 3.5 
" style="stroke: #000000; stroke-width: 0.8"/>
      </defs>
      <g>
       <use xlink:href="#m5199d9ddf7" x="62.39" y="270.36" style="stroke: #000000; stroke-width: 0.8"/>
      </g>
     </g>
     <g id="text_1">
      <!-- 0 -->
      <g transform="translate(59.20875 284.958438) scale(0.1 -0.1)">
       <defs>
        <path id="DejaVuSans-30" d="M 2034 4250 
Q 1547 4250 1301 3770 
Q 1056 3291 1056 2328 
Q 1056 1369 1301 889 
Q 1547 409 2034 409 
Q 2525 409 2770 889 
Q 3016 1369 3016 2328 
Q 3016 3291 2770 3770 
Q 2525 4250 2034 4250 
z
M 2034 4750 
Q 2819 4750 3233 4129 
Q 3647 3509 3647 2328 
Q 3647 1150 3233 529 
Q 2819 -91 2034 -91 
Q 1250 -91 836 529 
Q 422 1150 422 2328 
Q 422 3509 836 4129 
Q 1250 4750 2034 4750 
z
" transform="scale(0.015625)"/>
       </defs>
       <use xlink:href="#DejaVuSans-30"/>
      </g>
     </g>
    </g>
    <g id="xtick_2">
     <g id="line2d_2">
      <g>
       <use xlink:href="#m5199d9ddf7" x="132.87" y="270.36" style="stroke: #000000; stroke-width: 0.8"/>
      </g>
     </g>
     <g id="text_2">
      <!-- 100 -->
      <g transform="translate(123.32625 284.958438) scale(0.1 -0.1)">
       <defs>
        <path id="DejaVuSans-31" d="M 794 531 
L 1825 531 
L 1825 4091 
L 703 3866 
L 703 4441 
L 1819 4666 
L 2450 4666 
L 2450 531 
L 3481 531 
L 3481 0 
L 794 0 
L 794 531 
z
" transform="scale(0.015625)"/>
       </defs>
       <use xlink:href="#DejaVuSans-31"/>
       <use xlink:href="#DejaVuSans-30" x="63.623047"/>
       <use xlink:href="#DejaVuSans-30" x="127.246094"/>
      </g>
     </g>
    </g>
    <g id="xtick_3">
     <g id="line2d_3">
      <g>
       <use xlink:href="#m5199d9ddf7" x="203.35" y="270.36" style="stroke: #000000; stroke-width: 0.8"/>
      </g>
     </g>
     <g id="text_3">
      <!-- 200 -->
      <g transform="translate(193.80625 284.958438) scale(0.1 -0.1)">
       <defs>
        <path id="DejaVuSans-32" d="M 1228 531 
L 3431 531 
L 3431 0 
L 469 0 
L 469 531 
Q 828 903 1448 1529 
Q 2069 2156 2228 2338 
Q 2531 2678 2651 2914 
Q 2772 3150 2772 3378 
Q 2772 3750 2511 3984 
Q 2250 4219 1831 4219 
Q 1534 4219 1204 4116 
Q 875 4013 500 3803 
L 500 4441 
Q 881 4594 1212 4672 
Q 1544 4750 1819 4750 
Q 2544 4750 2975 4387 
Q 3406 4025 3406 3419 
Q 3406 3131 3298 2873 
Q 3191 2616 2906 2266 
Q 2828 2175 2409 1742 
Q 1991 1309 1228 531 
z
" transform="scale(0.015625)"/>
       </defs>
       <use xlink:href="#DejaVuSans-32"/>
       <use xlink:href="#DejaVuSans-30" x="63.623047"/>
       <use xlink:href="#DejaVuSans-30" x="127.246094"/>
      </g>
     </g>
    </g>
    <g id="xtick_4">
     <g id="line2d_4">
      <g>
       <use xlink:href="#m5199d9ddf7" x="273.83" y="270.36" style="stroke: #000000; stroke-width: 0.8"/>
      </g>
     </g>
     <g id="text_4">
      <!-- 300 -->
      <g transform="translate(264.28625 284.958438) scale(0.1 -0.1)">
       <defs>
        <path id="DejaVuSans-33" d="M 2597 2516 
Q 3050 2419 3304 2112 
Q 3559 1806 3559 1356 
Q 3559 666 3084 287 
Q 2609 -91 1734 -91 
Q 1441 -91 1130 -33 
Q 819 25 488 141 
L 488 750 
Q 750 597 1062 519 
Q 1375 441 1716 441 
Q 2309 441 2620 675 
Q 2931 909 2931 1356 
Q 2931 1769 2642 2001 
Q 2353 2234 1838 2234 
L 1294 2234 
L 1294 2753 
L 1863 2753 
Q 2328 2753 2575 2939 
Q 2822 3125 2822 3475 
Q 2822 3834 2567 4026 
Q 2313 4219 1838 4219 
Q 1578 4219 1281 4162 
Q 984 4106 628 3988 
L 628 4550 
Q 988 4650 1302 4700 
Q 1616 4750 1894 4750 
Q 2613 4750 3031 4423 
Q 3450 4097 3450 3541 
Q 3450 3153 3228 2886 
Q 3006 2619 2597 2516 
z
" transform="scale(0.015625)"/>
       </defs>
       <use xlink:href="#DejaVuSans-33"/>
       <use xlink:href="#DejaVuSans-30" x="63.623047"/>
       <use xlink:href="#DejaVuSans-30" x="127.246094"/>
      </g>
     </g>
    </g>
    <g id="xtick_5">
     <g id="line2d_5">
      <g>
       <use xlink:href="#m5199d9ddf7" x="344.31" y="270.36" style="stroke: #000000; stroke-width: 0.8"/>
      </g>
     </g>
     <g id="text_5">
      <!-- 400 -->
      <g transform="translate(334.76625 284.958438) scale(0.1 -0.1)">
       <defs>
        <path id="DejaVuSans-34" d="M 2419 4116 
L 825 1625 
L 2419 1625 
L 2419 4116 
z
M 2253 4666 
L 3047 4666 
L 3047 1625 
L 3713 1625 
L 3713 1100 
L 3047 1100 
L 3047 0 
L 2419 0 
L 2419 1100 
L 313 1100 
L 313 1709 
L 2253 4666 
z
" transform="scale(0.015625)"/>
       </defs>
       <use xlink:href="#DejaVuSans-34"/>
       <use xlink:href="#DejaVuSans-30" x="63.623047"/>
       <use xlink:href="#DejaVuSans-30" x="127.246094"/>
      </g>
     </g>
    </g>
    <g id="xtick_6">
     <g id="line2d_6">
      <g>
       <use xlink:href="#m5199d9ddf7" x="414.79" y="270.36" style="stroke: #000000; stroke-width: 0.8"/>
      </g>
     </g>
     <g id="text_6">
      <!-- 500 -->
      <g transform="translate(405.24625 284.958438) scale(0.1 -0.1)">
       <defs>
        <path id="DejaVuSans-35" d="M 691 4666 
L 3169 4666 
L 3169 4134 
L 1269 4134 
L 1269 2991 
Q 1406 3038 1543 3061 
Q 1681 3084 1819 3084 
Q 2600 3084 3056 2656 
Q 3513 2228 3513 1497 
Q 3513 744 3044 326 
Q 2575 -91 1722 -91 
Q 1428 -91 1123 -41 
Q 819 9 494 109 
L 494 744 
Q 775 591 1075 516 
Q 1375 441 1709 441 
Q 2250 441 2565 725 
Q 2881 1009 2881 1497 
Q 2881 1984 2565 2268 
Q 2250 2553 1709 2553 
Q 1456 2553 1204 2497 
Q 953 2441 691 2322 
L 691 4666 
z
" transform="scale(0.015625)"/>
       </defs>
       <use xlink:href="#DejaVuSans-35"/>
       <use xlink:href="#DejaVuSans-30" x="63.623047"/>
       <use xlink:href="#DejaVuSans-30" x="127.246094"/>
      </g>
     </g>
    </g>
    <g id="xtick_7">
     <g id="line2d_7">
      <g>
       <use xlink:href="#m5199d9ddf7" x="485.27" y="270.36" style="stroke: #000000; stroke-width: 0.8"/>
      </g>
     </g>
     <g id="text_7">
      <!-- 600 -->
      <g transform="translate(475.72625 284.958438) scale(0.1 -0.1)">
       <defs>
        <path id="DejaVuSans-36" d="M 2113 2584 
Q 1688 2584 1439 2293 
Q 1191 2003 1191 1497 
Q 1191 994 1439 701 
Q 1688 409 2113 409 
Q 2538 409 2786 701 
Q 3034 994 3034 1497 
Q 3034 2003 2786 2293 
Q 2538 2584 2113 2584 
z
M 3366 4563 
L 3366 3988 
Q 3128 4100 2886 4159 
Q 2644 4219 2406 4219 
Q 1781 4219 1451 3797 
Q 1122 3375 1075 2522 
Q 1259 2794 1537 2939 
Q 1816 3084 2150 3084 
Q 2853 3084 3261 2657 
Q 3669 2231 3669 1497 
Q 3669 778 3244 343 
Q 2819 -91 2113 -91 
Q 1303 -91 875 529 
Q 447 1150 447 2328 
Q 447 3434 972 4092 
Q 1497 4750 2381 4750 
Q 2619 4750 2861 4703 
Q 3103 4656 3366 4563 
z
" transform="scale(0.015625)"/>
       </defs>
       <use xlink:href="#DejaVuSans-36"/>
       <use xlink:href="#DejaVuSans-30" x="63.623047"/>
       <use xlink:href="#DejaVuSans-30" x="127.246094"/>
      </g>
     </g>
    </g>
    <g id="xtick_8">
     <g id="line2d_8">
      <g>
       <use xlink:href="#m5199d9ddf7" x="555.75" y="270.36" style="stroke: #000000; stroke-width: 0.8"/>
      </g>
     </g>
     <g id="text_8">
      <!-- 700 -->
      <g transform="translate(546.20625 284.958438) scale(0.1 -0.1)">
       <defs>
        <path id="DejaVuSans-37" d="M 525 4666 
L 3525 4666 
L 3525 4397 
L 1831 0 
L 1172 0 
L 2766 4134 
L 525 4134 
L 525 4666 
z
" transform="scale(0.015625)"/>
       </defs>
       <use xlink:href="#DejaVuSans-37"/>
       <use xlink:href="#DejaVuSans-30" x="63.623047"/>
       <use xlink:href="#DejaVuSans-30" x="127.246094"/>
      </g>
     </g>
    </g>
   </g>
   <g id="matplotlib.axis_2">
    <g id="ytick_1">
     <g id="line2d_9">
      <defs>
       <path id="m151c303cfd" d="M 0 0 
L -3.5 0 
" style="stroke: #000000; stroke-width: 0.8"/>
      </defs>
      <g>
       <use xlink:href="#m151c303cfd" x="62.39" y="241.912622" style="stroke: #000000; stroke-width: 0.8"/>
      </g>
     </g>
     <g id="text_9">
      <!-- −4 -->
      <g transform="translate(40.647813 245.711841) scale(0.1 -0.1)">
       <defs>
        <path id="DejaVuSans-2212" d="M 678 2272 
L 4684 2272 
L 4684 1741 
L 678 1741 
L 678 2272 
z
" transform="scale(0.015625)"/>
       </defs>
       <use xlink:href="#DejaVuSans-2212"/>
       <use xlink:href="#DejaVuSans-34" x="83.789062"/>
      </g>
     </g>
    </g>
    <g id="ytick_2">
     <g id="line2d_10">
      <g>
       <use xlink:href="#m151c303cfd" x="62.39" y="201.752444" style="stroke: #000000; stroke-width: 0.8"/>
      </g>
     </g>
     <g id="text_10">
      <!-- −2 -->
      <g transform="translate(40.647813 205.551663) scale(0.1 -0.1)">
       <use xlink:href="#DejaVuSans-2212"/>
       <use xlink:href="#DejaVuSans-32" x="83.789062"/>
      </g>
     </g>
    </g>
    <g id="ytick_3">
     <g id="line2d_11">
      <g>
       <use xlink:href="#m151c303cfd" x="62.39" y="161.592266" style="stroke: #000000; stroke-width: 0.8"/>
      </g>
     </g>
     <g id="text_11">
      <!-- 0 -->
      <g transform="translate(49.0275 165.391485) scale(0.1 -0.1)">
       <use xlink:href="#DejaVuSans-30"/>
      </g>
     </g>
    </g>
    <g id="ytick_4">
     <g id="line2d_12">
      <g>
       <use xlink:href="#m151c303cfd" x="62.39" y="121.432088" style="stroke: #000000; stroke-width: 0.8"/>
      </g>
     </g>
     <g id="text_12">
      <!-- 2 -->
      <g transform="translate(49.0275 125.231307) scale(0.1 -0.1)">
       <use xlink:href="#DejaVuSans-32"/>
      </g>
     </g>
    </g>
    <g id="ytick_5">
     <g id="line2d_13">
      <g>
       <use xlink:href="#m151c303cfd" x="62.39" y="81.27191" style="stroke: #000000; stroke-width: 0.8"/>
      </g>
     </g>
     <g id="text_13">
      <!-- 4 -->
      <g transform="translate(49.0275 85.071129) scale(0.1 -0.1)">
       <use xlink:href="#DejaVuSans-34"/>
      </g>
     </g>
    </g>
    <g id="text_14">
     <!-- y_p -->
     <g transform="translate(34.29 169.133594) rotate(-90) scale(0.1 -0.1)">
      <defs>
       <path id="DejaVuSans-79" d="M 2059 -325 
Q 1816 -950 1584 -1140 
Q 1353 -1331 966 -1331 
L 506 -1331 
L 506 -850 
L 844 -850 
Q 1081 -850 1212 -737 
Q 1344 -625 1503 -206 
L 1606 56 
L 191 3500 
L 800 3500 
L 1894 763 
L 2988 3500 
L 3597 3500 
L 2059 -325 
z
" transform="scale(0.015625)"/>
       <path id="DejaVuSans-5f" d="M 3263 -1063 
L 3263 -1509 
L -63 -1509 
L -63 -1063 
L 3263 -1063 
z
" transform="scale(0.015625)"/>
       <path id="DejaVuSans-70" d="M 1159 525 
L 1159 -1331 
L 581 -1331 
L 581 3500 
L 1159 3500 
L 1159 2969 
Q 1341 3281 1617 3432 
Q 1894 3584 2278 3584 
Q 2916 3584 3314 3078 
Q 3713 2572 3713 1747 
Q 3713 922 3314 415 
Q 2916 -91 2278 -91 
Q 1894 -91 1617 61 
Q 1341 213 1159 525 
z
M 3116 1747 
Q 3116 2381 2855 2742 
Q 2594 3103 2138 3103 
Q 1681 3103 1420 2742 
Q 1159 2381 1159 1747 
Q 1159 1113 1420 752 
Q 1681 391 2138 391 
Q 2594 391 2855 752 
Q 3116 1113 3116 1747 
z
" transform="scale(0.015625)"/>
      </defs>
      <use xlink:href="#DejaVuSans-79"/>
      <use xlink:href="#DejaVuSans-5f" x="59.179688"/>
      <use xlink:href="#DejaVuSans-70" x="109.179688"/>
     </g>
    </g>
   </g>
   <g id="LineCollection_1">
    <path d="M 273.83 260.372727 
L 273.83 60.627273 
" clip-path="url(#p441ad184c8)" style="fill: none; stroke-dasharray: 1.5,2.475; stroke-dashoffset: 0; stroke: #ff0000; stroke-opacity: 0.3; stroke-width: 1.5"/>
   </g>
   <g id="LineCollection_2">
    <path d="M 414.79 260.372727 
L 414.79 60.627273 
" clip-path="url(#p441ad184c8)" style="fill: none; stroke-dasharray: 1.5,2.475; stroke-dashoffset: 0; stroke: #ff0000; stroke-opacity: 0.3; stroke-width: 1.5"/>
   </g>
   <g id="line2d_14">
    <path d="M 62.39 161.592266 
L 63.0948 161.592266 
L 63.7996 158.456395 
L 64.5044 154.585123 
L 65.914 142.980234 
L 68.0284 123.941698 
L 69.438 113.872178 
L 70.1428 110.039646 
L 70.8476 106.966934 
L 71.5524 104.577568 
L 72.2572 102.71955 
L 73.6668 100.04279 
L 75.7812 97.016693 
L 77.8956 94.325707 
L 79.3052 92.85942 
L 82.1244 90.379755 
L 82.8292 89.576942 
L 83.534 88.579616 
L 84.2388 87.338801 
L 84.9436 85.823099 
L 86.3532 81.952496 
L 87.7628 77.171017 
L 90.582 67.141573 
L 91.9916 63.300367 
L 92.6964 61.946956 
L 93.4012 61.044227 
L 94.106 60.627273 
L 94.8108 60.715369 
L 95.5156 61.312641 
L 96.2204 62.409336 
L 96.9252 63.983532 
L 97.63 66.00308 
L 99.0396 71.210774 
L 100.4492 77.646911 
L 102.5636 88.664538 
L 106.0876 107.212927 
L 107.4972 113.637905 
L 108.9068 119.037842 
L 110.3164 123.158222 
L 111.0212 124.668665 
L 111.726 125.78015 
L 112.4308 126.471899 
L 113.1356 126.726596 
L 113.8404 126.531069 
L 114.5452 125.877105 
L 115.25 124.762401 
L 115.9548 123.191598 
L 116.6596 121.177339 
L 118.0692 115.915118 
L 119.4788 109.272017 
L 121.5932 97.782269 
L 123.7076 86.427363 
L 125.1172 80.102722 
L 125.822 77.53514 
L 126.5268 75.426951 
L 127.2316 73.798796 
L 127.9364 72.647561 
L 128.6412 71.946284 
L 129.346 71.646111 
L 130.0508 71.680355 
L 130.7556 71.970454 
L 132.1652 72.989481 
L 134.2796 74.625056 
L 135.6892 75.444408 
L 139.918 77.504592 
L 140.6228 77.622616 
L 141.3276 77.482523 
L 142.0324 76.984445 
L 142.7372 76.048547 
L 143.442 74.636965 
L 144.1468 72.773778 
L 146.966 63.983787 
L 147.6708 62.835337 
L 148.3756 62.770469 
L 149.0804 64.08152 
L 149.7852 66.979582 
L 150.49 71.566142 
L 151.1948 77.816818 
L 151.8996 85.579829 
L 153.3092 104.494068 
L 156.1284 145.114085 
L 157.538 161.59357 
L 158.9476 174.146717 
L 160.3572 183.372308 
L 161.7668 190.43771 
L 163.1764 196.369509 
L 165.2908 204.139222 
L 166.7004 208.583855 
L 168.11 212.39207 
L 171.634 221.058372 
L 173.0436 225.417499 
L 174.4532 230.701118 
L 176.5676 239.873167 
L 178.682 248.82486 
L 180.0916 253.519996 
L 180.7964 255.261706 
L 181.5012 256.529042 
L 182.206 257.288358 
L 182.9108 257.521735 
L 183.6156 257.226323 
L 184.3204 256.413068 
L 185.0252 255.105021 
L 185.73 253.335382 
L 186.4348 251.145466 
L 187.8444 245.698715 
L 189.254 239.185065 
L 195.5972 207.953504 
L 197.0068 202.742041 
L 198.4164 198.787836 
L 199.1212 197.352956 
L 199.826 196.312424 
L 200.5308 195.6873 
L 201.2356 195.495161 
L 201.9404 195.749431 
L 202.6452 196.458553 
L 203.35 197.625049 
L 204.0548 199.244485 
L 204.7596 201.304409 
L 206.1692 206.649772 
L 207.5788 213.366179 
L 210.398 228.896978 
L 211.8076 236.3827 
L 213.2172 242.751642 
L 213.922 245.339369 
L 214.6268 247.466474 
L 215.3316 249.11239 
L 216.0364 250.280302 
L 216.7412 250.99724 
L 217.446 251.312117 
L 218.1508 251.291681 
L 218.8556 251.014547 
L 220.2652 250.019126 
L 222.3796 248.413827 
L 223.7892 247.611706 
L 228.018 245.59192 
L 228.7228 245.479267 
L 229.4276 245.624403 
L 230.1324 246.127215 
L 230.8372 247.06756 
L 231.542 248.483317 
L 232.2468 250.350423 
L 235.066 259.153845 
L 235.7708 260.305156 
L 236.4756 260.372711 
L 237.1804 259.064184 
L 237.8852 256.168491 
L 238.59 251.584156 
L 239.2948 245.335568 
L 239.9996 237.574519 
L 241.4092 218.66385 
L 244.2284 178.049758 
L 245.638 161.57272 
L 247.0476 149.021732 
L 248.4572 139.798043 
L 249.8668 132.734319 
L 251.2764 126.803999 
L 253.3908 119.036184 
L 254.8004 114.59263 
L 256.21 110.785367 
L 259.734 102.120982 
L 261.1436 97.762467 
L 262.5532 92.479389 
L 264.6676 83.308032 
L 266.782 74.356913 
L 268.1916 69.662104 
L 268.8964 67.920542 
L 269.6012 66.653345 
L 270.306 65.89416 
L 271.0108 65.660906 
L 271.7156 65.956434 
L 272.4204 66.769796 
L 273.1252 68.077946 
L 273.83 69.84768 
L 274.5348 72.037686 
L 275.9444 77.4846 
L 277.354 83.998394 
L 283.6972 115.230419 
L 285.1068 120.441955 
L 286.5164 124.396223 
L 287.2212 125.831132 
L 287.926 126.871691 
L 288.6308 127.496841 
L 289.3356 127.689003 
L 290.0404 127.434756 
L 290.7452 126.725655 
L 291.45 125.559179 
L 292.1548 123.939761 
L 292.8596 121.879854 
L 294.2692 116.534523 
L 295.6788 109.818144 
L 298.498 94.287392 
L 299.9076 86.80169 
L 301.3172 80.432764 
L 302.022 77.845045 
L 302.7268 75.717947 
L 303.4316 74.072038 
L 304.1364 72.904132 
L 304.8412 72.187201 
L 305.546 71.872329 
L 306.2508 71.89277 
L 306.9556 72.169909 
L 308.3652 73.165339 
L 310.4796 74.77065 
L 311.8892 75.572777 
L 316.118 77.592579 
L 316.8228 77.705234 
L 317.5276 77.5601 
L 318.2324 77.057289 
L 318.9372 76.116947 
L 319.642 74.701191 
L 320.3468 72.834086 
L 323.166 64.030669 
L 323.8708 62.87936 
L 324.5756 62.811805 
L 325.2804 64.120334 
L 325.9852 67.016028 
L 326.69 71.600364 
L 327.3948 77.848952 
L 328.0996 85.610002 
L 329.5092 104.520672 
L 332.3284 145.134766 
L 333.738 161.611805 
L 335.1476 174.162795 
L 336.5572 183.386484 
L 337.9668 190.450208 
L 339.3764 196.380529 
L 341.4908 204.148345 
L 342.9004 208.591899 
L 344.31 212.399163 
L 347.834 221.063549 
L 349.2436 225.422064 
L 350.6532 230.705142 
L 352.7676 239.876499 
L 354.882 248.827619 
L 356.2916 253.522428 
L 356.9964 255.26399 
L 357.7012 256.531187 
L 358.406 257.290372 
L 359.1108 257.523626 
L 359.8156 257.228098 
L 360.5204 256.414736 
L 361.2252 255.106586 
L 361.93 253.336852 
L 362.6348 251.146846 
L 364.0444 245.699932 
L 365.454 239.186138 
L 371.7972 207.954113 
L 373.2068 202.742577 
L 374.6164 198.788309 
L 375.3212 197.3534 
L 376.026 196.312842 
L 376.7308 195.687691 
L 377.4356 195.495529 
L 378.1404 195.749776 
L 378.8452 196.458877 
L 379.55 197.625353 
L 380.2548 199.244771 
L 380.9596 201.304678 
L 382.3692 206.650009 
L 383.7788 213.366388 
L 386.598 228.89714 
L 388.0076 236.382843 
L 389.4172 242.751768 
L 390.122 245.339488 
L 390.8268 247.466585 
L 391.5316 249.112494 
L 392.2364 250.2804 
L 392.9412 250.997332 
L 393.646 251.312204 
L 394.3508 251.291762 
L 395.0556 251.014624 
L 396.4652 250.019193 
L 398.5796 248.413883 
L 399.9892 247.611755 
L 404.218 245.591954 
L 404.9228 245.479298 
L 405.6276 245.624432 
L 406.3324 246.127243 
L 407.0372 247.067586 
L 407.742 248.483341 
L 408.4468 250.350447 
L 411.266 259.153863 
L 411.9708 260.305173 
L 412.6756 260.372727 
L 413.3804 259.064198 
L 414.0852 256.168505 
L 414.79 251.584169 
L 415.4948 245.33558 
L 416.1996 237.57453 
L 417.6092 218.66386 
L 420.4284 178.049766 
L 421.838 161.572727 
L 423.2476 149.021738 
L 424.6572 139.798048 
L 426.0668 132.734324 
L 427.4764 126.804003 
L 429.5908 119.036187 
L 431.0004 114.592633 
L 432.41 110.78537 
L 435.934 102.120984 
L 437.3436 97.762468 
L 438.7532 92.47939 
L 440.8676 83.308033 
L 442.982 74.356914 
L 444.3916 69.662104 
L 445.0964 67.920542 
L 445.8012 66.653346 
L 446.506 65.89416 
L 447.2108 65.660906 
L 447.9156 65.956434 
L 448.6204 66.769797 
L 449.3252 68.077946 
L 450.03 69.847681 
L 450.7348 72.037686 
L 452.1444 77.484601 
L 453.554 83.998394 
L 459.8972 115.23042 
L 461.3068 120.441955 
L 462.7164 124.396224 
L 463.4212 125.831132 
L 464.126 126.871691 
L 464.8308 127.496841 
L 465.5356 127.689004 
L 466.2404 127.434756 
L 466.9452 126.725655 
L 467.65 125.559179 
L 468.3548 123.939761 
L 469.0596 121.879854 
L 470.4692 116.534523 
L 471.8788 109.818144 
L 474.698 94.287392 
L 476.1076 86.80169 
L 477.5172 80.432764 
L 478.222 77.845045 
L 478.9268 75.717947 
L 479.6316 74.072038 
L 480.3364 72.904132 
L 481.0412 72.187201 
L 481.746 71.872329 
L 482.4508 71.89277 
L 483.1556 72.169909 
L 484.5652 73.165339 
L 486.6796 74.77065 
L 488.0892 75.572777 
L 492.318 77.592579 
L 493.0228 77.705234 
L 493.7276 77.5601 
L 494.4324 77.057289 
L 495.1372 76.116947 
L 495.842 74.701191 
L 496.5468 72.834086 
L 499.366 64.030669 
L 500.0708 62.87936 
L 500.7756 62.811805 
L 501.4804 64.120334 
L 502.1852 67.016028 
L 502.89 71.600364 
L 503.5948 77.848952 
L 504.2996 85.610002 
L 505.7092 104.520672 
L 508.5284 145.134766 
L 509.938 161.611805 
L 511.3476 174.162795 
L 512.7572 183.386484 
L 514.1668 190.450208 
L 515.5764 196.380529 
L 517.6908 204.148345 
L 519.1004 208.591899 
L 520.51 212.399163 
L 524.034 221.063549 
L 525.4436 225.422064 
L 526.8532 230.705142 
L 528.9676 239.876499 
L 531.082 248.827619 
L 532.4916 253.522428 
L 533.1964 255.26399 
L 533.9012 256.531187 
L 534.606 257.290372 
L 535.3108 257.523626 
L 536.0156 257.228098 
L 536.7204 256.414736 
L 537.4252 255.106586 
L 538.13 253.336852 
L 538.8348 251.146846 
L 540.2444 245.699932 
L 541.654 239.186138 
L 547.9972 207.954113 
L 549.4068 202.742577 
L 550.8164 198.788309 
L 551.5212 197.3534 
L 552.226 196.312842 
L 552.9308 195.687691 
L 553.6356 195.495529 
L 554.3404 195.749776 
L 555.0452 196.458877 
L 555.0452 196.458877 
" clip-path="url(#p441ad184c8)" style="fill: none; stroke: #1f77b4; stroke-width: 1.5; stroke-linecap: square"/>
   </g>
   <g id="patch_3">
    <path d="M 62.39 270.36 
L 62.39 50.64 
" style="fill: none; stroke: #000000; stroke-width: 0.8; stroke-linejoin: miter; stroke-linecap: square"/>
   </g>
   <g id="patch_4">
    <path d="M 555.75 270.36 
L 555.75 50.64 
" style="fill: none; stroke: #000000; stroke-width: 0.8; stroke-linejoin: miter; stroke-linecap: square"/>
   </g>
   <g id="patch_5">
    <path d="M 62.39 270.36 
L 555.75 270.36 
" style="fill: none; stroke: #000000; stroke-width: 0.8; stroke-linejoin: miter; stroke-linecap: square"/>
   </g>
   <g id="patch_6">
    <path d="M 62.39 50.64 
L 555.75 50.64 
" style="fill: none; stroke: #000000; stroke-width: 0.8; stroke-linejoin: miter; stroke-linecap: square"/>
   </g>
   <g id="text_15">
    <!-- True sequence -->
    <g transform="translate(265.508125 44.64) scale(0.12 -0.12)">
     <defs>
      <path id="DejaVuSans-54" d="M -19 4666 
L 3928 4666 
L 3928 4134 
L 2272 4134 
L 2272 0 
L 1638 0 
L 1638 4134 
L -19 4134 
L -19 4666 
z
" transform="scale(0.015625)"/>
      <path id="DejaVuSans-72" d="M 2631 2963 
Q 2534 3019 2420 3045 
Q 2306 3072 2169 3072 
Q 1681 3072 1420 2755 
Q 1159 2438 1159 1844 
L 1159 0 
L 581 0 
L 581 3500 
L 1159 3500 
L 1159 2956 
Q 1341 3275 1631 3429 
Q 1922 3584 2338 3584 
Q 2397 3584 2469 3576 
Q 2541 3569 2628 3553 
L 2631 2963 
z
" transform="scale(0.015625)"/>
      <path id="DejaVuSans-75" d="M 544 1381 
L 544 3500 
L 1119 3500 
L 1119 1403 
Q 1119 906 1312 657 
Q 1506 409 1894 409 
Q 2359 409 2629 706 
Q 2900 1003 2900 1516 
L 2900 3500 
L 3475 3500 
L 3475 0 
L 2900 0 
L 2900 538 
Q 2691 219 2414 64 
Q 2138 -91 1772 -91 
Q 1169 -91 856 284 
Q 544 659 544 1381 
z
M 1991 3584 
L 1991 3584 
z
" transform="scale(0.015625)"/>
      <path id="DejaVuSans-65" d="M 3597 1894 
L 3597 1613 
L 953 1613 
Q 991 1019 1311 708 
Q 1631 397 2203 397 
Q 2534 397 2845 478 
Q 3156 559 3463 722 
L 3463 178 
Q 3153 47 2828 -22 
Q 2503 -91 2169 -91 
Q 1331 -91 842 396 
Q 353 884 353 1716 
Q 353 2575 817 3079 
Q 1281 3584 2069 3584 
Q 2775 3584 3186 3129 
Q 3597 2675 3597 1894 
z
M 3022 2063 
Q 3016 2534 2758 2815 
Q 2500 3097 2075 3097 
Q 1594 3097 1305 2825 
Q 1016 2553 972 2059 
L 3022 2063 
z
" transform="scale(0.015625)"/>
      <path id="DejaVuSans-20" transform="scale(0.015625)"/>
      <path id="DejaVuSans-73" d="M 2834 3397 
L 2834 2853 
Q 2591 2978 2328 3040 
Q 2066 3103 1784 3103 
Q 1356 3103 1142 2972 
Q 928 2841 928 2578 
Q 928 2378 1081 2264 
Q 1234 2150 1697 2047 
L 1894 2003 
Q 2506 1872 2764 1633 
Q 3022 1394 3022 966 
Q 3022 478 2636 193 
Q 2250 -91 1575 -91 
Q 1294 -91 989 -36 
Q 684 19 347 128 
L 347 722 
Q 666 556 975 473 
Q 1284 391 1588 391 
Q 1994 391 2212 530 
Q 2431 669 2431 922 
Q 2431 1156 2273 1281 
Q 2116 1406 1581 1522 
L 1381 1569 
Q 847 1681 609 1914 
Q 372 2147 372 2553 
Q 372 3047 722 3315 
Q 1072 3584 1716 3584 
Q 2034 3584 2315 3537 
Q 2597 3491 2834 3397 
z
" transform="scale(0.015625)"/>
      <path id="DejaVuSans-71" d="M 947 1747 
Q 947 1113 1208 752 
Q 1469 391 1925 391 
Q 2381 391 2643 752 
Q 2906 1113 2906 1747 
Q 2906 2381 2643 2742 
Q 2381 3103 1925 3103 
Q 1469 3103 1208 2742 
Q 947 2381 947 1747 
z
M 2906 525 
Q 2725 213 2448 61 
Q 2172 -91 1784 -91 
Q 1150 -91 751 415 
Q 353 922 353 1747 
Q 353 2572 751 3078 
Q 1150 3584 1784 3584 
Q 2172 3584 2448 3432 
Q 2725 3281 2906 2969 
L 2906 3500 
L 3481 3500 
L 3481 -1331 
L 2906 -1331 
L 2906 525 
z
" transform="scale(0.015625)"/>
      <path id="DejaVuSans-6e" d="M 3513 2113 
L 3513 0 
L 2938 0 
L 2938 2094 
Q 2938 2591 2744 2837 
Q 2550 3084 2163 3084 
Q 1697 3084 1428 2787 
Q 1159 2491 1159 1978 
L 1159 0 
L 581 0 
L 581 3500 
L 1159 3500 
L 1159 2956 
Q 1366 3272 1645 3428 
Q 1925 3584 2291 3584 
Q 2894 3584 3203 3211 
Q 3513 2838 3513 2113 
z
" transform="scale(0.015625)"/>
      <path id="DejaVuSans-63" d="M 3122 3366 
L 3122 2828 
Q 2878 2963 2633 3030 
Q 2388 3097 2138 3097 
Q 1578 3097 1268 2742 
Q 959 2388 959 1747 
Q 959 1106 1268 751 
Q 1578 397 2138 397 
Q 2388 397 2633 464 
Q 2878 531 3122 666 
L 3122 134 
Q 2881 22 2623 -34 
Q 2366 -91 2075 -91 
Q 1284 -91 818 406 
Q 353 903 353 1747 
Q 353 2603 823 3093 
Q 1294 3584 2113 3584 
Q 2378 3584 2631 3529 
Q 2884 3475 3122 3366 
z
" transform="scale(0.015625)"/>
     </defs>
     <use xlink:href="#DejaVuSans-54"/>
     <use xlink:href="#DejaVuSans-72" x="46.333984"/>
     <use xlink:href="#DejaVuSans-75" x="87.447266"/>
     <use xlink:href="#DejaVuSans-65" x="150.826172"/>
     <use xlink:href="#DejaVuSans-20" x="212.349609"/>
     <use xlink:href="#DejaVuSans-73" x="244.136719"/>
     <use xlink:href="#DejaVuSans-65" x="296.236328"/>
     <use xlink:href="#DejaVuSans-71" x="357.759766"/>
     <use xlink:href="#DejaVuSans-75" x="421.236328"/>
     <use xlink:href="#DejaVuSans-65" x="484.615234"/>
     <use xlink:href="#DejaVuSans-6e" x="546.138672"/>
     <use xlink:href="#DejaVuSans-63" x="609.517578"/>
     <use xlink:href="#DejaVuSans-65" x="664.498047"/>
    </g>
   </g>
  </g>
  <g id="axes_2">
   <g id="patch_7">
    <path d="M 62.39 534.04 
L 555.75 534.04 
L 555.75 314.32 
L 62.39 314.32 
z
" style="fill: #ffffff"/>
   </g>
   <g id="matplotlib.axis_3">
    <g id="xtick_9">
     <g id="line2d_15">
      <g>
       <use xlink:href="#m5199d9ddf7" x="62.39" y="534.04" style="stroke: #000000; stroke-width: 0.8"/>
      </g>
     </g>
     <g id="text_16">
      <!-- 0 -->
      <g transform="translate(59.20875 548.638438) scale(0.1 -0.1)">
       <use xlink:href="#DejaVuSans-30"/>
      </g>
     </g>
    </g>
    <g id="xtick_10">
     <g id="line2d_16">
      <g>
       <use xlink:href="#m5199d9ddf7" x="132.87" y="534.04" style="stroke: #000000; stroke-width: 0.8"/>
      </g>
     </g>
     <g id="text_17">
      <!-- 100 -->
      <g transform="translate(123.32625 548.638438) scale(0.1 -0.1)">
       <use xlink:href="#DejaVuSans-31"/>
       <use xlink:href="#DejaVuSans-30" x="63.623047"/>
       <use xlink:href="#DejaVuSans-30" x="127.246094"/>
      </g>
     </g>
    </g>
    <g id="xtick_11">
     <g id="line2d_17">
      <g>
       <use xlink:href="#m5199d9ddf7" x="203.35" y="534.04" style="stroke: #000000; stroke-width: 0.8"/>
      </g>
     </g>
     <g id="text_18">
      <!-- 200 -->
      <g transform="translate(193.80625 548.638438) scale(0.1 -0.1)">
       <use xlink:href="#DejaVuSans-32"/>
       <use xlink:href="#DejaVuSans-30" x="63.623047"/>
       <use xlink:href="#DejaVuSans-30" x="127.246094"/>
      </g>
     </g>
    </g>
    <g id="xtick_12">
     <g id="line2d_18">
      <g>
       <use xlink:href="#m5199d9ddf7" x="273.83" y="534.04" style="stroke: #000000; stroke-width: 0.8"/>
      </g>
     </g>
     <g id="text_19">
      <!-- 300 -->
      <g transform="translate(264.28625 548.638438) scale(0.1 -0.1)">
       <use xlink:href="#DejaVuSans-33"/>
       <use xlink:href="#DejaVuSans-30" x="63.623047"/>
       <use xlink:href="#DejaVuSans-30" x="127.246094"/>
      </g>
     </g>
    </g>
    <g id="xtick_13">
     <g id="line2d_19">
      <g>
       <use xlink:href="#m5199d9ddf7" x="344.31" y="534.04" style="stroke: #000000; stroke-width: 0.8"/>
      </g>
     </g>
     <g id="text_20">
      <!-- 400 -->
      <g transform="translate(334.76625 548.638438) scale(0.1 -0.1)">
       <use xlink:href="#DejaVuSans-34"/>
       <use xlink:href="#DejaVuSans-30" x="63.623047"/>
       <use xlink:href="#DejaVuSans-30" x="127.246094"/>
      </g>
     </g>
    </g>
    <g id="xtick_14">
     <g id="line2d_20">
      <g>
       <use xlink:href="#m5199d9ddf7" x="414.79" y="534.04" style="stroke: #000000; stroke-width: 0.8"/>
      </g>
     </g>
     <g id="text_21">
      <!-- 500 -->
      <g transform="translate(405.24625 548.638438) scale(0.1 -0.1)">
       <use xlink:href="#DejaVuSans-35"/>
       <use xlink:href="#DejaVuSans-30" x="63.623047"/>
       <use xlink:href="#DejaVuSans-30" x="127.246094"/>
      </g>
     </g>
    </g>
    <g id="xtick_15">
     <g id="line2d_21">
      <g>
       <use xlink:href="#m5199d9ddf7" x="485.27" y="534.04" style="stroke: #000000; stroke-width: 0.8"/>
      </g>
     </g>
     <g id="text_22">
      <!-- 600 -->
      <g transform="translate(475.72625 548.638438) scale(0.1 -0.1)">
       <use xlink:href="#DejaVuSans-36"/>
       <use xlink:href="#DejaVuSans-30" x="63.623047"/>
       <use xlink:href="#DejaVuSans-30" x="127.246094"/>
      </g>
     </g>
    </g>
    <g id="xtick_16">
     <g id="line2d_22">
      <g>
       <use xlink:href="#m5199d9ddf7" x="555.75" y="534.04" style="stroke: #000000; stroke-width: 0.8"/>
      </g>
     </g>
     <g id="text_23">
      <!-- 700 -->
      <g transform="translate(546.20625 548.638438) scale(0.1 -0.1)">
       <use xlink:href="#DejaVuSans-37"/>
       <use xlink:href="#DejaVuSans-30" x="63.623047"/>
       <use xlink:href="#DejaVuSans-30" x="127.246094"/>
      </g>
     </g>
    </g>
    <g id="text_24">
     <!-- k -->
     <g transform="translate(306.174688 562.316563) scale(0.1 -0.1)">
      <defs>
       <path id="DejaVuSans-6b" d="M 581 4863 
L 1159 4863 
L 1159 1991 
L 2875 3500 
L 3609 3500 
L 1753 1863 
L 3688 0 
L 2938 0 
L 1159 1709 
L 1159 0 
L 581 0 
L 581 4863 
z
" transform="scale(0.015625)"/>
      </defs>
      <use xlink:href="#DejaVuSans-6b"/>
     </g>
    </g>
   </g>
   <g id="matplotlib.axis_4">
    <g id="ytick_6">
     <g id="line2d_23">
      <g>
       <use xlink:href="#m151c303cfd" x="62.39" y="524.060613" style="stroke: #000000; stroke-width: 0.8"/>
      </g>
     </g>
     <g id="text_25">
      <!-- −1.00 -->
      <g transform="translate(24.744688 527.859832) scale(0.1 -0.1)">
       <defs>
        <path id="DejaVuSans-2e" d="M 684 794 
L 1344 794 
L 1344 0 
L 684 0 
L 684 794 
z
" transform="scale(0.015625)"/>
       </defs>
       <use xlink:href="#DejaVuSans-2212"/>
       <use xlink:href="#DejaVuSans-31" x="83.789062"/>
       <use xlink:href="#DejaVuSans-2e" x="147.412109"/>
       <use xlink:href="#DejaVuSans-30" x="179.199219"/>
       <use xlink:href="#DejaVuSans-30" x="242.822266"/>
      </g>
     </g>
    </g>
    <g id="ytick_7">
     <g id="line2d_24">
      <g>
       <use xlink:href="#m151c303cfd" x="62.39" y="499.09046" style="stroke: #000000; stroke-width: 0.8"/>
      </g>
     </g>
     <g id="text_26">
      <!-- −0.75 -->
      <g transform="translate(24.744688 502.889679) scale(0.1 -0.1)">
       <use xlink:href="#DejaVuSans-2212"/>
       <use xlink:href="#DejaVuSans-30" x="83.789062"/>
       <use xlink:href="#DejaVuSans-2e" x="147.412109"/>
       <use xlink:href="#DejaVuSans-37" x="179.199219"/>
       <use xlink:href="#DejaVuSans-35" x="242.822266"/>
      </g>
     </g>
    </g>
    <g id="ytick_8">
     <g id="line2d_25">
      <g>
       <use xlink:href="#m151c303cfd" x="62.39" y="474.120307" style="stroke: #000000; stroke-width: 0.8"/>
      </g>
     </g>
     <g id="text_27">
      <!-- −0.50 -->
      <g transform="translate(24.744688 477.919525) scale(0.1 -0.1)">
       <use xlink:href="#DejaVuSans-2212"/>
       <use xlink:href="#DejaVuSans-30" x="83.789062"/>
       <use xlink:href="#DejaVuSans-2e" x="147.412109"/>
       <use xlink:href="#DejaVuSans-35" x="179.199219"/>
       <use xlink:href="#DejaVuSans-30" x="242.822266"/>
      </g>
     </g>
    </g>
    <g id="ytick_9">
     <g id="line2d_26">
      <g>
       <use xlink:href="#m151c303cfd" x="62.39" y="449.150153" style="stroke: #000000; stroke-width: 0.8"/>
      </g>
     </g>
     <g id="text_28">
      <!-- −0.25 -->
      <g transform="translate(24.744688 452.949372) scale(0.1 -0.1)">
       <use xlink:href="#DejaVuSans-2212"/>
       <use xlink:href="#DejaVuSans-30" x="83.789062"/>
       <use xlink:href="#DejaVuSans-2e" x="147.412109"/>
       <use xlink:href="#DejaVuSans-32" x="179.199219"/>
       <use xlink:href="#DejaVuSans-35" x="242.822266"/>
      </g>
     </g>
    </g>
    <g id="ytick_10">
     <g id="line2d_27">
      <g>
       <use xlink:href="#m151c303cfd" x="62.39" y="424.18" style="stroke: #000000; stroke-width: 0.8"/>
      </g>
     </g>
     <g id="text_29">
      <!-- 0.00 -->
      <g transform="translate(33.124375 427.979219) scale(0.1 -0.1)">
       <use xlink:href="#DejaVuSans-30"/>
       <use xlink:href="#DejaVuSans-2e" x="63.623047"/>
       <use xlink:href="#DejaVuSans-30" x="95.410156"/>
       <use xlink:href="#DejaVuSans-30" x="159.033203"/>
      </g>
     </g>
    </g>
    <g id="ytick_11">
     <g id="line2d_28">
      <g>
       <use xlink:href="#m151c303cfd" x="62.39" y="399.209847" style="stroke: #000000; stroke-width: 0.8"/>
      </g>
     </g>
     <g id="text_30">
      <!-- 0.25 -->
      <g transform="translate(33.124375 403.009065) scale(0.1 -0.1)">
       <use xlink:href="#DejaVuSans-30"/>
       <use xlink:href="#DejaVuSans-2e" x="63.623047"/>
       <use xlink:href="#DejaVuSans-32" x="95.410156"/>
       <use xlink:href="#DejaVuSans-35" x="159.033203"/>
      </g>
     </g>
    </g>
    <g id="ytick_12">
     <g id="line2d_29">
      <g>
       <use xlink:href="#m151c303cfd" x="62.39" y="374.239693" style="stroke: #000000; stroke-width: 0.8"/>
      </g>
     </g>
     <g id="text_31">
      <!-- 0.50 -->
      <g transform="translate(33.124375 378.038912) scale(0.1 -0.1)">
       <use xlink:href="#DejaVuSans-30"/>
       <use xlink:href="#DejaVuSans-2e" x="63.623047"/>
       <use xlink:href="#DejaVuSans-35" x="95.410156"/>
       <use xlink:href="#DejaVuSans-30" x="159.033203"/>
      </g>
     </g>
    </g>
    <g id="ytick_13">
     <g id="line2d_30">
      <g>
       <use xlink:href="#m151c303cfd" x="62.39" y="349.26954" style="stroke: #000000; stroke-width: 0.8"/>
      </g>
     </g>
     <g id="text_32">
      <!-- 0.75 -->
      <g transform="translate(33.124375 353.068759) scale(0.1 -0.1)">
       <use xlink:href="#DejaVuSans-30"/>
       <use xlink:href="#DejaVuSans-2e" x="63.623047"/>
       <use xlink:href="#DejaVuSans-37" x="95.410156"/>
       <use xlink:href="#DejaVuSans-35" x="159.033203"/>
      </g>
     </g>
    </g>
    <g id="ytick_14">
     <g id="line2d_31">
      <g>
       <use xlink:href="#m151c303cfd" x="62.39" y="324.299387" style="stroke: #000000; stroke-width: 0.8"/>
      </g>
     </g>
     <g id="text_33">
      <!-- 1.00 -->
      <g transform="translate(33.124375 328.098605) scale(0.1 -0.1)">
       <use xlink:href="#DejaVuSans-31"/>
       <use xlink:href="#DejaVuSans-2e" x="63.623047"/>
       <use xlink:href="#DejaVuSans-30" x="95.410156"/>
       <use xlink:href="#DejaVuSans-30" x="159.033203"/>
      </g>
     </g>
    </g>
    <g id="text_34">
     <!-- u -->
     <g transform="translate(18.665 427.34875) rotate(-90) scale(0.1 -0.1)">
      <use xlink:href="#DejaVuSans-75"/>
     </g>
    </g>
   </g>
   <g id="line2d_32">
    <path d="M 62.39 424.18 
L 70.1428 396.917393 
L 74.3716 382.791913 
L 77.8956 371.725236 
L 80.7148 363.459549 
L 83.534 355.807015 
L 86.3532 348.844909 
L 88.4676 344.118998 
L 90.582 339.848009 
L 92.6964 336.056211 
L 94.8108 332.76515 
L 96.9252 329.993527 
L 98.3348 328.442256 
L 99.7444 327.132826 
L 101.154 326.068547 
L 102.5636 325.252105 
L 103.9732 324.685564 
L 105.3828 324.370354 
L 106.7924 324.307273 
L 108.202 324.496478 
L 109.6116 324.937493 
L 111.0212 325.629203 
L 112.4308 326.56986 
L 113.8404 327.75709 
L 115.25 329.187892 
L 116.6596 330.858652 
L 118.774 333.805319 
L 120.8884 337.265513 
L 123.0028 341.219572 
L 125.1172 345.645029 
L 127.2316 350.516737 
L 130.0508 357.658326 
L 132.87 365.471648 
L 135.6892 373.877806 
L 139.2132 385.089358 
L 143.442 399.340702 
L 149.7852 421.669991 
L 158.2428 451.442607 
L 162.4716 465.568087 
L 165.9956 476.634764 
L 168.8148 484.900451 
L 171.634 492.552985 
L 174.4532 499.515091 
L 176.5676 504.241002 
L 178.682 508.511991 
L 180.7964 512.303789 
L 182.9108 515.59485 
L 185.0252 518.366473 
L 186.4348 519.917744 
L 187.8444 521.227174 
L 189.254 522.291453 
L 190.6636 523.107895 
L 192.0732 523.674436 
L 193.4828 523.989646 
L 194.8924 524.052727 
L 196.302 523.863522 
L 197.7116 523.422507 
L 199.1212 522.730797 
L 200.5308 521.79014 
L 201.9404 520.60291 
L 203.35 519.172108 
L 204.7596 517.501348 
L 206.874 514.554681 
L 208.9884 511.094487 
L 211.1028 507.140428 
L 213.2172 502.714971 
L 215.3316 497.843263 
L 218.1508 490.701674 
L 220.97 482.888352 
L 223.7892 474.482194 
L 227.3132 463.270642 
L 231.542 449.019298 
L 237.8852 426.690009 
L 246.3428 396.917393 
L 250.5716 382.791913 
L 254.0956 371.725236 
L 256.9148 363.459549 
L 259.734 355.807015 
L 262.5532 348.844909 
L 264.6676 344.118998 
L 266.782 339.848009 
L 268.8964 336.056211 
L 271.0108 332.76515 
L 273.1252 329.993527 
L 274.5348 328.442256 
L 275.9444 327.132826 
L 277.354 326.068547 
L 278.7636 325.252105 
L 280.1732 324.685564 
L 281.5828 324.370354 
L 282.9924 324.307273 
L 284.402 324.496478 
L 285.8116 324.937493 
L 287.2212 325.629203 
L 288.6308 326.56986 
L 290.0404 327.75709 
L 291.45 329.187892 
L 292.8596 330.858652 
L 294.974 333.805319 
L 297.0884 337.265513 
L 299.2028 341.219572 
L 301.3172 345.645029 
L 303.4316 350.516737 
L 306.2508 357.658326 
L 309.07 365.471648 
L 311.8892 373.877806 
L 315.4132 385.089358 
L 319.642 399.340702 
L 325.9852 421.669991 
L 334.4428 451.442607 
L 338.6716 465.568087 
L 342.1956 476.634764 
L 345.0148 484.900451 
L 347.834 492.552985 
L 350.6532 499.515091 
L 352.7676 504.241002 
L 354.882 508.511991 
L 356.9964 512.303789 
L 359.1108 515.59485 
L 361.2252 518.366473 
L 362.6348 519.917744 
L 364.0444 521.227174 
L 365.454 522.291453 
L 366.8636 523.107895 
L 368.2732 523.674436 
L 369.6828 523.989646 
L 371.0924 524.052727 
L 372.502 523.863522 
L 373.9116 523.422507 
L 375.3212 522.730797 
L 376.7308 521.79014 
L 378.1404 520.60291 
L 379.55 519.172108 
L 380.9596 517.501348 
L 383.074 514.554681 
L 385.1884 511.094487 
L 387.3028 507.140428 
L 389.4172 502.714971 
L 391.5316 497.843263 
L 394.3508 490.701674 
L 397.17 482.888352 
L 399.9892 474.482194 
L 403.5132 463.270642 
L 407.742 449.019298 
L 414.0852 426.690009 
L 422.5428 396.917393 
L 426.7716 382.791913 
L 430.2956 371.725236 
L 433.1148 363.459549 
L 435.934 355.807015 
L 438.7532 348.844909 
L 440.8676 344.118998 
L 442.982 339.848009 
L 445.0964 336.056211 
L 447.2108 332.76515 
L 449.3252 329.993527 
L 450.7348 328.442256 
L 452.1444 327.132826 
L 453.554 326.068547 
L 454.9636 325.252105 
L 456.3732 324.685564 
L 457.7828 324.370354 
L 459.1924 324.307273 
L 460.602 324.496478 
L 462.0116 324.937493 
L 463.4212 325.629203 
L 464.8308 326.56986 
L 466.2404 327.75709 
L 467.65 329.187892 
L 469.0596 330.858652 
L 471.174 333.805319 
L 473.2884 337.265513 
L 475.4028 341.219572 
L 477.5172 345.645029 
L 479.6316 350.516737 
L 482.4508 357.658326 
L 485.27 365.471648 
L 488.0892 373.877806 
L 491.6132 385.089358 
L 495.842 399.340702 
L 502.1852 421.669991 
L 510.6428 451.442607 
L 514.8716 465.568087 
L 518.3956 476.634764 
L 521.2148 484.900451 
L 524.034 492.552985 
L 526.8532 499.515091 
L 528.9676 504.241002 
L 531.082 508.511991 
L 533.1964 512.303789 
L 535.3108 515.59485 
L 537.4252 518.366473 
L 538.8348 519.917744 
L 540.2444 521.227174 
L 541.654 522.291453 
L 543.0636 523.107895 
L 544.4732 523.674436 
L 545.8828 523.989646 
L 547.2924 524.052727 
L 548.702 523.863522 
L 550.1116 523.422507 
L 551.5212 522.730797 
L 552.9308 521.79014 
L 554.3404 520.60291 
L 555.0452 519.917744 
L 555.0452 519.917744 
" clip-path="url(#p403ea4d1aa)" style="fill: none; stroke: #1f77b4; stroke-width: 1.5; stroke-linecap: square"/>
   </g>
   <g id="patch_8">
    <path d="M 62.39 534.04 
L 62.39 314.32 
" style="fill: none; stroke: #000000; stroke-width: 0.8; stroke-linejoin: miter; stroke-linecap: square"/>
   </g>
   <g id="patch_9">
    <path d="M 555.75 534.04 
L 555.75 314.32 
" style="fill: none; stroke: #000000; stroke-width: 0.8; stroke-linejoin: miter; stroke-linecap: square"/>
   </g>
   <g id="patch_10">
    <path d="M 62.39 534.04 
L 555.75 534.04 
" style="fill: none; stroke: #000000; stroke-width: 0.8; stroke-linejoin: miter; stroke-linecap: square"/>
   </g>
   <g id="patch_11">
    <path d="M 62.39 314.32 
L 555.75 314.32 
" style="fill: none; stroke: #000000; stroke-width: 0.8; stroke-linejoin: miter; stroke-linecap: square"/>
   </g>
   <g id="text_35">
    <!-- Input sequence -->
    <g transform="translate(262.7125 308.32) scale(0.12 -0.12)">
     <defs>
      <path id="DejaVuSans-49" d="M 628 4666 
L 1259 4666 
L 1259 0 
L 628 0 
L 628 4666 
z
" transform="scale(0.015625)"/>
      <path id="DejaVuSans-74" d="M 1172 4494 
L 1172 3500 
L 2356 3500 
L 2356 3053 
L 1172 3053 
L 1172 1153 
Q 1172 725 1289 603 
Q 1406 481 1766 481 
L 2356 481 
L 2356 0 
L 1766 0 
Q 1100 0 847 248 
Q 594 497 594 1153 
L 594 3053 
L 172 3053 
L 172 3500 
L 594 3500 
L 594 4494 
L 1172 4494 
z
" transform="scale(0.015625)"/>
     </defs>
     <use xlink:href="#DejaVuSans-49"/>
     <use xlink:href="#DejaVuSans-6e" x="29.492188"/>
     <use xlink:href="#DejaVuSans-70" x="92.871094"/>
     <use xlink:href="#DejaVuSans-75" x="156.347656"/>
     <use xlink:href="#DejaVuSans-74" x="219.726562"/>
     <use xlink:href="#DejaVuSans-20" x="258.935547"/>
     <use xlink:href="#DejaVuSans-73" x="290.722656"/>
     <use xlink:href="#DejaVuSans-65" x="342.822266"/>
     <use xlink:href="#DejaVuSans-71" x="404.345703"/>
     <use xlink:href="#DejaVuSans-75" x="467.822266"/>
     <use xlink:href="#DejaVuSans-65" x="531.201172"/>
     <use xlink:href="#DejaVuSans-6e" x="592.724609"/>
     <use xlink:href="#DejaVuSans-63" x="656.103516"/>
     <use xlink:href="#DejaVuSans-65" x="711.083984"/>
    </g>
   </g>
  </g>
  <g id="text_36">
   <!-- Plant Difference Equation -->
   <g transform="translate(211.4775 20.638125) scale(0.12 -0.12)">
    <defs>
     <path id="DejaVuSans-50" d="M 1259 4147 
L 1259 2394 
L 2053 2394 
Q 2494 2394 2734 2622 
Q 2975 2850 2975 3272 
Q 2975 3691 2734 3919 
Q 2494 4147 2053 4147 
L 1259 4147 
z
M 628 4666 
L 2053 4666 
Q 2838 4666 3239 4311 
Q 3641 3956 3641 3272 
Q 3641 2581 3239 2228 
Q 2838 1875 2053 1875 
L 1259 1875 
L 1259 0 
L 628 0 
L 628 4666 
z
" transform="scale(0.015625)"/>
     <path id="DejaVuSans-6c" d="M 603 4863 
L 1178 4863 
L 1178 0 
L 603 0 
L 603 4863 
z
" transform="scale(0.015625)"/>
     <path id="DejaVuSans-61" d="M 2194 1759 
Q 1497 1759 1228 1600 
Q 959 1441 959 1056 
Q 959 750 1161 570 
Q 1363 391 1709 391 
Q 2188 391 2477 730 
Q 2766 1069 2766 1631 
L 2766 1759 
L 2194 1759 
z
M 3341 1997 
L 3341 0 
L 2766 0 
L 2766 531 
Q 2569 213 2275 61 
Q 1981 -91 1556 -91 
Q 1019 -91 701 211 
Q 384 513 384 1019 
Q 384 1609 779 1909 
Q 1175 2209 1959 2209 
L 2766 2209 
L 2766 2266 
Q 2766 2663 2505 2880 
Q 2244 3097 1772 3097 
Q 1472 3097 1187 3025 
Q 903 2953 641 2809 
L 641 3341 
Q 956 3463 1253 3523 
Q 1550 3584 1831 3584 
Q 2591 3584 2966 3190 
Q 3341 2797 3341 1997 
z
" transform="scale(0.015625)"/>
     <path id="DejaVuSans-44" d="M 1259 4147 
L 1259 519 
L 2022 519 
Q 2988 519 3436 956 
Q 3884 1394 3884 2338 
Q 3884 3275 3436 3711 
Q 2988 4147 2022 4147 
L 1259 4147 
z
M 628 4666 
L 1925 4666 
Q 3281 4666 3915 4102 
Q 4550 3538 4550 2338 
Q 4550 1131 3912 565 
Q 3275 0 1925 0 
L 628 0 
L 628 4666 
z
" transform="scale(0.015625)"/>
     <path id="DejaVuSans-69" d="M 603 3500 
L 1178 3500 
L 1178 0 
L 603 0 
L 603 3500 
z
M 603 4863 
L 1178 4863 
L 1178 4134 
L 603 4134 
L 603 4863 
z
" transform="scale(0.015625)"/>
     <path id="DejaVuSans-66" d="M 2375 4863 
L 2375 4384 
L 1825 4384 
Q 1516 4384 1395 4259 
Q 1275 4134 1275 3809 
L 1275 3500 
L 2222 3500 
L 2222 3053 
L 1275 3053 
L 1275 0 
L 697 0 
L 697 3053 
L 147 3053 
L 147 3500 
L 697 3500 
L 697 3744 
Q 697 4328 969 4595 
Q 1241 4863 1831 4863 
L 2375 4863 
z
" transform="scale(0.015625)"/>
     <path id="DejaVuSans-45" d="M 628 4666 
L 3578 4666 
L 3578 4134 
L 1259 4134 
L 1259 2753 
L 3481 2753 
L 3481 2222 
L 1259 2222 
L 1259 531 
L 3634 531 
L 3634 0 
L 628 0 
L 628 4666 
z
" transform="scale(0.015625)"/>
     <path id="DejaVuSans-6f" d="M 1959 3097 
Q 1497 3097 1228 2736 
Q 959 2375 959 1747 
Q 959 1119 1226 758 
Q 1494 397 1959 397 
Q 2419 397 2687 759 
Q 2956 1122 2956 1747 
Q 2956 2369 2687 2733 
Q 2419 3097 1959 3097 
z
M 1959 3584 
Q 2709 3584 3137 3096 
Q 3566 2609 3566 1747 
Q 3566 888 3137 398 
Q 2709 -91 1959 -91 
Q 1206 -91 779 398 
Q 353 888 353 1747 
Q 353 2609 779 3096 
Q 1206 3584 1959 3584 
z
" transform="scale(0.015625)"/>
    </defs>
    <use xlink:href="#DejaVuSans-50"/>
    <use xlink:href="#DejaVuSans-6c" x="60.302734"/>
    <use xlink:href="#DejaVuSans-61" x="88.085938"/>
    <use xlink:href="#DejaVuSans-6e" x="149.365234"/>
    <use xlink:href="#DejaVuSans-74" x="212.744141"/>
    <use xlink:href="#DejaVuSans-20" x="251.953125"/>
    <use xlink:href="#DejaVuSans-44" x="283.740234"/>
    <use xlink:href="#DejaVuSans-69" x="360.742188"/>
    <use xlink:href="#DejaVuSans-66" x="388.525391"/>
    <use xlink:href="#DejaVuSans-66" x="423.730469"/>
    <use xlink:href="#DejaVuSans-65" x="458.935547"/>
    <use xlink:href="#DejaVuSans-72" x="520.458984"/>
    <use xlink:href="#DejaVuSans-65" x="559.322266"/>
    <use xlink:href="#DejaVuSans-6e" x="620.845703"/>
    <use xlink:href="#DejaVuSans-63" x="684.224609"/>
    <use xlink:href="#DejaVuSans-65" x="739.205078"/>
    <use xlink:href="#DejaVuSans-20" x="800.728516"/>
    <use xlink:href="#DejaVuSans-45" x="832.515625"/>
    <use xlink:href="#DejaVuSans-71" x="895.699219"/>
    <use xlink:href="#DejaVuSans-75" x="959.175781"/>
    <use xlink:href="#DejaVuSans-61" x="1022.554688"/>
    <use xlink:href="#DejaVuSans-74" x="1083.833984"/>
    <use xlink:href="#DejaVuSans-69" x="1123.042969"/>
    <use xlink:href="#DejaVuSans-6f" x="1150.826172"/>
    <use xlink:href="#DejaVuSans-6e" x="1212.007812"/>
   </g>
  </g>
 </g>
 <defs>
  <clipPath id="p441ad184c8">
   <rect x="62.39" y="50.64" width="493.36" height="219.72"/>
  </clipPath>
  <clipPath id="p403ea4d1aa">
   <rect x="62.39" y="314.32" width="493.36" height="219.72"/>
  </clipPath>
 </defs>
</svg>
